<svg xmlns="http://www.w3.org/2000/svg" viewBox="0 -0.5 1170 1170" shape-rendering="crispEdges">
<metadata>Made with Pixels to Svg https://codepen.io/shshaw/pen/XbxvNj</metadata>
<path stroke="#000000" d="M486 144h198M486 145h198M486 146h198M486 147h198M486 148h198M486 149h198M486 150h198M486 151h198M486 152h198M486 153h198M486 154h198M486 155h198M486 156h198M486 157h198M486 158h198M486 159h198M486 160h198M486 161h198M468 162h36M666 162h36M468 163h36M666 163h36M468 164h36M666 164h36M468 165h36M666 165h36M468 166h36M666 166h36M468 167h36M666 167h36M468 168h36M666 168h36M468 169h36M666 169h36M468 170h36M666 170h36M468 171h36M666 171h36M468 172h36M666 172h36M468 173h36M666 173h36M468 174h36M666 174h36M468 175h36M666 175h36M468 176h36M666 176h36M468 177h36M666 177h36M468 178h36M666 178h36M468 179h36M666 179h36M450 180h18M702 180h18M450 181h18M702 181h18M450 182h18M702 182h18M450 183h18M702 183h18M450 184h18M702 184h18M450 185h18M702 185h18M450 186h18M702 186h18M450 187h18M702 187h18M450 188h18M702 188h18M450 189h18M702 189h18M450 190h18M702 190h18M450 191h18M702 191h18M450 192h18M702 192h18M450 193h18M702 193h18M450 194h18M702 194h18M450 195h18M702 195h18M450 196h18M702 196h18M450 197h18M702 197h18M414 198h36M720 198h36M414 199h36M720 199h36M414 200h36M720 200h36M414 201h36M720 201h36M414 202h36M720 202h36M414 203h36M720 203h36M414 204h36M720 204h36M414 205h36M720 205h36M414 206h36M720 206h36M414 207h36M720 207h36M414 208h36M720 208h36M414 209h36M720 209h36M414 210h36M720 210h36M414 211h36M720 211h36M414 212h36M720 212h36M414 213h36M720 213h36M414 214h36M720 214h36M414 215h36M720 215h36M414 216h18M738 216h18M414 217h18M738 217h18M414 218h18M738 218h18M414 219h18M738 219h18M414 220h18M738 220h18M414 221h18M738 221h18M414 222h18M738 222h18M414 223h18M738 223h18M414 224h18M738 224h18M414 225h18M738 225h18M414 226h18M738 226h18M414 227h18M738 227h18M414 228h18M738 228h18M414 229h18M738 229h18M414 230h18M738 230h18M414 231h18M738 231h18M414 232h18M738 232h18M414 233h18M738 233h18M396 234h18M756 234h18M396 235h18M756 235h18M396 236h18M756 236h18M396 237h18M756 237h18M396 238h18M756 238h18M396 239h18M756 239h18M396 240h18M756 240h18M396 241h18M756 241h18M396 242h18M756 242h18M396 243h18M756 243h18M396 244h18M756 244h18M396 245h18M756 245h18M396 246h18M756 246h18M396 247h18M756 247h18M396 248h18M756 248h18M396 249h18M756 249h18M396 250h18M756 250h18M396 251h18M756 251h18M396 252h18M756 252h18M396 253h18M756 253h18M396 254h18M756 254h18M396 255h18M756 255h18M396 256h18M756 256h18M396 257h18M756 257h18M396 258h18M756 258h18M396 259h18M756 259h18M396 260h18M756 260h18M396 261h18M756 261h18M396 262h18M756 262h18M396 263h18M756 263h18M396 264h18M756 264h18M396 265h18M756 265h18M396 266h18M756 266h18M396 267h18M756 267h18M396 268h18M756 268h18M396 269h18M756 269h18M378 270h18M774 270h18M378 271h18M774 271h18M378 272h18M774 272h18M378 273h18M774 273h18M378 274h18M774 274h18M378 275h18M774 275h18M378 276h18M774 276h18M378 277h18M774 277h18M378 278h18M774 278h18M378 279h18M774 279h18M378 280h18M774 280h18M378 281h18M774 281h18M378 282h18M774 282h18M378 283h18M774 283h18M378 284h18M774 284h18M378 285h18M774 285h18M378 286h18M774 286h18M378 287h18M774 287h18M378 288h18M774 288h18M378 289h18M774 289h18M378 290h18M774 290h18M378 291h18M774 291h18M378 292h18M774 292h18M378 293h18M774 293h18M378 294h18M774 294h18M378 295h18M774 295h18M378 296h18M774 296h18M378 297h18M774 297h18M378 298h18M774 298h18M378 299h18M774 299h18M378 300h18M774 300h18M378 301h18M774 301h18M378 302h18M774 302h18M378 303h18M774 303h18M378 304h18M774 304h18M378 305h18M774 305h18M378 306h18M774 306h18M378 307h18M774 307h18M378 308h18M774 308h18M378 309h18M774 309h18M378 310h18M774 310h18M378 311h18M774 311h18M378 312h18M774 312h18M378 313h18M774 313h18M378 314h18M774 314h18M378 315h18M774 315h18M378 316h18M774 316h18M378 317h18M774 317h18M378 318h18M774 318h18M378 319h18M774 319h18M378 320h18M774 320h18M378 321h18M774 321h18M378 322h18M774 322h18M378 323h18M774 323h18M360 324h18M792 324h18M360 325h18M792 325h18M360 326h18M792 326h18M360 327h18M792 327h18M360 328h18M792 328h18M360 329h18M792 329h18M360 330h18M792 330h18M360 331h18M792 331h18M360 332h18M792 332h18M360 333h18M792 333h18M360 334h18M792 334h18M360 335h18M792 335h18M360 336h18M792 336h18M360 337h18M792 337h18M360 338h18M792 338h18M360 339h18M792 339h18M360 340h18M792 340h18M360 341h18M792 341h18M360 342h18M792 342h18M360 343h18M792 343h18M360 344h18M792 344h18M360 345h18M792 345h18M360 346h18M792 346h18M360 347h18M792 347h18M360 348h18M792 348h18M360 349h18M792 349h18M360 350h18M792 350h18M360 351h18M792 351h18M360 352h18M792 352h18M360 353h18M792 353h18M360 354h18M792 354h18M360 355h18M792 355h18M360 356h18M792 356h18M360 357h18M792 357h18M360 358h18M792 358h18M360 359h18M792 359h18M360 360h18M792 360h18M360 361h18M792 361h18M360 362h18M792 362h18M360 363h18M792 363h18M360 364h18M792 364h18M360 365h18M792 365h18M360 366h18M792 366h18M360 367h18M792 367h18M360 368h18M792 368h18M360 369h18M792 369h18M360 370h18M792 370h18M360 371h18M792 371h18M360 372h18M792 372h18M360 373h18M792 373h18M360 374h18M792 374h18M360 375h18M792 375h18M360 376h18M792 376h18M360 377h18M792 377h18M360 378h18M792 378h18M360 379h18M792 379h18M360 380h18M792 380h18M360 381h18M792 381h18M360 382h18M792 382h18M360 383h18M792 383h18M360 384h18M792 384h18M360 385h18M792 385h18M360 386h18M792 386h18M360 387h18M792 387h18M360 388h18M792 388h18M360 389h18M792 389h18M360 390h18M792 390h18M360 391h18M792 391h18M360 392h18M792 392h18M360 393h18M792 393h18M360 394h18M792 394h18M360 395h18M792 395h18M360 396h18M792 396h18M360 397h18M792 397h18M360 398h18M792 398h18M360 399h18M792 399h18M360 400h18M792 400h18M360 401h18M792 401h18M360 402h18M792 402h18M360 403h18M792 403h18M360 404h18M792 404h18M360 405h18M792 405h18M360 406h18M792 406h18M360 407h18M792 407h18M360 408h18M792 408h18M360 409h18M792 409h18M360 410h18M792 410h18M360 411h18M792 411h18M360 412h18M792 412h18M360 413h18M792 413h18M360 414h18M792 414h18M360 415h18M792 415h18M360 416h18M792 416h18M360 417h18M792 417h18M360 418h18M792 418h18M360 419h18M792 419h18M360 420h18M792 420h18M360 421h18M792 421h18M360 422h18M792 422h18M360 423h18M792 423h18M360 424h18M792 424h18M360 425h18M792 425h18M360 426h18M792 426h18M360 427h18M792 427h18M360 428h18M792 428h18M360 429h18M792 429h18M360 430h18M792 430h18M360 431h18M792 431h18M378 432h18M774 432h18M378 433h18M774 433h18M378 434h18M774 434h18M378 435h18M774 435h18M378 436h18M774 436h18M378 437h18M774 437h18M378 438h18M774 438h18M378 439h18M774 439h18M378 440h18M774 440h18M378 441h18M774 441h18M378 442h18M774 442h18M378 443h18M774 443h18M378 444h18M774 444h18M378 445h18M774 445h18M378 446h18M774 446h18M378 447h18M774 447h18M378 448h18M774 448h18M378 449h18M774 449h18M378 450h18M774 450h18M378 451h18M774 451h18M378 452h18M774 452h18M378 453h18M774 453h18M378 454h18M774 454h18M378 455h18M774 455h18M378 456h18M774 456h18M378 457h18M774 457h18M378 458h18M774 458h18M378 459h18M774 459h18M378 460h18M774 460h18M378 461h18M774 461h18M378 462h18M774 462h18M378 463h18M774 463h18M378 464h18M774 464h18M378 465h18M774 465h18M378 466h18M774 466h18M378 467h18M774 467h18M270 468h90M378 468h54M738 468h54M810 468h90M270 469h90M378 469h54M738 469h54M810 469h90M270 470h90M378 470h54M738 470h54M810 470h90M270 471h90M378 471h54M738 471h54M810 471h90M270 472h90M378 472h54M738 472h54M810 472h90M270 473h90M378 473h54M738 473h54M810 473h90M270 474h90M378 474h54M738 474h54M810 474h90M270 475h90M378 475h54M738 475h54M810 475h90M270 476h90M378 476h54M738 476h54M810 476h90M270 477h90M378 477h54M738 477h54M810 477h90M270 478h90M378 478h54M738 478h54M810 478h90M270 479h90M378 479h54M738 479h54M810 479h90M270 480h90M378 480h54M738 480h54M810 480h90M270 481h90M378 481h54M738 481h54M810 481h90M270 482h90M378 482h54M738 482h54M810 482h90M270 483h90M378 483h54M738 483h54M810 483h90M270 484h90M378 484h54M738 484h54M810 484h90M270 485h90M378 485h54M738 485h54M810 485h90M234 486h54M342 486h144M684 486h144M882 486h54M234 487h54M342 487h144M684 487h144M882 487h54M234 488h54M342 488h144M684 488h144M882 488h54M234 489h54M342 489h144M684 489h144M882 489h54M234 490h54M342 490h144M684 490h144M882 490h54M234 491h54M342 491h144M684 491h144M882 491h54M234 492h54M342 492h144M684 492h144M882 492h54M234 493h54M342 493h144M684 493h144M882 493h54M234 494h54M342 494h144M684 494h144M882 494h54M234 495h54M342 495h144M684 495h144M882 495h54M234 496h54M342 496h144M684 496h144M882 496h54M234 497h54M342 497h144M684 497h144M882 497h54M234 498h54M342 498h144M684 498h144M882 498h54M234 499h54M342 499h144M684 499h144M882 499h54M234 500h54M342 500h144M684 500h144M882 500h54M234 501h54M342 501h144M684 501h144M882 501h54M234 502h54M342 502h144M684 502h144M882 502h54M234 503h54M342 503h144M684 503h144M882 503h54M198 504h54M432 504h72M666 504h72M918 504h54M198 505h54M432 505h72M666 505h72M918 505h54M198 506h54M432 506h72M666 506h72M918 506h54M198 507h54M432 507h72M666 507h72M918 507h54M198 508h54M432 508h72M666 508h72M918 508h54M198 509h54M432 509h72M666 509h72M918 509h54M198 510h54M432 510h72M666 510h72M918 510h54M198 511h54M432 511h72M666 511h72M918 511h54M198 512h54M432 512h72M666 512h72M918 512h54M198 513h54M432 513h72M666 513h72M918 513h54M198 514h54M432 514h72M666 514h72M918 514h54M198 515h54M432 515h72M666 515h72M918 515h54M198 516h54M432 516h72M666 516h72M918 516h54M198 517h54M432 517h72M666 517h72M918 517h54M198 518h54M432 518h72M666 518h72M918 518h54M198 519h54M432 519h72M666 519h72M918 519h54M198 520h54M432 520h72M666 520h72M918 520h54M198 521h54M432 521h72M666 521h72M918 521h54M180 522h36M486 522h18M666 522h18M954 522h36M180 523h36M486 523h18M666 523h18M954 523h36M180 524h36M486 524h18M666 524h18M954 524h36M180 525h36M486 525h18M666 525h18M954 525h36M180 526h36M486 526h18M666 526h18M954 526h36M180 527h36M486 527h18M666 527h18M954 527h36M180 528h36M486 528h18M666 528h18M954 528h36M180 529h36M486 529h18M666 529h18M954 529h36M180 530h36M486 530h18M666 530h18M954 530h36M180 531h36M486 531h18M666 531h18M954 531h36M180 532h36M486 532h18M666 532h18M954 532h36M180 533h36M486 533h18M666 533h18M954 533h36M180 534h36M486 534h18M666 534h18M954 534h36M180 535h36M486 535h18M666 535h18M954 535h36M180 536h36M486 536h18M666 536h18M954 536h36M180 537h36M486 537h18M666 537h18M954 537h36M180 538h36M486 538h18M666 538h18M954 538h36M180 539h36M486 539h18M666 539h18M954 539h36M162 540h36M972 540h36M162 541h36M972 541h36M162 542h36M972 542h36M162 543h36M972 543h36M162 544h36M972 544h36M162 545h36M972 545h36M162 546h36M972 546h36M162 547h36M972 547h36M162 548h36M972 548h36M162 549h36M972 549h36M162 550h36M972 550h36M162 551h36M972 551h36M162 552h36M972 552h36M162 553h36M972 553h36M162 554h36M972 554h36M162 555h36M972 555h36M162 556h36M972 556h36M162 557h36M972 557h36M144 558h36M990 558h36M144 559h36M990 559h36M144 560h36M990 560h36M144 561h36M990 561h36M144 562h36M990 562h36M144 563h36M990 563h36M144 564h36M990 564h36M144 565h36M990 565h36M144 566h36M990 566h36M144 567h36M990 567h36M144 568h36M990 568h36M144 569h36M990 569h36M144 570h36M990 570h36M144 571h36M990 571h36M144 572h36M990 572h36M144 573h36M990 573h36M144 574h36M990 574h36M144 575h36M990 575h36M126 576h36M1008 576h36M126 577h36M1008 577h36M126 578h36M1008 578h36M126 579h36M1008 579h36M126 580h36M1008 580h36M126 581h36M1008 581h36M126 582h36M1008 582h36M126 583h36M1008 583h36M126 584h36M1008 584h36M126 585h36M1008 585h36M126 586h36M1008 586h36M126 587h36M1008 587h36M126 588h36M1008 588h36M126 589h36M1008 589h36M126 590h36M1008 590h36M126 591h36M1008 591h36M126 592h36M1008 592h36M126 593h36M1008 593h36M126 594h18M1026 594h18M126 595h18M1026 595h18M126 596h18M1026 596h18M126 597h18M1026 597h18M126 598h18M1026 598h18M126 599h18M1026 599h18M126 600h18M1026 600h18M126 601h18M1026 601h18M126 602h18M1026 602h18M126 603h18M1026 603h18M126 604h18M1026 604h18M126 605h18M1026 605h18M126 606h18M1026 606h18M126 607h18M1026 607h18M126 608h18M1026 608h18M126 609h18M1026 609h18M126 610h18M1026 610h18M126 611h18M1026 611h18M126 612h18M1026 612h18M126 613h18M1026 613h18M126 614h18M1026 614h18M126 615h18M1026 615h18M126 616h18M1026 616h18M126 617h18M1026 617h18M126 618h18M1026 618h18M126 619h18M1026 619h18M126 620h18M1026 620h18M126 621h18M1026 621h18M126 622h18M1026 622h18M126 623h18M1026 623h18M126 624h18M1026 624h18M126 625h18M1026 625h18M126 626h18M1026 626h18M126 627h18M1026 627h18M126 628h18M1026 628h18M126 629h18M1026 629h18M126 630h18M1026 630h18M126 631h18M1026 631h18M126 632h18M1026 632h18M126 633h18M1026 633h18M126 634h18M1026 634h18M126 635h18M1026 635h18M126 636h18M1026 636h18M126 637h18M1026 637h18M126 638h18M1026 638h18M126 639h18M1026 639h18M126 640h18M1026 640h18M126 641h18M1026 641h18M126 642h18M1026 642h18M126 643h18M1026 643h18M126 644h18M1026 644h18M126 645h18M1026 645h18M126 646h18M1026 646h18M126 647h18M1026 647h18M126 648h18M1026 648h18M126 649h18M1026 649h18M126 650h18M1026 650h18M126 651h18M1026 651h18M126 652h18M1026 652h18M126 653h18M1026 653h18M126 654h18M1026 654h18M126 655h18M1026 655h18M126 656h18M1026 656h18M126 657h18M1026 657h18M126 658h18M1026 658h18M126 659h18M1026 659h18M126 660h18M1026 660h18M126 661h18M1026 661h18M126 662h18M1026 662h18M126 663h18M1026 663h18M126 664h18M1026 664h18M126 665h18M1026 665h18M126 666h18M1026 666h18M126 667h18M1026 667h18M126 668h18M1026 668h18M126 669h18M1026 669h18M126 670h18M1026 670h18M126 671h18M1026 671h18M126 672h18M1026 672h18M126 673h18M1026 673h18M126 674h18M1026 674h18M126 675h18M1026 675h18M126 676h18M1026 676h18M126 677h18M1026 677h18M126 678h18M1026 678h18M126 679h18M1026 679h18M126 680h18M1026 680h18M126 681h18M1026 681h18M126 682h18M1026 682h18M126 683h18M1026 683h18M126 684h18M1026 684h18M126 685h18M1026 685h18M126 686h18M1026 686h18M126 687h18M1026 687h18M126 688h18M1026 688h18M126 689h18M1026 689h18M126 690h18M1026 690h18M126 691h18M1026 691h18M126 692h18M1026 692h18M126 693h18M1026 693h18M126 694h18M1026 694h18M126 695h18M1026 695h18M126 696h18M1026 696h18M126 697h18M1026 697h18M126 698h18M1026 698h18M126 699h18M1026 699h18M126 700h18M1026 700h18M126 701h18M1026 701h18M126 702h18M576 702h18M1026 702h18M126 703h18M576 703h18M1026 703h18M126 704h18M576 704h18M1026 704h18M126 705h18M576 705h18M1026 705h18M126 706h18M576 706h18M1026 706h18M126 707h18M576 707h18M1026 707h18M126 708h18M576 708h18M1026 708h18M126 709h18M576 709h18M1026 709h18M126 710h18M576 710h18M1026 710h18M126 711h18M576 711h18M1026 711h18M126 712h18M576 712h18M1026 712h18M126 713h18M576 713h18M1026 713h18M126 714h18M576 714h18M1026 714h18M126 715h18M576 715h18M1026 715h18M126 716h18M576 716h18M1026 716h18M126 717h18M576 717h18M1026 717h18M126 718h18M576 718h18M1026 718h18M126 719h18M576 719h18M1026 719h18M126 720h18M558 720h54M1026 720h18M126 721h18M558 721h54M1026 721h18M126 722h18M558 722h54M1026 722h18M126 723h18M558 723h54M1026 723h18M126 724h18M558 724h54M1026 724h18M126 725h18M558 725h54M1026 725h18M126 726h18M558 726h54M1026 726h18M126 727h18M558 727h54M1026 727h18M126 728h18M558 728h54M1026 728h18M126 729h18M558 729h54M1026 729h18M126 730h18M558 730h54M1026 730h18M126 731h18M558 731h54M1026 731h18M126 732h18M558 732h54M1026 732h18M126 733h18M558 733h54M1026 733h18M126 734h18M558 734h54M1026 734h18M126 735h18M558 735h54M1026 735h18M126 736h18M558 736h54M1026 736h18M126 737h18M558 737h54M1026 737h18M144 738h18M522 738h126M1008 738h18M144 739h18M522 739h126M1008 739h18M144 740h18M522 740h126M1008 740h18M144 741h18M522 741h126M1008 741h18M144 742h18M522 742h126M1008 742h18M144 743h18M522 743h126M1008 743h18M144 744h18M522 744h126M1008 744h18M144 745h18M522 745h126M1008 745h18M144 746h18M522 746h126M1008 746h18M144 747h18M522 747h126M1008 747h18M144 748h18M522 748h126M1008 748h18M144 749h18M522 749h126M1008 749h18M144 750h18M522 750h126M1008 750h18M144 751h18M522 751h126M1008 751h18M144 752h18M522 752h126M1008 752h18M144 753h18M522 753h126M1008 753h18M144 754h18M522 754h126M1008 754h18M144 755h18M522 755h126M1008 755h18M144 756h18M504 756h162M1008 756h18M144 757h18M504 757h162M1008 757h18M144 758h18M504 758h162M1008 758h18M144 759h18M504 759h162M1008 759h18M144 760h18M504 760h162M1008 760h18M144 761h18M504 761h162M1008 761h18M144 762h18M504 762h162M1008 762h18M144 763h18M504 763h162M1008 763h18M144 764h18M504 764h162M1008 764h18M144 765h18M504 765h162M1008 765h18M144 766h18M504 766h162M1008 766h18M144 767h18M504 767h162M1008 767h18M144 768h18M504 768h162M1008 768h18M144 769h18M504 769h162M1008 769h18M144 770h18M504 770h162M1008 770h18M144 771h18M504 771h162M1008 771h18M144 772h18M504 772h162M1008 772h18M144 773h18M504 773h162M1008 773h18M144 774h36M450 774h90M558 774h54M630 774h90M990 774h36M144 775h36M450 775h90M558 775h54M630 775h90M990 775h36M144 776h36M450 776h90M558 776h54M630 776h90M990 776h36M144 777h36M450 777h90M558 777h54M630 777h90M990 777h36M144 778h36M450 778h90M558 778h54M630 778h90M990 778h36M144 779h36M450 779h90M558 779h54M630 779h90M990 779h36M144 780h36M450 780h90M558 780h54M630 780h90M990 780h36M144 781h36M450 781h90M558 781h54M630 781h90M990 781h36M144 782h36M450 782h90M558 782h54M630 782h90M990 782h36M144 783h36M450 783h90M558 783h54M630 783h90M990 783h36M144 784h36M450 784h90M558 784h54M630 784h90M990 784h36M144 785h36M450 785h90M558 785h54M630 785h90M990 785h36M144 786h36M450 786h90M558 786h54M630 786h90M990 786h36M144 787h36M450 787h90M558 787h54M630 787h90M990 787h36M144 788h36M450 788h90M558 788h54M630 788h90M990 788h36M144 789h36M450 789h90M558 789h54M630 789h90M990 789h36M144 790h36M450 790h90M558 790h54M630 790h90M990 790h36M144 791h36M450 791h90M558 791h54M630 791h90M990 791h36M162 792h54M414 792h108M558 792h54M648 792h108M954 792h54M162 793h54M414 793h108M558 793h54M648 793h108M954 793h54M162 794h54M414 794h108M558 794h54M648 794h108M954 794h54M162 795h54M414 795h108M558 795h54M648 795h108M954 795h54M162 796h54M414 796h108M558 796h54M648 796h108M954 796h54M162 797h54M414 797h108M558 797h54M648 797h108M954 797h54M162 798h54M414 798h108M558 798h54M648 798h108M954 798h54M162 799h54M414 799h108M558 799h54M648 799h108M954 799h54M162 800h54M414 800h108M558 800h54M648 800h108M954 800h54M162 801h54M414 801h108M558 801h54M648 801h108M954 801h54M162 802h54M414 802h108M558 802h54M648 802h108M954 802h54M162 803h54M414 803h108M558 803h54M648 803h108M954 803h54M162 804h54M414 804h108M558 804h54M648 804h108M954 804h54M162 805h54M414 805h108M558 805h54M648 805h108M954 805h54M162 806h54M414 806h108M558 806h54M648 806h108M954 806h54M162 807h54M414 807h108M558 807h54M648 807h108M954 807h54M162 808h54M414 808h108M558 808h54M648 808h108M954 808h54M162 809h54M414 809h108M558 809h54M648 809h108M954 809h54M198 810h36M360 810h126M558 810h54M684 810h126M936 810h36M198 811h36M360 811h126M558 811h54M684 811h126M936 811h36M198 812h36M360 812h126M558 812h54M684 812h126M936 812h36M198 813h36M360 813h126M558 813h54M684 813h126M936 813h36M198 814h36M360 814h126M558 814h54M684 814h126M936 814h36M198 815h36M360 815h126M558 815h54M684 815h126M936 815h36M198 816h36M360 816h126M558 816h54M684 816h126M936 816h36M198 817h36M360 817h126M558 817h54M684 817h126M936 817h36M198 818h36M360 818h126M558 818h54M684 818h126M936 818h36M198 819h36M360 819h126M558 819h54M684 819h126M936 819h36M198 820h36M360 820h126M558 820h54M684 820h126M936 820h36M198 821h36M360 821h126M558 821h54M684 821h126M936 821h36M198 822h36M360 822h126M558 822h54M684 822h126M936 822h36M198 823h36M360 823h126M558 823h54M684 823h126M936 823h36M198 824h36M360 824h126M558 824h54M684 824h126M936 824h36M198 825h36M360 825h126M558 825h54M684 825h126M936 825h36M198 826h36M360 826h126M558 826h54M684 826h126M936 826h36M198 827h36M360 827h126M558 827h54M684 827h126M936 827h36M216 828h234M540 828h90M720 828h234M216 829h234M540 829h90M720 829h234M216 830h234M540 830h90M720 830h234M216 831h234M540 831h90M720 831h234M216 832h234M540 832h90M720 832h234M216 833h234M540 833h90M720 833h234M216 834h234M540 834h90M720 834h234M216 835h234M540 835h90M720 835h234M216 836h234M540 836h90M720 836h234M216 837h234M540 837h90M720 837h234M216 838h234M540 838h90M720 838h234M216 839h234M540 839h90M720 839h234M216 840h234M540 840h90M720 840h234M216 841h234M540 841h90M720 841h234M216 842h234M540 842h90M720 842h234M216 843h234M540 843h90M720 843h234M216 844h234M540 844h90M720 844h234M216 845h234M540 845h90M720 845h234M252 846h162M522 846h54M594 846h54M756 846h162M252 847h162M522 847h54M594 847h54M756 847h162M252 848h162M522 848h54M594 848h54M756 848h162M252 849h162M522 849h54M594 849h54M756 849h162M252 850h162M522 850h54M594 850h54M756 850h162M252 851h162M522 851h54M594 851h54M756 851h162M252 852h162M522 852h54M594 852h54M756 852h162M252 853h162M522 853h54M594 853h54M756 853h162M252 854h162M522 854h54M594 854h54M756 854h162M252 855h162M522 855h54M594 855h54M756 855h162M252 856h162M522 856h54M594 856h54M756 856h162M252 857h162M522 857h54M594 857h54M756 857h162M252 858h162M522 858h54M594 858h54M756 858h162M252 859h162M522 859h54M594 859h54M756 859h162M252 860h162M522 860h54M594 860h54M756 860h162M252 861h162M522 861h54M594 861h54M756 861h162M252 862h162M522 862h54M594 862h54M756 862h162M252 863h162M522 863h54M594 863h54M756 863h162M522 864h54M594 864h54M522 865h54M594 865h54M522 866h54M594 866h54M522 867h54M594 867h54M522 868h54M594 868h54M522 869h54M594 869h54M522 870h54M594 870h54M522 871h54M594 871h54M522 872h54M594 872h54M522 873h54M594 873h54M522 874h54M594 874h54M522 875h54M594 875h54M522 876h54M594 876h54M522 877h54M594 877h54M522 878h54M594 878h54M522 879h54M594 879h54M522 880h54M594 880h54M522 881h54M594 881h54M504 882h72M594 882h72M504 883h72M594 883h72M504 884h72M594 884h72M504 885h72M594 885h72M504 886h72M594 886h72M504 887h72M594 887h72M504 888h72M594 888h72M504 889h72M594 889h72M504 890h72M594 890h72M504 891h72M594 891h72M504 892h72M594 892h72M504 893h72M594 893h72M504 894h72M594 894h72M504 895h72M594 895h72M504 896h72M594 896h72M504 897h72M594 897h72M504 898h72M594 898h72M504 899h72M594 899h72M504 900h36M630 900h36M504 901h36M630 901h36M504 902h36M630 902h36M504 903h36M630 903h36M504 904h36M630 904h36M504 905h36M630 905h36M504 906h36M630 906h36M504 907h36M630 907h36M504 908h36M630 908h36M504 909h36M630 909h36M504 910h36M630 910h36M504 911h36M630 911h36M504 912h36M630 912h36M504 913h36M630 913h36M504 914h36M630 914h36M504 915h36M630 915h36M504 916h36M630 916h36M504 917h36M630 917h36M504 918h18M648 918h18M504 919h18M648 919h18M504 920h18M648 920h18M504 921h18M648 921h18M504 922h18M648 922h18M504 923h18M648 923h18M504 924h18M648 924h18M504 925h18M648 925h18M504 926h18M648 926h18M504 927h18M648 927h18M504 928h18M648 928h18M504 929h18M648 929h18M504 930h18M648 930h18M504 931h18M648 931h18M504 932h18M648 932h18M504 933h18M648 933h18M504 934h18M648 934h18M504 935h18M648 935h18M486 936h36M648 936h36M486 937h36M648 937h36M486 938h36M648 938h36M486 939h36M648 939h36M486 940h36M648 940h36M486 941h36M648 941h36M486 942h36M648 942h36M486 943h36M648 943h36M486 944h36M648 944h36M486 945h36M648 945h36M486 946h36M648 946h36M486 947h36M648 947h36M486 948h36M648 948h36M486 949h36M648 949h36M486 950h36M648 950h36M486 951h36M648 951h36M486 952h36M648 952h36M486 953h36M648 953h36M486 954h18M666 954h18M486 955h18M666 955h18M486 956h18M666 956h18M486 957h18M666 957h18M486 958h18M666 958h18M486 959h18M666 959h18M486 960h18M666 960h18M486 961h18M666 961h18M486 962h18M666 962h18M486 963h18M666 963h18M486 964h18M666 964h18M486 965h18M666 965h18M486 966h18M666 966h18M486 967h18M666 967h18M486 968h18M666 968h18M486 969h18M666 969h18M486 970h18M666 970h18M486 971h18M666 971h18M450 972h54M666 972h54M450 973h54M666 973h54M450 974h54M666 974h54M450 975h54M666 975h54M450 976h54M666 976h54M450 977h54M666 977h54M450 978h54M666 978h54M450 979h54M666 979h54M450 980h54M666 980h54M450 981h54M666 981h54M450 982h54M666 982h54M450 983h54M666 983h54M450 984h54M666 984h54M450 985h54M666 985h54M450 986h54M666 986h54M450 987h54M666 987h54M450 988h54M666 988h54M450 989h54M666 989h54M432 990h306M432 991h306M432 992h306M432 993h306M432 994h306M432 995h306M432 996h306M432 997h306M432 998h306M432 999h306M432 1000h306M432 1001h306M432 1002h306M432 1003h306M432 1004h306M432 1005h306M432 1006h306M432 1007h306M432 1008h306M432 1009h306M432 1010h306M432 1011h306M432 1012h306M432 1013h306M432 1014h306M432 1015h306M432 1016h306M432 1017h306M432 1018h306M432 1019h306M432 1020h306M432 1021h306M432 1022h306M432 1023h306M432 1024h306M432 1025h306" />
<path stroke="#424242" d="M504 162h162M504 163h162M504 164h162M504 165h162M504 166h162M504 167h162M504 168h162M504 169h162M504 170h162M504 171h162M504 172h162M504 173h162M504 174h162M504 175h162M504 176h162M504 177h162M504 178h162M504 179h162M468 180h234M468 181h234M468 182h234M468 183h234M468 184h234M468 185h234M468 186h234M468 187h234M468 188h234M468 189h234M468 190h234M468 191h234M468 192h234M468 193h234M468 194h234M468 195h234M468 196h234M468 197h234M450 198h270M450 199h270M450 200h270M450 201h270M450 202h270M450 203h270M450 204h270M450 205h270M450 206h270M450 207h270M450 208h270M450 209h270M450 210h270M450 211h270M450 212h270M450 213h270M450 214h270M450 215h270M432 216h72M666 216h72M432 217h72M666 217h72M432 218h72M666 218h72M432 219h72M666 219h72M432 220h72M666 220h72M432 221h72M666 221h72M432 222h72M666 222h72M432 223h72M666 223h72M432 224h72M666 224h72M432 225h72M666 225h72M432 226h72M666 226h72M432 227h72M666 227h72M432 228h72M666 228h72M432 229h72M666 229h72M432 230h72M666 230h72M432 231h72M666 231h72M432 232h72M666 232h72M432 233h72M666 233h72M414 234h54M702 234h54M414 235h54M702 235h54M414 236h54M702 236h54M414 237h54M702 237h54M414 238h54M702 238h54M414 239h54M702 239h54M414 240h54M702 240h54M414 241h54M702 241h54M414 242h54M702 242h54M414 243h54M702 243h54M414 244h54M702 244h54M414 245h54M702 245h54M414 246h54M702 246h54M414 247h54M702 247h54M414 248h54M702 248h54M414 249h54M702 249h54M414 250h54M702 250h54M414 251h54M702 251h54M414 252h36M720 252h36M414 253h36M720 253h36M414 254h36M720 254h36M414 255h36M720 255h36M414 256h36M720 256h36M414 257h36M720 257h36M414 258h36M720 258h36M414 259h36M720 259h36M414 260h36M720 260h36M414 261h36M720 261h36M414 262h36M720 262h36M414 263h36M720 263h36M414 264h36M720 264h36M414 265h36M720 265h36M414 266h36M720 266h36M414 267h36M720 267h36M414 268h36M720 268h36M414 269h36M720 269h36M396 270h36M738 270h36M396 271h36M738 271h36M396 272h36M738 272h36M396 273h36M738 273h36M396 274h36M738 274h36M396 275h36M738 275h36M396 276h36M738 276h36M396 277h36M738 277h36M396 278h36M738 278h36M396 279h36M738 279h36M396 280h36M738 280h36M396 281h36M738 281h36M396 282h36M738 282h36M396 283h36M738 283h36M396 284h36M738 284h36M396 285h36M738 285h36M396 286h36M738 286h36M396 287h36M738 287h36M396 288h18M756 288h18M396 289h18M756 289h18M396 290h18M756 290h18M396 291h18M756 291h18M396 292h18M756 292h18M396 293h18M756 293h18M396 294h18M756 294h18M396 295h18M756 295h18M396 296h18M756 296h18M396 297h18M756 297h18M396 298h18M756 298h18M396 299h18M756 299h18M396 300h18M756 300h18M396 301h18M756 301h18M396 302h18M756 302h18M396 303h18M756 303h18M396 304h18M756 304h18M396 305h18M756 305h18M396 306h18M756 306h18M396 307h18M756 307h18M396 308h18M756 308h18M396 309h18M756 309h18M396 310h18M756 310h18M396 311h18M756 311h18M396 312h18M756 312h18M396 313h18M756 313h18M396 314h18M756 314h18M396 315h18M756 315h18M396 316h18M756 316h18M396 317h18M756 317h18M396 318h18M756 318h18M396 319h18M756 319h18M396 320h18M756 320h18M396 321h18M756 321h18M396 322h18M756 322h18M396 323h18M756 323h18M378 324h36M756 324h36M378 325h36M756 325h36M378 326h36M756 326h36M378 327h36M756 327h36M378 328h36M756 328h36M378 329h36M756 329h36M378 330h36M756 330h36M378 331h36M756 331h36M378 332h36M756 332h36M378 333h36M756 333h36M378 334h36M756 334h36M378 335h36M756 335h36M378 336h36M756 336h36M378 337h36M756 337h36M378 338h36M756 338h36M378 339h36M756 339h36M378 340h36M756 340h36M378 341h36M756 341h36M378 342h18M774 342h18M378 343h18M774 343h18M378 344h18M774 344h18M378 345h18M774 345h18M378 346h18M774 346h18M378 347h18M774 347h18M378 348h18M774 348h18M378 349h18M774 349h18M378 350h18M774 350h18M378 351h18M774 351h18M378 352h18M774 352h18M378 353h18M774 353h18M378 354h18M774 354h18M378 355h18M774 355h18M378 356h18M774 356h18M378 357h18M774 357h18M378 358h18M774 358h18M378 359h18M774 359h18M378 360h18M774 360h18M378 361h18M774 361h18M378 362h18M774 362h18M378 363h18M774 363h18M378 364h18M774 364h18M378 365h18M774 365h18M378 366h18M774 366h18M378 367h18M774 367h18M378 368h18M774 368h18M378 369h18M774 369h18M378 370h18M774 370h18M378 371h18M774 371h18M378 372h18M774 372h18M378 373h18M774 373h18M378 374h18M774 374h18M378 375h18M774 375h18M378 376h18M774 376h18M378 377h18M774 377h18M378 378h18M774 378h18M378 379h18M774 379h18M378 380h18M774 380h18M378 381h18M774 381h18M378 382h18M774 382h18M378 383h18M774 383h18M378 384h18M774 384h18M378 385h18M774 385h18M378 386h18M774 386h18M378 387h18M774 387h18M378 388h18M774 388h18M378 389h18M774 389h18M378 390h18M774 390h18M378 391h18M774 391h18M378 392h18M774 392h18M378 393h18M774 393h18M378 394h18M774 394h18M378 395h18M774 395h18M378 396h18M774 396h18M378 397h18M774 397h18M378 398h18M774 398h18M378 399h18M774 399h18M378 400h18M774 400h18M378 401h18M774 401h18M378 402h18M774 402h18M378 403h18M774 403h18M378 404h18M774 404h18M378 405h18M774 405h18M378 406h18M774 406h18M378 407h18M774 407h18M378 408h18M774 408h18M378 409h18M774 409h18M378 410h18M774 410h18M378 411h18M774 411h18M378 412h18M774 412h18M378 413h18M774 413h18M378 414h36M756 414h36M378 415h36M756 415h36M378 416h36M756 416h36M378 417h36M756 417h36M378 418h36M756 418h36M378 419h36M756 419h36M378 420h36M756 420h36M378 421h36M756 421h36M378 422h36M756 422h36M378 423h36M756 423h36M378 424h36M756 424h36M378 425h36M756 425h36M378 426h36M756 426h36M378 427h36M756 427h36M378 428h36M756 428h36M378 429h36M756 429h36M378 430h36M756 430h36M378 431h36M756 431h36M396 432h36M738 432h36M396 433h36M738 433h36M396 434h36M738 434h36M396 435h36M738 435h36M396 436h36M738 436h36M396 437h36M738 437h36M396 438h36M738 438h36M396 439h36M738 439h36M396 440h36M738 440h36M396 441h36M738 441h36M396 442h36M738 442h36M396 443h36M738 443h36M396 444h36M738 444h36M396 445h36M738 445h36M396 446h36M738 446h36M396 447h36M738 447h36M396 448h36M738 448h36M396 449h36M738 449h36M396 450h54M720 450h54M396 451h54M720 451h54M396 452h54M720 452h54M396 453h54M720 453h54M396 454h54M720 454h54M396 455h54M720 455h54M396 456h54M720 456h54M396 457h54M720 457h54M396 458h54M720 458h54M396 459h54M720 459h54M396 460h54M720 460h54M396 461h54M720 461h54M396 462h54M720 462h54M396 463h54M720 463h54M396 464h54M720 464h54M396 465h54M720 465h54M396 466h54M720 466h54M396 467h54M720 467h54M432 468h54M684 468h54M432 469h54M684 469h54M432 470h54M684 470h54M432 471h54M684 471h54M432 472h54M684 472h54M432 473h54M684 473h54M432 474h54M684 474h54M432 475h54M684 475h54M432 476h54M684 476h54M432 477h54M684 477h54M432 478h54M684 478h54M432 479h54M684 479h54M432 480h54M684 480h54M432 481h54M684 481h54M432 482h54M684 482h54M432 483h54M684 483h54M432 484h54M684 484h54M432 485h54M684 485h54M288 486h54M486 486h18M666 486h18M828 486h54M288 487h54M486 487h18M666 487h18M828 487h54M288 488h54M486 488h18M666 488h18M828 488h54M288 489h54M486 489h18M666 489h18M828 489h54M288 490h54M486 490h18M666 490h18M828 490h54M288 491h54M486 491h18M666 491h18M828 491h54M288 492h54M486 492h18M666 492h18M828 492h54M288 493h54M486 493h18M666 493h18M828 493h54M288 494h54M486 494h18M666 494h18M828 494h54M288 495h54M486 495h18M666 495h18M828 495h54M288 496h54M486 496h18M666 496h18M828 496h54M288 497h54M486 497h18M666 497h18M828 497h54M288 498h54M486 498h18M666 498h18M828 498h54M288 499h54M486 499h18M666 499h18M828 499h54M288 500h54M486 500h18M666 500h18M828 500h54M288 501h54M486 501h18M666 501h18M828 501h54M288 502h54M486 502h18M666 502h18M828 502h54M288 503h54M486 503h18M666 503h18M828 503h54M252 504h180M738 504h180M252 505h180M738 505h180M252 506h180M738 506h180M252 507h180M738 507h180M252 508h180M738 508h180M252 509h180M738 509h180M252 510h180M738 510h180M252 511h180M738 511h180M252 512h180M738 512h180M252 513h180M738 513h180M252 514h180M738 514h180M252 515h180M738 515h180M252 516h180M738 516h180M252 517h180M738 517h180M252 518h180M738 518h180M252 519h180M738 519h180M252 520h180M738 520h180M252 521h180M738 521h180M216 522h108M432 522h54M684 522h54M846 522h108M216 523h108M432 523h54M684 523h54M846 523h108M216 524h108M432 524h54M684 524h54M846 524h108M216 525h108M432 525h54M684 525h54M846 525h108M216 526h108M432 526h54M684 526h54M846 526h108M216 527h108M432 527h54M684 527h54M846 527h108M216 528h108M432 528h54M684 528h54M846 528h108M216 529h108M432 529h54M684 529h54M846 529h108M216 530h108M432 530h54M684 530h54M846 530h108M216 531h108M432 531h54M684 531h54M846 531h108M216 532h108M432 532h54M684 532h54M846 532h108M216 533h108M432 533h54M684 533h54M846 533h108M216 534h108M432 534h54M684 534h54M846 534h108M216 535h108M432 535h54M684 535h54M846 535h108M216 536h108M432 536h54M684 536h54M846 536h108M216 537h108M432 537h54M684 537h54M846 537h108M216 538h108M432 538h54M684 538h54M846 538h108M216 539h108M432 539h54M684 539h54M846 539h108M198 540h72M900 540h72M198 541h72M900 541h72M198 542h72M900 542h72M198 543h72M900 543h72M198 544h72M900 544h72M198 545h72M900 545h72M198 546h72M900 546h72M198 547h72M900 547h72M198 548h72M900 548h72M198 549h72M900 549h72M198 550h72M900 550h72M198 551h72M900 551h72M198 552h72M900 552h72M198 553h72M900 553h72M198 554h72M900 554h72M198 555h72M900 555h72M198 556h72M900 556h72M198 557h72M900 557h72M180 558h54M936 558h54M180 559h54M936 559h54M180 560h54M936 560h54M180 561h54M936 561h54M180 562h54M936 562h54M180 563h54M936 563h54M180 564h54M936 564h54M180 565h54M936 565h54M180 566h54M936 566h54M180 567h54M936 567h54M180 568h54M936 568h54M180 569h54M936 569h54M180 570h54M936 570h54M180 571h54M936 571h54M180 572h54M936 572h54M180 573h54M936 573h54M180 574h54M936 574h54M180 575h54M936 575h54M162 576h72M936 576h72M162 577h72M936 577h72M162 578h72M936 578h72M162 579h72M936 579h72M162 580h72M936 580h72M162 581h72M936 581h72M162 582h72M936 582h72M162 583h72M936 583h72M162 584h72M936 584h72M162 585h72M936 585h72M162 586h72M936 586h72M162 587h72M936 587h72M162 588h72M936 588h72M162 589h72M936 589h72M162 590h72M936 590h72M162 591h72M936 591h72M162 592h72M936 592h72M162 593h72M936 593h72M144 594h54M972 594h54M144 595h54M972 595h54M144 596h54M972 596h54M144 597h54M972 597h54M144 598h54M972 598h54M144 599h54M972 599h54M144 600h54M972 600h54M144 601h54M972 601h54M144 602h54M972 602h54M144 603h54M972 603h54M144 604h54M972 604h54M144 605h54M972 605h54M144 606h54M972 606h54M144 607h54M972 607h54M144 608h54M972 608h54M144 609h54M972 609h54M144 610h54M972 610h54M144 611h54M972 611h54M144 612h36M990 612h36M144 613h36M990 613h36M144 614h36M990 614h36M144 615h36M990 615h36M144 616h36M990 616h36M144 617h36M990 617h36M144 618h36M990 618h36M144 619h36M990 619h36M144 620h36M990 620h36M144 621h36M990 621h36M144 622h36M990 622h36M144 623h36M990 623h36M144 624h36M990 624h36M144 625h36M990 625h36M144 626h36M990 626h36M144 627h36M990 627h36M144 628h36M990 628h36M144 629h36M990 629h36M144 630h36M990 630h36M144 631h36M990 631h36M144 632h36M990 632h36M144 633h36M990 633h36M144 634h36M990 634h36M144 635h36M990 635h36M144 636h36M990 636h36M144 637h36M990 637h36M144 638h36M990 638h36M144 639h36M990 639h36M144 640h36M990 640h36M144 641h36M990 641h36M144 642h36M990 642h36M144 643h36M990 643h36M144 644h36M990 644h36M144 645h36M990 645h36M144 646h36M990 646h36M144 647h36M990 647h36M144 648h18M1008 648h18M144 649h18M1008 649h18M144 650h18M1008 650h18M144 651h18M1008 651h18M144 652h18M1008 652h18M144 653h18M1008 653h18M144 654h18M1008 654h18M144 655h18M1008 655h18M144 656h18M1008 656h18M144 657h18M1008 657h18M144 658h18M1008 658h18M144 659h18M1008 659h18M144 660h18M1008 660h18M144 661h18M1008 661h18M144 662h18M1008 662h18M144 663h18M1008 663h18M144 664h18M1008 664h18M144 665h18M1008 665h18M144 666h18M1008 666h18M144 667h18M1008 667h18M144 668h18M1008 668h18M144 669h18M1008 669h18M144 670h18M1008 670h18M144 671h18M1008 671h18M144 672h18M1008 672h18M144 673h18M1008 673h18M144 674h18M1008 674h18M144 675h18M1008 675h18M144 676h18M1008 676h18M144 677h18M1008 677h18M144 678h18M1008 678h18M144 679h18M1008 679h18M144 680h18M1008 680h18M144 681h18M1008 681h18M144 682h18M1008 682h18M144 683h18M1008 683h18M144 684h18M1008 684h18M144 685h18M1008 685h18M144 686h18M1008 686h18M144 687h18M1008 687h18M144 688h18M1008 688h18M144 689h18M1008 689h18M144 690h18M1008 690h18M144 691h18M1008 691h18M144 692h18M1008 692h18M144 693h18M1008 693h18M144 694h18M1008 694h18M144 695h18M1008 695h18M144 696h18M1008 696h18M144 697h18M1008 697h18M144 698h18M1008 698h18M144 699h18M1008 699h18M144 700h18M1008 700h18M144 701h18M1008 701h18M144 702h18M1008 702h18M144 703h18M1008 703h18M144 704h18M1008 704h18M144 705h18M1008 705h18M144 706h18M1008 706h18M144 707h18M1008 707h18M144 708h18M1008 708h18M144 709h18M1008 709h18M144 710h18M1008 710h18M144 711h18M1008 711h18M144 712h18M1008 712h18M144 713h18M1008 713h18M144 714h18M1008 714h18M144 715h18M1008 715h18M144 716h18M1008 716h18M144 717h18M1008 717h18M144 718h18M1008 718h18M144 719h18M1008 719h18M144 720h18M1008 720h18M144 721h18M1008 721h18M144 722h18M1008 722h18M144 723h18M1008 723h18M144 724h18M1008 724h18M144 725h18M1008 725h18M144 726h18M1008 726h18M144 727h18M1008 727h18M144 728h18M1008 728h18M144 729h18M1008 729h18M144 730h18M1008 730h18M144 731h18M1008 731h18M144 732h18M1008 732h18M144 733h18M1008 733h18M144 734h18M1008 734h18M144 735h18M1008 735h18M144 736h18M1008 736h18M144 737h18M1008 737h18" />
<path stroke="#212121" d="M504 216h162M504 217h162M504 218h162M504 219h162M504 220h162M504 221h162M504 222h162M504 223h162M504 224h162M504 225h162M504 226h162M504 227h162M504 228h162M504 229h162M504 230h162M504 231h162M504 232h162M504 233h162M468 234h234M468 235h234M468 236h234M468 237h234M468 238h234M468 239h234M468 240h234M468 241h234M468 242h234M468 243h234M468 244h234M468 245h234M468 246h234M468 247h234M468 248h234M468 249h234M468 250h234M468 251h234M450 252h270M450 253h270M450 254h270M450 255h270M450 256h270M450 257h270M450 258h270M450 259h270M450 260h270M450 261h270M450 262h270M450 263h270M450 264h270M450 265h270M450 266h270M450 267h270M450 268h270M450 269h270M432 270h306M432 271h306M432 272h306M432 273h306M432 274h306M432 275h306M432 276h306M432 277h306M432 278h306M432 279h306M432 280h306M432 281h306M432 282h306M432 283h306M432 284h306M432 285h306M432 286h306M432 287h306M414 288h342M414 289h342M414 290h342M414 291h342M414 292h342M414 293h342M414 294h342M414 295h342M414 296h342M414 297h342M414 298h342M414 299h342M414 300h342M414 301h342M414 302h342M414 303h342M414 304h342M414 305h342M414 306h342M414 307h342M414 308h342M414 309h342M414 310h342M414 311h342M414 312h342M414 313h342M414 314h342M414 315h342M414 316h342M414 317h342M414 318h342M414 319h342M414 320h342M414 321h342M414 322h342M414 323h342M414 324h342M414 325h342M414 326h342M414 327h342M414 328h342M414 329h342M414 330h342M414 331h342M414 332h342M414 333h342M414 334h342M414 335h342M414 336h342M414 337h342M414 338h342M414 339h342M414 340h342M414 341h342M396 342h378M396 343h378M396 344h378M396 345h378M396 346h378M396 347h378M396 348h378M396 349h378M396 350h378M396 351h378M396 352h378M396 353h378M396 354h378M396 355h378M396 356h378M396 357h378M396 358h378M396 359h378M396 360h378M396 361h378M396 362h378M396 363h378M396 364h378M396 365h378M396 366h378M396 367h378M396 368h378M396 369h378M396 370h378M396 371h378M396 372h378M396 373h378M396 374h378M396 375h378M396 376h378M396 377h378M396 378h378M396 379h378M396 380h378M396 381h378M396 382h378M396 383h378M396 384h378M396 385h378M396 386h378M396 387h378M396 388h378M396 389h378M396 390h378M396 391h378M396 392h378M396 393h378M396 394h378M396 395h378M396 396h378M396 397h378M396 398h378M396 399h378M396 400h378M396 401h378M396 402h378M396 403h378M396 404h378M396 405h378M396 406h378M396 407h378M396 408h378M396 409h378M396 410h378M396 411h378M396 412h378M396 413h378M414 414h342M414 415h342M414 416h342M414 417h342M414 418h342M414 419h342M414 420h342M414 421h342M414 422h342M414 423h342M414 424h342M414 425h342M414 426h342M414 427h342M414 428h342M414 429h342M414 430h342M414 431h342M432 432h306M432 433h306M432 434h306M432 435h306M432 436h306M432 437h306M432 438h306M432 439h306M432 440h306M432 441h306M432 442h306M432 443h306M432 444h306M432 445h306M432 446h306M432 447h306M432 448h306M432 449h306M450 450h270M450 451h270M450 452h270M450 453h270M450 454h270M450 455h270M450 456h270M450 457h270M450 458h270M450 459h270M450 460h270M450 461h270M450 462h270M450 463h270M450 464h270M450 465h270M450 466h270M450 467h270M486 468h198M486 469h198M486 470h198M486 471h198M486 472h198M486 473h198M486 474h198M486 475h198M486 476h198M486 477h198M486 478h198M486 479h198M486 480h198M486 481h198M486 482h198M486 483h198M486 484h198M486 485h198M504 486h162M504 487h162M504 488h162M504 489h162M504 490h162M504 491h162M504 492h162M504 493h162M504 494h162M504 495h162M504 496h162M504 497h162M504 498h162M504 499h162M504 500h162M504 501h162M504 502h162M504 503h162M504 504h162M504 505h162M504 506h162M504 507h162M504 508h162M504 509h162M504 510h162M504 511h162M504 512h162M504 513h162M504 514h162M504 515h162M504 516h162M504 517h162M504 518h162M504 519h162M504 520h162M504 521h162M324 522h108M504 522h162M738 522h108M324 523h108M504 523h162M738 523h108M324 524h108M504 524h162M738 524h108M324 525h108M504 525h162M738 525h108M324 526h108M504 526h162M738 526h108M324 527h108M504 527h162M738 527h108M324 528h108M504 528h162M738 528h108M324 529h108M504 529h162M738 529h108M324 530h108M504 530h162M738 530h108M324 531h108M504 531h162M738 531h108M324 532h108M504 532h162M738 532h108M324 533h108M504 533h162M738 533h108M324 534h108M504 534h162M738 534h108M324 535h108M504 535h162M738 535h108M324 536h108M504 536h162M738 536h108M324 537h108M504 537h162M738 537h108M324 538h108M504 538h162M738 538h108M324 539h108M504 539h162M738 539h108M270 540h630M270 541h630M270 542h630M270 543h630M270 544h630M270 545h630M270 546h630M270 547h630M270 548h630M270 549h630M270 550h630M270 551h630M270 552h630M270 553h630M270 554h630M270 555h630M270 556h630M270 557h630M234 558h702M234 559h702M234 560h702M234 561h702M234 562h702M234 563h702M234 564h702M234 565h702M234 566h702M234 567h702M234 568h702M234 569h702M234 570h702M234 571h702M234 572h702M234 573h702M234 574h702M234 575h702M234 576h702M234 577h702M234 578h702M234 579h702M234 580h702M234 581h702M234 582h702M234 583h702M234 584h702M234 585h702M234 586h702M234 587h702M234 588h702M234 589h702M234 590h702M234 591h702M234 592h702M234 593h702M198 594h774M198 595h774M198 596h774M198 597h774M198 598h774M198 599h774M198 600h774M198 601h774M198 602h774M198 603h774M198 604h774M198 605h774M198 606h774M198 607h774M198 608h774M198 609h774M198 610h774M198 611h774M180 612h810M180 613h810M180 614h810M180 615h810M180 616h810M180 617h810M180 618h810M180 619h810M180 620h810M180 621h810M180 622h810M180 623h810M180 624h810M180 625h810M180 626h810M180 627h810M180 628h810M180 629h810M180 630h810M180 631h810M180 632h810M180 633h810M180 634h810M180 635h810M180 636h810M180 637h810M180 638h810M180 639h810M180 640h810M180 641h810M180 642h810M180 643h810M180 644h810M180 645h810M180 646h810M180 647h810M162 648h846M162 649h846M162 650h846M162 651h846M162 652h846M162 653h846M162 654h846M162 655h846M162 656h846M162 657h846M162 658h846M162 659h846M162 660h846M162 661h846M162 662h846M162 663h846M162 664h846M162 665h846M162 666h846M162 667h846M162 668h846M162 669h846M162 670h846M162 671h846M162 672h846M162 673h846M162 674h846M162 675h846M162 676h846M162 677h846M162 678h846M162 679h846M162 680h846M162 681h846M162 682h846M162 683h846M162 684h846M162 685h846M162 686h846M162 687h846M162 688h846M162 689h846M162 690h846M162 691h846M162 692h846M162 693h846M162 694h846M162 695h846M162 696h846M162 697h846M162 698h846M162 699h846M162 700h846M162 701h846M162 702h414M594 702h414M162 703h414M594 703h414M162 704h414M594 704h414M162 705h414M594 705h414M162 706h414M594 706h414M162 707h414M594 707h414M162 708h414M594 708h414M162 709h414M594 709h414M162 710h414M594 710h414M162 711h414M594 711h414M162 712h414M594 712h414M162 713h414M594 713h414M162 714h414M594 714h414M162 715h414M594 715h414M162 716h414M594 716h414M162 717h414M594 717h414M162 718h414M594 718h414M162 719h414M594 719h414M162 720h396M612 720h396M162 721h396M612 721h396M162 722h396M612 722h396M162 723h396M612 723h396M162 724h396M612 724h396M162 725h396M612 725h396M162 726h396M612 726h396M162 727h396M612 727h396M162 728h396M612 728h396M162 729h396M612 729h396M162 730h396M612 730h396M162 731h396M612 731h396M162 732h396M612 732h396M162 733h396M612 733h396M162 734h396M612 734h396M162 735h396M612 735h396M162 736h396M612 736h396M162 737h396M612 737h396M162 738h360M648 738h360M162 739h360M648 739h360M162 740h360M648 740h360M162 741h360M648 741h360M162 742h360M648 742h360M162 743h360M648 743h360M162 744h360M648 744h360M162 745h360M648 745h360M162 746h360M648 746h360M162 747h360M648 747h360M162 748h360M648 748h360M162 749h360M648 749h360M162 750h360M648 750h360M162 751h360M648 751h360M162 752h360M648 752h360M162 753h360M648 753h360M162 754h360M648 754h360M162 755h360M648 755h360M162 756h342M666 756h342M162 757h342M666 757h342M162 758h342M666 758h342M162 759h342M666 759h342M162 760h342M666 760h342M162 761h342M666 761h342M162 762h342M666 762h342M162 763h342M666 763h342M162 764h342M666 764h342M162 765h342M666 765h342M162 766h342M666 766h342M162 767h342M666 767h342M162 768h342M666 768h342M162 769h342M666 769h342M162 770h342M666 770h342M162 771h342M666 771h342M162 772h342M666 772h342M162 773h342M666 773h342M180 774h270M720 774h270M180 775h270M720 775h270M180 776h270M720 776h270M180 777h270M720 777h270M180 778h270M720 778h270M180 779h270M720 779h270M180 780h270M720 780h270M180 781h270M720 781h270M180 782h270M720 782h270M180 783h270M720 783h270M180 784h270M720 784h270M180 785h270M720 785h270M180 786h270M720 786h270M180 787h270M720 787h270M180 788h270M720 788h270M180 789h270M720 789h270M180 790h270M720 790h270M180 791h270M720 791h270M216 792h198M756 792h198M216 793h198M756 793h198M216 794h198M756 794h198M216 795h198M756 795h198M216 796h198M756 796h198M216 797h198M756 797h198M216 798h198M756 798h198M216 799h198M756 799h198M216 800h198M756 800h198M216 801h198M756 801h198M216 802h198M756 802h198M216 803h198M756 803h198M216 804h198M756 804h198M216 805h198M756 805h198M216 806h198M756 806h198M216 807h198M756 807h198M216 808h198M756 808h198M216 809h198M756 809h198M234 810h126M810 810h126M234 811h126M810 811h126M234 812h126M810 812h126M234 813h126M810 813h126M234 814h126M810 814h126M234 815h126M810 815h126M234 816h126M810 816h126M234 817h126M810 817h126M234 818h126M810 818h126M234 819h126M810 819h126M234 820h126M810 820h126M234 821h126M810 821h126M234 822h126M810 822h126M234 823h126M810 823h126M234 824h126M810 824h126M234 825h126M810 825h126M234 826h126M810 826h126M234 827h126M810 827h126M576 846h18M576 847h18M576 848h18M576 849h18M576 850h18M576 851h18M576 852h18M576 853h18M576 854h18M576 855h18M576 856h18M576 857h18M576 858h18M576 859h18M576 860h18M576 861h18M576 862h18M576 863h18M576 864h18M576 865h18M576 866h18M576 867h18M576 868h18M576 869h18M576 870h18M576 871h18M576 872h18M576 873h18M576 874h18M576 875h18M576 876h18M576 877h18M576 878h18M576 879h18M576 880h18M576 881h18M576 882h18M576 883h18M576 884h18M576 885h18M576 886h18M576 887h18M576 888h18M576 889h18M576 890h18M576 891h18M576 892h18M576 893h18M576 894h18M576 895h18M576 896h18M576 897h18M576 898h18M576 899h18M540 900h90M540 901h90M540 902h90M540 903h90M540 904h90M540 905h90M540 906h90M540 907h90M540 908h90M540 909h90M540 910h90M540 911h90M540 912h90M540 913h90M540 914h90M540 915h90M540 916h90M540 917h90M522 918h126M522 919h126M522 920h126M522 921h126M522 922h126M522 923h126M522 924h126M522 925h126M522 926h126M522 927h126M522 928h126M522 929h126M522 930h126M522 931h126M522 932h126M522 933h126M522 934h126M522 935h126M522 936h126M522 937h126M522 938h126M522 939h126M522 940h126M522 941h126M522 942h126M522 943h126M522 944h126M522 945h126M522 946h126M522 947h126M522 948h126M522 949h126M522 950h126M522 951h126M522 952h126M522 953h126M504 954h162M504 955h162M504 956h162M504 957h162M504 958h162M504 959h162M504 960h162M504 961h162M504 962h162M504 963h162M504 964h162M504 965h162M504 966h162M504 967h162M504 968h162M504 969h162M504 970h162M504 971h162M504 972h162M504 973h162M504 974h162M504 975h162M504 976h162M504 977h162M504 978h162M504 979h162M504 980h162M504 981h162M504 982h162M504 983h162M504 984h162M504 985h162M504 986h162M504 987h162M504 988h162M504 989h162" />
</svg>