<svg xmlns="http://www.w3.org/2000/svg" viewBox="0 -0.5 1170 1170" shape-rendering="crispEdges">
<metadata>Made with Pixels to Svg https://codepen.io/shshaw/pen/XbxvNj</metadata>
<path stroke="#000000" d="M576 90h18M576 91h18M576 92h18M576 93h18M576 94h18M576 95h18M576 96h18M576 97h18M576 98h18M576 99h18M576 100h18M576 101h18M576 102h18M576 103h18M576 104h18M576 105h18M576 106h18M576 107h18M558 108h54M558 109h54M558 110h54M558 111h54M558 112h54M558 113h54M558 114h54M558 115h54M558 116h54M558 117h54M558 118h54M558 119h54M558 120h54M558 121h54M558 122h54M558 123h54M558 124h54M558 125h54M540 126h36M594 126h36M540 127h36M594 127h36M540 128h36M594 128h36M540 129h36M594 129h36M540 130h36M594 130h36M540 131h36M594 131h36M540 132h36M594 132h36M540 133h36M594 133h36M540 134h36M594 134h36M540 135h36M594 135h36M540 136h36M594 136h36M540 137h36M594 137h36M540 138h36M594 138h36M540 139h36M594 139h36M540 140h36M594 140h36M540 141h36M594 141h36M540 142h36M594 142h36M540 143h36M594 143h36M522 144h36M612 144h36M522 145h36M612 145h36M522 146h36M612 146h36M522 147h36M612 147h36M522 148h36M612 148h36M522 149h36M612 149h36M522 150h36M612 150h36M522 151h36M612 151h36M522 152h36M612 152h36M522 153h36M612 153h36M522 154h36M612 154h36M522 155h36M612 155h36M522 156h36M612 156h36M522 157h36M612 157h36M522 158h36M612 158h36M522 159h36M612 159h36M522 160h36M612 160h36M522 161h36M612 161h36M504 162h36M630 162h36M504 163h36M630 163h36M504 164h36M630 164h36M504 165h36M630 165h36M504 166h36M630 166h36M504 167h36M630 167h36M504 168h36M630 168h36M504 169h36M630 169h36M504 170h36M630 170h36M504 171h36M630 171h36M504 172h36M630 172h36M504 173h36M630 173h36M504 174h36M630 174h36M504 175h36M630 175h36M504 176h36M630 176h36M504 177h36M630 177h36M504 178h36M630 178h36M504 179h36M630 179h36M504 180h18M648 180h18M504 181h18M648 181h18M504 182h18M648 182h18M504 183h18M648 183h18M504 184h18M648 184h18M504 185h18M648 185h18M504 186h18M648 186h18M504 187h18M648 187h18M504 188h18M648 188h18M504 189h18M648 189h18M504 190h18M648 190h18M504 191h18M648 191h18M504 192h18M648 192h18M504 193h18M648 193h18M504 194h18M648 194h18M504 195h18M648 195h18M504 196h18M648 196h18M504 197h18M648 197h18M486 198h36M648 198h36M486 199h36M648 199h36M486 200h36M648 200h36M486 201h36M648 201h36M486 202h36M648 202h36M486 203h36M648 203h36M486 204h36M648 204h36M486 205h36M648 205h36M486 206h36M648 206h36M486 207h36M648 207h36M486 208h36M648 208h36M486 209h36M648 209h36M486 210h36M648 210h36M486 211h36M648 211h36M486 212h36M648 212h36M486 213h36M648 213h36M486 214h36M648 214h36M486 215h36M648 215h36M468 216h36M666 216h36M468 217h36M666 217h36M468 218h36M666 218h36M468 219h36M666 219h36M468 220h36M666 220h36M468 221h36M666 221h36M468 222h36M666 222h36M468 223h36M666 223h36M468 224h36M666 224h36M468 225h36M666 225h36M468 226h36M666 226h36M468 227h36M666 227h36M468 228h36M666 228h36M468 229h36M666 229h36M468 230h36M666 230h36M468 231h36M666 231h36M468 232h36M666 232h36M468 233h36M666 233h36M450 234h36M684 234h36M450 235h36M684 235h36M450 236h36M684 236h36M450 237h36M684 237h36M450 238h36M684 238h36M450 239h36M684 239h36M450 240h36M684 240h36M450 241h36M684 241h36M450 242h36M684 242h36M450 243h36M684 243h36M450 244h36M684 244h36M450 245h36M684 245h36M450 246h36M684 246h36M450 247h36M684 247h36M450 248h36M684 248h36M450 249h36M684 249h36M450 250h36M684 250h36M450 251h36M684 251h36M432 252h36M702 252h36M432 253h36M702 253h36M432 254h36M702 254h36M432 255h36M702 255h36M432 256h36M702 256h36M432 257h36M702 257h36M432 258h36M702 258h36M432 259h36M702 259h36M432 260h36M702 260h36M432 261h36M702 261h36M432 262h36M702 262h36M432 263h36M702 263h36M432 264h36M702 264h36M432 265h36M702 265h36M432 266h36M702 266h36M432 267h36M702 267h36M432 268h36M702 268h36M432 269h36M702 269h36M414 270h36M720 270h36M414 271h36M720 271h36M414 272h36M720 272h36M414 273h36M720 273h36M414 274h36M720 274h36M414 275h36M720 275h36M414 276h36M720 276h36M414 277h36M720 277h36M414 278h36M720 278h36M414 279h36M720 279h36M414 280h36M720 280h36M414 281h36M720 281h36M414 282h36M720 282h36M414 283h36M720 283h36M414 284h36M720 284h36M414 285h36M720 285h36M414 286h36M720 286h36M414 287h36M720 287h36M396 288h36M738 288h36M396 289h36M738 289h36M396 290h36M738 290h36M396 291h36M738 291h36M396 292h36M738 292h36M396 293h36M738 293h36M396 294h36M738 294h36M396 295h36M738 295h36M396 296h36M738 296h36M396 297h36M738 297h36M396 298h36M738 298h36M396 299h36M738 299h36M396 300h36M738 300h36M396 301h36M738 301h36M396 302h36M738 302h36M396 303h36M738 303h36M396 304h36M738 304h36M396 305h36M738 305h36M396 306h18M756 306h18M396 307h18M756 307h18M396 308h18M756 308h18M396 309h18M756 309h18M396 310h18M756 310h18M396 311h18M756 311h18M396 312h18M756 312h18M396 313h18M756 313h18M396 314h18M756 314h18M396 315h18M756 315h18M396 316h18M756 316h18M396 317h18M756 317h18M396 318h18M756 318h18M396 319h18M756 319h18M396 320h18M756 320h18M396 321h18M756 321h18M396 322h18M756 322h18M396 323h18M756 323h18M378 324h36M756 324h36M378 325h36M756 325h36M378 326h36M756 326h36M378 327h36M756 327h36M378 328h36M756 328h36M378 329h36M756 329h36M378 330h36M756 330h36M378 331h36M756 331h36M378 332h36M756 332h36M378 333h36M756 333h36M378 334h36M756 334h36M378 335h36M756 335h36M378 336h36M756 336h36M378 337h36M756 337h36M378 338h36M756 338h36M378 339h36M756 339h36M378 340h36M756 340h36M378 341h36M756 341h36M378 342h18M774 342h36M378 343h18M774 343h36M378 344h18M774 344h36M378 345h18M774 345h36M378 346h18M774 346h36M378 347h18M774 347h36M378 348h18M774 348h36M378 349h18M774 349h36M378 350h18M774 350h36M378 351h18M774 351h36M378 352h18M774 352h36M378 353h18M774 353h36M378 354h18M774 354h36M378 355h18M774 355h36M378 356h18M774 356h36M378 357h18M774 357h36M378 358h18M774 358h36M378 359h18M774 359h36M360 360h18M792 360h18M360 361h18M792 361h18M360 362h18M792 362h18M360 363h18M792 363h18M360 364h18M792 364h18M360 365h18M792 365h18M360 366h18M792 366h18M360 367h18M792 367h18M360 368h18M792 368h18M360 369h18M792 369h18M360 370h18M792 370h18M360 371h18M792 371h18M360 372h18M792 372h18M360 373h18M792 373h18M360 374h18M792 374h18M360 375h18M792 375h18M360 376h18M792 376h18M360 377h18M792 377h18M342 378h36M792 378h36M342 379h36M792 379h36M342 380h36M792 380h36M342 381h36M792 381h36M342 382h36M792 382h36M342 383h36M792 383h36M342 384h36M792 384h36M342 385h36M792 385h36M342 386h36M792 386h36M342 387h36M792 387h36M342 388h36M792 388h36M342 389h36M792 389h36M342 390h36M792 390h36M342 391h36M792 391h36M342 392h36M792 392h36M342 393h36M792 393h36M342 394h36M792 394h36M342 395h36M792 395h36M342 396h18M810 396h18M342 397h18M810 397h18M342 398h18M810 398h18M342 399h18M810 399h18M342 400h18M810 400h18M342 401h18M810 401h18M342 402h18M810 402h18M342 403h18M810 403h18M342 404h18M810 404h18M342 405h18M810 405h18M342 406h18M810 406h18M342 407h18M810 407h18M342 408h18M810 408h18M342 409h18M810 409h18M342 410h18M810 410h18M342 411h18M810 411h18M342 412h18M810 412h18M342 413h18M810 413h18M324 414h36M810 414h36M324 415h36M810 415h36M324 416h36M810 416h36M324 417h36M810 417h36M324 418h36M810 418h36M324 419h36M810 419h36M324 420h36M810 420h36M324 421h36M810 421h36M324 422h36M810 422h36M324 423h36M810 423h36M324 424h36M810 424h36M324 425h36M810 425h36M324 426h36M810 426h36M324 427h36M810 427h36M324 428h36M810 428h36M324 429h36M810 429h36M324 430h36M810 430h36M324 431h36M810 431h36M306 432h36M828 432h36M306 433h36M828 433h36M306 434h36M828 434h36M306 435h36M828 435h36M306 436h36M828 436h36M306 437h36M828 437h36M306 438h36M828 438h36M306 439h36M828 439h36M306 440h36M828 440h36M306 441h36M828 441h36M306 442h36M828 442h36M306 443h36M828 443h36M306 444h36M828 444h36M306 445h36M828 445h36M306 446h36M828 446h36M306 447h36M828 447h36M306 448h36M828 448h36M306 449h36M828 449h36M306 450h18M846 450h18M306 451h18M846 451h18M306 452h18M846 452h18M306 453h18M846 453h18M306 454h18M846 454h18M306 455h18M846 455h18M306 456h18M846 456h18M306 457h18M846 457h18M306 458h18M846 458h18M306 459h18M846 459h18M306 460h18M846 460h18M306 461h18M846 461h18M306 462h18M846 462h18M306 463h18M846 463h18M306 464h18M846 464h18M306 465h18M846 465h18M306 466h18M846 466h18M306 467h18M846 467h18M288 468h36M846 468h36M288 469h36M846 469h36M288 470h36M846 470h36M288 471h36M846 471h36M288 472h36M846 472h36M288 473h36M846 473h36M288 474h36M846 474h36M288 475h36M846 475h36M288 476h36M846 476h36M288 477h36M846 477h36M288 478h36M846 478h36M288 479h36M846 479h36M288 480h36M846 480h36M288 481h36M846 481h36M288 482h36M846 482h36M288 483h36M846 483h36M288 484h36M846 484h36M288 485h36M846 485h36M288 486h18M864 486h18M288 487h18M864 487h18M288 488h18M864 488h18M288 489h18M864 489h18M288 490h18M864 490h18M288 491h18M864 491h18M288 492h18M864 492h18M288 493h18M864 493h18M288 494h18M864 494h18M288 495h18M864 495h18M288 496h18M864 496h18M288 497h18M864 497h18M288 498h18M864 498h18M288 499h18M864 499h18M288 500h18M864 500h18M288 501h18M864 501h18M288 502h18M864 502h18M288 503h18M864 503h18M270 504h36M864 504h36M270 505h36M864 505h36M270 506h36M864 506h36M270 507h36M864 507h36M270 508h36M864 508h36M270 509h36M864 509h36M270 510h36M864 510h36M270 511h36M864 511h36M270 512h36M864 512h36M270 513h36M864 513h36M270 514h36M864 514h36M270 515h36M864 515h36M270 516h36M864 516h36M270 517h36M864 517h36M270 518h36M864 518h36M270 519h36M864 519h36M270 520h36M864 520h36M270 521h36M864 521h36M252 522h36M882 522h36M252 523h36M882 523h36M252 524h36M882 524h36M252 525h36M882 525h36M252 526h36M882 526h36M252 527h36M882 527h36M252 528h36M882 528h36M252 529h36M882 529h36M252 530h36M882 530h36M252 531h36M882 531h36M252 532h36M882 532h36M252 533h36M882 533h36M252 534h36M882 534h36M252 535h36M882 535h36M252 536h36M882 536h36M252 537h36M882 537h36M252 538h36M882 538h36M252 539h36M882 539h36M252 540h18M900 540h18M252 541h18M900 541h18M252 542h18M900 542h18M252 543h18M900 543h18M252 544h18M900 544h18M252 545h18M900 545h18M252 546h18M900 546h18M252 547h18M900 547h18M252 548h18M900 548h18M252 549h18M900 549h18M252 550h18M900 550h18M252 551h18M900 551h18M252 552h18M900 552h18M252 553h18M900 553h18M252 554h18M900 554h18M252 555h18M900 555h18M252 556h18M900 556h18M252 557h18M900 557h18M234 558h36M900 558h36M234 559h36M900 559h36M234 560h36M900 560h36M234 561h36M900 561h36M234 562h36M900 562h36M234 563h36M900 563h36M234 564h36M900 564h36M234 565h36M900 565h36M234 566h36M900 566h36M234 567h36M900 567h36M234 568h36M900 568h36M234 569h36M900 569h36M234 570h36M900 570h36M234 571h36M900 571h36M234 572h36M900 572h36M234 573h36M900 573h36M234 574h36M900 574h36M234 575h36M900 575h36M234 576h18M918 576h18M234 577h18M918 577h18M234 578h18M918 578h18M234 579h18M918 579h18M234 580h18M918 580h18M234 581h18M918 581h18M234 582h18M918 582h18M234 583h18M918 583h18M234 584h18M918 584h18M234 585h18M918 585h18M234 586h18M918 586h18M234 587h18M918 587h18M234 588h18M918 588h18M234 589h18M918 589h18M234 590h18M918 590h18M234 591h18M918 591h18M234 592h18M918 592h18M234 593h18M918 593h18M234 594h36M900 594h36M234 595h36M900 595h36M234 596h36M900 596h36M234 597h36M900 597h36M234 598h36M900 598h36M234 599h36M900 599h36M234 600h36M900 600h36M234 601h36M900 601h36M234 602h36M900 602h36M234 603h36M900 603h36M234 604h36M900 604h36M234 605h36M900 605h36M234 606h36M900 606h36M234 607h36M900 607h36M234 608h36M900 608h36M234 609h36M900 609h36M234 610h36M900 610h36M234 611h36M900 611h36M252 612h18M900 612h18M252 613h18M900 613h18M252 614h18M900 614h18M252 615h18M900 615h18M252 616h18M900 616h18M252 617h18M900 617h18M252 618h18M900 618h18M252 619h18M900 619h18M252 620h18M900 620h18M252 621h18M900 621h18M252 622h18M900 622h18M252 623h18M900 623h18M252 624h18M900 624h18M252 625h18M900 625h18M252 626h18M900 626h18M252 627h18M900 627h18M252 628h18M900 628h18M252 629h18M900 629h18M252 630h36M882 630h36M252 631h36M882 631h36M252 632h36M882 632h36M252 633h36M882 633h36M252 634h36M882 634h36M252 635h36M882 635h36M252 636h36M882 636h36M252 637h36M882 637h36M252 638h36M882 638h36M252 639h36M882 639h36M252 640h36M882 640h36M252 641h36M882 641h36M252 642h36M882 642h36M252 643h36M882 643h36M252 644h36M882 644h36M252 645h36M882 645h36M252 646h36M882 646h36M252 647h36M882 647h36M270 648h36M864 648h36M270 649h36M864 649h36M270 650h36M864 650h36M270 651h36M864 651h36M270 652h36M864 652h36M270 653h36M864 653h36M270 654h36M864 654h36M270 655h36M864 655h36M270 656h36M864 656h36M270 657h36M864 657h36M270 658h36M864 658h36M270 659h36M864 659h36M270 660h36M864 660h36M270 661h36M864 661h36M270 662h36M864 662h36M270 663h36M864 663h36M270 664h36M864 664h36M270 665h36M864 665h36M288 666h18M864 666h18M288 667h18M864 667h18M288 668h18M864 668h18M288 669h18M864 669h18M288 670h18M864 670h18M288 671h18M864 671h18M288 672h18M864 672h18M288 673h18M864 673h18M288 674h18M864 674h18M288 675h18M864 675h18M288 676h18M864 676h18M288 677h18M864 677h18M288 678h18M864 678h18M288 679h18M864 679h18M288 680h18M864 680h18M288 681h18M864 681h18M288 682h18M864 682h18M288 683h18M864 683h18M288 684h36M846 684h36M288 685h36M846 685h36M288 686h36M846 686h36M288 687h36M846 687h36M288 688h36M846 688h36M288 689h36M846 689h36M288 690h36M846 690h36M288 691h36M846 691h36M288 692h36M846 692h36M288 693h36M846 693h36M288 694h36M846 694h36M288 695h36M846 695h36M288 696h36M846 696h36M288 697h36M846 697h36M288 698h36M846 698h36M288 699h36M846 699h36M288 700h36M846 700h36M288 701h36M846 701h36M306 702h36M828 702h36M306 703h36M828 703h36M306 704h36M828 704h36M306 705h36M828 705h36M306 706h36M828 706h36M306 707h36M828 707h36M306 708h36M828 708h36M306 709h36M828 709h36M306 710h36M828 710h36M306 711h36M828 711h36M306 712h36M828 712h36M306 713h36M828 713h36M306 714h36M828 714h36M306 715h36M828 715h36M306 716h36M828 716h36M306 717h36M828 717h36M306 718h36M828 718h36M306 719h36M828 719h36M324 720h18M828 720h18M324 721h18M828 721h18M324 722h18M828 722h18M324 723h18M828 723h18M324 724h18M828 724h18M324 725h18M828 725h18M324 726h18M828 726h18M324 727h18M828 727h18M324 728h18M828 728h18M324 729h18M828 729h18M324 730h18M828 730h18M324 731h18M828 731h18M324 732h18M828 732h18M324 733h18M828 733h18M324 734h18M828 734h18M324 735h18M828 735h18M324 736h18M828 736h18M324 737h18M828 737h18M324 738h36M810 738h36M324 739h36M810 739h36M324 740h36M810 740h36M324 741h36M810 741h36M324 742h36M810 742h36M324 743h36M810 743h36M324 744h36M810 744h36M324 745h36M810 745h36M324 746h36M810 746h36M324 747h36M810 747h36M324 748h36M810 748h36M324 749h36M810 749h36M324 750h36M810 750h36M324 751h36M810 751h36M324 752h36M810 752h36M324 753h36M810 753h36M324 754h36M810 754h36M324 755h36M810 755h36M342 756h18M810 756h18M342 757h18M810 757h18M342 758h18M810 758h18M342 759h18M810 759h18M342 760h18M810 760h18M342 761h18M810 761h18M342 762h18M810 762h18M342 763h18M810 763h18M342 764h18M810 764h18M342 765h18M810 765h18M342 766h18M810 766h18M342 767h18M810 767h18M342 768h18M810 768h18M342 769h18M810 769h18M342 770h18M810 770h18M342 771h18M810 771h18M342 772h18M810 772h18M342 773h18M810 773h18M342 774h36M792 774h36M342 775h36M792 775h36M342 776h36M792 776h36M342 777h36M792 777h36M342 778h36M792 778h36M342 779h36M792 779h36M342 780h36M792 780h36M342 781h36M792 781h36M342 782h36M792 782h36M342 783h36M792 783h36M342 784h36M792 784h36M342 785h36M792 785h36M342 786h36M792 786h36M342 787h36M792 787h36M342 788h36M792 788h36M342 789h36M792 789h36M342 790h36M792 790h36M342 791h36M792 791h36M360 792h18M792 792h18M360 793h18M792 793h18M360 794h18M792 794h18M360 795h18M792 795h18M360 796h18M792 796h18M360 797h18M792 797h18M360 798h18M792 798h18M360 799h18M792 799h18M360 800h18M792 800h18M360 801h18M792 801h18M360 802h18M792 802h18M360 803h18M792 803h18M360 804h18M792 804h18M360 805h18M792 805h18M360 806h18M792 806h18M360 807h18M792 807h18M360 808h18M792 808h18M360 809h18M792 809h18M378 810h18M774 810h36M378 811h18M774 811h36M378 812h18M774 812h36M378 813h18M774 813h36M378 814h18M774 814h36M378 815h18M774 815h36M378 816h18M774 816h36M378 817h18M774 817h36M378 818h18M774 818h36M378 819h18M774 819h36M378 820h18M774 820h36M378 821h18M774 821h36M378 822h18M774 822h36M378 823h18M774 823h36M378 824h18M774 824h36M378 825h18M774 825h36M378 826h18M774 826h36M378 827h18M774 827h36M378 828h36M756 828h36M378 829h36M756 829h36M378 830h36M756 830h36M378 831h36M756 831h36M378 832h36M756 832h36M378 833h36M756 833h36M378 834h36M756 834h36M378 835h36M756 835h36M378 836h36M756 836h36M378 837h36M756 837h36M378 838h36M756 838h36M378 839h36M756 839h36M378 840h36M756 840h36M378 841h36M756 841h36M378 842h36M756 842h36M378 843h36M756 843h36M378 844h36M756 844h36M378 845h36M756 845h36M396 846h18M756 846h18M396 847h18M756 847h18M396 848h18M756 848h18M396 849h18M756 849h18M396 850h18M756 850h18M396 851h18M756 851h18M396 852h18M756 852h18M396 853h18M756 853h18M396 854h18M756 854h18M396 855h18M756 855h18M396 856h18M756 856h18M396 857h18M756 857h18M396 858h18M756 858h18M396 859h18M756 859h18M396 860h18M756 860h18M396 861h18M756 861h18M396 862h18M756 862h18M396 863h18M756 863h18M396 864h36M738 864h36M396 865h36M738 865h36M396 866h36M738 866h36M396 867h36M738 867h36M396 868h36M738 868h36M396 869h36M738 869h36M396 870h36M738 870h36M396 871h36M738 871h36M396 872h36M738 872h36M396 873h36M738 873h36M396 874h36M738 874h36M396 875h36M738 875h36M396 876h36M738 876h36M396 877h36M738 877h36M396 878h36M738 878h36M396 879h36M738 879h36M396 880h36M738 880h36M396 881h36M738 881h36M414 882h36M720 882h36M414 883h36M720 883h36M414 884h36M720 884h36M414 885h36M720 885h36M414 886h36M720 886h36M414 887h36M720 887h36M414 888h36M720 888h36M414 889h36M720 889h36M414 890h36M720 890h36M414 891h36M720 891h36M414 892h36M720 892h36M414 893h36M720 893h36M414 894h36M720 894h36M414 895h36M720 895h36M414 896h36M720 896h36M414 897h36M720 897h36M414 898h36M720 898h36M414 899h36M720 899h36M432 900h36M702 900h36M432 901h36M702 901h36M432 902h36M702 902h36M432 903h36M702 903h36M432 904h36M702 904h36M432 905h36M702 905h36M432 906h36M702 906h36M432 907h36M702 907h36M432 908h36M702 908h36M432 909h36M702 909h36M432 910h36M702 910h36M432 911h36M702 911h36M432 912h36M702 912h36M432 913h36M702 913h36M432 914h36M702 914h36M432 915h36M702 915h36M432 916h36M702 916h36M432 917h36M702 917h36M450 918h36M684 918h36M450 919h36M684 919h36M450 920h36M684 920h36M450 921h36M684 921h36M450 922h36M684 922h36M450 923h36M684 923h36M450 924h36M684 924h36M450 925h36M684 925h36M450 926h36M684 926h36M450 927h36M684 927h36M450 928h36M684 928h36M450 929h36M684 929h36M450 930h36M684 930h36M450 931h36M684 931h36M450 932h36M684 932h36M450 933h36M684 933h36M450 934h36M684 934h36M450 935h36M684 935h36M468 936h36M666 936h36M468 937h36M666 937h36M468 938h36M666 938h36M468 939h36M666 939h36M468 940h36M666 940h36M468 941h36M666 941h36M468 942h36M666 942h36M468 943h36M666 943h36M468 944h36M666 944h36M468 945h36M666 945h36M468 946h36M666 946h36M468 947h36M666 947h36M468 948h36M666 948h36M468 949h36M666 949h36M468 950h36M666 950h36M468 951h36M666 951h36M468 952h36M666 952h36M468 953h36M666 953h36M486 954h18M666 954h18M486 955h18M666 955h18M486 956h18M666 956h18M486 957h18M666 957h18M486 958h18M666 958h18M486 959h18M666 959h18M486 960h18M666 960h18M486 961h18M666 961h18M486 962h18M666 962h18M486 963h18M666 963h18M486 964h18M666 964h18M486 965h18M666 965h18M486 966h18M666 966h18M486 967h18M666 967h18M486 968h18M666 968h18M486 969h18M666 969h18M486 970h18M666 970h18M486 971h18M666 971h18M504 972h36M630 972h36M504 973h36M630 973h36M504 974h36M630 974h36M504 975h36M630 975h36M504 976h36M630 976h36M504 977h36M630 977h36M504 978h36M630 978h36M504 979h36M630 979h36M504 980h36M630 980h36M504 981h36M630 981h36M504 982h36M630 982h36M504 983h36M630 983h36M504 984h36M630 984h36M504 985h36M630 985h36M504 986h36M630 986h36M504 987h36M630 987h36M504 988h36M630 988h36M504 989h36M630 989h36M522 990h18M630 990h18M522 991h18M630 991h18M522 992h18M630 992h18M522 993h18M630 993h18M522 994h18M630 994h18M522 995h18M630 995h18M522 996h18M630 996h18M522 997h18M630 997h18M522 998h18M630 998h18M522 999h18M630 999h18M522 1000h18M630 1000h18M522 1001h18M630 1001h18M522 1002h18M630 1002h18M522 1003h18M630 1003h18M522 1004h18M630 1004h18M522 1005h18M630 1005h18M522 1006h18M630 1006h18M522 1007h18M630 1007h18M522 1008h36M612 1008h36M522 1009h36M612 1009h36M522 1010h36M612 1010h36M522 1011h36M612 1011h36M522 1012h36M612 1012h36M522 1013h36M612 1013h36M522 1014h36M612 1014h36M522 1015h36M612 1015h36M522 1016h36M612 1016h36M522 1017h36M612 1017h36M522 1018h36M612 1018h36M522 1019h36M612 1019h36M522 1020h36M612 1020h36M522 1021h36M612 1021h36M522 1022h36M612 1022h36M522 1023h36M612 1023h36M522 1024h36M612 1024h36M522 1025h36M612 1025h36M540 1026h36M594 1026h36M540 1027h36M594 1027h36M540 1028h36M594 1028h36M540 1029h36M594 1029h36M540 1030h36M594 1030h36M540 1031h36M594 1031h36M540 1032h36M594 1032h36M540 1033h36M594 1033h36M540 1034h36M594 1034h36M540 1035h36M594 1035h36M540 1036h36M594 1036h36M540 1037h36M594 1037h36M540 1038h36M594 1038h36M540 1039h36M594 1039h36M540 1040h36M594 1040h36M540 1041h36M594 1041h36M540 1042h36M594 1042h36M540 1043h36M594 1043h36M558 1044h54M558 1045h54M558 1046h54M558 1047h54M558 1048h54M558 1049h54M558 1050h54M558 1051h54M558 1052h54M558 1053h54M558 1054h54M558 1055h54M558 1056h54M558 1057h54M558 1058h54M558 1059h54M558 1060h54M558 1061h54M576 1062h18M576 1063h18M576 1064h18M576 1065h18M576 1066h18M576 1067h18M576 1068h18M576 1069h18M576 1070h18M576 1071h18M576 1072h18M576 1073h18M576 1074h18M576 1075h18M576 1076h18M576 1077h18M576 1078h18M576 1079h18" />
<path stroke="#ef5350" d="M576 126h18M576 127h18M576 128h18M576 129h18M576 130h18M576 131h18M576 132h18M576 133h18M576 134h18M576 135h18M576 136h18M576 137h18M576 138h18M576 139h18M576 140h18M576 141h18M576 142h18M576 143h18M558 144h54M558 145h54M558 146h54M558 147h54M558 148h54M558 149h54M558 150h54M558 151h54M558 152h54M558 153h54M558 154h54M558 155h54M558 156h54M558 157h54M558 158h54M558 159h54M558 160h54M558 161h54M540 162h90M540 163h90M540 164h90M540 165h90M540 166h90M540 167h90M540 168h90M540 169h90M540 170h90M540 171h90M540 172h90M540 173h90M540 174h90M540 175h90M540 176h90M540 177h90M540 178h90M540 179h90M522 180h54M594 180h54M522 181h54M594 181h54M522 182h54M594 182h54M522 183h54M594 183h54M522 184h54M594 184h54M522 185h54M594 185h54M522 186h54M594 186h54M522 187h54M594 187h54M522 188h54M594 188h54M522 189h54M594 189h54M522 190h54M594 190h54M522 191h54M594 191h54M522 192h54M594 192h54M522 193h54M594 193h54M522 194h54M594 194h54M522 195h54M594 195h54M522 196h54M594 196h54M522 197h54M594 197h54M522 198h36M612 198h36M522 199h36M612 199h36M522 200h36M612 200h36M522 201h36M612 201h36M522 202h36M612 202h36M522 203h36M612 203h36M522 204h36M612 204h36M522 205h36M612 205h36M522 206h36M612 206h36M522 207h36M612 207h36M522 208h36M612 208h36M522 209h36M612 209h36M522 210h36M612 210h36M522 211h36M612 211h36M522 212h36M612 212h36M522 213h36M612 213h36M522 214h36M612 214h36M522 215h36M612 215h36M504 216h36M630 216h36M504 217h36M630 217h36M504 218h36M630 218h36M504 219h36M630 219h36M504 220h36M630 220h36M504 221h36M630 221h36M504 222h36M630 222h36M504 223h36M630 223h36M504 224h36M630 224h36M504 225h36M630 225h36M504 226h36M630 226h36M504 227h36M630 227h36M504 228h36M630 228h36M504 229h36M630 229h36M504 230h36M630 230h36M504 231h36M630 231h36M504 232h36M630 232h36M504 233h36M630 233h36M486 234h54M630 234h54M486 235h54M630 235h54M486 236h54M630 236h54M486 237h54M630 237h54M486 238h54M630 238h54M486 239h54M630 239h54M486 240h54M630 240h54M486 241h54M630 241h54M486 242h54M630 242h54M486 243h54M630 243h54M486 244h54M630 244h54M486 245h54M630 245h54M486 246h54M630 246h54M486 247h54M630 247h54M486 248h54M630 248h54M486 249h54M630 249h54M486 250h54M630 250h54M486 251h54M630 251h54M468 252h54M648 252h54M468 253h54M648 253h54M468 254h54M648 254h54M468 255h54M648 255h54M468 256h54M648 256h54M468 257h54M648 257h54M468 258h54M648 258h54M468 259h54M648 259h54M468 260h54M648 260h54M468 261h54M648 261h54M468 262h54M648 262h54M468 263h54M648 263h54M468 264h54M648 264h54M468 265h54M648 265h54M468 266h54M648 266h54M468 267h54M648 267h54M468 268h54M648 268h54M468 269h54M648 269h54M450 270h54M666 270h54M450 271h54M666 271h54M450 272h54M666 272h54M450 273h54M666 273h54M450 274h54M666 274h54M450 275h54M666 275h54M450 276h54M666 276h54M450 277h54M666 277h54M450 278h54M666 278h54M450 279h54M666 279h54M450 280h54M666 280h54M450 281h54M666 281h54M450 282h54M666 282h54M450 283h54M666 283h54M450 284h54M666 284h54M450 285h54M666 285h54M450 286h54M666 286h54M450 287h54M666 287h54M432 288h54M684 288h54M432 289h54M684 289h54M432 290h54M684 290h54M432 291h54M684 291h54M432 292h54M684 292h54M432 293h54M684 293h54M432 294h54M684 294h54M432 295h54M684 295h54M432 296h54M684 296h54M432 297h54M684 297h54M432 298h54M684 298h54M432 299h54M684 299h54M432 300h54M684 300h54M432 301h54M684 301h54M432 302h54M684 302h54M432 303h54M684 303h54M432 304h54M684 304h54M432 305h54M684 305h54M414 306h72M684 306h72M414 307h72M684 307h72M414 308h72M684 308h72M414 309h72M684 309h72M414 310h72M684 310h72M414 311h72M684 311h72M414 312h72M684 312h72M414 313h72M684 313h72M414 314h72M684 314h72M414 315h72M684 315h72M414 316h72M684 316h72M414 317h72M684 317h72M414 318h72M684 318h72M414 319h72M684 319h72M414 320h72M684 320h72M414 321h72M684 321h72M414 322h72M684 322h72M414 323h72M684 323h72M414 324h54M702 324h54M414 325h54M702 325h54M414 326h54M702 326h54M414 327h54M702 327h54M414 328h54M702 328h54M414 329h54M702 329h54M414 330h54M702 330h54M414 331h54M702 331h54M414 332h54M702 332h54M414 333h54M702 333h54M414 334h54M702 334h54M414 335h54M702 335h54M414 336h54M702 336h54M414 337h54M702 337h54M414 338h54M702 338h54M414 339h54M702 339h54M414 340h54M702 340h54M414 341h54M702 341h54M396 342h54M720 342h54M396 343h54M720 343h54M396 344h54M720 344h54M396 345h54M720 345h54M396 346h54M720 346h54M396 347h54M720 347h54M396 348h54M720 348h54M396 349h54M720 349h54M396 350h54M720 350h54M396 351h54M720 351h54M396 352h54M720 352h54M396 353h54M720 353h54M396 354h54M720 354h54M396 355h54M720 355h54M396 356h54M720 356h54M396 357h54M720 357h54M396 358h54M720 358h54M396 359h54M720 359h54M378 360h54M738 360h54M378 361h54M738 361h54M378 362h54M738 362h54M378 363h54M738 363h54M378 364h54M738 364h54M378 365h54M738 365h54M378 366h54M738 366h54M378 367h54M738 367h54M378 368h54M738 368h54M378 369h54M738 369h54M378 370h54M738 370h54M378 371h54M738 371h54M378 372h54M738 372h54M378 373h54M738 373h54M378 374h54M738 374h54M378 375h54M738 375h54M378 376h54M738 376h54M378 377h54M738 377h54M378 378h36M756 378h36M378 379h36M756 379h36M378 380h36M756 380h36M378 381h36M756 381h36M378 382h36M756 382h36M378 383h36M756 383h36M378 384h36M756 384h36M378 385h36M756 385h36M378 386h36M756 386h36M378 387h36M756 387h36M378 388h36M756 388h36M378 389h36M756 389h36M378 390h36M756 390h36M378 391h36M756 391h36M378 392h36M756 392h36M378 393h36M756 393h36M378 394h36M756 394h36M378 395h36M756 395h36M360 396h54M756 396h54M360 397h54M756 397h54M360 398h54M756 398h54M360 399h54M756 399h54M360 400h54M756 400h54M360 401h54M756 401h54M360 402h54M756 402h54M360 403h54M756 403h54M360 404h54M756 404h54M360 405h54M756 405h54M360 406h54M756 406h54M360 407h54M756 407h54M360 408h54M756 408h54M360 409h54M756 409h54M360 410h54M756 410h54M360 411h54M756 411h54M360 412h54M756 412h54M360 413h54M756 413h54M360 414h36M774 414h36M360 415h36M774 415h36M360 416h36M774 416h36M360 417h36M774 417h36M360 418h36M774 418h36M360 419h36M774 419h36M360 420h36M774 420h36M360 421h36M774 421h36M360 422h36M774 422h36M360 423h36M774 423h36M360 424h36M774 424h36M360 425h36M774 425h36M360 426h36M774 426h36M360 427h36M774 427h36M360 428h36M774 428h36M360 429h36M774 429h36M360 430h36M774 430h36M360 431h36M774 431h36M342 432h54M774 432h54M342 433h54M774 433h54M342 434h54M774 434h54M342 435h54M774 435h54M342 436h54M774 436h54M342 437h54M774 437h54M342 438h54M774 438h54M342 439h54M774 439h54M342 440h54M774 440h54M342 441h54M774 441h54M342 442h54M774 442h54M342 443h54M774 443h54M342 444h54M774 444h54M342 445h54M774 445h54M342 446h54M774 446h54M342 447h54M774 447h54M342 448h54M774 448h54M342 449h54M774 449h54M324 450h54M792 450h54M324 451h54M792 451h54M324 452h54M792 452h54M324 453h54M792 453h54M324 454h54M792 454h54M324 455h54M792 455h54M324 456h54M792 456h54M324 457h54M792 457h54M324 458h54M792 458h54M324 459h54M792 459h54M324 460h54M792 460h54M324 461h54M792 461h54M324 462h54M792 462h54M324 463h54M792 463h54M324 464h54M792 464h54M324 465h54M792 465h54M324 466h54M792 466h54M324 467h54M792 467h54M324 468h54M792 468h54M324 469h54M792 469h54M324 470h54M792 470h54M324 471h54M792 471h54M324 472h54M792 472h54M324 473h54M792 473h54M324 474h54M792 474h54M324 475h54M792 475h54M324 476h54M792 476h54M324 477h54M792 477h54M324 478h54M792 478h54M324 479h54M792 479h54M324 480h54M792 480h54M324 481h54M792 481h54M324 482h54M792 482h54M324 483h54M792 483h54M324 484h54M792 484h54M324 485h54M792 485h54M306 486h54M810 486h54M306 487h54M810 487h54M306 488h54M810 488h54M306 489h54M810 489h54M306 490h54M810 490h54M306 491h54M810 491h54M306 492h54M810 492h54M306 493h54M810 493h54M306 494h54M810 494h54M306 495h54M810 495h54M306 496h54M810 496h54M306 497h54M810 497h54M306 498h54M810 498h54M306 499h54M810 499h54M306 500h54M810 500h54M306 501h54M810 501h54M306 502h54M810 502h54M306 503h54M810 503h54M306 504h54M810 504h54M306 505h54M810 505h54M306 506h54M810 506h54M306 507h54M810 507h54M306 508h54M810 508h54M306 509h54M810 509h54M306 510h54M810 510h54M306 511h54M810 511h54M306 512h54M810 512h54M306 513h54M810 513h54M306 514h54M810 514h54M306 515h54M810 515h54M306 516h54M810 516h54M306 517h54M810 517h54M306 518h54M810 518h54M306 519h54M810 519h54M306 520h54M810 520h54M306 521h54M810 521h54M288 522h54M828 522h54M288 523h54M828 523h54M288 524h54M828 524h54M288 525h54M828 525h54M288 526h54M828 526h54M288 527h54M828 527h54M288 528h54M828 528h54M288 529h54M828 529h54M288 530h54M828 530h54M288 531h54M828 531h54M288 532h54M828 532h54M288 533h54M828 533h54M288 534h54M828 534h54M288 535h54M828 535h54M288 536h54M828 536h54M288 537h54M828 537h54M288 538h54M828 538h54M288 539h54M828 539h54M270 540h54M846 540h54M270 541h54M846 541h54M270 542h54M846 542h54M270 543h54M846 543h54M270 544h54M846 544h54M270 545h54M846 545h54M270 546h54M846 546h54M270 547h54M846 547h54M270 548h54M846 548h54M270 549h54M846 549h54M270 550h54M846 550h54M270 551h54M846 551h54M270 552h54M846 552h54M270 553h54M846 553h54M270 554h54M846 554h54M270 555h54M846 555h54M270 556h54M846 556h54M270 557h54M846 557h54M270 558h54M846 558h54M270 559h54M846 559h54M270 560h54M846 560h54M270 561h54M846 561h54M270 562h54M846 562h54M270 563h54M846 563h54M270 564h54M846 564h54M270 565h54M846 565h54M270 566h54M846 566h54M270 567h54M846 567h54M270 568h54M846 568h54M270 569h54M846 569h54M270 570h54M846 570h54M270 571h54M846 571h54M270 572h54M846 572h54M270 573h54M846 573h54M270 574h54M846 574h54M270 575h54M846 575h54" />
<path stroke="#b71c1c" d="M576 180h18M576 181h18M576 182h18M576 183h18M576 184h18M576 185h18M576 186h18M576 187h18M576 188h18M576 189h18M576 190h18M576 191h18M576 192h18M576 193h18M576 194h18M576 195h18M576 196h18M576 197h18M558 198h54M558 199h54M558 200h54M558 201h54M558 202h54M558 203h54M558 204h54M558 205h54M558 206h54M558 207h54M558 208h54M558 209h54M558 210h54M558 211h54M558 212h54M558 213h54M558 214h54M558 215h54M540 216h90M540 217h90M540 218h90M540 219h90M540 220h90M540 221h90M540 222h90M540 223h90M540 224h90M540 225h90M540 226h90M540 227h90M540 228h90M540 229h90M540 230h90M540 231h90M540 232h90M540 233h90M540 234h90M540 235h90M540 236h90M540 237h90M540 238h90M540 239h90M540 240h90M540 241h90M540 242h90M540 243h90M540 244h90M540 245h90M540 246h90M540 247h90M540 248h90M540 249h90M540 250h90M540 251h90M522 252h126M522 253h126M522 254h126M522 255h126M522 256h126M522 257h126M522 258h126M522 259h126M522 260h126M522 261h126M522 262h126M522 263h126M522 264h126M522 265h126M522 266h126M522 267h126M522 268h126M522 269h126M504 270h162M504 271h162M504 272h162M504 273h162M504 274h162M504 275h162M504 276h162M504 277h162M504 278h162M504 279h162M504 280h162M504 281h162M504 282h162M504 283h162M504 284h162M504 285h162M504 286h162M504 287h162M486 288h198M486 289h198M486 290h198M486 291h198M486 292h198M486 293h198M486 294h198M486 295h198M486 296h198M486 297h198M486 298h198M486 299h198M486 300h198M486 301h198M486 302h198M486 303h198M486 304h198M486 305h198M486 306h198M486 307h198M486 308h198M486 309h198M486 310h198M486 311h198M486 312h198M486 313h198M486 314h198M486 315h198M486 316h198M486 317h198M486 318h198M486 319h198M486 320h198M486 321h198M486 322h198M486 323h198M468 324h234M468 325h234M468 326h234M468 327h234M468 328h234M468 329h234M468 330h234M468 331h234M468 332h234M468 333h234M468 334h234M468 335h234M468 336h234M468 337h234M468 338h234M468 339h234M468 340h234M468 341h234M450 342h270M450 343h270M450 344h270M450 345h270M450 346h270M450 347h270M450 348h270M450 349h270M450 350h270M450 351h270M450 352h270M450 353h270M450 354h270M450 355h270M450 356h270M450 357h270M450 358h270M450 359h270M432 360h306M432 361h306M432 362h306M432 363h306M432 364h306M432 365h306M432 366h306M432 367h306M432 368h306M432 369h306M432 370h306M432 371h306M432 372h306M432 373h306M432 374h306M432 375h306M432 376h306M432 377h306M414 378h342M414 379h342M414 380h342M414 381h342M414 382h342M414 383h342M414 384h342M414 385h342M414 386h342M414 387h342M414 388h342M414 389h342M414 390h342M414 391h342M414 392h342M414 393h342M414 394h342M414 395h342M414 396h342M414 397h342M414 398h342M414 399h342M414 400h342M414 401h342M414 402h342M414 403h342M414 404h342M414 405h342M414 406h342M414 407h342M414 408h342M414 409h342M414 410h342M414 411h342M414 412h342M414 413h342M396 414h378M396 415h378M396 416h378M396 417h378M396 418h378M396 419h378M396 420h378M396 421h378M396 422h378M396 423h378M396 424h378M396 425h378M396 426h378M396 427h378M396 428h378M396 429h378M396 430h378M396 431h378M396 432h378M396 433h378M396 434h378M396 435h378M396 436h378M396 437h378M396 438h378M396 439h378M396 440h378M396 441h378M396 442h378M396 443h378M396 444h378M396 445h378M396 446h378M396 447h378M396 448h378M396 449h378M378 450h414M378 451h414M378 452h414M378 453h414M378 454h414M378 455h414M378 456h414M378 457h414M378 458h414M378 459h414M378 460h414M378 461h414M378 462h414M378 463h414M378 464h414M378 465h414M378 466h414M378 467h414M378 468h414M378 469h414M378 470h414M378 471h414M378 472h414M378 473h414M378 474h414M378 475h414M378 476h414M378 477h414M378 478h414M378 479h414M378 480h414M378 481h414M378 482h414M378 483h414M378 484h414M378 485h414M360 486h450M360 487h450M360 488h450M360 489h450M360 490h450M360 491h450M360 492h450M360 493h450M360 494h450M360 495h450M360 496h450M360 497h450M360 498h450M360 499h450M360 500h450M360 501h450M360 502h450M360 503h450M360 504h450M360 505h450M360 506h450M360 507h450M360 508h450M360 509h450M360 510h450M360 511h450M360 512h450M360 513h450M360 514h450M360 515h450M360 516h450M360 517h450M360 518h450M360 519h450M360 520h450M360 521h450M342 522h486M342 523h486M342 524h486M342 525h486M342 526h486M342 527h486M342 528h486M342 529h486M342 530h486M342 531h486M342 532h486M342 533h486M342 534h486M342 535h486M342 536h486M342 537h486M342 538h486M342 539h486M324 540h522M324 541h522M324 542h522M324 543h522M324 544h522M324 545h522M324 546h522M324 547h522M324 548h522M324 549h522M324 550h522M324 551h522M324 552h522M324 553h522M324 554h522M324 555h522M324 556h522M324 557h522M324 558h522M324 559h522M324 560h522M324 561h522M324 562h522M324 563h522M324 564h522M324 565h522M324 566h522M324 567h522M324 568h522M324 569h522M324 570h522M324 571h522M324 572h522M324 573h522M324 574h522M324 575h522M306 576h558M306 577h558M306 578h558M306 579h558M306 580h558M306 581h558M306 582h558M306 583h558M306 584h558M306 585h558M306 586h558M306 587h558M306 588h558M306 589h558M306 590h558M306 591h558M306 592h558M306 593h558M324 594h522M324 595h522M324 596h522M324 597h522M324 598h522M324 599h522M324 600h522M324 601h522M324 602h522M324 603h522M324 604h522M324 605h522M324 606h522M324 607h522M324 608h522M324 609h522M324 610h522M324 611h522M360 612h450M360 613h450M360 614h450M360 615h450M360 616h450M360 617h450M360 618h450M360 619h450M360 620h450M360 621h450M360 622h450M360 623h450M360 624h450M360 625h450M360 626h450M360 627h450M360 628h450M360 629h450M360 630h450M360 631h450M360 632h450M360 633h450M360 634h450M360 635h450M360 636h450M360 637h450M360 638h450M360 639h450M360 640h450M360 641h450M360 642h450M360 643h450M360 644h450M360 645h450M360 646h450M360 647h450M378 648h414M378 649h414M378 650h414M378 651h414M378 652h414M378 653h414M378 654h414M378 655h414M378 656h414M378 657h414M378 658h414M378 659h414M378 660h414M378 661h414M378 662h414M378 663h414M378 664h414M378 665h414M378 666h414M378 667h414M378 668h414M378 669h414M378 670h414M378 671h414M378 672h414M378 673h414M378 674h414M378 675h414M378 676h414M378 677h414M378 678h414M378 679h414M378 680h414M378 681h414M378 682h414M378 683h414M396 684h378M396 685h378M396 686h378M396 687h378M396 688h378M396 689h378M396 690h378M396 691h378M396 692h378M396 693h378M396 694h378M396 695h378M396 696h378M396 697h378M396 698h378M396 699h378M396 700h378M396 701h378M414 702h342M414 703h342M414 704h342M414 705h342M414 706h342M414 707h342M414 708h342M414 709h342M414 710h342M414 711h342M414 712h342M414 713h342M414 714h342M414 715h342M414 716h342M414 717h342M414 718h342M414 719h342M414 720h342M414 721h342M414 722h342M414 723h342M414 724h342M414 725h342M414 726h342M414 727h342M414 728h342M414 729h342M414 730h342M414 731h342M414 732h342M414 733h342M414 734h342M414 735h342M414 736h342M414 737h342M432 738h306M432 739h306M432 740h306M432 741h306M432 742h306M432 743h306M432 744h306M432 745h306M432 746h306M432 747h306M432 748h306M432 749h306M432 750h306M432 751h306M432 752h306M432 753h306M432 754h306M432 755h306M450 756h270M450 757h270M450 758h270M450 759h270M450 760h270M450 761h270M450 762h270M450 763h270M450 764h270M450 765h270M450 766h270M450 767h270M450 768h270M450 769h270M450 770h270M450 771h270M450 772h270M450 773h270M450 774h270M450 775h270M450 776h270M450 777h270M450 778h270M450 779h270M450 780h270M450 781h270M450 782h270M450 783h270M450 784h270M450 785h270M450 786h270M450 787h270M450 788h270M450 789h270M450 790h270M450 791h270M468 792h234M468 793h234M468 794h234M468 795h234M468 796h234M468 797h234M468 798h234M468 799h234M468 800h234M468 801h234M468 802h234M468 803h234M468 804h234M468 805h234M468 806h234M468 807h234M468 808h234M468 809h234M468 810h234M468 811h234M468 812h234M468 813h234M468 814h234M468 815h234M468 816h234M468 817h234M468 818h234M468 819h234M468 820h234M468 821h234M468 822h234M468 823h234M468 824h234M468 825h234M468 826h234M468 827h234M486 828h198M486 829h198M486 830h198M486 831h198M486 832h198M486 833h198M486 834h198M486 835h198M486 836h198M486 837h198M486 838h198M486 839h198M486 840h198M486 841h198M486 842h198M486 843h198M486 844h198M486 845h198M504 846h162M504 847h162M504 848h162M504 849h162M504 850h162M504 851h162M504 852h162M504 853h162M504 854h162M504 855h162M504 856h162M504 857h162M504 858h162M504 859h162M504 860h162M504 861h162M504 862h162M504 863h162M522 864h126M522 865h126M522 866h126M522 867h126M522 868h126M522 869h126M522 870h126M522 871h126M522 872h126M522 873h126M522 874h126M522 875h126M522 876h126M522 877h126M522 878h126M522 879h126M522 880h126M522 881h126M522 882h126M522 883h126M522 884h126M522 885h126M522 886h126M522 887h126M522 888h126M522 889h126M522 890h126M522 891h126M522 892h126M522 893h126M522 894h126M522 895h126M522 896h126M522 897h126M522 898h126M522 899h126M540 900h90M540 901h90M540 902h90M540 903h90M540 904h90M540 905h90M540 906h90M540 907h90M540 908h90M540 909h90M540 910h90M540 911h90M540 912h90M540 913h90M540 914h90M540 915h90M540 916h90M540 917h90M558 918h54M558 919h54M558 920h54M558 921h54M558 922h54M558 923h54M558 924h54M558 925h54M558 926h54M558 927h54M558 928h54M558 929h54M558 930h54M558 931h54M558 932h54M558 933h54M558 934h54M558 935h54M576 936h18M576 937h18M576 938h18M576 939h18M576 940h18M576 941h18M576 942h18M576 943h18M576 944h18M576 945h18M576 946h18M576 947h18M576 948h18M576 949h18M576 950h18M576 951h18M576 952h18M576 953h18" />
<path stroke="#990030" d="M252 576h54M864 576h54M252 577h54M864 577h54M252 578h54M864 578h54M252 579h54M864 579h54M252 580h54M864 580h54M252 581h54M864 581h54M252 582h54M864 582h54M252 583h54M864 583h54M252 584h54M864 584h54M252 585h54M864 585h54M252 586h54M864 586h54M252 587h54M864 587h54M252 588h54M864 588h54M252 589h54M864 589h54M252 590h54M864 590h54M252 591h54M864 591h54M252 592h54M864 592h54M252 593h54M864 593h54M270 594h54M846 594h54M270 595h54M846 595h54M270 596h54M846 596h54M270 597h54M846 597h54M270 598h54M846 598h54M270 599h54M846 599h54M270 600h54M846 600h54M270 601h54M846 601h54M270 602h54M846 602h54M270 603h54M846 603h54M270 604h54M846 604h54M270 605h54M846 605h54M270 606h54M846 606h54M270 607h54M846 607h54M270 608h54M846 608h54M270 609h54M846 609h54M270 610h54M846 610h54M270 611h54M846 611h54M270 612h90M810 612h90M270 613h90M810 613h90M270 614h90M810 614h90M270 615h90M810 615h90M270 616h90M810 616h90M270 617h90M810 617h90M270 618h90M810 618h90M270 619h90M810 619h90M270 620h90M810 620h90M270 621h90M810 621h90M270 622h90M810 622h90M270 623h90M810 623h90M270 624h90M810 624h90M270 625h90M810 625h90M270 626h90M810 626h90M270 627h90M810 627h90M270 628h90M810 628h90M270 629h90M810 629h90M288 630h72M810 630h72M288 631h72M810 631h72M288 632h72M810 632h72M288 633h72M810 633h72M288 634h72M810 634h72M288 635h72M810 635h72M288 636h72M810 636h72M288 637h72M810 637h72M288 638h72M810 638h72M288 639h72M810 639h72M288 640h72M810 640h72M288 641h72M810 641h72M288 642h72M810 642h72M288 643h72M810 643h72M288 644h72M810 644h72M288 645h72M810 645h72M288 646h72M810 646h72M288 647h72M810 647h72M306 648h72M792 648h72M306 649h72M792 649h72M306 650h72M792 650h72M306 651h72M792 651h72M306 652h72M792 652h72M306 653h72M792 653h72M306 654h72M792 654h72M306 655h72M792 655h72M306 656h72M792 656h72M306 657h72M792 657h72M306 658h72M792 658h72M306 659h72M792 659h72M306 660h72M792 660h72M306 661h72M792 661h72M306 662h72M792 662h72M306 663h72M792 663h72M306 664h72M792 664h72M306 665h72M792 665h72M306 666h72M792 666h72M306 667h72M792 667h72M306 668h72M792 668h72M306 669h72M792 669h72M306 670h72M792 670h72M306 671h72M792 671h72M306 672h72M792 672h72M306 673h72M792 673h72M306 674h72M792 674h72M306 675h72M792 675h72M306 676h72M792 676h72M306 677h72M792 677h72M306 678h72M792 678h72M306 679h72M792 679h72M306 680h72M792 680h72M306 681h72M792 681h72M306 682h72M792 682h72M306 683h72M792 683h72M324 684h72M774 684h72M324 685h72M774 685h72M324 686h72M774 686h72M324 687h72M774 687h72M324 688h72M774 688h72M324 689h72M774 689h72M324 690h72M774 690h72M324 691h72M774 691h72M324 692h72M774 692h72M324 693h72M774 693h72M324 694h72M774 694h72M324 695h72M774 695h72M324 696h72M774 696h72M324 697h72M774 697h72M324 698h72M774 698h72M324 699h72M774 699h72M324 700h72M774 700h72M324 701h72M774 701h72M342 702h72M756 702h72M342 703h72M756 703h72M342 704h72M756 704h72M342 705h72M756 705h72M342 706h72M756 706h72M342 707h72M756 707h72M342 708h72M756 708h72M342 709h72M756 709h72M342 710h72M756 710h72M342 711h72M756 711h72M342 712h72M756 712h72M342 713h72M756 713h72M342 714h72M756 714h72M342 715h72M756 715h72M342 716h72M756 716h72M342 717h72M756 717h72M342 718h72M756 718h72M342 719h72M756 719h72M342 720h72M756 720h72M342 721h72M756 721h72M342 722h72M756 722h72M342 723h72M756 723h72M342 724h72M756 724h72M342 725h72M756 725h72M342 726h72M756 726h72M342 727h72M756 727h72M342 728h72M756 728h72M342 729h72M756 729h72M342 730h72M756 730h72M342 731h72M756 731h72M342 732h72M756 732h72M342 733h72M756 733h72M342 734h72M756 734h72M342 735h72M756 735h72M342 736h72M756 736h72M342 737h72M756 737h72M360 738h72M738 738h72M360 739h72M738 739h72M360 740h72M738 740h72M360 741h72M738 741h72M360 742h72M738 742h72M360 743h72M738 743h72M360 744h72M738 744h72M360 745h72M738 745h72M360 746h72M738 746h72M360 747h72M738 747h72M360 748h72M738 748h72M360 749h72M738 749h72M360 750h72M738 750h72M360 751h72M738 751h72M360 752h72M738 752h72M360 753h72M738 753h72M360 754h72M738 754h72M360 755h72M738 755h72M360 756h90M720 756h90M360 757h90M720 757h90M360 758h90M720 758h90M360 759h90M720 759h90M360 760h90M720 760h90M360 761h90M720 761h90M360 762h90M720 762h90M360 763h90M720 763h90M360 764h90M720 764h90M360 765h90M720 765h90M360 766h90M720 766h90M360 767h90M720 767h90M360 768h90M720 768h90M360 769h90M720 769h90M360 770h90M720 770h90M360 771h90M720 771h90M360 772h90M720 772h90M360 773h90M720 773h90M378 774h72M720 774h72M378 775h72M720 775h72M378 776h72M720 776h72M378 777h72M720 777h72M378 778h72M720 778h72M378 779h72M720 779h72M378 780h72M720 780h72M378 781h72M720 781h72M378 782h72M720 782h72M378 783h72M720 783h72M378 784h72M720 784h72M378 785h72M720 785h72M378 786h72M720 786h72M378 787h72M720 787h72M378 788h72M720 788h72M378 789h72M720 789h72M378 790h72M720 790h72M378 791h72M720 791h72M378 792h90M702 792h90M378 793h90M702 793h90M378 794h90M702 794h90M378 795h90M702 795h90M378 796h90M702 796h90M378 797h90M702 797h90M378 798h90M702 798h90M378 799h90M702 799h90M378 800h90M702 800h90M378 801h90M702 801h90M378 802h90M702 802h90M378 803h90M702 803h90M378 804h90M702 804h90M378 805h90M702 805h90M378 806h90M702 806h90M378 807h90M702 807h90M378 808h90M702 808h90M378 809h90M702 809h90M396 810h72M702 810h72M396 811h72M702 811h72M396 812h72M702 812h72M396 813h72M702 813h72M396 814h72M702 814h72M396 815h72M702 815h72M396 816h72M702 816h72M396 817h72M702 817h72M396 818h72M702 818h72M396 819h72M702 819h72M396 820h72M702 820h72M396 821h72M702 821h72M396 822h72M702 822h72M396 823h72M702 823h72M396 824h72M702 824h72M396 825h72M702 825h72M396 826h72M702 826h72M396 827h72M702 827h72M414 828h72M684 828h72M414 829h72M684 829h72M414 830h72M684 830h72M414 831h72M684 831h72M414 832h72M684 832h72M414 833h72M684 833h72M414 834h72M684 834h72M414 835h72M684 835h72M414 836h72M684 836h72M414 837h72M684 837h72M414 838h72M684 838h72M414 839h72M684 839h72M414 840h72M684 840h72M414 841h72M684 841h72M414 842h72M684 842h72M414 843h72M684 843h72M414 844h72M684 844h72M414 845h72M684 845h72M414 846h90M666 846h90M414 847h90M666 847h90M414 848h90M666 848h90M414 849h90M666 849h90M414 850h90M666 850h90M414 851h90M666 851h90M414 852h90M666 852h90M414 853h90M666 853h90M414 854h90M666 854h90M414 855h90M666 855h90M414 856h90M666 856h90M414 857h90M666 857h90M414 858h90M666 858h90M414 859h90M666 859h90M414 860h90M666 860h90M414 861h90M666 861h90M414 862h90M666 862h90M414 863h90M666 863h90M432 864h90M648 864h90M432 865h90M648 865h90M432 866h90M648 866h90M432 867h90M648 867h90M432 868h90M648 868h90M432 869h90M648 869h90M432 870h90M648 870h90M432 871h90M648 871h90M432 872h90M648 872h90M432 873h90M648 873h90M432 874h90M648 874h90M432 875h90M648 875h90M432 876h90M648 876h90M432 877h90M648 877h90M432 878h90M648 878h90M432 879h90M648 879h90M432 880h90M648 880h90M432 881h90M648 881h90M450 882h72M648 882h72M450 883h72M648 883h72M450 884h72M648 884h72M450 885h72M648 885h72M450 886h72M648 886h72M450 887h72M648 887h72M450 888h72M648 888h72M450 889h72M648 889h72M450 890h72M648 890h72M450 891h72M648 891h72M450 892h72M648 892h72M450 893h72M648 893h72M450 894h72M648 894h72M450 895h72M648 895h72M450 896h72M648 896h72M450 897h72M648 897h72M450 898h72M648 898h72M450 899h72M648 899h72M468 900h72M630 900h72M468 901h72M630 901h72M468 902h72M630 902h72M468 903h72M630 903h72M468 904h72M630 904h72M468 905h72M630 905h72M468 906h72M630 906h72M468 907h72M630 907h72M468 908h72M630 908h72M468 909h72M630 909h72M468 910h72M630 910h72M468 911h72M630 911h72M468 912h72M630 912h72M468 913h72M630 913h72M468 914h72M630 914h72M468 915h72M630 915h72M468 916h72M630 916h72M468 917h72M630 917h72M486 918h72M612 918h72M486 919h72M612 919h72M486 920h72M612 920h72M486 921h72M612 921h72M486 922h72M612 922h72M486 923h72M612 923h72M486 924h72M612 924h72M486 925h72M612 925h72M486 926h72M612 926h72M486 927h72M612 927h72M486 928h72M612 928h72M486 929h72M612 929h72M486 930h72M612 930h72M486 931h72M612 931h72M486 932h72M612 932h72M486 933h72M612 933h72M486 934h72M612 934h72M486 935h72M612 935h72M504 936h72M594 936h72M504 937h72M594 937h72M504 938h72M594 938h72M504 939h72M594 939h72M504 940h72M594 940h72M504 941h72M594 941h72M504 942h72M594 942h72M504 943h72M594 943h72M504 944h72M594 944h72M504 945h72M594 945h72M504 946h72M594 946h72M504 947h72M594 947h72M504 948h72M594 948h72M504 949h72M594 949h72M504 950h72M594 950h72M504 951h72M594 951h72M504 952h72M594 952h72M504 953h72M594 953h72M504 954h162M504 955h162M504 956h162M504 957h162M504 958h162M504 959h162M504 960h162M504 961h162M504 962h162M504 963h162M504 964h162M504 965h162M504 966h162M504 967h162M504 968h162M504 969h162M504 970h162M504 971h162M540 972h90M540 973h90M540 974h90M540 975h90M540 976h90M540 977h90M540 978h90M540 979h90M540 980h90M540 981h90M540 982h90M540 983h90M540 984h90M540 985h90M540 986h90M540 987h90M540 988h90M540 989h90M540 990h90M540 991h90M540 992h90M540 993h90M540 994h90M540 995h90M540 996h90M540 997h90M540 998h90M540 999h90M540 1000h90M540 1001h90M540 1002h90M540 1003h90M540 1004h90M540 1005h90M540 1006h90M540 1007h90M558 1008h54M558 1009h54M558 1010h54M558 1011h54M558 1012h54M558 1013h54M558 1014h54M558 1015h54M558 1016h54M558 1017h54M558 1018h54M558 1019h54M558 1020h54M558 1021h54M558 1022h54M558 1023h54M558 1024h54M558 1025h54M576 1026h18M576 1027h18M576 1028h18M576 1029h18M576 1030h18M576 1031h18M576 1032h18M576 1033h18M576 1034h18M576 1035h18M576 1036h18M576 1037h18M576 1038h18M576 1039h18M576 1040h18M576 1041h18M576 1042h18M576 1043h18" />
</svg>