<svg xmlns="http://www.w3.org/2000/svg" viewBox="0 -0.5 1170 1170" shape-rendering="crispEdges">
<metadata>Made with Pixels to Svg https://codepen.io/shshaw/pen/XbxvNj</metadata>
<path stroke="#000000" d="M342 234h108M720 234h108M342 235h108M720 235h108M342 236h108M720 236h108M342 237h108M720 237h108M342 238h108M720 238h108M342 239h108M720 239h108M342 240h108M720 240h108M342 241h108M720 241h108M342 242h108M720 242h108M342 243h108M720 243h108M342 244h108M720 244h108M342 245h108M720 245h108M342 246h108M720 246h108M342 247h108M720 247h108M342 248h108M720 248h108M342 249h108M720 249h108M342 250h108M720 250h108M342 251h108M720 251h108M306 252h54M432 252h54M684 252h54M810 252h54M306 253h54M432 253h54M684 253h54M810 253h54M306 254h54M432 254h54M684 254h54M810 254h54M306 255h54M432 255h54M684 255h54M810 255h54M306 256h54M432 256h54M684 256h54M810 256h54M306 257h54M432 257h54M684 257h54M810 257h54M306 258h54M432 258h54M684 258h54M810 258h54M306 259h54M432 259h54M684 259h54M810 259h54M306 260h54M432 260h54M684 260h54M810 260h54M306 261h54M432 261h54M684 261h54M810 261h54M306 262h54M432 262h54M684 262h54M810 262h54M306 263h54M432 263h54M684 263h54M810 263h54M306 264h54M432 264h54M684 264h54M810 264h54M306 265h54M432 265h54M684 265h54M810 265h54M306 266h54M432 266h54M684 266h54M810 266h54M306 267h54M432 267h54M684 267h54M810 267h54M306 268h54M432 268h54M684 268h54M810 268h54M306 269h54M432 269h54M684 269h54M810 269h54M270 270h72M468 270h54M648 270h54M828 270h72M270 271h72M468 271h54M648 271h54M828 271h72M270 272h72M468 272h54M648 272h54M828 272h72M270 273h72M468 273h54M648 273h54M828 273h72M270 274h72M468 274h54M648 274h54M828 274h72M270 275h72M468 275h54M648 275h54M828 275h72M270 276h72M468 276h54M648 276h54M828 276h72M270 277h72M468 277h54M648 277h54M828 277h72M270 278h72M468 278h54M648 278h54M828 278h72M270 279h72M468 279h54M648 279h54M828 279h72M270 280h72M468 280h54M648 280h54M828 280h72M270 281h72M468 281h54M648 281h54M828 281h72M270 282h72M468 282h54M648 282h54M828 282h72M270 283h72M468 283h54M648 283h54M828 283h72M270 284h72M468 284h54M648 284h54M828 284h72M270 285h72M468 285h54M648 285h54M828 285h72M270 286h72M468 286h54M648 286h54M828 286h72M270 287h72M468 287h54M648 287h54M828 287h72M252 288h36M504 288h18M648 288h18M882 288h36M252 289h36M504 289h18M648 289h18M882 289h36M252 290h36M504 290h18M648 290h18M882 290h36M252 291h36M504 291h18M648 291h18M882 291h36M252 292h36M504 292h18M648 292h18M882 292h36M252 293h36M504 293h18M648 293h18M882 293h36M252 294h36M504 294h18M648 294h18M882 294h36M252 295h36M504 295h18M648 295h18M882 295h36M252 296h36M504 296h18M648 296h18M882 296h36M252 297h36M504 297h18M648 297h18M882 297h36M252 298h36M504 298h18M648 298h18M882 298h36M252 299h36M504 299h18M648 299h18M882 299h36M252 300h36M504 300h18M648 300h18M882 300h36M252 301h36M504 301h18M648 301h18M882 301h36M252 302h36M504 302h18M648 302h18M882 302h36M252 303h36M504 303h18M648 303h18M882 303h36M252 304h36M504 304h18M648 304h18M882 304h36M252 305h36M504 305h18M648 305h18M882 305h36M234 306h36M522 306h18M630 306h18M900 306h36M234 307h36M522 307h18M630 307h18M900 307h36M234 308h36M522 308h18M630 308h18M900 308h36M234 309h36M522 309h18M630 309h18M900 309h36M234 310h36M522 310h18M630 310h18M900 310h36M234 311h36M522 311h18M630 311h18M900 311h36M234 312h36M522 312h18M630 312h18M900 312h36M234 313h36M522 313h18M630 313h18M900 313h36M234 314h36M522 314h18M630 314h18M900 314h36M234 315h36M522 315h18M630 315h18M900 315h36M234 316h36M522 316h18M630 316h18M900 316h36M234 317h36M522 317h18M630 317h18M900 317h36M234 318h36M522 318h18M630 318h18M900 318h36M234 319h36M522 319h18M630 319h18M900 319h36M234 320h36M522 320h18M630 320h18M900 320h36M234 321h36M522 321h18M630 321h18M900 321h36M234 322h36M522 322h18M630 322h18M900 322h36M234 323h36M522 323h18M630 323h18M900 323h36M234 324h18M522 324h36M612 324h36M918 324h18M234 325h18M522 325h36M612 325h36M918 325h18M234 326h18M522 326h36M612 326h36M918 326h18M234 327h18M522 327h36M612 327h36M918 327h18M234 328h18M522 328h36M612 328h36M918 328h18M234 329h18M522 329h36M612 329h36M918 329h18M234 330h18M522 330h36M612 330h36M918 330h18M234 331h18M522 331h36M612 331h36M918 331h18M234 332h18M522 332h36M612 332h36M918 332h18M234 333h18M522 333h36M612 333h36M918 333h18M234 334h18M522 334h36M612 334h36M918 334h18M234 335h18M522 335h36M612 335h36M918 335h18M234 336h18M522 336h36M612 336h36M918 336h18M234 337h18M522 337h36M612 337h36M918 337h18M234 338h18M522 338h36M612 338h36M918 338h18M234 339h18M522 339h36M612 339h36M918 339h18M234 340h18M522 340h36M612 340h36M918 340h18M234 341h18M522 341h36M612 341h36M918 341h18M216 342h36M540 342h36M594 342h36M918 342h36M216 343h36M540 343h36M594 343h36M918 343h36M216 344h36M540 344h36M594 344h36M918 344h36M216 345h36M540 345h36M594 345h36M918 345h36M216 346h36M540 346h36M594 346h36M918 346h36M216 347h36M540 347h36M594 347h36M918 347h36M216 348h36M540 348h36M594 348h36M918 348h36M216 349h36M540 349h36M594 349h36M918 349h36M216 350h36M540 350h36M594 350h36M918 350h36M216 351h36M540 351h36M594 351h36M918 351h36M216 352h36M540 352h36M594 352h36M918 352h36M216 353h36M540 353h36M594 353h36M918 353h36M216 354h36M540 354h36M594 354h36M918 354h36M216 355h36M540 355h36M594 355h36M918 355h36M216 356h36M540 356h36M594 356h36M918 356h36M216 357h36M540 357h36M594 357h36M918 357h36M216 358h36M540 358h36M594 358h36M918 358h36M216 359h36M540 359h36M594 359h36M918 359h36M198 360h36M558 360h54M936 360h36M198 361h36M558 361h54M936 361h36M198 362h36M558 362h54M936 362h36M198 363h36M558 363h54M936 363h36M198 364h36M558 364h54M936 364h36M198 365h36M558 365h54M936 365h36M198 366h36M558 366h54M936 366h36M198 367h36M558 367h54M936 367h36M198 368h36M558 368h54M936 368h36M198 369h36M558 369h54M936 369h36M198 370h36M558 370h54M936 370h36M198 371h36M558 371h54M936 371h36M198 372h36M558 372h54M936 372h36M198 373h36M558 373h54M936 373h36M198 374h36M558 374h54M936 374h36M198 375h36M558 375h54M936 375h36M198 376h36M558 376h54M936 376h36M198 377h36M558 377h54M936 377h36M198 378h18M576 378h18M954 378h18M198 379h18M576 379h18M954 379h18M198 380h18M576 380h18M954 380h18M198 381h18M576 381h18M954 381h18M198 382h18M576 382h18M954 382h18M198 383h18M576 383h18M954 383h18M198 384h18M576 384h18M954 384h18M198 385h18M576 385h18M954 385h18M198 386h18M576 386h18M954 386h18M198 387h18M576 387h18M954 387h18M198 388h18M576 388h18M954 388h18M198 389h18M576 389h18M954 389h18M198 390h18M576 390h18M954 390h18M198 391h18M576 391h18M954 391h18M198 392h18M576 392h18M954 392h18M198 393h18M576 393h18M954 393h18M198 394h18M576 394h18M954 394h18M198 395h18M576 395h18M954 395h18M198 396h18M954 396h18M198 397h18M954 397h18M198 398h18M954 398h18M198 399h18M954 399h18M198 400h18M954 400h18M198 401h18M954 401h18M198 402h18M954 402h18M198 403h18M954 403h18M198 404h18M954 404h18M198 405h18M954 405h18M198 406h18M954 406h18M198 407h18M954 407h18M198 408h18M954 408h18M198 409h18M954 409h18M198 410h18M954 410h18M198 411h18M954 411h18M198 412h18M954 412h18M198 413h18M954 413h18M180 414h36M954 414h36M180 415h36M954 415h36M180 416h36M954 416h36M180 417h36M954 417h36M180 418h36M954 418h36M180 419h36M954 419h36M180 420h36M954 420h36M180 421h36M954 421h36M180 422h36M954 422h36M180 423h36M954 423h36M180 424h36M954 424h36M180 425h36M954 425h36M180 426h36M954 426h36M180 427h36M954 427h36M180 428h36M954 428h36M180 429h36M954 429h36M180 430h36M954 430h36M180 431h36M954 431h36M180 432h18M972 432h18M180 433h18M972 433h18M180 434h18M972 434h18M180 435h18M972 435h18M180 436h18M972 436h18M180 437h18M972 437h18M180 438h18M972 438h18M180 439h18M972 439h18M180 440h18M972 440h18M180 441h18M972 441h18M180 442h18M972 442h18M180 443h18M972 443h18M180 444h18M972 444h18M180 445h18M972 445h18M180 446h18M972 446h18M180 447h18M972 447h18M180 448h18M972 448h18M180 449h18M972 449h18M180 450h18M972 450h18M180 451h18M972 451h18M180 452h18M972 452h18M180 453h18M972 453h18M180 454h18M972 454h18M180 455h18M972 455h18M180 456h18M972 456h18M180 457h18M972 457h18M180 458h18M972 458h18M180 459h18M972 459h18M180 460h18M972 460h18M180 461h18M972 461h18M180 462h18M972 462h18M180 463h18M972 463h18M180 464h18M972 464h18M180 465h18M972 465h18M180 466h18M972 466h18M180 467h18M972 467h18M180 468h18M972 468h18M180 469h18M972 469h18M180 470h18M972 470h18M180 471h18M972 471h18M180 472h18M972 472h18M180 473h18M972 473h18M180 474h18M972 474h18M180 475h18M972 475h18M180 476h18M972 476h18M180 477h18M972 477h18M180 478h18M972 478h18M180 479h18M972 479h18M180 480h18M972 480h18M180 481h18M972 481h18M180 482h18M972 482h18M180 483h18M972 483h18M180 484h18M972 484h18M180 485h18M972 485h18M180 486h18M972 486h18M180 487h18M972 487h18M180 488h18M972 488h18M180 489h18M972 489h18M180 490h18M972 490h18M180 491h18M972 491h18M180 492h18M972 492h18M180 493h18M972 493h18M180 494h18M972 494h18M180 495h18M972 495h18M180 496h18M972 496h18M180 497h18M972 497h18M180 498h18M972 498h18M180 499h18M972 499h18M180 500h18M972 500h18M180 501h18M972 501h18M180 502h18M972 502h18M180 503h18M972 503h18M180 504h36M954 504h36M180 505h36M954 505h36M180 506h36M954 506h36M180 507h36M954 507h36M180 508h36M954 508h36M180 509h36M954 509h36M180 510h36M954 510h36M180 511h36M954 511h36M180 512h36M954 512h36M180 513h36M954 513h36M180 514h36M954 514h36M180 515h36M954 515h36M180 516h36M954 516h36M180 517h36M954 517h36M180 518h36M954 518h36M180 519h36M954 519h36M180 520h36M954 520h36M180 521h36M954 521h36M198 522h18M954 522h18M198 523h18M954 523h18M198 524h18M954 524h18M198 525h18M954 525h18M198 526h18M954 526h18M198 527h18M954 527h18M198 528h18M954 528h18M198 529h18M954 529h18M198 530h18M954 530h18M198 531h18M954 531h18M198 532h18M954 532h18M198 533h18M954 533h18M198 534h18M954 534h18M198 535h18M954 535h18M198 536h18M954 536h18M198 537h18M954 537h18M198 538h18M954 538h18M198 539h18M954 539h18M198 540h18M954 540h18M198 541h18M954 541h18M198 542h18M954 542h18M198 543h18M954 543h18M198 544h18M954 544h18M198 545h18M954 545h18M198 546h18M954 546h18M198 547h18M954 547h18M198 548h18M954 548h18M198 549h18M954 549h18M198 550h18M954 550h18M198 551h18M954 551h18M198 552h18M954 552h18M198 553h18M954 553h18M198 554h18M954 554h18M198 555h18M954 555h18M198 556h18M954 556h18M198 557h18M954 557h18M198 558h36M936 558h36M198 559h36M936 559h36M198 560h36M936 560h36M198 561h36M936 561h36M198 562h36M936 562h36M198 563h36M936 563h36M198 564h36M936 564h36M198 565h36M936 565h36M198 566h36M936 566h36M198 567h36M936 567h36M198 568h36M936 568h36M198 569h36M936 569h36M198 570h36M936 570h36M198 571h36M936 571h36M198 572h36M936 572h36M198 573h36M936 573h36M198 574h36M936 574h36M198 575h36M936 575h36M216 576h36M918 576h36M216 577h36M918 577h36M216 578h36M918 578h36M216 579h36M918 579h36M216 580h36M918 580h36M216 581h36M918 581h36M216 582h36M918 582h36M216 583h36M918 583h36M216 584h36M918 584h36M216 585h36M918 585h36M216 586h36M918 586h36M216 587h36M918 587h36M216 588h36M918 588h36M216 589h36M918 589h36M216 590h36M918 590h36M216 591h36M918 591h36M216 592h36M918 592h36M216 593h36M918 593h36M234 594h18M918 594h18M234 595h18M918 595h18M234 596h18M918 596h18M234 597h18M918 597h18M234 598h18M918 598h18M234 599h18M918 599h18M234 600h18M918 600h18M234 601h18M918 601h18M234 602h18M918 602h18M234 603h18M918 603h18M234 604h18M918 604h18M234 605h18M918 605h18M234 606h18M918 606h18M234 607h18M918 607h18M234 608h18M918 608h18M234 609h18M918 609h18M234 610h18M918 610h18M234 611h18M918 611h18M234 612h36M900 612h36M234 613h36M900 613h36M234 614h36M900 614h36M234 615h36M900 615h36M234 616h36M900 616h36M234 617h36M900 617h36M234 618h36M900 618h36M234 619h36M900 619h36M234 620h36M900 620h36M234 621h36M900 621h36M234 622h36M900 622h36M234 623h36M900 623h36M234 624h36M900 624h36M234 625h36M900 625h36M234 626h36M900 626h36M234 627h36M900 627h36M234 628h36M900 628h36M234 629h36M900 629h36M252 630h18M900 630h18M252 631h18M900 631h18M252 632h18M900 632h18M252 633h18M900 633h18M252 634h18M900 634h18M252 635h18M900 635h18M252 636h18M900 636h18M252 637h18M900 637h18M252 638h18M900 638h18M252 639h18M900 639h18M252 640h18M900 640h18M252 641h18M900 641h18M252 642h18M900 642h18M252 643h18M900 643h18M252 644h18M900 644h18M252 645h18M900 645h18M252 646h18M900 646h18M252 647h18M900 647h18M252 648h36M882 648h36M252 649h36M882 649h36M252 650h36M882 650h36M252 651h36M882 651h36M252 652h36M882 652h36M252 653h36M882 653h36M252 654h36M882 654h36M252 655h36M882 655h36M252 656h36M882 656h36M252 657h36M882 657h36M252 658h36M882 658h36M252 659h36M882 659h36M252 660h36M882 660h36M252 661h36M882 661h36M252 662h36M882 662h36M252 663h36M882 663h36M252 664h36M882 664h36M252 665h36M882 665h36M270 666h36M864 666h36M270 667h36M864 667h36M270 668h36M864 668h36M270 669h36M864 669h36M270 670h36M864 670h36M270 671h36M864 671h36M270 672h36M864 672h36M270 673h36M864 673h36M270 674h36M864 674h36M270 675h36M864 675h36M270 676h36M864 676h36M270 677h36M864 677h36M270 678h36M864 678h36M270 679h36M864 679h36M270 680h36M864 680h36M270 681h36M864 681h36M270 682h36M864 682h36M270 683h36M864 683h36M288 684h18M864 684h18M288 685h18M864 685h18M288 686h18M864 686h18M288 687h18M864 687h18M288 688h18M864 688h18M288 689h18M864 689h18M288 690h18M864 690h18M288 691h18M864 691h18M288 692h18M864 692h18M288 693h18M864 693h18M288 694h18M864 694h18M288 695h18M864 695h18M288 696h18M864 696h18M288 697h18M864 697h18M288 698h18M864 698h18M288 699h18M864 699h18M288 700h18M864 700h18M288 701h18M864 701h18M306 702h18M846 702h18M306 703h18M846 703h18M306 704h18M846 704h18M306 705h18M846 705h18M306 706h18M846 706h18M306 707h18M846 707h18M306 708h18M846 708h18M306 709h18M846 709h18M306 710h18M846 710h18M306 711h18M846 711h18M306 712h18M846 712h18M306 713h18M846 713h18M306 714h18M846 714h18M306 715h18M846 715h18M306 716h18M846 716h18M306 717h18M846 717h18M306 718h18M846 718h18M306 719h18M846 719h18M306 720h36M828 720h36M306 721h36M828 721h36M306 722h36M828 722h36M306 723h36M828 723h36M306 724h36M828 724h36M306 725h36M828 725h36M306 726h36M828 726h36M306 727h36M828 727h36M306 728h36M828 728h36M306 729h36M828 729h36M306 730h36M828 730h36M306 731h36M828 731h36M306 732h36M828 732h36M306 733h36M828 733h36M306 734h36M828 734h36M306 735h36M828 735h36M306 736h36M828 736h36M306 737h36M828 737h36M324 738h36M810 738h36M324 739h36M810 739h36M324 740h36M810 740h36M324 741h36M810 741h36M324 742h36M810 742h36M324 743h36M810 743h36M324 744h36M810 744h36M324 745h36M810 745h36M324 746h36M810 746h36M324 747h36M810 747h36M324 748h36M810 748h36M324 749h36M810 749h36M324 750h36M810 750h36M324 751h36M810 751h36M324 752h36M810 752h36M324 753h36M810 753h36M324 754h36M810 754h36M324 755h36M810 755h36M342 756h36M792 756h36M342 757h36M792 757h36M342 758h36M792 758h36M342 759h36M792 759h36M342 760h36M792 760h36M342 761h36M792 761h36M342 762h36M792 762h36M342 763h36M792 763h36M342 764h36M792 764h36M342 765h36M792 765h36M342 766h36M792 766h36M342 767h36M792 767h36M342 768h36M792 768h36M342 769h36M792 769h36M342 770h36M792 770h36M342 771h36M792 771h36M342 772h36M792 772h36M342 773h36M792 773h36M360 774h36M774 774h36M360 775h36M774 775h36M360 776h36M774 776h36M360 777h36M774 777h36M360 778h36M774 778h36M360 779h36M774 779h36M360 780h36M774 780h36M360 781h36M774 781h36M360 782h36M774 782h36M360 783h36M774 783h36M360 784h36M774 784h36M360 785h36M774 785h36M360 786h36M774 786h36M360 787h36M774 787h36M360 788h36M774 788h36M360 789h36M774 789h36M360 790h36M774 790h36M360 791h36M774 791h36M378 792h36M756 792h36M378 793h36M756 793h36M378 794h36M756 794h36M378 795h36M756 795h36M378 796h36M756 796h36M378 797h36M756 797h36M378 798h36M756 798h36M378 799h36M756 799h36M378 800h36M756 800h36M378 801h36M756 801h36M378 802h36M756 802h36M378 803h36M756 803h36M378 804h36M756 804h36M378 805h36M756 805h36M378 806h36M756 806h36M378 807h36M756 807h36M378 808h36M756 808h36M378 809h36M756 809h36M396 810h36M738 810h36M396 811h36M738 811h36M396 812h36M738 812h36M396 813h36M738 813h36M396 814h36M738 814h36M396 815h36M738 815h36M396 816h36M738 816h36M396 817h36M738 817h36M396 818h36M738 818h36M396 819h36M738 819h36M396 820h36M738 820h36M396 821h36M738 821h36M396 822h36M738 822h36M396 823h36M738 823h36M396 824h36M738 824h36M396 825h36M738 825h36M396 826h36M738 826h36M396 827h36M738 827h36M414 828h36M720 828h36M414 829h36M720 829h36M414 830h36M720 830h36M414 831h36M720 831h36M414 832h36M720 832h36M414 833h36M720 833h36M414 834h36M720 834h36M414 835h36M720 835h36M414 836h36M720 836h36M414 837h36M720 837h36M414 838h36M720 838h36M414 839h36M720 839h36M414 840h36M720 840h36M414 841h36M720 841h36M414 842h36M720 842h36M414 843h36M720 843h36M414 844h36M720 844h36M414 845h36M720 845h36M450 846h36M684 846h36M450 847h36M684 847h36M450 848h36M684 848h36M450 849h36M684 849h36M450 850h36M684 850h36M450 851h36M684 851h36M450 852h36M684 852h36M450 853h36M684 853h36M450 854h36M684 854h36M450 855h36M684 855h36M450 856h36M684 856h36M450 857h36M684 857h36M450 858h36M684 858h36M450 859h36M684 859h36M450 860h36M684 860h36M450 861h36M684 861h36M450 862h36M684 862h36M450 863h36M684 863h36M468 864h36M666 864h36M468 865h36M666 865h36M468 866h36M666 866h36M468 867h36M666 867h36M468 868h36M666 868h36M468 869h36M666 869h36M468 870h36M666 870h36M468 871h36M666 871h36M468 872h36M666 872h36M468 873h36M666 873h36M468 874h36M666 874h36M468 875h36M666 875h36M468 876h36M666 876h36M468 877h36M666 877h36M468 878h36M666 878h36M468 879h36M666 879h36M468 880h36M666 880h36M468 881h36M666 881h36M486 882h36M648 882h36M486 883h36M648 883h36M486 884h36M648 884h36M486 885h36M648 885h36M486 886h36M648 886h36M486 887h36M648 887h36M486 888h36M648 888h36M486 889h36M648 889h36M486 890h36M648 890h36M486 891h36M648 891h36M486 892h36M648 892h36M486 893h36M648 893h36M486 894h36M648 894h36M486 895h36M648 895h36M486 896h36M648 896h36M486 897h36M648 897h36M486 898h36M648 898h36M486 899h36M648 899h36M504 900h36M630 900h36M504 901h36M630 901h36M504 902h36M630 902h36M504 903h36M630 903h36M504 904h36M630 904h36M504 905h36M630 905h36M504 906h36M630 906h36M504 907h36M630 907h36M504 908h36M630 908h36M504 909h36M630 909h36M504 910h36M630 910h36M504 911h36M630 911h36M504 912h36M630 912h36M504 913h36M630 913h36M504 914h36M630 914h36M504 915h36M630 915h36M504 916h36M630 916h36M504 917h36M630 917h36M522 918h36M612 918h36M522 919h36M612 919h36M522 920h36M612 920h36M522 921h36M612 921h36M522 922h36M612 922h36M522 923h36M612 923h36M522 924h36M612 924h36M522 925h36M612 925h36M522 926h36M612 926h36M522 927h36M612 927h36M522 928h36M612 928h36M522 929h36M612 929h36M522 930h36M612 930h36M522 931h36M612 931h36M522 932h36M612 932h36M522 933h36M612 933h36M522 934h36M612 934h36M522 935h36M612 935h36M540 936h36M594 936h36M540 937h36M594 937h36M540 938h36M594 938h36M540 939h36M594 939h36M540 940h36M594 940h36M540 941h36M594 941h36M540 942h36M594 942h36M540 943h36M594 943h36M540 944h36M594 944h36M540 945h36M594 945h36M540 946h36M594 946h36M540 947h36M594 947h36M540 948h36M594 948h36M540 949h36M594 949h36M540 950h36M594 950h36M540 951h36M594 951h36M540 952h36M594 952h36M540 953h36M594 953h36M558 954h54M558 955h54M558 956h54M558 957h54M558 958h54M558 959h54M558 960h54M558 961h54M558 962h54M558 963h54M558 964h54M558 965h54M558 966h54M558 967h54M558 968h54M558 969h54M558 970h54M558 971h54M576 972h18M576 973h18M576 974h18M576 975h18M576 976h18M576 977h18M576 978h18M576 979h18M576 980h18M576 981h18M576 982h18M576 983h18M576 984h18M576 985h18M576 986h18M576 987h18M576 988h18M576 989h18" />
<path stroke="#990030" d="M360 252h72M738 252h72M360 253h72M738 253h72M360 254h72M738 254h72M360 255h72M738 255h72M360 256h72M738 256h72M360 257h72M738 257h72M360 258h72M738 258h72M360 259h72M738 259h72M360 260h72M738 260h72M360 261h72M738 261h72M360 262h72M738 262h72M360 263h72M738 263h72M360 264h72M738 264h72M360 265h72M738 265h72M360 266h72M738 266h72M360 267h72M738 267h72M360 268h72M738 268h72M360 269h72M738 269h72M414 270h54M702 270h54M414 271h54M702 271h54M414 272h54M702 272h54M414 273h54M702 273h54M414 274h54M702 274h54M414 275h54M702 275h54M414 276h54M702 276h54M414 277h54M702 277h54M414 278h54M702 278h54M414 279h54M702 279h54M414 280h54M702 280h54M414 281h54M702 281h54M414 282h54M702 282h54M414 283h54M702 283h54M414 284h54M702 284h54M414 285h54M702 285h54M414 286h54M702 286h54M414 287h54M702 287h54M450 288h54M666 288h54M450 289h54M666 289h54M450 290h54M666 290h54M450 291h54M666 291h54M450 292h54M666 292h54M450 293h54M666 293h54M450 294h54M666 294h54M450 295h54M666 295h54M450 296h54M666 296h54M450 297h54M666 297h54M450 298h54M666 298h54M450 299h54M666 299h54M450 300h54M666 300h54M450 301h54M666 301h54M450 302h54M666 302h54M450 303h54M666 303h54M450 304h54M666 304h54M450 305h54M666 305h54M468 306h54M648 306h54M468 307h54M648 307h54M468 308h54M648 308h54M468 309h54M648 309h54M468 310h54M648 310h54M468 311h54M648 311h54M468 312h54M648 312h54M468 313h54M648 313h54M468 314h54M648 314h54M468 315h54M648 315h54M468 316h54M648 316h54M468 317h54M648 317h54M468 318h54M648 318h54M468 319h54M648 319h54M468 320h54M648 320h54M468 321h54M648 321h54M468 322h54M648 322h54M468 323h54M648 323h54M486 324h36M648 324h36M486 325h36M648 325h36M486 326h36M648 326h36M486 327h36M648 327h36M486 328h36M648 328h36M486 329h36M648 329h36M486 330h36M648 330h36M486 331h36M648 331h36M486 332h36M648 332h36M486 333h36M648 333h36M486 334h36M648 334h36M486 335h36M648 335h36M486 336h36M648 336h36M486 337h36M648 337h36M486 338h36M648 338h36M486 339h36M648 339h36M486 340h36M648 340h36M486 341h36M648 341h36M504 342h36M630 342h36M504 343h36M630 343h36M504 344h36M630 344h36M504 345h36M630 345h36M504 346h36M630 346h36M504 347h36M630 347h36M504 348h36M630 348h36M504 349h36M630 349h36M504 350h36M630 350h36M504 351h36M630 351h36M504 352h36M630 352h36M504 353h36M630 353h36M504 354h36M630 354h36M504 355h36M630 355h36M504 356h36M630 356h36M504 357h36M630 357h36M504 358h36M630 358h36M504 359h36M630 359h36M234 360h18M522 360h36M612 360h36M918 360h18M234 361h18M522 361h36M612 361h36M918 361h18M234 362h18M522 362h36M612 362h36M918 362h18M234 363h18M522 363h36M612 363h36M918 363h18M234 364h18M522 364h36M612 364h36M918 364h18M234 365h18M522 365h36M612 365h36M918 365h18M234 366h18M522 366h36M612 366h36M918 366h18M234 367h18M522 367h36M612 367h36M918 367h18M234 368h18M522 368h36M612 368h36M918 368h18M234 369h18M522 369h36M612 369h36M918 369h18M234 370h18M522 370h36M612 370h36M918 370h18M234 371h18M522 371h36M612 371h36M918 371h18M234 372h18M522 372h36M612 372h36M918 372h18M234 373h18M522 373h36M612 373h36M918 373h18M234 374h18M522 374h36M612 374h36M918 374h18M234 375h18M522 375h36M612 375h36M918 375h18M234 376h18M522 376h36M612 376h36M918 376h18M234 377h18M522 377h36M612 377h36M918 377h18M216 378h36M540 378h36M594 378h36M918 378h36M216 379h36M540 379h36M594 379h36M918 379h36M216 380h36M540 380h36M594 380h36M918 380h36M216 381h36M540 381h36M594 381h36M918 381h36M216 382h36M540 382h36M594 382h36M918 382h36M216 383h36M540 383h36M594 383h36M918 383h36M216 384h36M540 384h36M594 384h36M918 384h36M216 385h36M540 385h36M594 385h36M918 385h36M216 386h36M540 386h36M594 386h36M918 386h36M216 387h36M540 387h36M594 387h36M918 387h36M216 388h36M540 388h36M594 388h36M918 388h36M216 389h36M540 389h36M594 389h36M918 389h36M216 390h36M540 390h36M594 390h36M918 390h36M216 391h36M540 391h36M594 391h36M918 391h36M216 392h36M540 392h36M594 392h36M918 392h36M216 393h36M540 393h36M594 393h36M918 393h36M216 394h36M540 394h36M594 394h36M918 394h36M216 395h36M540 395h36M594 395h36M918 395h36M216 396h18M558 396h54M936 396h18M216 397h18M558 397h54M936 397h18M216 398h18M558 398h54M936 398h18M216 399h18M558 399h54M936 399h18M216 400h18M558 400h54M936 400h18M216 401h18M558 401h54M936 401h18M216 402h18M558 402h54M936 402h18M216 403h18M558 403h54M936 403h18M216 404h18M558 404h54M936 404h18M216 405h18M558 405h54M936 405h18M216 406h18M558 406h54M936 406h18M216 407h18M558 407h54M936 407h18M216 408h18M558 408h54M936 408h18M216 409h18M558 409h54M936 409h18M216 410h18M558 410h54M936 410h18M216 411h18M558 411h54M936 411h18M216 412h18M558 412h54M936 412h18M216 413h18M558 413h54M936 413h18M216 414h18M576 414h18M936 414h18M216 415h18M576 415h18M936 415h18M216 416h18M576 416h18M936 416h18M216 417h18M576 417h18M936 417h18M216 418h18M576 418h18M936 418h18M216 419h18M576 419h18M936 419h18M216 420h18M576 420h18M936 420h18M216 421h18M576 421h18M936 421h18M216 422h18M576 422h18M936 422h18M216 423h18M576 423h18M936 423h18M216 424h18M576 424h18M936 424h18M216 425h18M576 425h18M936 425h18M216 426h18M576 426h18M936 426h18M216 427h18M576 427h18M936 427h18M216 428h18M576 428h18M936 428h18M216 429h18M576 429h18M936 429h18M216 430h18M576 430h18M936 430h18M216 431h18M576 431h18M936 431h18M198 432h18M954 432h18M198 433h18M954 433h18M198 434h18M954 434h18M198 435h18M954 435h18M198 436h18M954 436h18M198 437h18M954 437h18M198 438h18M954 438h18M198 439h18M954 439h18M198 440h18M954 440h18M198 441h18M954 441h18M198 442h18M954 442h18M198 443h18M954 443h18M198 444h18M954 444h18M198 445h18M954 445h18M198 446h18M954 446h18M198 447h18M954 447h18M198 448h18M954 448h18M198 449h18M954 449h18M198 450h18M954 450h18M198 451h18M954 451h18M198 452h18M954 452h18M198 453h18M954 453h18M198 454h18M954 454h18M198 455h18M954 455h18M198 456h18M954 456h18M198 457h18M954 457h18M198 458h18M954 458h18M198 459h18M954 459h18M198 460h18M954 460h18M198 461h18M954 461h18M198 462h18M954 462h18M198 463h18M954 463h18M198 464h18M954 464h18M198 465h18M954 465h18M198 466h18M954 466h18M198 467h18M954 467h18M198 468h18M954 468h18M198 469h18M954 469h18M198 470h18M954 470h18M198 471h18M954 471h18M198 472h18M954 472h18M198 473h18M954 473h18M198 474h18M954 474h18M198 475h18M954 475h18M198 476h18M954 476h18M198 477h18M954 477h18M198 478h18M954 478h18M198 479h18M954 479h18M198 480h18M954 480h18M198 481h18M954 481h18M198 482h18M954 482h18M198 483h18M954 483h18M198 484h18M954 484h18M198 485h18M954 485h18M198 486h18M954 486h18M198 487h18M954 487h18M198 488h18M954 488h18M198 489h18M954 489h18M198 490h18M954 490h18M198 491h18M954 491h18M198 492h18M954 492h18M198 493h18M954 493h18M198 494h18M954 494h18M198 495h18M954 495h18M198 496h18M954 496h18M198 497h18M954 497h18M198 498h18M954 498h18M198 499h18M954 499h18M198 500h18M954 500h18M198 501h18M954 501h18M198 502h18M954 502h18M198 503h18M954 503h18M270 612h18M882 612h18M270 613h18M882 613h18M270 614h18M882 614h18M270 615h18M882 615h18M270 616h18M882 616h18M270 617h18M882 617h18M270 618h18M882 618h18M270 619h18M882 619h18M270 620h18M882 620h18M270 621h18M882 621h18M270 622h18M882 622h18M270 623h18M882 623h18M270 624h18M882 624h18M270 625h18M882 625h18M270 626h18M882 626h18M270 627h18M882 627h18M270 628h18M882 628h18M270 629h18M882 629h18M270 630h36M864 630h36M270 631h36M864 631h36M270 632h36M864 632h36M270 633h36M864 633h36M270 634h36M864 634h36M270 635h36M864 635h36M270 636h36M864 636h36M270 637h36M864 637h36M270 638h36M864 638h36M270 639h36M864 639h36M270 640h36M864 640h36M270 641h36M864 641h36M270 642h36M864 642h36M270 643h36M864 643h36M270 644h36M864 644h36M270 645h36M864 645h36M270 646h36M864 646h36M270 647h36M864 647h36M288 648h36M846 648h36M288 649h36M846 649h36M288 650h36M846 650h36M288 651h36M846 651h36M288 652h36M846 652h36M288 653h36M846 653h36M288 654h36M846 654h36M288 655h36M846 655h36M288 656h36M846 656h36M288 657h36M846 657h36M288 658h36M846 658h36M288 659h36M846 659h36M288 660h36M846 660h36M288 661h36M846 661h36M288 662h36M846 662h36M288 663h36M846 663h36M288 664h36M846 664h36M288 665h36M846 665h36M306 666h18M846 666h18M306 667h18M846 667h18M306 668h18M846 668h18M306 669h18M846 669h18M306 670h18M846 670h18M306 671h18M846 671h18M306 672h18M846 672h18M306 673h18M846 673h18M306 674h18M846 674h18M306 675h18M846 675h18M306 676h18M846 676h18M306 677h18M846 677h18M306 678h18M846 678h18M306 679h18M846 679h18M306 680h18M846 680h18M306 681h18M846 681h18M306 682h18M846 682h18M306 683h18M846 683h18M306 684h36M828 684h36M306 685h36M828 685h36M306 686h36M828 686h36M306 687h36M828 687h36M306 688h36M828 688h36M306 689h36M828 689h36M306 690h36M828 690h36M306 691h36M828 691h36M306 692h36M828 692h36M306 693h36M828 693h36M306 694h36M828 694h36M306 695h36M828 695h36M306 696h36M828 696h36M306 697h36M828 697h36M306 698h36M828 698h36M306 699h36M828 699h36M306 700h36M828 700h36M306 701h36M828 701h36M324 702h36M810 702h36M324 703h36M810 703h36M324 704h36M810 704h36M324 705h36M810 705h36M324 706h36M810 706h36M324 707h36M810 707h36M324 708h36M810 708h36M324 709h36M810 709h36M324 710h36M810 710h36M324 711h36M810 711h36M324 712h36M810 712h36M324 713h36M810 713h36M324 714h36M810 714h36M324 715h36M810 715h36M324 716h36M810 716h36M324 717h36M810 717h36M324 718h36M810 718h36M324 719h36M810 719h36M342 720h36M792 720h36M342 721h36M792 721h36M342 722h36M792 722h36M342 723h36M792 723h36M342 724h36M792 724h36M342 725h36M792 725h36M342 726h36M792 726h36M342 727h36M792 727h36M342 728h36M792 728h36M342 729h36M792 729h36M342 730h36M792 730h36M342 731h36M792 731h36M342 732h36M792 732h36M342 733h36M792 733h36M342 734h36M792 734h36M342 735h36M792 735h36M342 736h36M792 736h36M342 737h36M792 737h36M360 738h36M774 738h36M360 739h36M774 739h36M360 740h36M774 740h36M360 741h36M774 741h36M360 742h36M774 742h36M360 743h36M774 743h36M360 744h36M774 744h36M360 745h36M774 745h36M360 746h36M774 746h36M360 747h36M774 747h36M360 748h36M774 748h36M360 749h36M774 749h36M360 750h36M774 750h36M360 751h36M774 751h36M360 752h36M774 752h36M360 753h36M774 753h36M360 754h36M774 754h36M360 755h36M774 755h36M378 756h36M756 756h36M378 757h36M756 757h36M378 758h36M756 758h36M378 759h36M756 759h36M378 760h36M756 760h36M378 761h36M756 761h36M378 762h36M756 762h36M378 763h36M756 763h36M378 764h36M756 764h36M378 765h36M756 765h36M378 766h36M756 766h36M378 767h36M756 767h36M378 768h36M756 768h36M378 769h36M756 769h36M378 770h36M756 770h36M378 771h36M756 771h36M378 772h36M756 772h36M378 773h36M756 773h36M396 774h36M738 774h36M396 775h36M738 775h36M396 776h36M738 776h36M396 777h36M738 777h36M396 778h36M738 778h36M396 779h36M738 779h36M396 780h36M738 780h36M396 781h36M738 781h36M396 782h36M738 782h36M396 783h36M738 783h36M396 784h36M738 784h36M396 785h36M738 785h36M396 786h36M738 786h36M396 787h36M738 787h36M396 788h36M738 788h36M396 789h36M738 789h36M396 790h36M738 790h36M396 791h36M738 791h36M414 792h36M720 792h36M414 793h36M720 793h36M414 794h36M720 794h36M414 795h36M720 795h36M414 796h36M720 796h36M414 797h36M720 797h36M414 798h36M720 798h36M414 799h36M720 799h36M414 800h36M720 800h36M414 801h36M720 801h36M414 802h36M720 802h36M414 803h36M720 803h36M414 804h36M720 804h36M414 805h36M720 805h36M414 806h36M720 806h36M414 807h36M720 807h36M414 808h36M720 808h36M414 809h36M720 809h36M432 810h36M702 810h36M432 811h36M702 811h36M432 812h36M702 812h36M432 813h36M702 813h36M432 814h36M702 814h36M432 815h36M702 815h36M432 816h36M702 816h36M432 817h36M702 817h36M432 818h36M702 818h36M432 819h36M702 819h36M432 820h36M702 820h36M432 821h36M702 821h36M432 822h36M702 822h36M432 823h36M702 823h36M432 824h36M702 824h36M432 825h36M702 825h36M432 826h36M702 826h36M432 827h36M702 827h36M450 828h54M666 828h54M450 829h54M666 829h54M450 830h54M666 830h54M450 831h54M666 831h54M450 832h54M666 832h54M450 833h54M666 833h54M450 834h54M666 834h54M450 835h54M666 835h54M450 836h54M666 836h54M450 837h54M666 837h54M450 838h54M666 838h54M450 839h54M666 839h54M450 840h54M666 840h54M450 841h54M666 841h54M450 842h54M666 842h54M450 843h54M666 843h54M450 844h54M666 844h54M450 845h54M666 845h54M486 846h36M648 846h36M486 847h36M648 847h36M486 848h36M648 848h36M486 849h36M648 849h36M486 850h36M648 850h36M486 851h36M648 851h36M486 852h36M648 852h36M486 853h36M648 853h36M486 854h36M648 854h36M486 855h36M648 855h36M486 856h36M648 856h36M486 857h36M648 857h36M486 858h36M648 858h36M486 859h36M648 859h36M486 860h36M648 860h36M486 861h36M648 861h36M486 862h36M648 862h36M486 863h36M648 863h36M504 864h36M630 864h36M504 865h36M630 865h36M504 866h36M630 866h36M504 867h36M630 867h36M504 868h36M630 868h36M504 869h36M630 869h36M504 870h36M630 870h36M504 871h36M630 871h36M504 872h36M630 872h36M504 873h36M630 873h36M504 874h36M630 874h36M504 875h36M630 875h36M504 876h36M630 876h36M504 877h36M630 877h36M504 878h36M630 878h36M504 879h36M630 879h36M504 880h36M630 880h36M504 881h36M630 881h36M522 882h36M612 882h36M522 883h36M612 883h36M522 884h36M612 884h36M522 885h36M612 885h36M522 886h36M612 886h36M522 887h36M612 887h36M522 888h36M612 888h36M522 889h36M612 889h36M522 890h36M612 890h36M522 891h36M612 891h36M522 892h36M612 892h36M522 893h36M612 893h36M522 894h36M612 894h36M522 895h36M612 895h36M522 896h36M612 896h36M522 897h36M612 897h36M522 898h36M612 898h36M522 899h36M612 899h36M540 900h36M594 900h36M540 901h36M594 901h36M540 902h36M594 902h36M540 903h36M594 903h36M540 904h36M594 904h36M540 905h36M594 905h36M540 906h36M594 906h36M540 907h36M594 907h36M540 908h36M594 908h36M540 909h36M594 909h36M540 910h36M594 910h36M540 911h36M594 911h36M540 912h36M594 912h36M540 913h36M594 913h36M540 914h36M594 914h36M540 915h36M594 915h36M540 916h36M594 916h36M540 917h36M594 917h36M558 918h54M558 919h54M558 920h54M558 921h54M558 922h54M558 923h54M558 924h54M558 925h54M558 926h54M558 927h54M558 928h54M558 929h54M558 930h54M558 931h54M558 932h54M558 933h54M558 934h54M558 935h54M576 936h18M576 937h18M576 938h18M576 939h18M576 940h18M576 941h18M576 942h18M576 943h18M576 944h18M576 945h18M576 946h18M576 947h18M576 948h18M576 949h18M576 950h18M576 951h18M576 952h18M576 953h18" />
<path stroke="#b71c1c" d="M342 270h72M756 270h72M342 271h72M756 271h72M342 272h72M756 272h72M342 273h72M756 273h72M342 274h72M756 274h72M342 275h72M756 275h72M342 276h72M756 276h72M342 277h72M756 277h72M342 278h72M756 278h72M342 279h72M756 279h72M342 280h72M756 280h72M342 281h72M756 281h72M342 282h72M756 282h72M342 283h72M756 283h72M342 284h72M756 284h72M342 285h72M756 285h72M342 286h72M756 286h72M342 287h72M756 287h72M288 288h72M396 288h54M720 288h162M288 289h72M396 289h54M720 289h162M288 290h72M396 290h54M720 290h162M288 291h72M396 291h54M720 291h162M288 292h72M396 292h54M720 292h162M288 293h72M396 293h54M720 293h162M288 294h72M396 294h54M720 294h162M288 295h72M396 295h54M720 295h162M288 296h72M396 296h54M720 296h162M288 297h72M396 297h54M720 297h162M288 298h72M396 298h54M720 298h162M288 299h72M396 299h54M720 299h162M288 300h72M396 300h54M720 300h162M288 301h72M396 301h54M720 301h162M288 302h72M396 302h54M720 302h162M288 303h72M396 303h54M720 303h162M288 304h72M396 304h54M720 304h162M288 305h72M396 305h54M720 305h162M270 306h36M414 306h54M702 306h198M270 307h36M414 307h54M702 307h198M270 308h36M414 308h54M702 308h198M270 309h36M414 309h54M702 309h198M270 310h36M414 310h54M702 310h198M270 311h36M414 311h54M702 311h198M270 312h36M414 312h54M702 312h198M270 313h36M414 313h54M702 313h198M270 314h36M414 314h54M702 314h198M270 315h36M414 315h54M702 315h198M270 316h36M414 316h54M702 316h198M270 317h36M414 317h54M702 317h198M270 318h36M414 318h54M702 318h198M270 319h36M414 319h54M702 319h198M270 320h36M414 320h54M702 320h198M270 321h36M414 321h54M702 321h198M270 322h36M414 322h54M702 322h198M270 323h36M414 323h54M702 323h198M252 324h36M342 324h144M684 324h234M252 325h36M342 325h144M684 325h234M252 326h36M342 326h144M684 326h234M252 327h36M342 327h144M684 327h234M252 328h36M342 328h144M684 328h234M252 329h36M342 329h144M684 329h234M252 330h36M342 330h144M684 330h234M252 331h36M342 331h144M684 331h234M252 332h36M342 332h144M684 332h234M252 333h36M342 333h144M684 333h234M252 334h36M342 334h144M684 334h234M252 335h36M342 335h144M684 335h234M252 336h36M342 336h144M684 336h234M252 337h36M342 337h144M684 337h234M252 338h36M342 338h144M684 338h234M252 339h36M342 339h144M684 339h234M252 340h36M342 340h144M684 340h234M252 341h36M342 341h144M684 341h234M252 342h18M306 342h198M666 342h252M252 343h18M306 343h198M666 343h252M252 344h18M306 344h198M666 344h252M252 345h18M306 345h198M666 345h252M252 346h18M306 346h198M666 346h252M252 347h18M306 347h198M666 347h252M252 348h18M306 348h198M666 348h252M252 349h18M306 349h198M666 349h252M252 350h18M306 350h198M666 350h252M252 351h18M306 351h198M666 351h252M252 352h18M306 352h198M666 352h252M252 353h18M306 353h198M666 353h252M252 354h18M306 354h198M666 354h252M252 355h18M306 355h198M666 355h252M252 356h18M306 356h198M666 356h252M252 357h18M306 357h198M666 357h252M252 358h18M306 358h198M666 358h252M252 359h18M306 359h198M666 359h252M252 360h18M306 360h216M648 360h270M252 361h18M306 361h216M648 361h270M252 362h18M306 362h216M648 362h270M252 363h18M306 363h216M648 363h270M252 364h18M306 364h216M648 364h270M252 365h18M306 365h216M648 365h270M252 366h18M306 366h216M648 366h270M252 367h18M306 367h216M648 367h270M252 368h18M306 368h216M648 368h270M252 369h18M306 369h216M648 369h270M252 370h18M306 370h216M648 370h270M252 371h18M306 371h216M648 371h270M252 372h18M306 372h216M648 372h270M252 373h18M306 373h216M648 373h270M252 374h18M306 374h216M648 374h270M252 375h18M306 375h216M648 375h270M252 376h18M306 376h216M648 376h270M252 377h18M306 377h216M648 377h270M288 378h252M630 378h288M288 379h252M630 379h288M288 380h252M630 380h288M288 381h252M630 381h288M288 382h252M630 382h288M288 383h252M630 383h288M288 384h252M630 384h288M288 385h252M630 385h288M288 386h252M630 386h288M288 387h252M630 387h288M288 388h252M630 388h288M288 389h252M630 389h288M288 390h252M630 390h288M288 391h252M630 391h288M288 392h252M630 392h288M288 393h252M630 393h288M288 394h252M630 394h288M288 395h252M630 395h288M270 396h288M612 396h324M270 397h288M612 397h324M270 398h288M612 398h324M270 399h288M612 399h324M270 400h288M612 400h324M270 401h288M612 401h324M270 402h288M612 402h324M270 403h288M612 403h324M270 404h288M612 404h324M270 405h288M612 405h324M270 406h288M612 406h324M270 407h288M612 407h324M270 408h288M612 408h324M270 409h288M612 409h324M270 410h288M612 410h324M270 411h288M612 411h324M270 412h288M612 412h324M270 413h288M612 413h324M270 414h306M594 414h342M270 415h306M594 415h342M270 416h306M594 416h342M270 417h306M594 417h342M270 418h306M594 418h342M270 419h306M594 419h342M270 420h306M594 420h342M270 421h306M594 421h342M270 422h306M594 422h342M270 423h306M594 423h342M270 424h306M594 424h342M270 425h306M594 425h342M270 426h306M594 426h342M270 427h306M594 427h342M270 428h306M594 428h342M270 429h306M594 429h342M270 430h306M594 430h342M270 431h306M594 431h342M216 432h18M252 432h702M216 433h18M252 433h702M216 434h18M252 434h702M216 435h18M252 435h702M216 436h18M252 436h702M216 437h18M252 437h702M216 438h18M252 438h702M216 439h18M252 439h702M216 440h18M252 440h702M216 441h18M252 441h702M216 442h18M252 442h702M216 443h18M252 443h702M216 444h18M252 444h702M216 445h18M252 445h702M216 446h18M252 446h702M216 447h18M252 447h702M216 448h18M252 448h702M216 449h18M252 449h702M216 450h738M216 451h738M216 452h738M216 453h738M216 454h738M216 455h738M216 456h738M216 457h738M216 458h738M216 459h738M216 460h738M216 461h738M216 462h738M216 463h738M216 464h738M216 465h738M216 466h738M216 467h738M216 468h738M216 469h738M216 470h738M216 471h738M216 472h738M216 473h738M216 474h738M216 475h738M216 476h738M216 477h738M216 478h738M216 479h738M216 480h738M216 481h738M216 482h738M216 483h738M216 484h738M216 485h738M216 486h738M216 487h738M216 488h738M216 489h738M216 490h738M216 491h738M216 492h738M216 493h738M216 494h738M216 495h738M216 496h738M216 497h738M216 498h738M216 499h738M216 500h738M216 501h738M216 502h738M216 503h738M216 504h738M216 505h738M216 506h738M216 507h738M216 508h738M216 509h738M216 510h738M216 511h738M216 512h738M216 513h738M216 514h738M216 515h738M216 516h738M216 517h738M216 518h738M216 519h738M216 520h738M216 521h738M216 522h738M216 523h738M216 524h738M216 525h738M216 526h738M216 527h738M216 528h738M216 529h738M216 530h738M216 531h738M216 532h738M216 533h738M216 534h738M216 535h738M216 536h738M216 537h738M216 538h738M216 539h738M216 540h738M216 541h738M216 542h738M216 543h738M216 544h738M216 545h738M216 546h738M216 547h738M216 548h738M216 549h738M216 550h738M216 551h738M216 552h738M216 553h738M216 554h738M216 555h738M216 556h738M216 557h738M234 558h702M234 559h702M234 560h702M234 561h702M234 562h702M234 563h702M234 564h702M234 565h702M234 566h702M234 567h702M234 568h702M234 569h702M234 570h702M234 571h702M234 572h702M234 573h702M234 574h702M234 575h702M252 576h666M252 577h666M252 578h666M252 579h666M252 580h666M252 581h666M252 582h666M252 583h666M252 584h666M252 585h666M252 586h666M252 587h666M252 588h666M252 589h666M252 590h666M252 591h666M252 592h666M252 593h666M252 594h666M252 595h666M252 596h666M252 597h666M252 598h666M252 599h666M252 600h666M252 601h666M252 602h666M252 603h666M252 604h666M252 605h666M252 606h666M252 607h666M252 608h666M252 609h666M252 610h666M252 611h666M288 612h594M288 613h594M288 614h594M288 615h594M288 616h594M288 617h594M288 618h594M288 619h594M288 620h594M288 621h594M288 622h594M288 623h594M288 624h594M288 625h594M288 626h594M288 627h594M288 628h594M288 629h594M306 630h558M306 631h558M306 632h558M306 633h558M306 634h558M306 635h558M306 636h558M306 637h558M306 638h558M306 639h558M306 640h558M306 641h558M306 642h558M306 643h558M306 644h558M306 645h558M306 646h558M306 647h558M324 648h522M324 649h522M324 650h522M324 651h522M324 652h522M324 653h522M324 654h522M324 655h522M324 656h522M324 657h522M324 658h522M324 659h522M324 660h522M324 661h522M324 662h522M324 663h522M324 664h522M324 665h522M324 666h522M324 667h522M324 668h522M324 669h522M324 670h522M324 671h522M324 672h522M324 673h522M324 674h522M324 675h522M324 676h522M324 677h522M324 678h522M324 679h522M324 680h522M324 681h522M324 682h522M324 683h522M342 684h486M342 685h486M342 686h486M342 687h486M342 688h486M342 689h486M342 690h486M342 691h486M342 692h486M342 693h486M342 694h486M342 695h486M342 696h486M342 697h486M342 698h486M342 699h486M342 700h486M342 701h486M360 702h450M360 703h450M360 704h450M360 705h450M360 706h450M360 707h450M360 708h450M360 709h450M360 710h450M360 711h450M360 712h450M360 713h450M360 714h450M360 715h450M360 716h450M360 717h450M360 718h450M360 719h450M378 720h414M378 721h414M378 722h414M378 723h414M378 724h414M378 725h414M378 726h414M378 727h414M378 728h414M378 729h414M378 730h414M378 731h414M378 732h414M378 733h414M378 734h414M378 735h414M378 736h414M378 737h414M396 738h378M396 739h378M396 740h378M396 741h378M396 742h378M396 743h378M396 744h378M396 745h378M396 746h378M396 747h378M396 748h378M396 749h378M396 750h378M396 751h378M396 752h378M396 753h378M396 754h378M396 755h378M414 756h342M414 757h342M414 758h342M414 759h342M414 760h342M414 761h342M414 762h342M414 763h342M414 764h342M414 765h342M414 766h342M414 767h342M414 768h342M414 769h342M414 770h342M414 771h342M414 772h342M414 773h342M432 774h306M432 775h306M432 776h306M432 777h306M432 778h306M432 779h306M432 780h306M432 781h306M432 782h306M432 783h306M432 784h306M432 785h306M432 786h306M432 787h306M432 788h306M432 789h306M432 790h306M432 791h306M450 792h270M450 793h270M450 794h270M450 795h270M450 796h270M450 797h270M450 798h270M450 799h270M450 800h270M450 801h270M450 802h270M450 803h270M450 804h270M450 805h270M450 806h270M450 807h270M450 808h270M450 809h270M468 810h234M468 811h234M468 812h234M468 813h234M468 814h234M468 815h234M468 816h234M468 817h234M468 818h234M468 819h234M468 820h234M468 821h234M468 822h234M468 823h234M468 824h234M468 825h234M468 826h234M468 827h234M504 828h162M504 829h162M504 830h162M504 831h162M504 832h162M504 833h162M504 834h162M504 835h162M504 836h162M504 837h162M504 838h162M504 839h162M504 840h162M504 841h162M504 842h162M504 843h162M504 844h162M504 845h162M522 846h126M522 847h126M522 848h126M522 849h126M522 850h126M522 851h126M522 852h126M522 853h126M522 854h126M522 855h126M522 856h126M522 857h126M522 858h126M522 859h126M522 860h126M522 861h126M522 862h126M522 863h126M540 864h90M540 865h90M540 866h90M540 867h90M540 868h90M540 869h90M540 870h90M540 871h90M540 872h90M540 873h90M540 874h90M540 875h90M540 876h90M540 877h90M540 878h90M540 879h90M540 880h90M540 881h90M558 882h54M558 883h54M558 884h54M558 885h54M558 886h54M558 887h54M558 888h54M558 889h54M558 890h54M558 891h54M558 892h54M558 893h54M558 894h54M558 895h54M558 896h54M558 897h54M558 898h54M558 899h54M576 900h18M576 901h18M576 902h18M576 903h18M576 904h18M576 905h18M576 906h18M576 907h18M576 908h18M576 909h18M576 910h18M576 911h18M576 912h18M576 913h18M576 914h18M576 915h18M576 916h18M576 917h18" />
<path stroke="#ef5350" d="M360 288h36M360 289h36M360 290h36M360 291h36M360 292h36M360 293h36M360 294h36M360 295h36M360 296h36M360 297h36M360 298h36M360 299h36M360 300h36M360 301h36M360 302h36M360 303h36M360 304h36M360 305h36M306 306h108M306 307h108M306 308h108M306 309h108M306 310h108M306 311h108M306 312h108M306 313h108M306 314h108M306 315h108M306 316h108M306 317h108M306 318h108M306 319h108M306 320h108M306 321h108M306 322h108M306 323h108M288 324h54M288 325h54M288 326h54M288 327h54M288 328h54M288 329h54M288 330h54M288 331h54M288 332h54M288 333h54M288 334h54M288 335h54M288 336h54M288 337h54M288 338h54M288 339h54M288 340h54M288 341h54M270 342h36M270 343h36M270 344h36M270 345h36M270 346h36M270 347h36M270 348h36M270 349h36M270 350h36M270 351h36M270 352h36M270 353h36M270 354h36M270 355h36M270 356h36M270 357h36M270 358h36M270 359h36M270 360h36M270 361h36M270 362h36M270 363h36M270 364h36M270 365h36M270 366h36M270 367h36M270 368h36M270 369h36M270 370h36M270 371h36M270 372h36M270 373h36M270 374h36M270 375h36M270 376h36M270 377h36M252 378h36M252 379h36M252 380h36M252 381h36M252 382h36M252 383h36M252 384h36M252 385h36M252 386h36M252 387h36M252 388h36M252 389h36M252 390h36M252 391h36M252 392h36M252 393h36M252 394h36M252 395h36M234 396h36M234 397h36M234 398h36M234 399h36M234 400h36M234 401h36M234 402h36M234 403h36M234 404h36M234 405h36M234 406h36M234 407h36M234 408h36M234 409h36M234 410h36M234 411h36M234 412h36M234 413h36M234 414h36M234 415h36M234 416h36M234 417h36M234 418h36M234 419h36M234 420h36M234 421h36M234 422h36M234 423h36M234 424h36M234 425h36M234 426h36M234 427h36M234 428h36M234 429h36M234 430h36M234 431h36M234 432h18M234 433h18M234 434h18M234 435h18M234 436h18M234 437h18M234 438h18M234 439h18M234 440h18M234 441h18M234 442h18M234 443h18M234 444h18M234 445h18M234 446h18M234 447h18M234 448h18M234 449h18" />
</svg>