<svg xmlns="http://www.w3.org/2000/svg" viewBox="0 -0.5 1170 1170" shape-rendering="crispEdges">
<metadata>Made with Pixels to Svg https://codepen.io/shshaw/pen/XbxvNj</metadata>
<path stroke="#000000" d="M558 108h54M558 109h54M558 110h54M558 111h54M558 112h54M558 113h54M558 114h54M558 115h54M558 116h54M558 117h54M558 118h54M558 119h54M558 120h54M558 121h54M558 122h54M558 123h54M558 124h54M558 125h54M540 126h90M540 127h90M540 128h90M540 129h90M540 130h90M540 131h90M540 132h90M540 133h90M540 134h90M540 135h90M540 136h90M540 137h90M540 138h90M540 139h90M540 140h90M540 141h90M540 142h90M540 143h90M522 144h54M594 144h54M522 145h54M594 145h54M522 146h54M594 146h54M522 147h54M594 147h54M522 148h54M594 148h54M522 149h54M594 149h54M522 150h54M594 150h54M522 151h54M594 151h54M522 152h54M594 152h54M522 153h54M594 153h54M522 154h54M594 154h54M522 155h54M594 155h54M522 156h54M594 156h54M522 157h54M594 157h54M522 158h54M594 158h54M522 159h54M594 159h54M522 160h54M594 160h54M522 161h54M594 161h54M504 162h54M612 162h54M504 163h54M612 163h54M504 164h54M612 164h54M504 165h54M612 165h54M504 166h54M612 166h54M504 167h54M612 167h54M504 168h54M612 168h54M504 169h54M612 169h54M504 170h54M612 170h54M504 171h54M612 171h54M504 172h54M612 172h54M504 173h54M612 173h54M504 174h54M612 174h54M504 175h54M612 175h54M504 176h54M612 176h54M504 177h54M612 177h54M504 178h54M612 178h54M504 179h54M612 179h54M486 180h54M630 180h54M486 181h54M630 181h54M486 182h54M630 182h54M486 183h54M630 183h54M486 184h54M630 184h54M486 185h54M630 185h54M486 186h54M630 186h54M486 187h54M630 187h54M486 188h54M630 188h54M486 189h54M630 189h54M486 190h54M630 190h54M486 191h54M630 191h54M486 192h54M630 192h54M486 193h54M630 193h54M486 194h54M630 194h54M486 195h54M630 195h54M486 196h54M630 196h54M486 197h54M630 197h54M468 198h36M666 198h36M468 199h36M666 199h36M468 200h36M666 200h36M468 201h36M666 201h36M468 202h36M666 202h36M468 203h36M666 203h36M468 204h36M666 204h36M468 205h36M666 205h36M468 206h36M666 206h36M468 207h36M666 207h36M468 208h36M666 208h36M468 209h36M666 209h36M468 210h36M666 210h36M468 211h36M666 211h36M468 212h36M666 212h36M468 213h36M666 213h36M468 214h36M666 214h36M468 215h36M666 215h36M450 216h36M684 216h36M450 217h36M684 217h36M450 218h36M684 218h36M450 219h36M684 219h36M450 220h36M684 220h36M450 221h36M684 221h36M450 222h36M684 222h36M450 223h36M684 223h36M450 224h36M684 224h36M450 225h36M684 225h36M450 226h36M684 226h36M450 227h36M684 227h36M450 228h36M684 228h36M450 229h36M684 229h36M450 230h36M684 230h36M450 231h36M684 231h36M450 232h36M684 232h36M450 233h36M684 233h36M432 234h36M702 234h36M432 235h36M702 235h36M432 236h36M702 236h36M432 237h36M702 237h36M432 238h36M702 238h36M432 239h36M702 239h36M432 240h36M702 240h36M432 241h36M702 241h36M432 242h36M702 242h36M432 243h36M702 243h36M432 244h36M702 244h36M432 245h36M702 245h36M432 246h36M702 246h36M432 247h36M702 247h36M432 248h36M702 248h36M432 249h36M702 249h36M432 250h36M702 250h36M432 251h36M702 251h36M414 252h36M720 252h36M414 253h36M720 253h36M414 254h36M720 254h36M414 255h36M720 255h36M414 256h36M720 256h36M414 257h36M720 257h36M414 258h36M720 258h36M414 259h36M720 259h36M414 260h36M720 260h36M414 261h36M720 261h36M414 262h36M720 262h36M414 263h36M720 263h36M414 264h36M720 264h36M414 265h36M720 265h36M414 266h36M720 266h36M414 267h36M720 267h36M414 268h36M720 268h36M414 269h36M720 269h36M396 270h36M738 270h36M396 271h36M738 271h36M396 272h36M738 272h36M396 273h36M738 273h36M396 274h36M738 274h36M396 275h36M738 275h36M396 276h36M738 276h36M396 277h36M738 277h36M396 278h36M738 278h36M396 279h36M738 279h36M396 280h36M738 280h36M396 281h36M738 281h36M396 282h36M738 282h36M396 283h36M738 283h36M396 284h36M738 284h36M396 285h36M738 285h36M396 286h36M738 286h36M396 287h36M738 287h36M378 288h36M756 288h36M378 289h36M756 289h36M378 290h36M756 290h36M378 291h36M756 291h36M378 292h36M756 292h36M378 293h36M756 293h36M378 294h36M756 294h36M378 295h36M756 295h36M378 296h36M756 296h36M378 297h36M756 297h36M378 298h36M756 298h36M378 299h36M756 299h36M378 300h36M756 300h36M378 301h36M756 301h36M378 302h36M756 302h36M378 303h36M756 303h36M378 304h36M756 304h36M378 305h36M756 305h36M360 306h36M774 306h36M360 307h36M774 307h36M360 308h36M774 308h36M360 309h36M774 309h36M360 310h36M774 310h36M360 311h36M774 311h36M360 312h36M774 312h36M360 313h36M774 313h36M360 314h36M774 314h36M360 315h36M774 315h36M360 316h36M774 316h36M360 317h36M774 317h36M360 318h36M774 318h36M360 319h36M774 319h36M360 320h36M774 320h36M360 321h36M774 321h36M360 322h36M774 322h36M360 323h36M774 323h36M342 324h36M792 324h36M342 325h36M792 325h36M342 326h36M792 326h36M342 327h36M792 327h36M342 328h36M792 328h36M342 329h36M792 329h36M342 330h36M792 330h36M342 331h36M792 331h36M342 332h36M792 332h36M342 333h36M792 333h36M342 334h36M792 334h36M342 335h36M792 335h36M342 336h36M792 336h36M342 337h36M792 337h36M342 338h36M792 338h36M342 339h36M792 339h36M342 340h36M792 340h36M342 341h36M792 341h36M324 342h36M810 342h36M324 343h36M810 343h36M324 344h36M810 344h36M324 345h36M810 345h36M324 346h36M810 346h36M324 347h36M810 347h36M324 348h36M810 348h36M324 349h36M810 349h36M324 350h36M810 350h36M324 351h36M810 351h36M324 352h36M810 352h36M324 353h36M810 353h36M324 354h36M810 354h36M324 355h36M810 355h36M324 356h36M810 356h36M324 357h36M810 357h36M324 358h36M810 358h36M324 359h36M810 359h36M306 360h36M828 360h36M306 361h36M828 361h36M306 362h36M828 362h36M306 363h36M828 363h36M306 364h36M828 364h36M306 365h36M828 365h36M306 366h36M828 366h36M306 367h36M828 367h36M306 368h36M828 368h36M306 369h36M828 369h36M306 370h36M828 370h36M306 371h36M828 371h36M306 372h36M828 372h36M306 373h36M828 373h36M306 374h36M828 374h36M306 375h36M828 375h36M306 376h36M828 376h36M306 377h36M828 377h36M288 378h36M846 378h36M288 379h36M846 379h36M288 380h36M846 380h36M288 381h36M846 381h36M288 382h36M846 382h36M288 383h36M846 383h36M288 384h36M846 384h36M288 385h36M846 385h36M288 386h36M846 386h36M288 387h36M846 387h36M288 388h36M846 388h36M288 389h36M846 389h36M288 390h36M846 390h36M288 391h36M846 391h36M288 392h36M846 392h36M288 393h36M846 393h36M288 394h36M846 394h36M288 395h36M846 395h36M270 396h36M864 396h36M270 397h36M864 397h36M270 398h36M864 398h36M270 399h36M864 399h36M270 400h36M864 400h36M270 401h36M864 401h36M270 402h36M864 402h36M270 403h36M864 403h36M270 404h36M864 404h36M270 405h36M864 405h36M270 406h36M864 406h36M270 407h36M864 407h36M270 408h36M864 408h36M270 409h36M864 409h36M270 410h36M864 410h36M270 411h36M864 411h36M270 412h36M864 412h36M270 413h36M864 413h36M252 414h36M882 414h36M252 415h36M882 415h36M252 416h36M882 416h36M252 417h36M882 417h36M252 418h36M882 418h36M252 419h36M882 419h36M252 420h36M882 420h36M252 421h36M882 421h36M252 422h36M882 422h36M252 423h36M882 423h36M252 424h36M882 424h36M252 425h36M882 425h36M252 426h36M882 426h36M252 427h36M882 427h36M252 428h36M882 428h36M252 429h36M882 429h36M252 430h36M882 430h36M252 431h36M882 431h36M252 432h36M882 432h36M252 433h36M882 433h36M252 434h36M882 434h36M252 435h36M882 435h36M252 436h36M882 436h36M252 437h36M882 437h36M252 438h36M882 438h36M252 439h36M882 439h36M252 440h36M882 440h36M252 441h36M882 441h36M252 442h36M882 442h36M252 443h36M882 443h36M252 444h36M882 444h36M252 445h36M882 445h36M252 446h36M882 446h36M252 447h36M882 447h36M252 448h36M882 448h36M252 449h36M882 449h36M234 450h36M900 450h36M234 451h36M900 451h36M234 452h36M900 452h36M234 453h36M900 453h36M234 454h36M900 454h36M234 455h36M900 455h36M234 456h36M900 456h36M234 457h36M900 457h36M234 458h36M900 458h36M234 459h36M900 459h36M234 460h36M900 460h36M234 461h36M900 461h36M234 462h36M900 462h36M234 463h36M900 463h36M234 464h36M900 464h36M234 465h36M900 465h36M234 466h36M900 466h36M234 467h36M900 467h36M216 468h36M918 468h36M216 469h36M918 469h36M216 470h36M918 470h36M216 471h36M918 471h36M216 472h36M918 472h36M216 473h36M918 473h36M216 474h36M918 474h36M216 475h36M918 475h36M216 476h36M918 476h36M216 477h36M918 477h36M216 478h36M918 478h36M216 479h36M918 479h36M216 480h36M918 480h36M216 481h36M918 481h36M216 482h36M918 482h36M216 483h36M918 483h36M216 484h36M918 484h36M216 485h36M918 485h36M198 486h36M936 486h36M198 487h36M936 487h36M198 488h36M936 488h36M198 489h36M936 489h36M198 490h36M936 490h36M198 491h36M936 491h36M198 492h36M936 492h36M198 493h36M936 493h36M198 494h36M936 494h36M198 495h36M936 495h36M198 496h36M936 496h36M198 497h36M936 497h36M198 498h36M936 498h36M198 499h36M936 499h36M198 500h36M936 500h36M198 501h36M936 501h36M198 502h36M936 502h36M198 503h36M936 503h36M198 504h18M936 504h36M198 505h18M936 505h36M198 506h18M936 506h36M198 507h18M936 507h36M198 508h18M936 508h36M198 509h18M936 509h36M198 510h18M936 510h36M198 511h18M936 511h36M198 512h18M936 512h36M198 513h18M936 513h36M198 514h18M936 514h36M198 515h18M936 515h36M198 516h18M936 516h36M198 517h18M936 517h36M198 518h18M936 518h36M198 519h18M936 519h36M198 520h18M936 520h36M198 521h18M936 521h36M180 522h36M954 522h36M180 523h36M954 523h36M180 524h36M954 524h36M180 525h36M954 525h36M180 526h36M954 526h36M180 527h36M954 527h36M180 528h36M954 528h36M180 529h36M954 529h36M180 530h36M954 530h36M180 531h36M954 531h36M180 532h36M954 532h36M180 533h36M954 533h36M180 534h36M954 534h36M180 535h36M954 535h36M180 536h36M954 536h36M180 537h36M954 537h36M180 538h36M954 538h36M180 539h36M954 539h36M162 540h36M972 540h36M162 541h36M972 541h36M162 542h36M972 542h36M162 543h36M972 543h36M162 544h36M972 544h36M162 545h36M972 545h36M162 546h36M972 546h36M162 547h36M972 547h36M162 548h36M972 548h36M162 549h36M972 549h36M162 550h36M972 550h36M162 551h36M972 551h36M162 552h36M972 552h36M162 553h36M972 553h36M162 554h36M972 554h36M162 555h36M972 555h36M162 556h36M972 556h36M162 557h36M972 557h36M162 558h36M990 558h18M162 559h36M990 559h18M162 560h36M990 560h18M162 561h36M990 561h18M162 562h36M990 562h18M162 563h36M990 563h18M162 564h36M990 564h18M162 565h36M990 565h18M162 566h36M990 566h18M162 567h36M990 567h18M162 568h36M990 568h18M162 569h36M990 569h18M162 570h36M990 570h18M162 571h36M990 571h18M162 572h36M990 572h18M162 573h36M990 573h18M162 574h36M990 574h18M162 575h36M990 575h18M144 576h36M990 576h36M144 577h36M990 577h36M144 578h36M990 578h36M144 579h36M990 579h36M144 580h36M990 580h36M144 581h36M990 581h36M144 582h36M990 582h36M144 583h36M990 583h36M144 584h36M990 584h36M144 585h36M990 585h36M144 586h36M990 586h36M144 587h36M990 587h36M144 588h36M990 588h36M144 589h36M990 589h36M144 590h36M990 590h36M144 591h36M990 591h36M144 592h36M990 592h36M144 593h36M990 593h36M144 594h36M990 594h36M144 595h36M990 595h36M144 596h36M990 596h36M144 597h36M990 597h36M144 598h36M990 598h36M144 599h36M990 599h36M144 600h36M990 600h36M144 601h36M990 601h36M144 602h36M990 602h36M144 603h36M990 603h36M144 604h36M990 604h36M144 605h36M990 605h36M144 606h36M990 606h36M144 607h36M990 607h36M144 608h36M990 608h36M144 609h36M990 609h36M144 610h36M990 610h36M144 611h36M990 611h36M144 612h18M1008 612h18M144 613h18M1008 613h18M144 614h18M1008 614h18M144 615h18M1008 615h18M144 616h18M1008 616h18M144 617h18M1008 617h18M144 618h18M1008 618h18M144 619h18M1008 619h18M144 620h18M1008 620h18M144 621h18M1008 621h18M144 622h18M1008 622h18M144 623h18M1008 623h18M144 624h18M1008 624h18M144 625h18M1008 625h18M144 626h18M1008 626h18M144 627h18M1008 627h18M144 628h18M1008 628h18M144 629h18M1008 629h18M144 630h18M1008 630h18M144 631h18M1008 631h18M144 632h18M1008 632h18M144 633h18M1008 633h18M144 634h18M1008 634h18M144 635h18M1008 635h18M144 636h18M1008 636h18M144 637h18M1008 637h18M144 638h18M1008 638h18M144 639h18M1008 639h18M144 640h18M1008 640h18M144 641h18M1008 641h18M144 642h18M1008 642h18M144 643h18M1008 643h18M144 644h18M1008 644h18M144 645h18M1008 645h18M144 646h18M1008 646h18M144 647h18M1008 647h18M144 648h18M1008 648h18M144 649h18M1008 649h18M144 650h18M1008 650h18M144 651h18M1008 651h18M144 652h18M1008 652h18M144 653h18M1008 653h18M144 654h18M1008 654h18M144 655h18M1008 655h18M144 656h18M1008 656h18M144 657h18M1008 657h18M144 658h18M1008 658h18M144 659h18M1008 659h18M144 660h18M1008 660h18M144 661h18M1008 661h18M144 662h18M1008 662h18M144 663h18M1008 663h18M144 664h18M1008 664h18M144 665h18M1008 665h18M144 666h18M1008 666h18M144 667h18M1008 667h18M144 668h18M1008 668h18M144 669h18M1008 669h18M144 670h18M1008 670h18M144 671h18M1008 671h18M144 672h18M1008 672h18M144 673h18M1008 673h18M144 674h18M1008 674h18M144 675h18M1008 675h18M144 676h18M1008 676h18M144 677h18M1008 677h18M144 678h18M1008 678h18M144 679h18M1008 679h18M144 680h18M1008 680h18M144 681h18M1008 681h18M144 682h18M1008 682h18M144 683h18M1008 683h18M144 684h18M1008 684h18M144 685h18M1008 685h18M144 686h18M1008 686h18M144 687h18M1008 687h18M144 688h18M1008 688h18M144 689h18M1008 689h18M144 690h18M1008 690h18M144 691h18M1008 691h18M144 692h18M1008 692h18M144 693h18M1008 693h18M144 694h18M1008 694h18M144 695h18M1008 695h18M144 696h18M1008 696h18M144 697h18M1008 697h18M144 698h18M1008 698h18M144 699h18M1008 699h18M144 700h18M1008 700h18M144 701h18M1008 701h18M144 702h18M558 702h54M1008 702h18M144 703h18M558 703h54M1008 703h18M144 704h18M558 704h54M1008 704h18M144 705h18M558 705h54M1008 705h18M144 706h18M558 706h54M1008 706h18M144 707h18M558 707h54M1008 707h18M144 708h18M558 708h54M1008 708h18M144 709h18M558 709h54M1008 709h18M144 710h18M558 710h54M1008 710h18M144 711h18M558 711h54M1008 711h18M144 712h18M558 712h54M1008 712h18M144 713h18M558 713h54M1008 713h18M144 714h18M558 714h54M1008 714h18M144 715h18M558 715h54M1008 715h18M144 716h18M558 716h54M1008 716h18M144 717h18M558 717h54M1008 717h18M144 718h18M558 718h54M1008 718h18M144 719h18M558 719h54M1008 719h18M144 720h36M540 720h90M990 720h36M144 721h36M540 721h90M990 721h36M144 722h36M540 722h90M990 722h36M144 723h36M540 723h90M990 723h36M144 724h36M540 724h90M990 724h36M144 725h36M540 725h90M990 725h36M144 726h36M540 726h90M990 726h36M144 727h36M540 727h90M990 727h36M144 728h36M540 728h90M990 728h36M144 729h36M540 729h90M990 729h36M144 730h36M540 730h90M990 730h36M144 731h36M540 731h90M990 731h36M144 732h36M540 732h90M990 732h36M144 733h36M540 733h90M990 733h36M144 734h36M540 734h90M990 734h36M144 735h36M540 735h90M990 735h36M144 736h36M540 736h90M990 736h36M144 737h36M540 737h90M990 737h36M144 738h54M522 738h126M990 738h36M144 739h54M522 739h126M990 739h36M144 740h54M522 740h126M990 740h36M144 741h54M522 741h126M990 741h36M144 742h54M522 742h126M990 742h36M144 743h54M522 743h126M990 743h36M144 744h54M522 744h126M990 744h36M144 745h54M522 745h126M990 745h36M144 746h54M522 746h126M990 746h36M144 747h54M522 747h126M990 747h36M144 748h54M522 748h126M990 748h36M144 749h54M522 749h126M990 749h36M144 750h54M522 750h126M990 750h36M144 751h54M522 751h126M990 751h36M144 752h54M522 752h126M990 752h36M144 753h54M522 753h126M990 753h36M144 754h54M522 754h126M990 754h36M144 755h54M522 755h126M990 755h36M162 756h36M504 756h162M972 756h36M162 757h36M504 757h162M972 757h36M162 758h36M504 758h162M972 758h36M162 759h36M504 759h162M972 759h36M162 760h36M504 760h162M972 760h36M162 761h36M504 761h162M972 761h36M162 762h36M504 762h162M972 762h36M162 763h36M504 763h162M972 763h36M162 764h36M504 764h162M972 764h36M162 765h36M504 765h162M972 765h36M162 766h36M504 766h162M972 766h36M162 767h36M504 767h162M972 767h36M162 768h36M504 768h162M972 768h36M162 769h36M504 769h162M972 769h36M162 770h36M504 770h162M972 770h36M162 771h36M504 771h162M972 771h36M162 772h36M504 772h162M972 772h36M162 773h36M504 773h162M972 773h36M162 774h54M468 774h234M972 774h36M162 775h54M468 775h234M972 775h36M162 776h54M468 776h234M972 776h36M162 777h54M468 777h234M972 777h36M162 778h54M468 778h234M972 778h36M162 779h54M468 779h234M972 779h36M162 780h54M468 780h234M972 780h36M162 781h54M468 781h234M972 781h36M162 782h54M468 782h234M972 782h36M162 783h54M468 783h234M972 783h36M162 784h54M468 784h234M972 784h36M162 785h54M468 785h234M972 785h36M162 786h54M468 786h234M972 786h36M162 787h54M468 787h234M972 787h36M162 788h54M468 788h234M972 788h36M162 789h54M468 789h234M972 789h36M162 790h54M468 790h234M972 790h36M162 791h54M468 791h234M972 791h36M162 792h72M432 792h108M558 792h54M630 792h108M936 792h72M162 793h72M432 793h108M558 793h54M630 793h108M936 793h72M162 794h72M432 794h108M558 794h54M630 794h108M936 794h72M162 795h72M432 795h108M558 795h54M630 795h108M936 795h72M162 796h72M432 796h108M558 796h54M630 796h108M936 796h72M162 797h72M432 797h108M558 797h54M630 797h108M936 797h72M162 798h72M432 798h108M558 798h54M630 798h108M936 798h72M162 799h72M432 799h108M558 799h54M630 799h108M936 799h72M162 800h72M432 800h108M558 800h54M630 800h108M936 800h72M162 801h72M432 801h108M558 801h54M630 801h108M936 801h72M162 802h72M432 802h108M558 802h54M630 802h108M936 802h72M162 803h72M432 803h108M558 803h54M630 803h108M936 803h72M162 804h72M432 804h108M558 804h54M630 804h108M936 804h72M162 805h72M432 805h108M558 805h54M630 805h108M936 805h72M162 806h72M432 806h108M558 806h54M630 806h108M936 806h72M162 807h72M432 807h108M558 807h54M630 807h108M936 807h72M162 808h72M432 808h108M558 808h54M630 808h108M936 808h72M162 809h72M432 809h108M558 809h54M630 809h108M936 809h72M180 810h90M396 810h126M558 810h54M648 810h108M900 810h90M180 811h90M396 811h126M558 811h54M648 811h108M900 811h90M180 812h90M396 812h126M558 812h54M648 812h108M900 812h90M180 813h90M396 813h126M558 813h54M648 813h108M900 813h90M180 814h90M396 814h126M558 814h54M648 814h108M900 814h90M180 815h90M396 815h126M558 815h54M648 815h108M900 815h90M180 816h90M396 816h126M558 816h54M648 816h108M900 816h90M180 817h90M396 817h126M558 817h54M648 817h108M900 817h90M180 818h90M396 818h126M558 818h54M648 818h108M900 818h90M180 819h90M396 819h126M558 819h54M648 819h108M900 819h90M180 820h90M396 820h126M558 820h54M648 820h108M900 820h90M180 821h90M396 821h126M558 821h54M648 821h108M900 821h90M180 822h90M396 822h126M558 822h54M648 822h108M900 822h90M180 823h90M396 823h126M558 823h54M648 823h108M900 823h90M180 824h90M396 824h126M558 824h54M648 824h108M900 824h90M180 825h90M396 825h126M558 825h54M648 825h108M900 825h90M180 826h90M396 826h126M558 826h54M648 826h108M900 826h90M180 827h90M396 827h126M558 827h54M648 827h108M900 827h90M216 828h270M558 828h54M684 828h270M216 829h270M558 829h54M684 829h270M216 830h270M558 830h54M684 830h270M216 831h270M558 831h54M684 831h270M216 832h270M558 832h54M684 832h270M216 833h270M558 833h54M684 833h270M216 834h270M558 834h54M684 834h270M216 835h270M558 835h54M684 835h270M216 836h270M558 836h54M684 836h270M216 837h270M558 837h54M684 837h270M216 838h270M558 838h54M684 838h270M216 839h270M558 839h54M684 839h270M216 840h270M558 840h54M684 840h270M216 841h270M558 841h54M684 841h270M216 842h270M558 842h54M684 842h270M216 843h270M558 843h54M684 843h270M216 844h270M558 844h54M684 844h270M216 845h270M558 845h54M684 845h270M234 846h216M540 846h90M720 846h216M234 847h216M540 847h90M720 847h216M234 848h216M540 848h90M720 848h216M234 849h216M540 849h90M720 849h216M234 850h216M540 850h90M720 850h216M234 851h216M540 851h90M720 851h216M234 852h216M540 852h90M720 852h216M234 853h216M540 853h90M720 853h216M234 854h216M540 854h90M720 854h216M234 855h216M540 855h90M720 855h216M234 856h216M540 856h90M720 856h216M234 857h216M540 857h90M720 857h216M234 858h216M540 858h90M720 858h216M234 859h216M540 859h90M720 859h216M234 860h216M540 860h90M720 860h216M234 861h216M540 861h90M720 861h216M234 862h216M540 862h90M720 862h216M234 863h216M540 863h90M720 863h216M270 864h144M522 864h54M594 864h54M756 864h144M270 865h144M522 865h54M594 865h54M756 865h144M270 866h144M522 866h54M594 866h54M756 866h144M270 867h144M522 867h54M594 867h54M756 867h144M270 868h144M522 868h54M594 868h54M756 868h144M270 869h144M522 869h54M594 869h54M756 869h144M270 870h144M522 870h54M594 870h54M756 870h144M270 871h144M522 871h54M594 871h54M756 871h144M270 872h144M522 872h54M594 872h54M756 872h144M270 873h144M522 873h54M594 873h54M756 873h144M270 874h144M522 874h54M594 874h54M756 874h144M270 875h144M522 875h54M594 875h54M756 875h144M270 876h144M522 876h54M594 876h54M756 876h144M270 877h144M522 877h54M594 877h54M756 877h144M270 878h144M522 878h54M594 878h54M756 878h144M270 879h144M522 879h54M594 879h54M756 879h144M270 880h144M522 880h54M594 880h54M756 880h144M270 881h144M522 881h54M594 881h54M756 881h144M522 882h54M594 882h54M522 883h54M594 883h54M522 884h54M594 884h54M522 885h54M594 885h54M522 886h54M594 886h54M522 887h54M594 887h54M522 888h54M594 888h54M522 889h54M594 889h54M522 890h54M594 890h54M522 891h54M594 891h54M522 892h54M594 892h54M522 893h54M594 893h54M522 894h54M594 894h54M522 895h54M594 895h54M522 896h54M594 896h54M522 897h54M594 897h54M522 898h54M594 898h54M522 899h54M594 899h54M504 900h54M612 900h54M504 901h54M612 901h54M504 902h54M612 902h54M504 903h54M612 903h54M504 904h54M612 904h54M504 905h54M612 905h54M504 906h54M612 906h54M504 907h54M612 907h54M504 908h54M612 908h54M504 909h54M612 909h54M504 910h54M612 910h54M504 911h54M612 911h54M504 912h54M612 912h54M504 913h54M612 913h54M504 914h54M612 914h54M504 915h54M612 915h54M504 916h54M612 916h54M504 917h54M612 917h54M504 918h36M630 918h36M504 919h36M630 919h36M504 920h36M630 920h36M504 921h36M630 921h36M504 922h36M630 922h36M504 923h36M630 923h36M504 924h36M630 924h36M504 925h36M630 925h36M504 926h36M630 926h36M504 927h36M630 927h36M504 928h36M630 928h36M504 929h36M630 929h36M504 930h36M630 930h36M504 931h36M630 931h36M504 932h36M630 932h36M504 933h36M630 933h36M504 934h36M630 934h36M504 935h36M630 935h36M504 936h18M648 936h18M504 937h18M648 937h18M504 938h18M648 938h18M504 939h18M648 939h18M504 940h18M648 940h18M504 941h18M648 941h18M504 942h18M648 942h18M504 943h18M648 943h18M504 944h18M648 944h18M504 945h18M648 945h18M504 946h18M648 946h18M504 947h18M648 947h18M504 948h18M648 948h18M504 949h18M648 949h18M504 950h18M648 950h18M504 951h18M648 951h18M504 952h18M648 952h18M504 953h18M648 953h18M486 954h36M648 954h36M486 955h36M648 955h36M486 956h36M648 956h36M486 957h36M648 957h36M486 958h36M648 958h36M486 959h36M648 959h36M486 960h36M648 960h36M486 961h36M648 961h36M486 962h36M648 962h36M486 963h36M648 963h36M486 964h36M648 964h36M486 965h36M648 965h36M486 966h36M648 966h36M486 967h36M648 967h36M486 968h36M648 968h36M486 969h36M648 969h36M486 970h36M648 970h36M486 971h36M648 971h36M486 972h18M666 972h18M486 973h18M666 973h18M486 974h18M666 974h18M486 975h18M666 975h18M486 976h18M666 976h18M486 977h18M666 977h18M486 978h18M666 978h18M486 979h18M666 979h18M486 980h18M666 980h18M486 981h18M666 981h18M486 982h18M666 982h18M486 983h18M666 983h18M486 984h18M666 984h18M486 985h18M666 985h18M486 986h18M666 986h18M486 987h18M666 987h18M486 988h18M666 988h18M486 989h18M666 989h18M450 990h54M666 990h54M450 991h54M666 991h54M450 992h54M666 992h54M450 993h54M666 993h54M450 994h54M666 994h54M450 995h54M666 995h54M450 996h54M666 996h54M450 997h54M666 997h54M450 998h54M666 998h54M450 999h54M666 999h54M450 1000h54M666 1000h54M450 1001h54M666 1001h54M450 1002h54M666 1002h54M450 1003h54M666 1003h54M450 1004h54M666 1004h54M450 1005h54M666 1005h54M450 1006h54M666 1006h54M450 1007h54M666 1007h54M432 1008h306M432 1009h306M432 1010h306M432 1011h306M432 1012h306M432 1013h306M432 1014h306M432 1015h306M432 1016h306M432 1017h306M432 1018h306M432 1019h306M432 1020h306M432 1021h306M432 1022h306M432 1023h306M432 1024h306M432 1025h306M432 1026h306M432 1027h306M432 1028h306M432 1029h306M432 1030h306M432 1031h306M432 1032h306M432 1033h306M432 1034h306M432 1035h306M432 1036h306M432 1037h306M432 1038h306M432 1039h306M432 1040h306M432 1041h306M432 1042h306M432 1043h306" />
<path stroke="#212121" d="M576 144h18M576 145h18M576 146h18M576 147h18M576 148h18M576 149h18M576 150h18M576 151h18M576 152h18M576 153h18M576 154h18M576 155h18M576 156h18M576 157h18M576 158h18M576 159h18M576 160h18M576 161h18M558 162h54M558 163h54M558 164h54M558 165h54M558 166h54M558 167h54M558 168h54M558 169h54M558 170h54M558 171h54M558 172h54M558 173h54M558 174h54M558 175h54M558 176h54M558 177h54M558 178h54M558 179h54M540 180h90M540 181h90M540 182h90M540 183h90M540 184h90M540 185h90M540 186h90M540 187h90M540 188h90M540 189h90M540 190h90M540 191h90M540 192h90M540 193h90M540 194h90M540 195h90M540 196h90M540 197h90M504 198h162M504 199h162M504 200h162M504 201h162M504 202h162M504 203h162M504 204h162M504 205h162M504 206h162M504 207h162M504 208h162M504 209h162M504 210h162M504 211h162M504 212h162M504 213h162M504 214h162M504 215h162M486 216h36M558 216h126M486 217h36M558 217h126M486 218h36M558 218h126M486 219h36M558 219h126M486 220h36M558 220h126M486 221h36M558 221h126M486 222h36M558 222h126M486 223h36M558 223h126M486 224h36M558 224h126M486 225h36M558 225h126M486 226h36M558 226h126M486 227h36M558 227h126M486 228h36M558 228h126M486 229h36M558 229h126M486 230h36M558 230h126M486 231h36M558 231h126M486 232h36M558 232h126M486 233h36M558 233h126M468 234h36M540 234h162M468 235h36M540 235h162M468 236h36M540 236h162M468 237h36M540 237h162M468 238h36M540 238h162M468 239h36M540 239h162M468 240h36M540 240h162M468 241h36M540 241h162M468 242h36M540 242h162M468 243h36M540 243h162M468 244h36M540 244h162M468 245h36M540 245h162M468 246h36M540 246h162M468 247h36M540 247h162M468 248h36M540 248h162M468 249h36M540 249h162M468 250h36M540 250h162M468 251h36M540 251h162M450 252h36M522 252h198M450 253h36M522 253h198M450 254h36M522 254h198M450 255h36M522 255h198M450 256h36M522 256h198M450 257h36M522 257h198M450 258h36M522 258h198M450 259h36M522 259h198M450 260h36M522 260h198M450 261h36M522 261h198M450 262h36M522 262h198M450 263h36M522 263h198M450 264h36M522 264h198M450 265h36M522 265h198M450 266h36M522 266h198M450 267h36M522 267h198M450 268h36M522 268h198M450 269h36M522 269h198M432 270h36M504 270h234M432 271h36M504 271h234M432 272h36M504 272h234M432 273h36M504 273h234M432 274h36M504 274h234M432 275h36M504 275h234M432 276h36M504 276h234M432 277h36M504 277h234M432 278h36M504 278h234M432 279h36M504 279h234M432 280h36M504 280h234M432 281h36M504 281h234M432 282h36M504 282h234M432 283h36M504 283h234M432 284h36M504 284h234M432 285h36M504 285h234M432 286h36M504 286h234M432 287h36M504 287h234M414 288h36M486 288h270M414 289h36M486 289h270M414 290h36M486 290h270M414 291h36M486 291h270M414 292h36M486 292h270M414 293h36M486 293h270M414 294h36M486 294h270M414 295h36M486 295h270M414 296h36M486 296h270M414 297h36M486 297h270M414 298h36M486 298h270M414 299h36M486 299h270M414 300h36M486 300h270M414 301h36M486 301h270M414 302h36M486 302h270M414 303h36M486 303h270M414 304h36M486 304h270M414 305h36M486 305h270M396 306h36M468 306h306M396 307h36M468 307h306M396 308h36M468 308h306M396 309h36M468 309h306M396 310h36M468 310h306M396 311h36M468 311h306M396 312h36M468 312h306M396 313h36M468 313h306M396 314h36M468 314h306M396 315h36M468 315h306M396 316h36M468 316h306M396 317h36M468 317h306M396 318h36M468 318h306M396 319h36M468 319h306M396 320h36M468 320h306M396 321h36M468 321h306M396 322h36M468 322h306M396 323h36M468 323h306M378 324h36M450 324h342M378 325h36M450 325h342M378 326h36M450 326h342M378 327h36M450 327h342M378 328h36M450 328h342M378 329h36M450 329h342M378 330h36M450 330h342M378 331h36M450 331h342M378 332h36M450 332h342M378 333h36M450 333h342M378 334h36M450 334h342M378 335h36M450 335h342M378 336h36M450 336h342M378 337h36M450 337h342M378 338h36M450 338h342M378 339h36M450 339h342M378 340h36M450 340h342M378 341h36M450 341h342M360 342h36M432 342h378M360 343h36M432 343h378M360 344h36M432 344h378M360 345h36M432 345h378M360 346h36M432 346h378M360 347h36M432 347h378M360 348h36M432 348h378M360 349h36M432 349h378M360 350h36M432 350h378M360 351h36M432 351h378M360 352h36M432 352h378M360 353h36M432 353h378M360 354h36M432 354h378M360 355h36M432 355h378M360 356h36M432 356h378M360 357h36M432 357h378M360 358h36M432 358h378M360 359h36M432 359h378M342 360h36M414 360h414M342 361h36M414 361h414M342 362h36M414 362h414M342 363h36M414 363h414M342 364h36M414 364h414M342 365h36M414 365h414M342 366h36M414 366h414M342 367h36M414 367h414M342 368h36M414 368h414M342 369h36M414 369h414M342 370h36M414 370h414M342 371h36M414 371h414M342 372h36M414 372h414M342 373h36M414 373h414M342 374h36M414 374h414M342 375h36M414 375h414M342 376h36M414 376h414M342 377h36M414 377h414M324 378h36M396 378h450M324 379h36M396 379h450M324 380h36M396 380h450M324 381h36M396 381h450M324 382h36M396 382h450M324 383h36M396 383h450M324 384h36M396 384h450M324 385h36M396 385h450M324 386h36M396 386h450M324 387h36M396 387h450M324 388h36M396 388h450M324 389h36M396 389h450M324 390h36M396 390h450M324 391h36M396 391h450M324 392h36M396 392h450M324 393h36M396 393h450M324 394h36M396 394h450M324 395h36M396 395h450M306 396h36M378 396h486M306 397h36M378 397h486M306 398h36M378 398h486M306 399h36M378 399h486M306 400h36M378 400h486M306 401h36M378 401h486M306 402h36M378 402h486M306 403h36M378 403h486M306 404h36M378 404h486M306 405h36M378 405h486M306 406h36M378 406h486M306 407h36M378 407h486M306 408h36M378 408h486M306 409h36M378 409h486M306 410h36M378 410h486M306 411h36M378 411h486M306 412h36M378 412h486M306 413h36M378 413h486M288 414h54M360 414h522M288 415h54M360 415h522M288 416h54M360 416h522M288 417h54M360 417h522M288 418h54M360 418h522M288 419h54M360 419h522M288 420h54M360 420h522M288 421h54M360 421h522M288 422h54M360 422h522M288 423h54M360 423h522M288 424h54M360 424h522M288 425h54M360 425h522M288 426h54M360 426h522M288 427h54M360 427h522M288 428h54M360 428h522M288 429h54M360 429h522M288 430h54M360 430h522M288 431h54M360 431h522M288 432h594M288 433h594M288 434h594M288 435h594M288 436h594M288 437h594M288 438h594M288 439h594M288 440h594M288 441h594M288 442h594M288 443h594M288 444h594M288 445h594M288 446h594M288 447h594M288 448h594M288 449h594M270 450h36M342 450h558M270 451h36M342 451h558M270 452h36M342 452h558M270 453h36M342 453h558M270 454h36M342 454h558M270 455h36M342 455h558M270 456h36M342 456h558M270 457h36M342 457h558M270 458h36M342 458h558M270 459h36M342 459h558M270 460h36M342 460h558M270 461h36M342 461h558M270 462h36M342 462h558M270 463h36M342 463h558M270 464h36M342 464h558M270 465h36M342 465h558M270 466h36M342 466h558M270 467h36M342 467h558M252 468h36M324 468h594M252 469h36M324 469h594M252 470h36M324 470h594M252 471h36M324 471h594M252 472h36M324 472h594M252 473h36M324 473h594M252 474h36M324 474h594M252 475h36M324 475h594M252 476h36M324 476h594M252 477h36M324 477h594M252 478h36M324 478h594M252 479h36M324 479h594M252 480h36M324 480h594M252 481h36M324 481h594M252 482h36M324 482h594M252 483h36M324 483h594M252 484h36M324 484h594M252 485h36M324 485h594M234 486h36M306 486h630M234 487h36M306 487h630M234 488h36M306 488h630M234 489h36M306 489h630M234 490h36M306 490h630M234 491h36M306 491h630M234 492h36M306 492h630M234 493h36M306 493h630M234 494h36M306 494h630M234 495h36M306 495h630M234 496h36M306 496h630M234 497h36M306 497h630M234 498h36M306 498h630M234 499h36M306 499h630M234 500h36M306 500h630M234 501h36M306 501h630M234 502h36M306 502h630M234 503h36M306 503h630M216 504h720M216 505h720M216 506h720M216 507h720M216 508h720M216 509h720M216 510h720M216 511h720M216 512h720M216 513h720M216 514h720M216 515h720M216 516h720M216 517h720M216 518h720M216 519h720M216 520h720M216 521h720M216 522h738M216 523h738M216 524h738M216 525h738M216 526h738M216 527h738M216 528h738M216 529h738M216 530h738M216 531h738M216 532h738M216 533h738M216 534h738M216 535h738M216 536h738M216 537h738M216 538h738M216 539h738M198 540h774M198 541h774M198 542h774M198 543h774M198 544h774M198 545h774M198 546h774M198 547h774M198 548h774M198 549h774M198 550h774M198 551h774M198 552h774M198 553h774M198 554h774M198 555h774M198 556h774M198 557h774M198 558h792M198 559h792M198 560h792M198 561h792M198 562h792M198 563h792M198 564h792M198 565h792M198 566h792M198 567h792M198 568h792M198 569h792M198 570h792M198 571h792M198 572h792M198 573h792M198 574h792M198 575h792M180 576h810M180 577h810M180 578h810M180 579h810M180 580h810M180 581h810M180 582h810M180 583h810M180 584h810M180 585h810M180 586h810M180 587h810M180 588h810M180 589h810M180 590h810M180 591h810M180 592h810M180 593h810M180 594h810M180 595h810M180 596h810M180 597h810M180 598h810M180 599h810M180 600h810M180 601h810M180 602h810M180 603h810M180 604h810M180 605h810M180 606h810M180 607h810M180 608h810M180 609h810M180 610h810M180 611h810M162 612h828M162 613h828M162 614h828M162 615h828M162 616h828M162 617h828M162 618h828M162 619h828M162 620h828M162 621h828M162 622h828M162 623h828M162 624h828M162 625h828M162 626h828M162 627h828M162 628h828M162 629h828M162 630h828M162 631h828M162 632h828M162 633h828M162 634h828M162 635h828M162 636h828M162 637h828M162 638h828M162 639h828M162 640h828M162 641h828M162 642h828M162 643h828M162 644h828M162 645h828M162 646h828M162 647h828M162 648h396M576 648h414M162 649h396M576 649h414M162 650h396M576 650h414M162 651h396M576 651h414M162 652h396M576 652h414M162 653h396M576 653h414M162 654h396M576 654h414M162 655h396M576 655h414M162 656h396M576 656h414M162 657h396M576 657h414M162 658h396M576 658h414M162 659h396M576 659h414M162 660h396M576 660h414M162 661h396M576 661h414M162 662h396M576 662h414M162 663h396M576 663h414M162 664h396M576 664h414M162 665h396M576 665h414M162 666h378M576 666h414M162 667h378M576 667h414M162 668h378M576 668h414M162 669h378M576 669h414M162 670h378M576 670h414M162 671h378M576 671h414M162 672h378M576 672h414M162 673h378M576 673h414M162 674h378M576 674h414M162 675h378M576 675h414M162 676h378M576 676h414M162 677h378M576 677h414M162 678h378M576 678h414M162 679h378M576 679h414M162 680h378M576 680h414M162 681h378M576 681h414M162 682h378M576 682h414M162 683h378M576 683h414M162 684h360M576 684h414M162 685h360M576 685h414M162 686h360M576 686h414M162 687h360M576 687h414M162 688h360M576 688h414M162 689h360M576 689h414M162 690h360M576 690h414M162 691h360M576 691h414M162 692h360M576 692h414M162 693h360M576 693h414M162 694h360M576 694h414M162 695h360M576 695h414M162 696h360M576 696h414M162 697h360M576 697h414M162 698h360M576 698h414M162 699h360M576 699h414M162 700h360M576 700h414M162 701h360M576 701h414M162 702h324M612 702h378M162 703h324M612 703h378M162 704h324M612 704h378M162 705h324M612 705h378M162 706h324M612 706h378M162 707h324M612 707h378M162 708h324M612 708h378M162 709h324M612 709h378M162 710h324M612 710h378M162 711h324M612 711h378M162 712h324M612 712h378M162 713h324M612 713h378M162 714h324M612 714h378M162 715h324M612 715h378M162 716h324M612 716h378M162 717h324M612 717h378M162 718h324M612 718h378M162 719h324M612 719h378M216 720h252M630 720h342M216 721h252M630 721h342M216 722h252M630 722h342M216 723h252M630 723h342M216 724h252M630 724h342M216 725h252M630 725h342M216 726h252M630 726h342M216 727h252M630 727h342M216 728h252M630 728h342M216 729h252M630 729h342M216 730h252M630 730h342M216 731h252M630 731h342M216 732h252M630 732h342M216 733h252M630 733h342M216 734h252M630 734h342M216 735h252M630 735h342M216 736h252M630 736h342M216 737h252M630 737h342M234 738h216M684 738h270M234 739h216M684 739h270M234 740h216M684 740h270M234 741h216M684 741h270M234 742h216M684 742h270M234 743h216M684 743h270M234 744h216M684 744h270M234 745h216M684 745h270M234 746h216M684 746h270M234 747h216M684 747h270M234 748h216M684 748h270M234 749h216M684 749h270M234 750h216M684 750h270M234 751h216M684 751h270M234 752h216M684 752h270M234 753h216M684 753h270M234 754h216M684 754h270M234 755h216M684 755h270M252 756h144M756 756h162M252 757h144M756 757h162M252 758h144M756 758h162M252 759h144M756 759h162M252 760h144M756 760h162M252 761h144M756 761h162M252 762h144M756 762h162M252 763h144M756 763h162M252 764h144M756 764h162M252 765h144M756 765h162M252 766h144M756 766h162M252 767h144M756 767h162M252 768h144M756 768h162M252 769h144M756 769h162M252 770h144M756 770h162M252 771h144M756 771h162M252 772h144M756 772h162M252 773h144M756 773h162M576 864h18M576 865h18M576 866h18M576 867h18M576 868h18M576 869h18M576 870h18M576 871h18M576 872h18M576 873h18M576 874h18M576 875h18M576 876h18M576 877h18M576 878h18M576 879h18M576 880h18M576 881h18M576 882h18M576 883h18M576 884h18M576 885h18M576 886h18M576 887h18M576 888h18M576 889h18M576 890h18M576 891h18M576 892h18M576 893h18M576 894h18M576 895h18M576 896h18M576 897h18M576 898h18M576 899h18M558 900h54M558 901h54M558 902h54M558 903h54M558 904h54M558 905h54M558 906h54M558 907h54M558 908h54M558 909h54M558 910h54M558 911h54M558 912h54M558 913h54M558 914h54M558 915h54M558 916h54M558 917h54M540 918h90M540 919h90M540 920h90M540 921h90M540 922h90M540 923h90M540 924h90M540 925h90M540 926h90M540 927h90M540 928h90M540 929h90M540 930h90M540 931h90M540 932h90M540 933h90M540 934h90M540 935h90M522 936h126M522 937h126M522 938h126M522 939h126M522 940h126M522 941h126M522 942h126M522 943h126M522 944h126M522 945h126M522 946h126M522 947h126M522 948h126M522 949h126M522 950h126M522 951h126M522 952h126M522 953h126M522 954h126M522 955h126M522 956h126M522 957h126M522 958h126M522 959h126M522 960h126M522 961h126M522 962h126M522 963h126M522 964h126M522 965h126M522 966h126M522 967h126M522 968h126M522 969h126M522 970h126M522 971h126M504 972h162M504 973h162M504 974h162M504 975h162M504 976h162M504 977h162M504 978h162M504 979h162M504 980h162M504 981h162M504 982h162M504 983h162M504 984h162M504 985h162M504 986h162M504 987h162M504 988h162M504 989h162M504 990h162M504 991h162M504 992h162M504 993h162M504 994h162M504 995h162M504 996h162M504 997h162M504 998h162M504 999h162M504 1000h162M504 1001h162M504 1002h162M504 1003h162M504 1004h162M504 1005h162M504 1006h162M504 1007h162" />
<path stroke="#424242" d="M522 216h36M522 217h36M522 218h36M522 219h36M522 220h36M522 221h36M522 222h36M522 223h36M522 224h36M522 225h36M522 226h36M522 227h36M522 228h36M522 229h36M522 230h36M522 231h36M522 232h36M522 233h36M504 234h36M504 235h36M504 236h36M504 237h36M504 238h36M504 239h36M504 240h36M504 241h36M504 242h36M504 243h36M504 244h36M504 245h36M504 246h36M504 247h36M504 248h36M504 249h36M504 250h36M504 251h36M486 252h36M486 253h36M486 254h36M486 255h36M486 256h36M486 257h36M486 258h36M486 259h36M486 260h36M486 261h36M486 262h36M486 263h36M486 264h36M486 265h36M486 266h36M486 267h36M486 268h36M486 269h36M468 270h36M468 271h36M468 272h36M468 273h36M468 274h36M468 275h36M468 276h36M468 277h36M468 278h36M468 279h36M468 280h36M468 281h36M468 282h36M468 283h36M468 284h36M468 285h36M468 286h36M468 287h36M450 288h36M450 289h36M450 290h36M450 291h36M450 292h36M450 293h36M450 294h36M450 295h36M450 296h36M450 297h36M450 298h36M450 299h36M450 300h36M450 301h36M450 302h36M450 303h36M450 304h36M450 305h36M432 306h36M432 307h36M432 308h36M432 309h36M432 310h36M432 311h36M432 312h36M432 313h36M432 314h36M432 315h36M432 316h36M432 317h36M432 318h36M432 319h36M432 320h36M432 321h36M432 322h36M432 323h36M414 324h36M414 325h36M414 326h36M414 327h36M414 328h36M414 329h36M414 330h36M414 331h36M414 332h36M414 333h36M414 334h36M414 335h36M414 336h36M414 337h36M414 338h36M414 339h36M414 340h36M414 341h36M396 342h36M396 343h36M396 344h36M396 345h36M396 346h36M396 347h36M396 348h36M396 349h36M396 350h36M396 351h36M396 352h36M396 353h36M396 354h36M396 355h36M396 356h36M396 357h36M396 358h36M396 359h36M378 360h36M378 361h36M378 362h36M378 363h36M378 364h36M378 365h36M378 366h36M378 367h36M378 368h36M378 369h36M378 370h36M378 371h36M378 372h36M378 373h36M378 374h36M378 375h36M378 376h36M378 377h36M360 378h36M360 379h36M360 380h36M360 381h36M360 382h36M360 383h36M360 384h36M360 385h36M360 386h36M360 387h36M360 388h36M360 389h36M360 390h36M360 391h36M360 392h36M360 393h36M360 394h36M360 395h36M342 396h36M342 397h36M342 398h36M342 399h36M342 400h36M342 401h36M342 402h36M342 403h36M342 404h36M342 405h36M342 406h36M342 407h36M342 408h36M342 409h36M342 410h36M342 411h36M342 412h36M342 413h36M342 414h18M342 415h18M342 416h18M342 417h18M342 418h18M342 419h18M342 420h18M342 421h18M342 422h18M342 423h18M342 424h18M342 425h18M342 426h18M342 427h18M342 428h18M342 429h18M342 430h18M342 431h18M306 450h36M306 451h36M306 452h36M306 453h36M306 454h36M306 455h36M306 456h36M306 457h36M306 458h36M306 459h36M306 460h36M306 461h36M306 462h36M306 463h36M306 464h36M306 465h36M306 466h36M306 467h36M288 468h36M288 469h36M288 470h36M288 471h36M288 472h36M288 473h36M288 474h36M288 475h36M288 476h36M288 477h36M288 478h36M288 479h36M288 480h36M288 481h36M288 482h36M288 483h36M288 484h36M288 485h36M270 486h36M270 487h36M270 488h36M270 489h36M270 490h36M270 491h36M270 492h36M270 493h36M270 494h36M270 495h36M270 496h36M270 497h36M270 498h36M270 499h36M270 500h36M270 501h36M270 502h36M270 503h36M990 612h18M990 613h18M990 614h18M990 615h18M990 616h18M990 617h18M990 618h18M990 619h18M990 620h18M990 621h18M990 622h18M990 623h18M990 624h18M990 625h18M990 626h18M990 627h18M990 628h18M990 629h18M990 630h18M990 631h18M990 632h18M990 633h18M990 634h18M990 635h18M990 636h18M990 637h18M990 638h18M990 639h18M990 640h18M990 641h18M990 642h18M990 643h18M990 644h18M990 645h18M990 646h18M990 647h18M558 648h18M990 648h18M558 649h18M990 649h18M558 650h18M990 650h18M558 651h18M990 651h18M558 652h18M990 652h18M558 653h18M990 653h18M558 654h18M990 654h18M558 655h18M990 655h18M558 656h18M990 656h18M558 657h18M990 657h18M558 658h18M990 658h18M558 659h18M990 659h18M558 660h18M990 660h18M558 661h18M990 661h18M558 662h18M990 662h18M558 663h18M990 663h18M558 664h18M990 664h18M558 665h18M990 665h18M540 666h36M990 666h18M540 667h36M990 667h18M540 668h36M990 668h18M540 669h36M990 669h18M540 670h36M990 670h18M540 671h36M990 671h18M540 672h36M990 672h18M540 673h36M990 673h18M540 674h36M990 674h18M540 675h36M990 675h18M540 676h36M990 676h18M540 677h36M990 677h18M540 678h36M990 678h18M540 679h36M990 679h18M540 680h36M990 680h18M540 681h36M990 681h18M540 682h36M990 682h18M540 683h36M990 683h18M522 684h54M990 684h18M522 685h54M990 685h18M522 686h54M990 686h18M522 687h54M990 687h18M522 688h54M990 688h18M522 689h54M990 689h18M522 690h54M990 690h18M522 691h54M990 691h18M522 692h54M990 692h18M522 693h54M990 693h18M522 694h54M990 694h18M522 695h54M990 695h18M522 696h54M990 696h18M522 697h54M990 697h18M522 698h54M990 698h18M522 699h54M990 699h18M522 700h54M990 700h18M522 701h54M990 701h18M486 702h72M990 702h18M486 703h72M990 703h18M486 704h72M990 704h18M486 705h72M990 705h18M486 706h72M990 706h18M486 707h72M990 707h18M486 708h72M990 708h18M486 709h72M990 709h18M486 710h72M990 710h18M486 711h72M990 711h18M486 712h72M990 712h18M486 713h72M990 713h18M486 714h72M990 714h18M486 715h72M990 715h18M486 716h72M990 716h18M486 717h72M990 717h18M486 718h72M990 718h18M486 719h72M990 719h18M180 720h36M468 720h72M972 720h18M180 721h36M468 721h72M972 721h18M180 722h36M468 722h72M972 722h18M180 723h36M468 723h72M972 723h18M180 724h36M468 724h72M972 724h18M180 725h36M468 725h72M972 725h18M180 726h36M468 726h72M972 726h18M180 727h36M468 727h72M972 727h18M180 728h36M468 728h72M972 728h18M180 729h36M468 729h72M972 729h18M180 730h36M468 730h72M972 730h18M180 731h36M468 731h72M972 731h18M180 732h36M468 732h72M972 732h18M180 733h36M468 733h72M972 733h18M180 734h36M468 734h72M972 734h18M180 735h36M468 735h72M972 735h18M180 736h36M468 736h72M972 736h18M180 737h36M468 737h72M972 737h18M198 738h36M450 738h72M648 738h36M954 738h36M198 739h36M450 739h72M648 739h36M954 739h36M198 740h36M450 740h72M648 740h36M954 740h36M198 741h36M450 741h72M648 741h36M954 741h36M198 742h36M450 742h72M648 742h36M954 742h36M198 743h36M450 743h72M648 743h36M954 743h36M198 744h36M450 744h72M648 744h36M954 744h36M198 745h36M450 745h72M648 745h36M954 745h36M198 746h36M450 746h72M648 746h36M954 746h36M198 747h36M450 747h72M648 747h36M954 747h36M198 748h36M450 748h72M648 748h36M954 748h36M198 749h36M450 749h72M648 749h36M954 749h36M198 750h36M450 750h72M648 750h36M954 750h36M198 751h36M450 751h72M648 751h36M954 751h36M198 752h36M450 752h72M648 752h36M954 752h36M198 753h36M450 753h72M648 753h36M954 753h36M198 754h36M450 754h72M648 754h36M954 754h36M198 755h36M450 755h72M648 755h36M954 755h36M198 756h54M396 756h108M666 756h90M918 756h54M198 757h54M396 757h108M666 757h90M918 757h54M198 758h54M396 758h108M666 758h90M918 758h54M198 759h54M396 759h108M666 759h90M918 759h54M198 760h54M396 760h108M666 760h90M918 760h54M198 761h54M396 761h108M666 761h90M918 761h54M198 762h54M396 762h108M666 762h90M918 762h54M198 763h54M396 763h108M666 763h90M918 763h54M198 764h54M396 764h108M666 764h90M918 764h54M198 765h54M396 765h108M666 765h90M918 765h54M198 766h54M396 766h108M666 766h90M918 766h54M198 767h54M396 767h108M666 767h90M918 767h54M198 768h54M396 768h108M666 768h90M918 768h54M198 769h54M396 769h108M666 769h90M918 769h54M198 770h54M396 770h108M666 770h90M918 770h54M198 771h54M396 771h108M666 771h90M918 771h54M198 772h54M396 772h108M666 772h90M918 772h54M198 773h54M396 773h108M666 773h90M918 773h54M216 774h252M702 774h270M216 775h252M702 775h270M216 776h252M702 776h270M216 777h252M702 777h270M216 778h252M702 778h270M216 779h252M702 779h270M216 780h252M702 780h270M216 781h252M702 781h270M216 782h252M702 782h270M216 783h252M702 783h270M216 784h252M702 784h270M216 785h252M702 785h270M216 786h252M702 786h270M216 787h252M702 787h270M216 788h252M702 788h270M216 789h252M702 789h270M216 790h252M702 790h270M216 791h252M702 791h270M234 792h198M738 792h198M234 793h198M738 793h198M234 794h198M738 794h198M234 795h198M738 795h198M234 796h198M738 796h198M234 797h198M738 797h198M234 798h198M738 798h198M234 799h198M738 799h198M234 800h198M738 800h198M234 801h198M738 801h198M234 802h198M738 802h198M234 803h198M738 803h198M234 804h198M738 804h198M234 805h198M738 805h198M234 806h198M738 806h198M234 807h198M738 807h198M234 808h198M738 808h198M234 809h198M738 809h198M270 810h126M756 810h144M270 811h126M756 811h144M270 812h126M756 812h144M270 813h126M756 813h144M270 814h126M756 814h144M270 815h126M756 815h144M270 816h126M756 816h144M270 817h126M756 817h144M270 818h126M756 818h144M270 819h126M756 819h144M270 820h126M756 820h144M270 821h126M756 821h144M270 822h126M756 822h144M270 823h126M756 823h144M270 824h126M756 824h144M270 825h126M756 825h144M270 826h126M756 826h144M270 827h126M756 827h144" />
</svg>