<svg xmlns="http://www.w3.org/2000/svg" viewBox="0 -0.5 1170 1170" shape-rendering="crispEdges">
<metadata>Made with Pixels to Svg https://codepen.io/shshaw/pen/XbxvNj</metadata>
<path stroke="#000000" d="M144 486h864M144 487h864M144 488h864M144 489h864M144 490h864M144 491h864M144 492h864M144 493h864M144 494h864M144 495h864M144 496h864M144 497h864M144 498h864M144 499h864M144 500h864M144 501h864M144 502h864M144 503h864M126 504h900M126 505h900M126 506h900M126 507h900M126 508h900M126 509h900M126 510h900M126 511h900M126 512h900M126 513h900M126 514h900M126 515h900M126 516h900M126 517h900M126 518h900M126 519h900M126 520h900M126 521h900M126 522h36M990 522h36M126 523h36M990 523h36M126 524h36M990 524h36M126 525h36M990 525h36M126 526h36M990 526h36M126 527h36M990 527h36M126 528h36M990 528h36M126 529h36M990 529h36M126 530h36M990 530h36M126 531h36M990 531h36M126 532h36M990 532h36M126 533h36M990 533h36M126 534h36M990 534h36M126 535h36M990 535h36M126 536h36M990 536h36M126 537h36M990 537h36M126 538h36M990 538h36M126 539h36M990 539h36M126 540h36M450 540h54M558 540h36M630 540h54M990 540h36M126 541h36M450 541h54M558 541h36M630 541h54M990 541h36M126 542h36M450 542h54M558 542h36M630 542h54M990 542h36M126 543h36M450 543h54M558 543h36M630 543h54M990 543h36M126 544h36M450 544h54M558 544h36M630 544h54M990 544h36M126 545h36M450 545h54M558 545h36M630 545h54M990 545h36M126 546h36M450 546h54M558 546h36M630 546h54M990 546h36M126 547h36M450 547h54M558 547h36M630 547h54M990 547h36M126 548h36M450 548h54M558 548h36M630 548h54M990 548h36M126 549h36M450 549h54M558 549h36M630 549h54M990 549h36M126 550h36M450 550h54M558 550h36M630 550h54M990 550h36M126 551h36M450 551h54M558 551h36M630 551h54M990 551h36M126 552h36M450 552h54M558 552h36M630 552h54M990 552h36M126 553h36M450 553h54M558 553h36M630 553h54M990 553h36M126 554h36M450 554h54M558 554h36M630 554h54M990 554h36M126 555h36M450 555h54M558 555h36M630 555h54M990 555h36M126 556h36M450 556h54M558 556h36M630 556h54M990 556h36M126 557h36M450 557h54M558 557h36M630 557h54M990 557h36M126 558h36M450 558h18M504 558h18M540 558h18M594 558h18M630 558h18M684 558h18M990 558h36M126 559h36M450 559h18M504 559h18M540 559h18M594 559h18M630 559h18M684 559h18M990 559h36M126 560h36M450 560h18M504 560h18M540 560h18M594 560h18M630 560h18M684 560h18M990 560h36M126 561h36M450 561h18M504 561h18M540 561h18M594 561h18M630 561h18M684 561h18M990 561h36M126 562h36M450 562h18M504 562h18M540 562h18M594 562h18M630 562h18M684 562h18M990 562h36M126 563h36M450 563h18M504 563h18M540 563h18M594 563h18M630 563h18M684 563h18M990 563h36M126 564h36M450 564h18M504 564h18M540 564h18M594 564h18M630 564h18M684 564h18M990 564h36M126 565h36M450 565h18M504 565h18M540 565h18M594 565h18M630 565h18M684 565h18M990 565h36M126 566h36M450 566h18M504 566h18M540 566h18M594 566h18M630 566h18M684 566h18M990 566h36M126 567h36M450 567h18M504 567h18M540 567h18M594 567h18M630 567h18M684 567h18M990 567h36M126 568h36M450 568h18M504 568h18M540 568h18M594 568h18M630 568h18M684 568h18M990 568h36M126 569h36M450 569h18M504 569h18M540 569h18M594 569h18M630 569h18M684 569h18M990 569h36M126 570h36M450 570h18M504 570h18M540 570h18M594 570h18M630 570h18M684 570h18M990 570h36M126 571h36M450 571h18M504 571h18M540 571h18M594 571h18M630 571h18M684 571h18M990 571h36M126 572h36M450 572h18M504 572h18M540 572h18M594 572h18M630 572h18M684 572h18M990 572h36M126 573h36M450 573h18M504 573h18M540 573h18M594 573h18M630 573h18M684 573h18M990 573h36M126 574h36M450 574h18M504 574h18M540 574h18M594 574h18M630 574h18M684 574h18M990 574h36M126 575h36M450 575h18M504 575h18M540 575h18M594 575h18M630 575h18M684 575h18M990 575h36M126 576h36M450 576h54M540 576h72M630 576h54M990 576h36M126 577h36M450 577h54M540 577h72M630 577h54M990 577h36M126 578h36M450 578h54M540 578h72M630 578h54M990 578h36M126 579h36M450 579h54M540 579h72M630 579h54M990 579h36M126 580h36M450 580h54M540 580h72M630 580h54M990 580h36M126 581h36M450 581h54M540 581h72M630 581h54M990 581h36M126 582h36M450 582h54M540 582h72M630 582h54M990 582h36M126 583h36M450 583h54M540 583h72M630 583h54M990 583h36M126 584h36M450 584h54M540 584h72M630 584h54M990 584h36M126 585h36M450 585h54M540 585h72M630 585h54M990 585h36M126 586h36M450 586h54M540 586h72M630 586h54M990 586h36M126 587h36M450 587h54M540 587h72M630 587h54M990 587h36M126 588h36M450 588h54M540 588h72M630 588h54M990 588h36M126 589h36M450 589h54M540 589h72M630 589h54M990 589h36M126 590h36M450 590h54M540 590h72M630 590h54M990 590h36M126 591h36M450 591h54M540 591h72M630 591h54M990 591h36M126 592h36M450 592h54M540 592h72M630 592h54M990 592h36M126 593h36M450 593h54M540 593h72M630 593h54M990 593h36M126 594h36M450 594h18M504 594h18M540 594h18M594 594h18M630 594h18M666 594h18M990 594h36M126 595h36M450 595h18M504 595h18M540 595h18M594 595h18M630 595h18M666 595h18M990 595h36M126 596h36M450 596h18M504 596h18M540 596h18M594 596h18M630 596h18M666 596h18M990 596h36M126 597h36M450 597h18M504 597h18M540 597h18M594 597h18M630 597h18M666 597h18M990 597h36M126 598h36M450 598h18M504 598h18M540 598h18M594 598h18M630 598h18M666 598h18M990 598h36M126 599h36M450 599h18M504 599h18M540 599h18M594 599h18M630 599h18M666 599h18M990 599h36M126 600h36M450 600h18M504 600h18M540 600h18M594 600h18M630 600h18M666 600h18M990 600h36M126 601h36M450 601h18M504 601h18M540 601h18M594 601h18M630 601h18M666 601h18M990 601h36M126 602h36M450 602h18M504 602h18M540 602h18M594 602h18M630 602h18M666 602h18M990 602h36M126 603h36M450 603h18M504 603h18M540 603h18M594 603h18M630 603h18M666 603h18M990 603h36M126 604h36M450 604h18M504 604h18M540 604h18M594 604h18M630 604h18M666 604h18M990 604h36M126 605h36M450 605h18M504 605h18M540 605h18M594 605h18M630 605h18M666 605h18M990 605h36M126 606h36M450 606h18M504 606h18M540 606h18M594 606h18M630 606h18M666 606h18M990 606h36M126 607h36M450 607h18M504 607h18M540 607h18M594 607h18M630 607h18M666 607h18M990 607h36M126 608h36M450 608h18M504 608h18M540 608h18M594 608h18M630 608h18M666 608h18M990 608h36M126 609h36M450 609h18M504 609h18M540 609h18M594 609h18M630 609h18M666 609h18M990 609h36M126 610h36M450 610h18M504 610h18M540 610h18M594 610h18M630 610h18M666 610h18M990 610h36M126 611h36M450 611h18M504 611h18M540 611h18M594 611h18M630 611h18M666 611h18M990 611h36M126 612h36M450 612h54M540 612h18M594 612h18M630 612h18M684 612h18M990 612h36M126 613h36M450 613h54M540 613h18M594 613h18M630 613h18M684 613h18M990 613h36M126 614h36M450 614h54M540 614h18M594 614h18M630 614h18M684 614h18M990 614h36M126 615h36M450 615h54M540 615h18M594 615h18M630 615h18M684 615h18M990 615h36M126 616h36M450 616h54M540 616h18M594 616h18M630 616h18M684 616h18M990 616h36M126 617h36M450 617h54M540 617h18M594 617h18M630 617h18M684 617h18M990 617h36M126 618h36M450 618h54M540 618h18M594 618h18M630 618h18M684 618h18M990 618h36M126 619h36M450 619h54M540 619h18M594 619h18M630 619h18M684 619h18M990 619h36M126 620h36M450 620h54M540 620h18M594 620h18M630 620h18M684 620h18M990 620h36M126 621h36M450 621h54M540 621h18M594 621h18M630 621h18M684 621h18M990 621h36M126 622h36M450 622h54M540 622h18M594 622h18M630 622h18M684 622h18M990 622h36M126 623h36M450 623h54M540 623h18M594 623h18M630 623h18M684 623h18M990 623h36M126 624h36M450 624h54M540 624h18M594 624h18M630 624h18M684 624h18M990 624h36M126 625h36M450 625h54M540 625h18M594 625h18M630 625h18M684 625h18M990 625h36M126 626h36M450 626h54M540 626h18M594 626h18M630 626h18M684 626h18M990 626h36M126 627h36M450 627h54M540 627h18M594 627h18M630 627h18M684 627h18M990 627h36M126 628h36M450 628h54M540 628h18M594 628h18M630 628h18M684 628h18M990 628h36M126 629h36M450 629h54M540 629h18M594 629h18M630 629h18M684 629h18M990 629h36M126 630h36M990 630h36M126 631h36M990 631h36M126 632h36M990 632h36M126 633h36M990 633h36M126 634h36M990 634h36M126 635h36M990 635h36M126 636h36M990 636h36M126 637h36M990 637h36M126 638h36M990 638h36M126 639h36M990 639h36M126 640h36M990 640h36M126 641h36M990 641h36M126 642h36M990 642h36M126 643h36M990 643h36M126 644h36M990 644h36M126 645h36M990 645h36M126 646h36M990 646h36M126 647h36M990 647h36M126 648h36M990 648h36M126 649h36M990 649h36M126 650h36M990 650h36M126 651h36M990 651h36M126 652h36M990 652h36M126 653h36M990 653h36M126 654h36M990 654h36M126 655h36M990 655h36M126 656h36M990 656h36M126 657h36M990 657h36M126 658h36M990 658h36M126 659h36M990 659h36M126 660h36M990 660h36M126 661h36M990 661h36M126 662h36M990 662h36M126 663h36M990 663h36M126 664h36M990 664h36M126 665h36M990 665h36M126 666h900M126 667h900M126 668h900M126 669h900M126 670h900M126 671h900M126 672h900M126 673h900M126 674h900M126 675h900M126 676h900M126 677h900M126 678h900M126 679h900M126 680h900M126 681h900M126 682h900M126 683h900M144 684h864M144 685h864M144 686h864M144 687h864M144 688h864M144 689h864M144 690h864M144 691h864M144 692h864M144 693h864M144 694h864M144 695h864M144 696h864M144 697h864M144 698h864M144 699h864M144 700h864M144 701h864" />
<path stroke="#fdd835" d="M162 522h828M162 523h828M162 524h828M162 525h828M162 526h828M162 527h828M162 528h828M162 529h828M162 530h828M162 531h828M162 532h828M162 533h828M162 534h828M162 535h828M162 536h828M162 537h828M162 538h828M162 539h828M162 540h18M360 540h18M396 540h18M432 540h18M504 540h54M594 540h36M684 540h306M162 541h18M360 541h18M396 541h18M432 541h18M504 541h54M594 541h36M684 541h306M162 542h18M360 542h18M396 542h18M432 542h18M504 542h54M594 542h36M684 542h306M162 543h18M360 543h18M396 543h18M432 543h18M504 543h54M594 543h36M684 543h306M162 544h18M360 544h18M396 544h18M432 544h18M504 544h54M594 544h36M684 544h306M162 545h18M360 545h18M396 545h18M432 545h18M504 545h54M594 545h36M684 545h306M162 546h18M360 546h18M396 546h18M432 546h18M504 546h54M594 546h36M684 546h306M162 547h18M360 547h18M396 547h18M432 547h18M504 547h54M594 547h36M684 547h306M162 548h18M360 548h18M396 548h18M432 548h18M504 548h54M594 548h36M684 548h306M162 549h18M360 549h18M396 549h18M432 549h18M504 549h54M594 549h36M684 549h306M162 550h18M360 550h18M396 550h18M432 550h18M504 550h54M594 550h36M684 550h306M162 551h18M360 551h18M396 551h18M432 551h18M504 551h54M594 551h36M684 551h306M162 552h18M360 552h18M396 552h18M432 552h18M504 552h54M594 552h36M684 552h306M162 553h18M360 553h18M396 553h18M432 553h18M504 553h54M594 553h36M684 553h306M162 554h18M360 554h18M396 554h18M432 554h18M504 554h54M594 554h36M684 554h306M162 555h18M360 555h18M396 555h18M432 555h18M504 555h54M594 555h36M684 555h306M162 556h18M360 556h18M396 556h18M432 556h18M504 556h54M594 556h36M684 556h306M162 557h18M360 557h18M396 557h18M432 557h18M504 557h54M594 557h36M684 557h306M162 558h288M468 558h36M522 558h18M558 558h36M612 558h18M648 558h36M702 558h288M162 559h288M468 559h36M522 559h18M558 559h36M612 559h18M648 559h36M702 559h288M162 560h288M468 560h36M522 560h18M558 560h36M612 560h18M648 560h36M702 560h288M162 561h288M468 561h36M522 561h18M558 561h36M612 561h18M648 561h36M702 561h288M162 562h288M468 562h36M522 562h18M558 562h36M612 562h18M648 562h36M702 562h288M162 563h288M468 563h36M522 563h18M558 563h36M612 563h18M648 563h36M702 563h288M162 564h288M468 564h36M522 564h18M558 564h36M612 564h18M648 564h36M702 564h288M162 565h288M468 565h36M522 565h18M558 565h36M612 565h18M648 565h36M702 565h288M162 566h288M468 566h36M522 566h18M558 566h36M612 566h18M648 566h36M702 566h288M162 567h288M468 567h36M522 567h18M558 567h36M612 567h18M648 567h36M702 567h288M162 568h288M468 568h36M522 568h18M558 568h36M612 568h18M648 568h36M702 568h288M162 569h288M468 569h36M522 569h18M558 569h36M612 569h18M648 569h36M702 569h288M162 570h288M468 570h36M522 570h18M558 570h36M612 570h18M648 570h36M702 570h288M162 571h288M468 571h36M522 571h18M558 571h36M612 571h18M648 571h36M702 571h288M162 572h288M468 572h36M522 572h18M558 572h36M612 572h18M648 572h36M702 572h288M162 573h288M468 573h36M522 573h18M558 573h36M612 573h18M648 573h36M702 573h288M162 574h288M468 574h36M522 574h18M558 574h36M612 574h18M648 574h36M702 574h288M162 575h288M468 575h36M522 575h18M558 575h36M612 575h18M648 575h36M702 575h288M162 576h288M504 576h36M612 576h18M684 576h306M162 577h288M504 577h36M612 577h18M684 577h306M162 578h288M504 578h36M612 578h18M684 578h306M162 579h288M504 579h36M612 579h18M684 579h306M162 580h288M504 580h36M612 580h18M684 580h306M162 581h288M504 581h36M612 581h18M684 581h306M162 582h288M504 582h36M612 582h18M684 582h306M162 583h288M504 583h36M612 583h18M684 583h306M162 584h288M504 584h36M612 584h18M684 584h306M162 585h288M504 585h36M612 585h18M684 585h306M162 586h288M504 586h36M612 586h18M684 586h306M162 587h288M504 587h36M612 587h18M684 587h306M162 588h288M504 588h36M612 588h18M684 588h306M162 589h288M504 589h36M612 589h18M684 589h306M162 590h288M504 590h36M612 590h18M684 590h306M162 591h288M504 591h36M612 591h18M684 591h306M162 592h288M504 592h36M612 592h18M684 592h306M162 593h288M504 593h36M612 593h18M684 593h306M162 594h288M468 594h36M522 594h18M558 594h36M612 594h18M648 594h18M684 594h306M162 595h288M468 595h36M522 595h18M558 595h36M612 595h18M648 595h18M684 595h306M162 596h288M468 596h36M522 596h18M558 596h36M612 596h18M648 596h18M684 596h306M162 597h288M468 597h36M522 597h18M558 597h36M612 597h18M648 597h18M684 597h306M162 598h288M468 598h36M522 598h18M558 598h36M612 598h18M648 598h18M684 598h306M162 599h288M468 599h36M522 599h18M558 599h36M612 599h18M648 599h18M684 599h306M162 600h288M468 600h36M522 600h18M558 600h36M612 600h18M648 600h18M684 600h306M162 601h288M468 601h36M522 601h18M558 601h36M612 601h18M648 601h18M684 601h306M162 602h288M468 602h36M522 602h18M558 602h36M612 602h18M648 602h18M684 602h306M162 603h288M468 603h36M522 603h18M558 603h36M612 603h18M648 603h18M684 603h306M162 604h288M468 604h36M522 604h18M558 604h36M612 604h18M648 604h18M684 604h306M162 605h288M468 605h36M522 605h18M558 605h36M612 605h18M648 605h18M684 605h306M162 606h288M468 606h36M522 606h18M558 606h36M612 606h18M648 606h18M684 606h306M162 607h288M468 607h36M522 607h18M558 607h36M612 607h18M648 607h18M684 607h306M162 608h288M468 608h36M522 608h18M558 608h36M612 608h18M648 608h18M684 608h306M162 609h288M468 609h36M522 609h18M558 609h36M612 609h18M648 609h18M684 609h306M162 610h288M468 610h36M522 610h18M558 610h36M612 610h18M648 610h18M684 610h306M162 611h288M468 611h36M522 611h18M558 611h36M612 611h18M648 611h18M684 611h306M162 612h288M504 612h36M558 612h36M612 612h18M648 612h36M702 612h288M162 613h288M504 613h36M558 613h36M612 613h18M648 613h36M702 613h288M162 614h288M504 614h36M558 614h36M612 614h18M648 614h36M702 614h288M162 615h288M504 615h36M558 615h36M612 615h18M648 615h36M702 615h288M162 616h288M504 616h36M558 616h36M612 616h18M648 616h36M702 616h288M162 617h288M504 617h36M558 617h36M612 617h18M648 617h36M702 617h288M162 618h288M504 618h36M558 618h36M612 618h18M648 618h36M702 618h288M162 619h288M504 619h36M558 619h36M612 619h18M648 619h36M702 619h288M162 620h288M504 620h36M558 620h36M612 620h18M648 620h36M702 620h288M162 621h288M504 621h36M558 621h36M612 621h18M648 621h36M702 621h288M162 622h288M504 622h36M558 622h36M612 622h18M648 622h36M702 622h288M162 623h288M504 623h36M558 623h36M612 623h18M648 623h36M702 623h288M162 624h288M504 624h36M558 624h36M612 624h18M648 624h36M702 624h288M162 625h288M504 625h36M558 625h36M612 625h18M648 625h36M702 625h288M162 626h288M504 626h36M558 626h36M612 626h18M648 626h36M702 626h288M162 627h288M504 627h36M558 627h36M612 627h18M648 627h36M702 627h288M162 628h288M504 628h36M558 628h36M612 628h18M648 628h36M702 628h288M162 629h288M504 629h36M558 629h36M612 629h18M648 629h36M702 629h288M162 630h828M162 631h828M162 632h828M162 633h828M162 634h828M162 635h828M162 636h828M162 637h828M162 638h828M162 639h828M162 640h828M162 641h828M162 642h828M162 643h828M162 644h828M162 645h828M162 646h828M162 647h828" />
<path stroke="#ffffff" d="M180 540h180M378 540h18M414 540h18M180 541h180M378 541h18M414 541h18M180 542h180M378 542h18M414 542h18M180 543h180M378 543h18M414 543h18M180 544h180M378 544h18M414 544h18M180 545h180M378 545h18M414 545h18M180 546h180M378 546h18M414 546h18M180 547h180M378 547h18M414 547h18M180 548h180M378 548h18M414 548h18M180 549h180M378 549h18M414 549h18M180 550h180M378 550h18M414 550h18M180 551h180M378 551h18M414 551h18M180 552h180M378 552h18M414 552h18M180 553h180M378 553h18M414 553h18M180 554h180M378 554h18M414 554h18M180 555h180M378 555h18M414 555h18M180 556h180M378 556h18M414 556h18M180 557h180M378 557h18M414 557h18" />
<path stroke="#ffc107" d="M162 648h828M162 649h828M162 650h828M162 651h828M162 652h828M162 653h828M162 654h828M162 655h828M162 656h828M162 657h828M162 658h828M162 659h828M162 660h828M162 661h828M162 662h828M162 663h828M162 664h828M162 665h828" />
</svg>