<svg xmlns="http://www.w3.org/2000/svg" viewBox="0 -0.5 1170 1170" shape-rendering="crispEdges">
<metadata>Made with Pixels to Svg https://codepen.io/shshaw/pen/XbxvNj</metadata>
<path stroke="#000000" d="M144 342h864M144 343h864M144 344h864M144 345h864M144 346h864M144 347h864M144 348h864M144 349h864M144 350h864M144 351h864M144 352h864M144 353h864M144 354h864M144 355h864M144 356h864M144 357h864M144 358h864M144 359h864M126 360h900M126 361h900M126 362h900M126 363h900M126 364h900M126 365h900M126 366h900M126 367h900M126 368h900M126 369h900M126 370h900M126 371h900M126 372h900M126 373h900M126 374h900M126 375h900M126 376h900M126 377h900M126 378h36M990 378h36M126 379h36M990 379h36M126 380h36M990 380h36M126 381h36M990 381h36M126 382h36M990 382h36M126 383h36M990 383h36M126 384h36M990 384h36M126 385h36M990 385h36M126 386h36M990 386h36M126 387h36M990 387h36M126 388h36M990 388h36M126 389h36M990 389h36M126 390h36M990 390h36M126 391h36M990 391h36M126 392h36M990 392h36M126 393h36M990 393h36M126 394h36M990 394h36M126 395h36M990 395h36M126 396h36M450 396h54M558 396h36M630 396h54M990 396h36M126 397h36M450 397h54M558 397h36M630 397h54M990 397h36M126 398h36M450 398h54M558 398h36M630 398h54M990 398h36M126 399h36M450 399h54M558 399h36M630 399h54M990 399h36M126 400h36M450 400h54M558 400h36M630 400h54M990 400h36M126 401h36M450 401h54M558 401h36M630 401h54M990 401h36M126 402h36M450 402h54M558 402h36M630 402h54M990 402h36M126 403h36M450 403h54M558 403h36M630 403h54M990 403h36M126 404h36M450 404h54M558 404h36M630 404h54M990 404h36M126 405h36M450 405h54M558 405h36M630 405h54M990 405h36M126 406h36M450 406h54M558 406h36M630 406h54M990 406h36M126 407h36M450 407h54M558 407h36M630 407h54M990 407h36M126 408h36M450 408h54M558 408h36M630 408h54M990 408h36M126 409h36M450 409h54M558 409h36M630 409h54M990 409h36M126 410h36M450 410h54M558 410h36M630 410h54M990 410h36M126 411h36M450 411h54M558 411h36M630 411h54M990 411h36M126 412h36M450 412h54M558 412h36M630 412h54M990 412h36M126 413h36M450 413h54M558 413h36M630 413h54M990 413h36M126 414h36M450 414h18M504 414h18M540 414h18M594 414h18M630 414h18M684 414h18M990 414h36M126 415h36M450 415h18M504 415h18M540 415h18M594 415h18M630 415h18M684 415h18M990 415h36M126 416h36M450 416h18M504 416h18M540 416h18M594 416h18M630 416h18M684 416h18M990 416h36M126 417h36M450 417h18M504 417h18M540 417h18M594 417h18M630 417h18M684 417h18M990 417h36M126 418h36M450 418h18M504 418h18M540 418h18M594 418h18M630 418h18M684 418h18M990 418h36M126 419h36M450 419h18M504 419h18M540 419h18M594 419h18M630 419h18M684 419h18M990 419h36M126 420h36M450 420h18M504 420h18M540 420h18M594 420h18M630 420h18M684 420h18M990 420h36M126 421h36M450 421h18M504 421h18M540 421h18M594 421h18M630 421h18M684 421h18M990 421h36M126 422h36M450 422h18M504 422h18M540 422h18M594 422h18M630 422h18M684 422h18M990 422h36M126 423h36M450 423h18M504 423h18M540 423h18M594 423h18M630 423h18M684 423h18M990 423h36M126 424h36M450 424h18M504 424h18M540 424h18M594 424h18M630 424h18M684 424h18M990 424h36M126 425h36M450 425h18M504 425h18M540 425h18M594 425h18M630 425h18M684 425h18M990 425h36M126 426h36M450 426h18M504 426h18M540 426h18M594 426h18M630 426h18M684 426h18M990 426h36M126 427h36M450 427h18M504 427h18M540 427h18M594 427h18M630 427h18M684 427h18M990 427h36M126 428h36M450 428h18M504 428h18M540 428h18M594 428h18M630 428h18M684 428h18M990 428h36M126 429h36M450 429h18M504 429h18M540 429h18M594 429h18M630 429h18M684 429h18M990 429h36M126 430h36M450 430h18M504 430h18M540 430h18M594 430h18M630 430h18M684 430h18M990 430h36M126 431h36M450 431h18M504 431h18M540 431h18M594 431h18M630 431h18M684 431h18M990 431h36M126 432h36M450 432h54M540 432h72M630 432h54M990 432h36M126 433h36M450 433h54M540 433h72M630 433h54M990 433h36M126 434h36M450 434h54M540 434h72M630 434h54M990 434h36M126 435h36M450 435h54M540 435h72M630 435h54M990 435h36M126 436h36M450 436h54M540 436h72M630 436h54M990 436h36M126 437h36M450 437h54M540 437h72M630 437h54M990 437h36M126 438h36M450 438h54M540 438h72M630 438h54M990 438h36M126 439h36M450 439h54M540 439h72M630 439h54M990 439h36M126 440h36M450 440h54M540 440h72M630 440h54M990 440h36M126 441h36M450 441h54M540 441h72M630 441h54M990 441h36M126 442h36M450 442h54M540 442h72M630 442h54M990 442h36M126 443h36M450 443h54M540 443h72M630 443h54M990 443h36M126 444h36M450 444h54M540 444h72M630 444h54M990 444h36M126 445h36M450 445h54M540 445h72M630 445h54M990 445h36M126 446h36M450 446h54M540 446h72M630 446h54M990 446h36M126 447h36M450 447h54M540 447h72M630 447h54M990 447h36M126 448h36M450 448h54M540 448h72M630 448h54M990 448h36M126 449h36M450 449h54M540 449h72M630 449h54M990 449h36M126 450h36M450 450h18M504 450h18M540 450h18M594 450h18M630 450h18M666 450h18M990 450h36M126 451h36M450 451h18M504 451h18M540 451h18M594 451h18M630 451h18M666 451h18M990 451h36M126 452h36M450 452h18M504 452h18M540 452h18M594 452h18M630 452h18M666 452h18M990 452h36M126 453h36M450 453h18M504 453h18M540 453h18M594 453h18M630 453h18M666 453h18M990 453h36M126 454h36M450 454h18M504 454h18M540 454h18M594 454h18M630 454h18M666 454h18M990 454h36M126 455h36M450 455h18M504 455h18M540 455h18M594 455h18M630 455h18M666 455h18M990 455h36M126 456h36M450 456h18M504 456h18M540 456h18M594 456h18M630 456h18M666 456h18M990 456h36M126 457h36M450 457h18M504 457h18M540 457h18M594 457h18M630 457h18M666 457h18M990 457h36M126 458h36M450 458h18M504 458h18M540 458h18M594 458h18M630 458h18M666 458h18M990 458h36M126 459h36M450 459h18M504 459h18M540 459h18M594 459h18M630 459h18M666 459h18M990 459h36M126 460h36M450 460h18M504 460h18M540 460h18M594 460h18M630 460h18M666 460h18M990 460h36M126 461h36M450 461h18M504 461h18M540 461h18M594 461h18M630 461h18M666 461h18M990 461h36M126 462h36M450 462h18M504 462h18M540 462h18M594 462h18M630 462h18M666 462h18M990 462h36M126 463h36M450 463h18M504 463h18M540 463h18M594 463h18M630 463h18M666 463h18M990 463h36M126 464h36M450 464h18M504 464h18M540 464h18M594 464h18M630 464h18M666 464h18M990 464h36M126 465h36M450 465h18M504 465h18M540 465h18M594 465h18M630 465h18M666 465h18M990 465h36M126 466h36M450 466h18M504 466h18M540 466h18M594 466h18M630 466h18M666 466h18M990 466h36M126 467h36M450 467h18M504 467h18M540 467h18M594 467h18M630 467h18M666 467h18M990 467h36M126 468h36M450 468h54M540 468h18M594 468h18M630 468h18M684 468h18M990 468h36M126 469h36M450 469h54M540 469h18M594 469h18M630 469h18M684 469h18M990 469h36M126 470h36M450 470h54M540 470h18M594 470h18M630 470h18M684 470h18M990 470h36M126 471h36M450 471h54M540 471h18M594 471h18M630 471h18M684 471h18M990 471h36M126 472h36M450 472h54M540 472h18M594 472h18M630 472h18M684 472h18M990 472h36M126 473h36M450 473h54M540 473h18M594 473h18M630 473h18M684 473h18M990 473h36M126 474h36M450 474h54M540 474h18M594 474h18M630 474h18M684 474h18M990 474h36M126 475h36M450 475h54M540 475h18M594 475h18M630 475h18M684 475h18M990 475h36M126 476h36M450 476h54M540 476h18M594 476h18M630 476h18M684 476h18M990 476h36M126 477h36M450 477h54M540 477h18M594 477h18M630 477h18M684 477h18M990 477h36M126 478h36M450 478h54M540 478h18M594 478h18M630 478h18M684 478h18M990 478h36M126 479h36M450 479h54M540 479h18M594 479h18M630 479h18M684 479h18M990 479h36M126 480h36M450 480h54M540 480h18M594 480h18M630 480h18M684 480h18M990 480h36M126 481h36M450 481h54M540 481h18M594 481h18M630 481h18M684 481h18M990 481h36M126 482h36M450 482h54M540 482h18M594 482h18M630 482h18M684 482h18M990 482h36M126 483h36M450 483h54M540 483h18M594 483h18M630 483h18M684 483h18M990 483h36M126 484h36M450 484h54M540 484h18M594 484h18M630 484h18M684 484h18M990 484h36M126 485h36M450 485h54M540 485h18M594 485h18M630 485h18M684 485h18M990 485h36M126 486h36M990 486h36M126 487h36M990 487h36M126 488h36M990 488h36M126 489h36M990 489h36M126 490h36M990 490h36M126 491h36M990 491h36M126 492h36M990 492h36M126 493h36M990 493h36M126 494h36M990 494h36M126 495h36M990 495h36M126 496h36M990 496h36M126 497h36M990 497h36M126 498h36M990 498h36M126 499h36M990 499h36M126 500h36M990 500h36M126 501h36M990 501h36M126 502h36M990 502h36M126 503h36M990 503h36M126 504h36M990 504h36M126 505h36M990 505h36M126 506h36M990 506h36M126 507h36M990 507h36M126 508h36M990 508h36M126 509h36M990 509h36M126 510h36M990 510h36M126 511h36M990 511h36M126 512h36M990 512h36M126 513h36M990 513h36M126 514h36M990 514h36M126 515h36M990 515h36M126 516h36M990 516h36M126 517h36M990 517h36M126 518h36M990 518h36M126 519h36M990 519h36M126 520h36M990 520h36M126 521h36M990 521h36M126 522h900M126 523h900M126 524h900M126 525h900M126 526h900M126 527h900M126 528h900M126 529h900M126 530h900M126 531h900M126 532h900M126 533h900M126 534h900M126 535h900M126 536h900M126 537h900M126 538h900M126 539h900M144 540h864M144 541h864M144 542h864M144 543h864M144 544h864M144 545h864M144 546h864M144 547h864M144 548h864M144 549h864M144 550h864M144 551h864M144 552h864M144 553h864M144 554h864M144 555h864M144 556h864M144 557h864M144 594h864M144 595h864M144 596h864M144 597h864M144 598h864M144 599h864M144 600h864M144 601h864M144 602h864M144 603h864M144 604h864M144 605h864M144 606h864M144 607h864M144 608h864M144 609h864M144 610h864M144 611h864M126 612h900M126 613h900M126 614h900M126 615h900M126 616h900M126 617h900M126 618h900M126 619h900M126 620h900M126 621h900M126 622h900M126 623h900M126 624h900M126 625h900M126 626h900M126 627h900M126 628h900M126 629h900M126 630h36M990 630h36M126 631h36M990 631h36M126 632h36M990 632h36M126 633h36M990 633h36M126 634h36M990 634h36M126 635h36M990 635h36M126 636h36M990 636h36M126 637h36M990 637h36M126 638h36M990 638h36M126 639h36M990 639h36M126 640h36M990 640h36M126 641h36M990 641h36M126 642h36M990 642h36M126 643h36M990 643h36M126 644h36M990 644h36M126 645h36M990 645h36M126 646h36M990 646h36M126 647h36M990 647h36M126 648h36M450 648h54M558 648h36M630 648h54M990 648h36M126 649h36M450 649h54M558 649h36M630 649h54M990 649h36M126 650h36M450 650h54M558 650h36M630 650h54M990 650h36M126 651h36M450 651h54M558 651h36M630 651h54M990 651h36M126 652h36M450 652h54M558 652h36M630 652h54M990 652h36M126 653h36M450 653h54M558 653h36M630 653h54M990 653h36M126 654h36M450 654h54M558 654h36M630 654h54M990 654h36M126 655h36M450 655h54M558 655h36M630 655h54M990 655h36M126 656h36M450 656h54M558 656h36M630 656h54M990 656h36M126 657h36M450 657h54M558 657h36M630 657h54M990 657h36M126 658h36M450 658h54M558 658h36M630 658h54M990 658h36M126 659h36M450 659h54M558 659h36M630 659h54M990 659h36M126 660h36M450 660h54M558 660h36M630 660h54M990 660h36M126 661h36M450 661h54M558 661h36M630 661h54M990 661h36M126 662h36M450 662h54M558 662h36M630 662h54M990 662h36M126 663h36M450 663h54M558 663h36M630 663h54M990 663h36M126 664h36M450 664h54M558 664h36M630 664h54M990 664h36M126 665h36M450 665h54M558 665h36M630 665h54M990 665h36M126 666h36M450 666h18M504 666h18M540 666h18M594 666h18M630 666h18M684 666h18M990 666h36M126 667h36M450 667h18M504 667h18M540 667h18M594 667h18M630 667h18M684 667h18M990 667h36M126 668h36M450 668h18M504 668h18M540 668h18M594 668h18M630 668h18M684 668h18M990 668h36M126 669h36M450 669h18M504 669h18M540 669h18M594 669h18M630 669h18M684 669h18M990 669h36M126 670h36M450 670h18M504 670h18M540 670h18M594 670h18M630 670h18M684 670h18M990 670h36M126 671h36M450 671h18M504 671h18M540 671h18M594 671h18M630 671h18M684 671h18M990 671h36M126 672h36M450 672h18M504 672h18M540 672h18M594 672h18M630 672h18M684 672h18M990 672h36M126 673h36M450 673h18M504 673h18M540 673h18M594 673h18M630 673h18M684 673h18M990 673h36M126 674h36M450 674h18M504 674h18M540 674h18M594 674h18M630 674h18M684 674h18M990 674h36M126 675h36M450 675h18M504 675h18M540 675h18M594 675h18M630 675h18M684 675h18M990 675h36M126 676h36M450 676h18M504 676h18M540 676h18M594 676h18M630 676h18M684 676h18M990 676h36M126 677h36M450 677h18M504 677h18M540 677h18M594 677h18M630 677h18M684 677h18M990 677h36M126 678h36M450 678h18M504 678h18M540 678h18M594 678h18M630 678h18M684 678h18M990 678h36M126 679h36M450 679h18M504 679h18M540 679h18M594 679h18M630 679h18M684 679h18M990 679h36M126 680h36M450 680h18M504 680h18M540 680h18M594 680h18M630 680h18M684 680h18M990 680h36M126 681h36M450 681h18M504 681h18M540 681h18M594 681h18M630 681h18M684 681h18M990 681h36M126 682h36M450 682h18M504 682h18M540 682h18M594 682h18M630 682h18M684 682h18M990 682h36M126 683h36M450 683h18M504 683h18M540 683h18M594 683h18M630 683h18M684 683h18M990 683h36M126 684h36M450 684h54M540 684h72M630 684h54M990 684h36M126 685h36M450 685h54M540 685h72M630 685h54M990 685h36M126 686h36M450 686h54M540 686h72M630 686h54M990 686h36M126 687h36M450 687h54M540 687h72M630 687h54M990 687h36M126 688h36M450 688h54M540 688h72M630 688h54M990 688h36M126 689h36M450 689h54M540 689h72M630 689h54M990 689h36M126 690h36M450 690h54M540 690h72M630 690h54M990 690h36M126 691h36M450 691h54M540 691h72M630 691h54M990 691h36M126 692h36M450 692h54M540 692h72M630 692h54M990 692h36M126 693h36M450 693h54M540 693h72M630 693h54M990 693h36M126 694h36M450 694h54M540 694h72M630 694h54M990 694h36M126 695h36M450 695h54M540 695h72M630 695h54M990 695h36M126 696h36M450 696h54M540 696h72M630 696h54M990 696h36M126 697h36M450 697h54M540 697h72M630 697h54M990 697h36M126 698h36M450 698h54M540 698h72M630 698h54M990 698h36M126 699h36M450 699h54M540 699h72M630 699h54M990 699h36M126 700h36M450 700h54M540 700h72M630 700h54M990 700h36M126 701h36M450 701h54M540 701h72M630 701h54M990 701h36M126 702h36M450 702h18M504 702h18M540 702h18M594 702h18M630 702h18M666 702h18M990 702h36M126 703h36M450 703h18M504 703h18M540 703h18M594 703h18M630 703h18M666 703h18M990 703h36M126 704h36M450 704h18M504 704h18M540 704h18M594 704h18M630 704h18M666 704h18M990 704h36M126 705h36M450 705h18M504 705h18M540 705h18M594 705h18M630 705h18M666 705h18M990 705h36M126 706h36M450 706h18M504 706h18M540 706h18M594 706h18M630 706h18M666 706h18M990 706h36M126 707h36M450 707h18M504 707h18M540 707h18M594 707h18M630 707h18M666 707h18M990 707h36M126 708h36M450 708h18M504 708h18M540 708h18M594 708h18M630 708h18M666 708h18M990 708h36M126 709h36M450 709h18M504 709h18M540 709h18M594 709h18M630 709h18M666 709h18M990 709h36M126 710h36M450 710h18M504 710h18M540 710h18M594 710h18M630 710h18M666 710h18M990 710h36M126 711h36M450 711h18M504 711h18M540 711h18M594 711h18M630 711h18M666 711h18M990 711h36M126 712h36M450 712h18M504 712h18M540 712h18M594 712h18M630 712h18M666 712h18M990 712h36M126 713h36M450 713h18M504 713h18M540 713h18M594 713h18M630 713h18M666 713h18M990 713h36M126 714h36M450 714h18M504 714h18M540 714h18M594 714h18M630 714h18M666 714h18M990 714h36M126 715h36M450 715h18M504 715h18M540 715h18M594 715h18M630 715h18M666 715h18M990 715h36M126 716h36M450 716h18M504 716h18M540 716h18M594 716h18M630 716h18M666 716h18M990 716h36M126 717h36M450 717h18M504 717h18M540 717h18M594 717h18M630 717h18M666 717h18M990 717h36M126 718h36M450 718h18M504 718h18M540 718h18M594 718h18M630 718h18M666 718h18M990 718h36M126 719h36M450 719h18M504 719h18M540 719h18M594 719h18M630 719h18M666 719h18M990 719h36M126 720h36M450 720h54M540 720h18M594 720h18M630 720h18M684 720h18M990 720h36M126 721h36M450 721h54M540 721h18M594 721h18M630 721h18M684 721h18M990 721h36M126 722h36M450 722h54M540 722h18M594 722h18M630 722h18M684 722h18M990 722h36M126 723h36M450 723h54M540 723h18M594 723h18M630 723h18M684 723h18M990 723h36M126 724h36M450 724h54M540 724h18M594 724h18M630 724h18M684 724h18M990 724h36M126 725h36M450 725h54M540 725h18M594 725h18M630 725h18M684 725h18M990 725h36M126 726h36M450 726h54M540 726h18M594 726h18M630 726h18M684 726h18M990 726h36M126 727h36M450 727h54M540 727h18M594 727h18M630 727h18M684 727h18M990 727h36M126 728h36M450 728h54M540 728h18M594 728h18M630 728h18M684 728h18M990 728h36M126 729h36M450 729h54M540 729h18M594 729h18M630 729h18M684 729h18M990 729h36M126 730h36M450 730h54M540 730h18M594 730h18M630 730h18M684 730h18M990 730h36M126 731h36M450 731h54M540 731h18M594 731h18M630 731h18M684 731h18M990 731h36M126 732h36M450 732h54M540 732h18M594 732h18M630 732h18M684 732h18M990 732h36M126 733h36M450 733h54M540 733h18M594 733h18M630 733h18M684 733h18M990 733h36M126 734h36M450 734h54M540 734h18M594 734h18M630 734h18M684 734h18M990 734h36M126 735h36M450 735h54M540 735h18M594 735h18M630 735h18M684 735h18M990 735h36M126 736h36M450 736h54M540 736h18M594 736h18M630 736h18M684 736h18M990 736h36M126 737h36M450 737h54M540 737h18M594 737h18M630 737h18M684 737h18M990 737h36M126 738h36M990 738h36M126 739h36M990 739h36M126 740h36M990 740h36M126 741h36M990 741h36M126 742h36M990 742h36M126 743h36M990 743h36M126 744h36M990 744h36M126 745h36M990 745h36M126 746h36M990 746h36M126 747h36M990 747h36M126 748h36M990 748h36M126 749h36M990 749h36M126 750h36M990 750h36M126 751h36M990 751h36M126 752h36M990 752h36M126 753h36M990 753h36M126 754h36M990 754h36M126 755h36M990 755h36M126 756h36M990 756h36M126 757h36M990 757h36M126 758h36M990 758h36M126 759h36M990 759h36M126 760h36M990 760h36M126 761h36M990 761h36M126 762h36M990 762h36M126 763h36M990 763h36M126 764h36M990 764h36M126 765h36M990 765h36M126 766h36M990 766h36M126 767h36M990 767h36M126 768h36M990 768h36M126 769h36M990 769h36M126 770h36M990 770h36M126 771h36M990 771h36M126 772h36M990 772h36M126 773h36M990 773h36M126 774h900M126 775h900M126 776h900M126 777h900M126 778h900M126 779h900M126 780h900M126 781h900M126 782h900M126 783h900M126 784h900M126 785h900M126 786h900M126 787h900M126 788h900M126 789h900M126 790h900M126 791h900M144 792h864M144 793h864M144 794h864M144 795h864M144 796h864M144 797h864M144 798h864M144 799h864M144 800h864M144 801h864M144 802h864M144 803h864M144 804h864M144 805h864M144 806h864M144 807h864M144 808h864M144 809h864" />
<path stroke="#fdd835" d="M162 378h828M162 379h828M162 380h828M162 381h828M162 382h828M162 383h828M162 384h828M162 385h828M162 386h828M162 387h828M162 388h828M162 389h828M162 390h828M162 391h828M162 392h828M162 393h828M162 394h828M162 395h828M162 396h18M360 396h18M396 396h18M432 396h18M504 396h54M594 396h36M684 396h306M162 397h18M360 397h18M396 397h18M432 397h18M504 397h54M594 397h36M684 397h306M162 398h18M360 398h18M396 398h18M432 398h18M504 398h54M594 398h36M684 398h306M162 399h18M360 399h18M396 399h18M432 399h18M504 399h54M594 399h36M684 399h306M162 400h18M360 400h18M396 400h18M432 400h18M504 400h54M594 400h36M684 400h306M162 401h18M360 401h18M396 401h18M432 401h18M504 401h54M594 401h36M684 401h306M162 402h18M360 402h18M396 402h18M432 402h18M504 402h54M594 402h36M684 402h306M162 403h18M360 403h18M396 403h18M432 403h18M504 403h54M594 403h36M684 403h306M162 404h18M360 404h18M396 404h18M432 404h18M504 404h54M594 404h36M684 404h306M162 405h18M360 405h18M396 405h18M432 405h18M504 405h54M594 405h36M684 405h306M162 406h18M360 406h18M396 406h18M432 406h18M504 406h54M594 406h36M684 406h306M162 407h18M360 407h18M396 407h18M432 407h18M504 407h54M594 407h36M684 407h306M162 408h18M360 408h18M396 408h18M432 408h18M504 408h54M594 408h36M684 408h306M162 409h18M360 409h18M396 409h18M432 409h18M504 409h54M594 409h36M684 409h306M162 410h18M360 410h18M396 410h18M432 410h18M504 410h54M594 410h36M684 410h306M162 411h18M360 411h18M396 411h18M432 411h18M504 411h54M594 411h36M684 411h306M162 412h18M360 412h18M396 412h18M432 412h18M504 412h54M594 412h36M684 412h306M162 413h18M360 413h18M396 413h18M432 413h18M504 413h54M594 413h36M684 413h306M162 414h288M468 414h36M522 414h18M558 414h36M612 414h18M648 414h36M702 414h288M162 415h288M468 415h36M522 415h18M558 415h36M612 415h18M648 415h36M702 415h288M162 416h288M468 416h36M522 416h18M558 416h36M612 416h18M648 416h36M702 416h288M162 417h288M468 417h36M522 417h18M558 417h36M612 417h18M648 417h36M702 417h288M162 418h288M468 418h36M522 418h18M558 418h36M612 418h18M648 418h36M702 418h288M162 419h288M468 419h36M522 419h18M558 419h36M612 419h18M648 419h36M702 419h288M162 420h288M468 420h36M522 420h18M558 420h36M612 420h18M648 420h36M702 420h288M162 421h288M468 421h36M522 421h18M558 421h36M612 421h18M648 421h36M702 421h288M162 422h288M468 422h36M522 422h18M558 422h36M612 422h18M648 422h36M702 422h288M162 423h288M468 423h36M522 423h18M558 423h36M612 423h18M648 423h36M702 423h288M162 424h288M468 424h36M522 424h18M558 424h36M612 424h18M648 424h36M702 424h288M162 425h288M468 425h36M522 425h18M558 425h36M612 425h18M648 425h36M702 425h288M162 426h288M468 426h36M522 426h18M558 426h36M612 426h18M648 426h36M702 426h288M162 427h288M468 427h36M522 427h18M558 427h36M612 427h18M648 427h36M702 427h288M162 428h288M468 428h36M522 428h18M558 428h36M612 428h18M648 428h36M702 428h288M162 429h288M468 429h36M522 429h18M558 429h36M612 429h18M648 429h36M702 429h288M162 430h288M468 430h36M522 430h18M558 430h36M612 430h18M648 430h36M702 430h288M162 431h288M468 431h36M522 431h18M558 431h36M612 431h18M648 431h36M702 431h288M162 432h288M504 432h36M612 432h18M684 432h306M162 433h288M504 433h36M612 433h18M684 433h306M162 434h288M504 434h36M612 434h18M684 434h306M162 435h288M504 435h36M612 435h18M684 435h306M162 436h288M504 436h36M612 436h18M684 436h306M162 437h288M504 437h36M612 437h18M684 437h306M162 438h288M504 438h36M612 438h18M684 438h306M162 439h288M504 439h36M612 439h18M684 439h306M162 440h288M504 440h36M612 440h18M684 440h306M162 441h288M504 441h36M612 441h18M684 441h306M162 442h288M504 442h36M612 442h18M684 442h306M162 443h288M504 443h36M612 443h18M684 443h306M162 444h288M504 444h36M612 444h18M684 444h306M162 445h288M504 445h36M612 445h18M684 445h306M162 446h288M504 446h36M612 446h18M684 446h306M162 447h288M504 447h36M612 447h18M684 447h306M162 448h288M504 448h36M612 448h18M684 448h306M162 449h288M504 449h36M612 449h18M684 449h306M162 450h288M468 450h36M522 450h18M558 450h36M612 450h18M648 450h18M684 450h306M162 451h288M468 451h36M522 451h18M558 451h36M612 451h18M648 451h18M684 451h306M162 452h288M468 452h36M522 452h18M558 452h36M612 452h18M648 452h18M684 452h306M162 453h288M468 453h36M522 453h18M558 453h36M612 453h18M648 453h18M684 453h306M162 454h288M468 454h36M522 454h18M558 454h36M612 454h18M648 454h18M684 454h306M162 455h288M468 455h36M522 455h18M558 455h36M612 455h18M648 455h18M684 455h306M162 456h288M468 456h36M522 456h18M558 456h36M612 456h18M648 456h18M684 456h306M162 457h288M468 457h36M522 457h18M558 457h36M612 457h18M648 457h18M684 457h306M162 458h288M468 458h36M522 458h18M558 458h36M612 458h18M648 458h18M684 458h306M162 459h288M468 459h36M522 459h18M558 459h36M612 459h18M648 459h18M684 459h306M162 460h288M468 460h36M522 460h18M558 460h36M612 460h18M648 460h18M684 460h306M162 461h288M468 461h36M522 461h18M558 461h36M612 461h18M648 461h18M684 461h306M162 462h288M468 462h36M522 462h18M558 462h36M612 462h18M648 462h18M684 462h306M162 463h288M468 463h36M522 463h18M558 463h36M612 463h18M648 463h18M684 463h306M162 464h288M468 464h36M522 464h18M558 464h36M612 464h18M648 464h18M684 464h306M162 465h288M468 465h36M522 465h18M558 465h36M612 465h18M648 465h18M684 465h306M162 466h288M468 466h36M522 466h18M558 466h36M612 466h18M648 466h18M684 466h306M162 467h288M468 467h36M522 467h18M558 467h36M612 467h18M648 467h18M684 467h306M162 468h288M504 468h36M558 468h36M612 468h18M648 468h36M702 468h288M162 469h288M504 469h36M558 469h36M612 469h18M648 469h36M702 469h288M162 470h288M504 470h36M558 470h36M612 470h18M648 470h36M702 470h288M162 471h288M504 471h36M558 471h36M612 471h18M648 471h36M702 471h288M162 472h288M504 472h36M558 472h36M612 472h18M648 472h36M702 472h288M162 473h288M504 473h36M558 473h36M612 473h18M648 473h36M702 473h288M162 474h288M504 474h36M558 474h36M612 474h18M648 474h36M702 474h288M162 475h288M504 475h36M558 475h36M612 475h18M648 475h36M702 475h288M162 476h288M504 476h36M558 476h36M612 476h18M648 476h36M702 476h288M162 477h288M504 477h36M558 477h36M612 477h18M648 477h36M702 477h288M162 478h288M504 478h36M558 478h36M612 478h18M648 478h36M702 478h288M162 479h288M504 479h36M558 479h36M612 479h18M648 479h36M702 479h288M162 480h288M504 480h36M558 480h36M612 480h18M648 480h36M702 480h288M162 481h288M504 481h36M558 481h36M612 481h18M648 481h36M702 481h288M162 482h288M504 482h36M558 482h36M612 482h18M648 482h36M702 482h288M162 483h288M504 483h36M558 483h36M612 483h18M648 483h36M702 483h288M162 484h288M504 484h36M558 484h36M612 484h18M648 484h36M702 484h288M162 485h288M504 485h36M558 485h36M612 485h18M648 485h36M702 485h288M162 486h828M162 487h828M162 488h828M162 489h828M162 490h828M162 491h828M162 492h828M162 493h828M162 494h828M162 495h828M162 496h828M162 497h828M162 498h828M162 499h828M162 500h828M162 501h828M162 502h828M162 503h828M162 630h828M162 631h828M162 632h828M162 633h828M162 634h828M162 635h828M162 636h828M162 637h828M162 638h828M162 639h828M162 640h828M162 641h828M162 642h828M162 643h828M162 644h828M162 645h828M162 646h828M162 647h828M162 648h18M360 648h18M396 648h18M432 648h18M504 648h54M594 648h36M684 648h306M162 649h18M360 649h18M396 649h18M432 649h18M504 649h54M594 649h36M684 649h306M162 650h18M360 650h18M396 650h18M432 650h18M504 650h54M594 650h36M684 650h306M162 651h18M360 651h18M396 651h18M432 651h18M504 651h54M594 651h36M684 651h306M162 652h18M360 652h18M396 652h18M432 652h18M504 652h54M594 652h36M684 652h306M162 653h18M360 653h18M396 653h18M432 653h18M504 653h54M594 653h36M684 653h306M162 654h18M360 654h18M396 654h18M432 654h18M504 654h54M594 654h36M684 654h306M162 655h18M360 655h18M396 655h18M432 655h18M504 655h54M594 655h36M684 655h306M162 656h18M360 656h18M396 656h18M432 656h18M504 656h54M594 656h36M684 656h306M162 657h18M360 657h18M396 657h18M432 657h18M504 657h54M594 657h36M684 657h306M162 658h18M360 658h18M396 658h18M432 658h18M504 658h54M594 658h36M684 658h306M162 659h18M360 659h18M396 659h18M432 659h18M504 659h54M594 659h36M684 659h306M162 660h18M360 660h18M396 660h18M432 660h18M504 660h54M594 660h36M684 660h306M162 661h18M360 661h18M396 661h18M432 661h18M504 661h54M594 661h36M684 661h306M162 662h18M360 662h18M396 662h18M432 662h18M504 662h54M594 662h36M684 662h306M162 663h18M360 663h18M396 663h18M432 663h18M504 663h54M594 663h36M684 663h306M162 664h18M360 664h18M396 664h18M432 664h18M504 664h54M594 664h36M684 664h306M162 665h18M360 665h18M396 665h18M432 665h18M504 665h54M594 665h36M684 665h306M162 666h288M468 666h36M522 666h18M558 666h36M612 666h18M648 666h36M702 666h288M162 667h288M468 667h36M522 667h18M558 667h36M612 667h18M648 667h36M702 667h288M162 668h288M468 668h36M522 668h18M558 668h36M612 668h18M648 668h36M702 668h288M162 669h288M468 669h36M522 669h18M558 669h36M612 669h18M648 669h36M702 669h288M162 670h288M468 670h36M522 670h18M558 670h36M612 670h18M648 670h36M702 670h288M162 671h288M468 671h36M522 671h18M558 671h36M612 671h18M648 671h36M702 671h288M162 672h288M468 672h36M522 672h18M558 672h36M612 672h18M648 672h36M702 672h288M162 673h288M468 673h36M522 673h18M558 673h36M612 673h18M648 673h36M702 673h288M162 674h288M468 674h36M522 674h18M558 674h36M612 674h18M648 674h36M702 674h288M162 675h288M468 675h36M522 675h18M558 675h36M612 675h18M648 675h36M702 675h288M162 676h288M468 676h36M522 676h18M558 676h36M612 676h18M648 676h36M702 676h288M162 677h288M468 677h36M522 677h18M558 677h36M612 677h18M648 677h36M702 677h288M162 678h288M468 678h36M522 678h18M558 678h36M612 678h18M648 678h36M702 678h288M162 679h288M468 679h36M522 679h18M558 679h36M612 679h18M648 679h36M702 679h288M162 680h288M468 680h36M522 680h18M558 680h36M612 680h18M648 680h36M702 680h288M162 681h288M468 681h36M522 681h18M558 681h36M612 681h18M648 681h36M702 681h288M162 682h288M468 682h36M522 682h18M558 682h36M612 682h18M648 682h36M702 682h288M162 683h288M468 683h36M522 683h18M558 683h36M612 683h18M648 683h36M702 683h288M162 684h288M504 684h36M612 684h18M684 684h306M162 685h288M504 685h36M612 685h18M684 685h306M162 686h288M504 686h36M612 686h18M684 686h306M162 687h288M504 687h36M612 687h18M684 687h306M162 688h288M504 688h36M612 688h18M684 688h306M162 689h288M504 689h36M612 689h18M684 689h306M162 690h288M504 690h36M612 690h18M684 690h306M162 691h288M504 691h36M612 691h18M684 691h306M162 692h288M504 692h36M612 692h18M684 692h306M162 693h288M504 693h36M612 693h18M684 693h306M162 694h288M504 694h36M612 694h18M684 694h306M162 695h288M504 695h36M612 695h18M684 695h306M162 696h288M504 696h36M612 696h18M684 696h306M162 697h288M504 697h36M612 697h18M684 697h306M162 698h288M504 698h36M612 698h18M684 698h306M162 699h288M504 699h36M612 699h18M684 699h306M162 700h288M504 700h36M612 700h18M684 700h306M162 701h288M504 701h36M612 701h18M684 701h306M162 702h288M468 702h36M522 702h18M558 702h36M612 702h18M648 702h18M684 702h306M162 703h288M468 703h36M522 703h18M558 703h36M612 703h18M648 703h18M684 703h306M162 704h288M468 704h36M522 704h18M558 704h36M612 704h18M648 704h18M684 704h306M162 705h288M468 705h36M522 705h18M558 705h36M612 705h18M648 705h18M684 705h306M162 706h288M468 706h36M522 706h18M558 706h36M612 706h18M648 706h18M684 706h306M162 707h288M468 707h36M522 707h18M558 707h36M612 707h18M648 707h18M684 707h306M162 708h288M468 708h36M522 708h18M558 708h36M612 708h18M648 708h18M684 708h306M162 709h288M468 709h36M522 709h18M558 709h36M612 709h18M648 709h18M684 709h306M162 710h288M468 710h36M522 710h18M558 710h36M612 710h18M648 710h18M684 710h306M162 711h288M468 711h36M522 711h18M558 711h36M612 711h18M648 711h18M684 711h306M162 712h288M468 712h36M522 712h18M558 712h36M612 712h18M648 712h18M684 712h306M162 713h288M468 713h36M522 713h18M558 713h36M612 713h18M648 713h18M684 713h306M162 714h288M468 714h36M522 714h18M558 714h36M612 714h18M648 714h18M684 714h306M162 715h288M468 715h36M522 715h18M558 715h36M612 715h18M648 715h18M684 715h306M162 716h288M468 716h36M522 716h18M558 716h36M612 716h18M648 716h18M684 716h306M162 717h288M468 717h36M522 717h18M558 717h36M612 717h18M648 717h18M684 717h306M162 718h288M468 718h36M522 718h18M558 718h36M612 718h18M648 718h18M684 718h306M162 719h288M468 719h36M522 719h18M558 719h36M612 719h18M648 719h18M684 719h306M162 720h288M504 720h36M558 720h36M612 720h18M648 720h36M702 720h288M162 721h288M504 721h36M558 721h36M612 721h18M648 721h36M702 721h288M162 722h288M504 722h36M558 722h36M612 722h18M648 722h36M702 722h288M162 723h288M504 723h36M558 723h36M612 723h18M648 723h36M702 723h288M162 724h288M504 724h36M558 724h36M612 724h18M648 724h36M702 724h288M162 725h288M504 725h36M558 725h36M612 725h18M648 725h36M702 725h288M162 726h288M504 726h36M558 726h36M612 726h18M648 726h36M702 726h288M162 727h288M504 727h36M558 727h36M612 727h18M648 727h36M702 727h288M162 728h288M504 728h36M558 728h36M612 728h18M648 728h36M702 728h288M162 729h288M504 729h36M558 729h36M612 729h18M648 729h36M702 729h288M162 730h288M504 730h36M558 730h36M612 730h18M648 730h36M702 730h288M162 731h288M504 731h36M558 731h36M612 731h18M648 731h36M702 731h288M162 732h288M504 732h36M558 732h36M612 732h18M648 732h36M702 732h288M162 733h288M504 733h36M558 733h36M612 733h18M648 733h36M702 733h288M162 734h288M504 734h36M558 734h36M612 734h18M648 734h36M702 734h288M162 735h288M504 735h36M558 735h36M612 735h18M648 735h36M702 735h288M162 736h288M504 736h36M558 736h36M612 736h18M648 736h36M702 736h288M162 737h288M504 737h36M558 737h36M612 737h18M648 737h36M702 737h288M162 738h828M162 739h828M162 740h828M162 741h828M162 742h828M162 743h828M162 744h828M162 745h828M162 746h828M162 747h828M162 748h828M162 749h828M162 750h828M162 751h828M162 752h828M162 753h828M162 754h828M162 755h828" />
<path stroke="#ffffff" d="M180 396h180M378 396h18M414 396h18M180 397h180M378 397h18M414 397h18M180 398h180M378 398h18M414 398h18M180 399h180M378 399h18M414 399h18M180 400h180M378 400h18M414 400h18M180 401h180M378 401h18M414 401h18M180 402h180M378 402h18M414 402h18M180 403h180M378 403h18M414 403h18M180 404h180M378 404h18M414 404h18M180 405h180M378 405h18M414 405h18M180 406h180M378 406h18M414 406h18M180 407h180M378 407h18M414 407h18M180 408h180M378 408h18M414 408h18M180 409h180M378 409h18M414 409h18M180 410h180M378 410h18M414 410h18M180 411h180M378 411h18M414 411h18M180 412h180M378 412h18M414 412h18M180 413h180M378 413h18M414 413h18M180 648h180M378 648h18M414 648h18M180 649h180M378 649h18M414 649h18M180 650h180M378 650h18M414 650h18M180 651h180M378 651h18M414 651h18M180 652h180M378 652h18M414 652h18M180 653h180M378 653h18M414 653h18M180 654h180M378 654h18M414 654h18M180 655h180M378 655h18M414 655h18M180 656h180M378 656h18M414 656h18M180 657h180M378 657h18M414 657h18M180 658h180M378 658h18M414 658h18M180 659h180M378 659h18M414 659h18M180 660h180M378 660h18M414 660h18M180 661h180M378 661h18M414 661h18M180 662h180M378 662h18M414 662h18M180 663h180M378 663h18M414 663h18M180 664h180M378 664h18M414 664h18M180 665h180M378 665h18M414 665h18" />
<path stroke="#ffc107" d="M162 504h828M162 505h828M162 506h828M162 507h828M162 508h828M162 509h828M162 510h828M162 511h828M162 512h828M162 513h828M162 514h828M162 515h828M162 516h828M162 517h828M162 518h828M162 519h828M162 520h828M162 521h828M162 756h828M162 757h828M162 758h828M162 759h828M162 760h828M162 761h828M162 762h828M162 763h828M162 764h828M162 765h828M162 766h828M162 767h828M162 768h828M162 769h828M162 770h828M162 771h828M162 772h828M162 773h828" />
</svg>