<svg xmlns="http://www.w3.org/2000/svg" viewBox="0 -0.5 1170 1170" shape-rendering="crispEdges">
<metadata>Made with Pixels to Svg https://codepen.io/shshaw/pen/XbxvNj</metadata>
<path stroke="#000000" d="M144 216h864M144 217h864M144 218h864M144 219h864M144 220h864M144 221h864M144 222h864M144 223h864M144 224h864M144 225h864M144 226h864M144 227h864M144 228h864M144 229h864M144 230h864M144 231h864M144 232h864M144 233h864M126 234h900M126 235h900M126 236h900M126 237h900M126 238h900M126 239h900M126 240h900M126 241h900M126 242h900M126 243h900M126 244h900M126 245h900M126 246h900M126 247h900M126 248h900M126 249h900M126 250h900M126 251h900M126 252h36M990 252h36M126 253h36M990 253h36M126 254h36M990 254h36M126 255h36M990 255h36M126 256h36M990 256h36M126 257h36M990 257h36M126 258h36M990 258h36M126 259h36M990 259h36M126 260h36M990 260h36M126 261h36M990 261h36M126 262h36M990 262h36M126 263h36M990 263h36M126 264h36M990 264h36M126 265h36M990 265h36M126 266h36M990 266h36M126 267h36M990 267h36M126 268h36M990 268h36M126 269h36M990 269h36M126 270h36M450 270h54M558 270h36M630 270h54M990 270h36M126 271h36M450 271h54M558 271h36M630 271h54M990 271h36M126 272h36M450 272h54M558 272h36M630 272h54M990 272h36M126 273h36M450 273h54M558 273h36M630 273h54M990 273h36M126 274h36M450 274h54M558 274h36M630 274h54M990 274h36M126 275h36M450 275h54M558 275h36M630 275h54M990 275h36M126 276h36M450 276h54M558 276h36M630 276h54M990 276h36M126 277h36M450 277h54M558 277h36M630 277h54M990 277h36M126 278h36M450 278h54M558 278h36M630 278h54M990 278h36M126 279h36M450 279h54M558 279h36M630 279h54M990 279h36M126 280h36M450 280h54M558 280h36M630 280h54M990 280h36M126 281h36M450 281h54M558 281h36M630 281h54M990 281h36M126 282h36M450 282h54M558 282h36M630 282h54M990 282h36M126 283h36M450 283h54M558 283h36M630 283h54M990 283h36M126 284h36M450 284h54M558 284h36M630 284h54M990 284h36M126 285h36M450 285h54M558 285h36M630 285h54M990 285h36M126 286h36M450 286h54M558 286h36M630 286h54M990 286h36M126 287h36M450 287h54M558 287h36M630 287h54M990 287h36M126 288h36M450 288h18M504 288h18M540 288h18M594 288h18M630 288h18M684 288h18M990 288h36M126 289h36M450 289h18M504 289h18M540 289h18M594 289h18M630 289h18M684 289h18M990 289h36M126 290h36M450 290h18M504 290h18M540 290h18M594 290h18M630 290h18M684 290h18M990 290h36M126 291h36M450 291h18M504 291h18M540 291h18M594 291h18M630 291h18M684 291h18M990 291h36M126 292h36M450 292h18M504 292h18M540 292h18M594 292h18M630 292h18M684 292h18M990 292h36M126 293h36M450 293h18M504 293h18M540 293h18M594 293h18M630 293h18M684 293h18M990 293h36M126 294h36M450 294h18M504 294h18M540 294h18M594 294h18M630 294h18M684 294h18M990 294h36M126 295h36M450 295h18M504 295h18M540 295h18M594 295h18M630 295h18M684 295h18M990 295h36M126 296h36M450 296h18M504 296h18M540 296h18M594 296h18M630 296h18M684 296h18M990 296h36M126 297h36M450 297h18M504 297h18M540 297h18M594 297h18M630 297h18M684 297h18M990 297h36M126 298h36M450 298h18M504 298h18M540 298h18M594 298h18M630 298h18M684 298h18M990 298h36M126 299h36M450 299h18M504 299h18M540 299h18M594 299h18M630 299h18M684 299h18M990 299h36M126 300h36M450 300h18M504 300h18M540 300h18M594 300h18M630 300h18M684 300h18M990 300h36M126 301h36M450 301h18M504 301h18M540 301h18M594 301h18M630 301h18M684 301h18M990 301h36M126 302h36M450 302h18M504 302h18M540 302h18M594 302h18M630 302h18M684 302h18M990 302h36M126 303h36M450 303h18M504 303h18M540 303h18M594 303h18M630 303h18M684 303h18M990 303h36M126 304h36M450 304h18M504 304h18M540 304h18M594 304h18M630 304h18M684 304h18M990 304h36M126 305h36M450 305h18M504 305h18M540 305h18M594 305h18M630 305h18M684 305h18M990 305h36M126 306h36M450 306h54M540 306h72M630 306h54M990 306h36M126 307h36M450 307h54M540 307h72M630 307h54M990 307h36M126 308h36M450 308h54M540 308h72M630 308h54M990 308h36M126 309h36M450 309h54M540 309h72M630 309h54M990 309h36M126 310h36M450 310h54M540 310h72M630 310h54M990 310h36M126 311h36M450 311h54M540 311h72M630 311h54M990 311h36M126 312h36M450 312h54M540 312h72M630 312h54M990 312h36M126 313h36M450 313h54M540 313h72M630 313h54M990 313h36M126 314h36M450 314h54M540 314h72M630 314h54M990 314h36M126 315h36M450 315h54M540 315h72M630 315h54M990 315h36M126 316h36M450 316h54M540 316h72M630 316h54M990 316h36M126 317h36M450 317h54M540 317h72M630 317h54M990 317h36M126 318h36M450 318h54M540 318h72M630 318h54M990 318h36M126 319h36M450 319h54M540 319h72M630 319h54M990 319h36M126 320h36M450 320h54M540 320h72M630 320h54M990 320h36M126 321h36M450 321h54M540 321h72M630 321h54M990 321h36M126 322h36M450 322h54M540 322h72M630 322h54M990 322h36M126 323h36M450 323h54M540 323h72M630 323h54M990 323h36M126 324h36M450 324h18M504 324h18M540 324h18M594 324h18M630 324h18M666 324h18M990 324h36M126 325h36M450 325h18M504 325h18M540 325h18M594 325h18M630 325h18M666 325h18M990 325h36M126 326h36M450 326h18M504 326h18M540 326h18M594 326h18M630 326h18M666 326h18M990 326h36M126 327h36M450 327h18M504 327h18M540 327h18M594 327h18M630 327h18M666 327h18M990 327h36M126 328h36M450 328h18M504 328h18M540 328h18M594 328h18M630 328h18M666 328h18M990 328h36M126 329h36M450 329h18M504 329h18M540 329h18M594 329h18M630 329h18M666 329h18M990 329h36M126 330h36M450 330h18M504 330h18M540 330h18M594 330h18M630 330h18M666 330h18M990 330h36M126 331h36M450 331h18M504 331h18M540 331h18M594 331h18M630 331h18M666 331h18M990 331h36M126 332h36M450 332h18M504 332h18M540 332h18M594 332h18M630 332h18M666 332h18M990 332h36M126 333h36M450 333h18M504 333h18M540 333h18M594 333h18M630 333h18M666 333h18M990 333h36M126 334h36M450 334h18M504 334h18M540 334h18M594 334h18M630 334h18M666 334h18M990 334h36M126 335h36M450 335h18M504 335h18M540 335h18M594 335h18M630 335h18M666 335h18M990 335h36M126 336h36M450 336h18M504 336h18M540 336h18M594 336h18M630 336h18M666 336h18M990 336h36M126 337h36M450 337h18M504 337h18M540 337h18M594 337h18M630 337h18M666 337h18M990 337h36M126 338h36M450 338h18M504 338h18M540 338h18M594 338h18M630 338h18M666 338h18M990 338h36M126 339h36M450 339h18M504 339h18M540 339h18M594 339h18M630 339h18M666 339h18M990 339h36M126 340h36M450 340h18M504 340h18M540 340h18M594 340h18M630 340h18M666 340h18M990 340h36M126 341h36M450 341h18M504 341h18M540 341h18M594 341h18M630 341h18M666 341h18M990 341h36M126 342h36M450 342h54M540 342h18M594 342h18M630 342h18M684 342h18M990 342h36M126 343h36M450 343h54M540 343h18M594 343h18M630 343h18M684 343h18M990 343h36M126 344h36M450 344h54M540 344h18M594 344h18M630 344h18M684 344h18M990 344h36M126 345h36M450 345h54M540 345h18M594 345h18M630 345h18M684 345h18M990 345h36M126 346h36M450 346h54M540 346h18M594 346h18M630 346h18M684 346h18M990 346h36M126 347h36M450 347h54M540 347h18M594 347h18M630 347h18M684 347h18M990 347h36M126 348h36M450 348h54M540 348h18M594 348h18M630 348h18M684 348h18M990 348h36M126 349h36M450 349h54M540 349h18M594 349h18M630 349h18M684 349h18M990 349h36M126 350h36M450 350h54M540 350h18M594 350h18M630 350h18M684 350h18M990 350h36M126 351h36M450 351h54M540 351h18M594 351h18M630 351h18M684 351h18M990 351h36M126 352h36M450 352h54M540 352h18M594 352h18M630 352h18M684 352h18M990 352h36M126 353h36M450 353h54M540 353h18M594 353h18M630 353h18M684 353h18M990 353h36M126 354h36M450 354h54M540 354h18M594 354h18M630 354h18M684 354h18M990 354h36M126 355h36M450 355h54M540 355h18M594 355h18M630 355h18M684 355h18M990 355h36M126 356h36M450 356h54M540 356h18M594 356h18M630 356h18M684 356h18M990 356h36M126 357h36M450 357h54M540 357h18M594 357h18M630 357h18M684 357h18M990 357h36M126 358h36M450 358h54M540 358h18M594 358h18M630 358h18M684 358h18M990 358h36M126 359h36M450 359h54M540 359h18M594 359h18M630 359h18M684 359h18M990 359h36M126 360h36M990 360h36M126 361h36M990 361h36M126 362h36M990 362h36M126 363h36M990 363h36M126 364h36M990 364h36M126 365h36M990 365h36M126 366h36M990 366h36M126 367h36M990 367h36M126 368h36M990 368h36M126 369h36M990 369h36M126 370h36M990 370h36M126 371h36M990 371h36M126 372h36M990 372h36M126 373h36M990 373h36M126 374h36M990 374h36M126 375h36M990 375h36M126 376h36M990 376h36M126 377h36M990 377h36M126 378h36M990 378h36M126 379h36M990 379h36M126 380h36M990 380h36M126 381h36M990 381h36M126 382h36M990 382h36M126 383h36M990 383h36M126 384h36M990 384h36M126 385h36M990 385h36M126 386h36M990 386h36M126 387h36M990 387h36M126 388h36M990 388h36M126 389h36M990 389h36M126 390h36M990 390h36M126 391h36M990 391h36M126 392h36M990 392h36M126 393h36M990 393h36M126 394h36M990 394h36M126 395h36M990 395h36M126 396h900M126 397h900M126 398h900M126 399h900M126 400h900M126 401h900M126 402h900M126 403h900M126 404h900M126 405h900M126 406h900M126 407h900M126 408h900M126 409h900M126 410h900M126 411h900M126 412h900M126 413h900M144 414h864M144 415h864M144 416h864M144 417h864M144 418h864M144 419h864M144 420h864M144 421h864M144 422h864M144 423h864M144 424h864M144 425h864M144 426h864M144 427h864M144 428h864M144 429h864M144 430h864M144 431h864M144 468h864M144 469h864M144 470h864M144 471h864M144 472h864M144 473h864M144 474h864M144 475h864M144 476h864M144 477h864M144 478h864M144 479h864M144 480h864M144 481h864M144 482h864M144 483h864M144 484h864M144 485h864M126 486h900M126 487h900M126 488h900M126 489h900M126 490h900M126 491h900M126 492h900M126 493h900M126 494h900M126 495h900M126 496h900M126 497h900M126 498h900M126 499h900M126 500h900M126 501h900M126 502h900M126 503h900M126 504h36M990 504h36M126 505h36M990 505h36M126 506h36M990 506h36M126 507h36M990 507h36M126 508h36M990 508h36M126 509h36M990 509h36M126 510h36M990 510h36M126 511h36M990 511h36M126 512h36M990 512h36M126 513h36M990 513h36M126 514h36M990 514h36M126 515h36M990 515h36M126 516h36M990 516h36M126 517h36M990 517h36M126 518h36M990 518h36M126 519h36M990 519h36M126 520h36M990 520h36M126 521h36M990 521h36M126 522h36M450 522h54M558 522h36M630 522h54M990 522h36M126 523h36M450 523h54M558 523h36M630 523h54M990 523h36M126 524h36M450 524h54M558 524h36M630 524h54M990 524h36M126 525h36M450 525h54M558 525h36M630 525h54M990 525h36M126 526h36M450 526h54M558 526h36M630 526h54M990 526h36M126 527h36M450 527h54M558 527h36M630 527h54M990 527h36M126 528h36M450 528h54M558 528h36M630 528h54M990 528h36M126 529h36M450 529h54M558 529h36M630 529h54M990 529h36M126 530h36M450 530h54M558 530h36M630 530h54M990 530h36M126 531h36M450 531h54M558 531h36M630 531h54M990 531h36M126 532h36M450 532h54M558 532h36M630 532h54M990 532h36M126 533h36M450 533h54M558 533h36M630 533h54M990 533h36M126 534h36M450 534h54M558 534h36M630 534h54M990 534h36M126 535h36M450 535h54M558 535h36M630 535h54M990 535h36M126 536h36M450 536h54M558 536h36M630 536h54M990 536h36M126 537h36M450 537h54M558 537h36M630 537h54M990 537h36M126 538h36M450 538h54M558 538h36M630 538h54M990 538h36M126 539h36M450 539h54M558 539h36M630 539h54M990 539h36M126 540h36M450 540h18M504 540h18M540 540h18M594 540h18M630 540h18M684 540h18M990 540h36M126 541h36M450 541h18M504 541h18M540 541h18M594 541h18M630 541h18M684 541h18M990 541h36M126 542h36M450 542h18M504 542h18M540 542h18M594 542h18M630 542h18M684 542h18M990 542h36M126 543h36M450 543h18M504 543h18M540 543h18M594 543h18M630 543h18M684 543h18M990 543h36M126 544h36M450 544h18M504 544h18M540 544h18M594 544h18M630 544h18M684 544h18M990 544h36M126 545h36M450 545h18M504 545h18M540 545h18M594 545h18M630 545h18M684 545h18M990 545h36M126 546h36M450 546h18M504 546h18M540 546h18M594 546h18M630 546h18M684 546h18M990 546h36M126 547h36M450 547h18M504 547h18M540 547h18M594 547h18M630 547h18M684 547h18M990 547h36M126 548h36M450 548h18M504 548h18M540 548h18M594 548h18M630 548h18M684 548h18M990 548h36M126 549h36M450 549h18M504 549h18M540 549h18M594 549h18M630 549h18M684 549h18M990 549h36M126 550h36M450 550h18M504 550h18M540 550h18M594 550h18M630 550h18M684 550h18M990 550h36M126 551h36M450 551h18M504 551h18M540 551h18M594 551h18M630 551h18M684 551h18M990 551h36M126 552h36M450 552h18M504 552h18M540 552h18M594 552h18M630 552h18M684 552h18M990 552h36M126 553h36M450 553h18M504 553h18M540 553h18M594 553h18M630 553h18M684 553h18M990 553h36M126 554h36M450 554h18M504 554h18M540 554h18M594 554h18M630 554h18M684 554h18M990 554h36M126 555h36M450 555h18M504 555h18M540 555h18M594 555h18M630 555h18M684 555h18M990 555h36M126 556h36M450 556h18M504 556h18M540 556h18M594 556h18M630 556h18M684 556h18M990 556h36M126 557h36M450 557h18M504 557h18M540 557h18M594 557h18M630 557h18M684 557h18M990 557h36M126 558h36M450 558h54M540 558h72M630 558h54M990 558h36M126 559h36M450 559h54M540 559h72M630 559h54M990 559h36M126 560h36M450 560h54M540 560h72M630 560h54M990 560h36M126 561h36M450 561h54M540 561h72M630 561h54M990 561h36M126 562h36M450 562h54M540 562h72M630 562h54M990 562h36M126 563h36M450 563h54M540 563h72M630 563h54M990 563h36M126 564h36M450 564h54M540 564h72M630 564h54M990 564h36M126 565h36M450 565h54M540 565h72M630 565h54M990 565h36M126 566h36M450 566h54M540 566h72M630 566h54M990 566h36M126 567h36M450 567h54M540 567h72M630 567h54M990 567h36M126 568h36M450 568h54M540 568h72M630 568h54M990 568h36M126 569h36M450 569h54M540 569h72M630 569h54M990 569h36M126 570h36M450 570h54M540 570h72M630 570h54M990 570h36M126 571h36M450 571h54M540 571h72M630 571h54M990 571h36M126 572h36M450 572h54M540 572h72M630 572h54M990 572h36M126 573h36M450 573h54M540 573h72M630 573h54M990 573h36M126 574h36M450 574h54M540 574h72M630 574h54M990 574h36M126 575h36M450 575h54M540 575h72M630 575h54M990 575h36M126 576h36M450 576h18M504 576h18M540 576h18M594 576h18M630 576h18M666 576h18M990 576h36M126 577h36M450 577h18M504 577h18M540 577h18M594 577h18M630 577h18M666 577h18M990 577h36M126 578h36M450 578h18M504 578h18M540 578h18M594 578h18M630 578h18M666 578h18M990 578h36M126 579h36M450 579h18M504 579h18M540 579h18M594 579h18M630 579h18M666 579h18M990 579h36M126 580h36M450 580h18M504 580h18M540 580h18M594 580h18M630 580h18M666 580h18M990 580h36M126 581h36M450 581h18M504 581h18M540 581h18M594 581h18M630 581h18M666 581h18M990 581h36M126 582h36M450 582h18M504 582h18M540 582h18M594 582h18M630 582h18M666 582h18M990 582h36M126 583h36M450 583h18M504 583h18M540 583h18M594 583h18M630 583h18M666 583h18M990 583h36M126 584h36M450 584h18M504 584h18M540 584h18M594 584h18M630 584h18M666 584h18M990 584h36M126 585h36M450 585h18M504 585h18M540 585h18M594 585h18M630 585h18M666 585h18M990 585h36M126 586h36M450 586h18M504 586h18M540 586h18M594 586h18M630 586h18M666 586h18M990 586h36M126 587h36M450 587h18M504 587h18M540 587h18M594 587h18M630 587h18M666 587h18M990 587h36M126 588h36M450 588h18M504 588h18M540 588h18M594 588h18M630 588h18M666 588h18M990 588h36M126 589h36M450 589h18M504 589h18M540 589h18M594 589h18M630 589h18M666 589h18M990 589h36M126 590h36M450 590h18M504 590h18M540 590h18M594 590h18M630 590h18M666 590h18M990 590h36M126 591h36M450 591h18M504 591h18M540 591h18M594 591h18M630 591h18M666 591h18M990 591h36M126 592h36M450 592h18M504 592h18M540 592h18M594 592h18M630 592h18M666 592h18M990 592h36M126 593h36M450 593h18M504 593h18M540 593h18M594 593h18M630 593h18M666 593h18M990 593h36M126 594h36M450 594h54M540 594h18M594 594h18M630 594h18M684 594h18M990 594h36M126 595h36M450 595h54M540 595h18M594 595h18M630 595h18M684 595h18M990 595h36M126 596h36M450 596h54M540 596h18M594 596h18M630 596h18M684 596h18M990 596h36M126 597h36M450 597h54M540 597h18M594 597h18M630 597h18M684 597h18M990 597h36M126 598h36M450 598h54M540 598h18M594 598h18M630 598h18M684 598h18M990 598h36M126 599h36M450 599h54M540 599h18M594 599h18M630 599h18M684 599h18M990 599h36M126 600h36M450 600h54M540 600h18M594 600h18M630 600h18M684 600h18M990 600h36M126 601h36M450 601h54M540 601h18M594 601h18M630 601h18M684 601h18M990 601h36M126 602h36M450 602h54M540 602h18M594 602h18M630 602h18M684 602h18M990 602h36M126 603h36M450 603h54M540 603h18M594 603h18M630 603h18M684 603h18M990 603h36M126 604h36M450 604h54M540 604h18M594 604h18M630 604h18M684 604h18M990 604h36M126 605h36M450 605h54M540 605h18M594 605h18M630 605h18M684 605h18M990 605h36M126 606h36M450 606h54M540 606h18M594 606h18M630 606h18M684 606h18M990 606h36M126 607h36M450 607h54M540 607h18M594 607h18M630 607h18M684 607h18M990 607h36M126 608h36M450 608h54M540 608h18M594 608h18M630 608h18M684 608h18M990 608h36M126 609h36M450 609h54M540 609h18M594 609h18M630 609h18M684 609h18M990 609h36M126 610h36M450 610h54M540 610h18M594 610h18M630 610h18M684 610h18M990 610h36M126 611h36M450 611h54M540 611h18M594 611h18M630 611h18M684 611h18M990 611h36M126 612h36M990 612h36M126 613h36M990 613h36M126 614h36M990 614h36M126 615h36M990 615h36M126 616h36M990 616h36M126 617h36M990 617h36M126 618h36M990 618h36M126 619h36M990 619h36M126 620h36M990 620h36M126 621h36M990 621h36M126 622h36M990 622h36M126 623h36M990 623h36M126 624h36M990 624h36M126 625h36M990 625h36M126 626h36M990 626h36M126 627h36M990 627h36M126 628h36M990 628h36M126 629h36M990 629h36M126 630h36M990 630h36M126 631h36M990 631h36M126 632h36M990 632h36M126 633h36M990 633h36M126 634h36M990 634h36M126 635h36M990 635h36M126 636h36M990 636h36M126 637h36M990 637h36M126 638h36M990 638h36M126 639h36M990 639h36M126 640h36M990 640h36M126 641h36M990 641h36M126 642h36M990 642h36M126 643h36M990 643h36M126 644h36M990 644h36M126 645h36M990 645h36M126 646h36M990 646h36M126 647h36M990 647h36M126 648h900M126 649h900M126 650h900M126 651h900M126 652h900M126 653h900M126 654h900M126 655h900M126 656h900M126 657h900M126 658h900M126 659h900M126 660h900M126 661h900M126 662h900M126 663h900M126 664h900M126 665h900M144 666h864M144 667h864M144 668h864M144 669h864M144 670h864M144 671h864M144 672h864M144 673h864M144 674h864M144 675h864M144 676h864M144 677h864M144 678h864M144 679h864M144 680h864M144 681h864M144 682h864M144 683h864M144 720h864M144 721h864M144 722h864M144 723h864M144 724h864M144 725h864M144 726h864M144 727h864M144 728h864M144 729h864M144 730h864M144 731h864M144 732h864M144 733h864M144 734h864M144 735h864M144 736h864M144 737h864M126 738h900M126 739h900M126 740h900M126 741h900M126 742h900M126 743h900M126 744h900M126 745h900M126 746h900M126 747h900M126 748h900M126 749h900M126 750h900M126 751h900M126 752h900M126 753h900M126 754h900M126 755h900M126 756h36M990 756h36M126 757h36M990 757h36M126 758h36M990 758h36M126 759h36M990 759h36M126 760h36M990 760h36M126 761h36M990 761h36M126 762h36M990 762h36M126 763h36M990 763h36M126 764h36M990 764h36M126 765h36M990 765h36M126 766h36M990 766h36M126 767h36M990 767h36M126 768h36M990 768h36M126 769h36M990 769h36M126 770h36M990 770h36M126 771h36M990 771h36M126 772h36M990 772h36M126 773h36M990 773h36M126 774h36M450 774h54M558 774h36M630 774h54M990 774h36M126 775h36M450 775h54M558 775h36M630 775h54M990 775h36M126 776h36M450 776h54M558 776h36M630 776h54M990 776h36M126 777h36M450 777h54M558 777h36M630 777h54M990 777h36M126 778h36M450 778h54M558 778h36M630 778h54M990 778h36M126 779h36M450 779h54M558 779h36M630 779h54M990 779h36M126 780h36M450 780h54M558 780h36M630 780h54M990 780h36M126 781h36M450 781h54M558 781h36M630 781h54M990 781h36M126 782h36M450 782h54M558 782h36M630 782h54M990 782h36M126 783h36M450 783h54M558 783h36M630 783h54M990 783h36M126 784h36M450 784h54M558 784h36M630 784h54M990 784h36M126 785h36M450 785h54M558 785h36M630 785h54M990 785h36M126 786h36M450 786h54M558 786h36M630 786h54M990 786h36M126 787h36M450 787h54M558 787h36M630 787h54M990 787h36M126 788h36M450 788h54M558 788h36M630 788h54M990 788h36M126 789h36M450 789h54M558 789h36M630 789h54M990 789h36M126 790h36M450 790h54M558 790h36M630 790h54M990 790h36M126 791h36M450 791h54M558 791h36M630 791h54M990 791h36M126 792h36M450 792h18M504 792h18M540 792h18M594 792h18M630 792h18M684 792h18M990 792h36M126 793h36M450 793h18M504 793h18M540 793h18M594 793h18M630 793h18M684 793h18M990 793h36M126 794h36M450 794h18M504 794h18M540 794h18M594 794h18M630 794h18M684 794h18M990 794h36M126 795h36M450 795h18M504 795h18M540 795h18M594 795h18M630 795h18M684 795h18M990 795h36M126 796h36M450 796h18M504 796h18M540 796h18M594 796h18M630 796h18M684 796h18M990 796h36M126 797h36M450 797h18M504 797h18M540 797h18M594 797h18M630 797h18M684 797h18M990 797h36M126 798h36M450 798h18M504 798h18M540 798h18M594 798h18M630 798h18M684 798h18M990 798h36M126 799h36M450 799h18M504 799h18M540 799h18M594 799h18M630 799h18M684 799h18M990 799h36M126 800h36M450 800h18M504 800h18M540 800h18M594 800h18M630 800h18M684 800h18M990 800h36M126 801h36M450 801h18M504 801h18M540 801h18M594 801h18M630 801h18M684 801h18M990 801h36M126 802h36M450 802h18M504 802h18M540 802h18M594 802h18M630 802h18M684 802h18M990 802h36M126 803h36M450 803h18M504 803h18M540 803h18M594 803h18M630 803h18M684 803h18M990 803h36M126 804h36M450 804h18M504 804h18M540 804h18M594 804h18M630 804h18M684 804h18M990 804h36M126 805h36M450 805h18M504 805h18M540 805h18M594 805h18M630 805h18M684 805h18M990 805h36M126 806h36M450 806h18M504 806h18M540 806h18M594 806h18M630 806h18M684 806h18M990 806h36M126 807h36M450 807h18M504 807h18M540 807h18M594 807h18M630 807h18M684 807h18M990 807h36M126 808h36M450 808h18M504 808h18M540 808h18M594 808h18M630 808h18M684 808h18M990 808h36M126 809h36M450 809h18M504 809h18M540 809h18M594 809h18M630 809h18M684 809h18M990 809h36M126 810h36M450 810h54M540 810h72M630 810h54M990 810h36M126 811h36M450 811h54M540 811h72M630 811h54M990 811h36M126 812h36M450 812h54M540 812h72M630 812h54M990 812h36M126 813h36M450 813h54M540 813h72M630 813h54M990 813h36M126 814h36M450 814h54M540 814h72M630 814h54M990 814h36M126 815h36M450 815h54M540 815h72M630 815h54M990 815h36M126 816h36M450 816h54M540 816h72M630 816h54M990 816h36M126 817h36M450 817h54M540 817h72M630 817h54M990 817h36M126 818h36M450 818h54M540 818h72M630 818h54M990 818h36M126 819h36M450 819h54M540 819h72M630 819h54M990 819h36M126 820h36M450 820h54M540 820h72M630 820h54M990 820h36M126 821h36M450 821h54M540 821h72M630 821h54M990 821h36M126 822h36M450 822h54M540 822h72M630 822h54M990 822h36M126 823h36M450 823h54M540 823h72M630 823h54M990 823h36M126 824h36M450 824h54M540 824h72M630 824h54M990 824h36M126 825h36M450 825h54M540 825h72M630 825h54M990 825h36M126 826h36M450 826h54M540 826h72M630 826h54M990 826h36M126 827h36M450 827h54M540 827h72M630 827h54M990 827h36M126 828h36M450 828h18M504 828h18M540 828h18M594 828h18M630 828h18M666 828h18M990 828h36M126 829h36M450 829h18M504 829h18M540 829h18M594 829h18M630 829h18M666 829h18M990 829h36M126 830h36M450 830h18M504 830h18M540 830h18M594 830h18M630 830h18M666 830h18M990 830h36M126 831h36M450 831h18M504 831h18M540 831h18M594 831h18M630 831h18M666 831h18M990 831h36M126 832h36M450 832h18M504 832h18M540 832h18M594 832h18M630 832h18M666 832h18M990 832h36M126 833h36M450 833h18M504 833h18M540 833h18M594 833h18M630 833h18M666 833h18M990 833h36M126 834h36M450 834h18M504 834h18M540 834h18M594 834h18M630 834h18M666 834h18M990 834h36M126 835h36M450 835h18M504 835h18M540 835h18M594 835h18M630 835h18M666 835h18M990 835h36M126 836h36M450 836h18M504 836h18M540 836h18M594 836h18M630 836h18M666 836h18M990 836h36M126 837h36M450 837h18M504 837h18M540 837h18M594 837h18M630 837h18M666 837h18M990 837h36M126 838h36M450 838h18M504 838h18M540 838h18M594 838h18M630 838h18M666 838h18M990 838h36M126 839h36M450 839h18M504 839h18M540 839h18M594 839h18M630 839h18M666 839h18M990 839h36M126 840h36M450 840h18M504 840h18M540 840h18M594 840h18M630 840h18M666 840h18M990 840h36M126 841h36M450 841h18M504 841h18M540 841h18M594 841h18M630 841h18M666 841h18M990 841h36M126 842h36M450 842h18M504 842h18M540 842h18M594 842h18M630 842h18M666 842h18M990 842h36M126 843h36M450 843h18M504 843h18M540 843h18M594 843h18M630 843h18M666 843h18M990 843h36M126 844h36M450 844h18M504 844h18M540 844h18M594 844h18M630 844h18M666 844h18M990 844h36M126 845h36M450 845h18M504 845h18M540 845h18M594 845h18M630 845h18M666 845h18M990 845h36M126 846h36M450 846h54M540 846h18M594 846h18M630 846h18M684 846h18M990 846h36M126 847h36M450 847h54M540 847h18M594 847h18M630 847h18M684 847h18M990 847h36M126 848h36M450 848h54M540 848h18M594 848h18M630 848h18M684 848h18M990 848h36M126 849h36M450 849h54M540 849h18M594 849h18M630 849h18M684 849h18M990 849h36M126 850h36M450 850h54M540 850h18M594 850h18M630 850h18M684 850h18M990 850h36M126 851h36M450 851h54M540 851h18M594 851h18M630 851h18M684 851h18M990 851h36M126 852h36M450 852h54M540 852h18M594 852h18M630 852h18M684 852h18M990 852h36M126 853h36M450 853h54M540 853h18M594 853h18M630 853h18M684 853h18M990 853h36M126 854h36M450 854h54M540 854h18M594 854h18M630 854h18M684 854h18M990 854h36M126 855h36M450 855h54M540 855h18M594 855h18M630 855h18M684 855h18M990 855h36M126 856h36M450 856h54M540 856h18M594 856h18M630 856h18M684 856h18M990 856h36M126 857h36M450 857h54M540 857h18M594 857h18M630 857h18M684 857h18M990 857h36M126 858h36M450 858h54M540 858h18M594 858h18M630 858h18M684 858h18M990 858h36M126 859h36M450 859h54M540 859h18M594 859h18M630 859h18M684 859h18M990 859h36M126 860h36M450 860h54M540 860h18M594 860h18M630 860h18M684 860h18M990 860h36M126 861h36M450 861h54M540 861h18M594 861h18M630 861h18M684 861h18M990 861h36M126 862h36M450 862h54M540 862h18M594 862h18M630 862h18M684 862h18M990 862h36M126 863h36M450 863h54M540 863h18M594 863h18M630 863h18M684 863h18M990 863h36M126 864h36M990 864h36M126 865h36M990 865h36M126 866h36M990 866h36M126 867h36M990 867h36M126 868h36M990 868h36M126 869h36M990 869h36M126 870h36M990 870h36M126 871h36M990 871h36M126 872h36M990 872h36M126 873h36M990 873h36M126 874h36M990 874h36M126 875h36M990 875h36M126 876h36M990 876h36M126 877h36M990 877h36M126 878h36M990 878h36M126 879h36M990 879h36M126 880h36M990 880h36M126 881h36M990 881h36M126 882h36M990 882h36M126 883h36M990 883h36M126 884h36M990 884h36M126 885h36M990 885h36M126 886h36M990 886h36M126 887h36M990 887h36M126 888h36M990 888h36M126 889h36M990 889h36M126 890h36M990 890h36M126 891h36M990 891h36M126 892h36M990 892h36M126 893h36M990 893h36M126 894h36M990 894h36M126 895h36M990 895h36M126 896h36M990 896h36M126 897h36M990 897h36M126 898h36M990 898h36M126 899h36M990 899h36M126 900h900M126 901h900M126 902h900M126 903h900M126 904h900M126 905h900M126 906h900M126 907h900M126 908h900M126 909h900M126 910h900M126 911h900M126 912h900M126 913h900M126 914h900M126 915h900M126 916h900M126 917h900M144 918h864M144 919h864M144 920h864M144 921h864M144 922h864M144 923h864M144 924h864M144 925h864M144 926h864M144 927h864M144 928h864M144 929h864M144 930h864M144 931h864M144 932h864M144 933h864M144 934h864M144 935h864" />
<path stroke="#fdd835" d="M162 252h828M162 253h828M162 254h828M162 255h828M162 256h828M162 257h828M162 258h828M162 259h828M162 260h828M162 261h828M162 262h828M162 263h828M162 264h828M162 265h828M162 266h828M162 267h828M162 268h828M162 269h828M162 270h18M360 270h18M396 270h18M432 270h18M504 270h54M594 270h36M684 270h306M162 271h18M360 271h18M396 271h18M432 271h18M504 271h54M594 271h36M684 271h306M162 272h18M360 272h18M396 272h18M432 272h18M504 272h54M594 272h36M684 272h306M162 273h18M360 273h18M396 273h18M432 273h18M504 273h54M594 273h36M684 273h306M162 274h18M360 274h18M396 274h18M432 274h18M504 274h54M594 274h36M684 274h306M162 275h18M360 275h18M396 275h18M432 275h18M504 275h54M594 275h36M684 275h306M162 276h18M360 276h18M396 276h18M432 276h18M504 276h54M594 276h36M684 276h306M162 277h18M360 277h18M396 277h18M432 277h18M504 277h54M594 277h36M684 277h306M162 278h18M360 278h18M396 278h18M432 278h18M504 278h54M594 278h36M684 278h306M162 279h18M360 279h18M396 279h18M432 279h18M504 279h54M594 279h36M684 279h306M162 280h18M360 280h18M396 280h18M432 280h18M504 280h54M594 280h36M684 280h306M162 281h18M360 281h18M396 281h18M432 281h18M504 281h54M594 281h36M684 281h306M162 282h18M360 282h18M396 282h18M432 282h18M504 282h54M594 282h36M684 282h306M162 283h18M360 283h18M396 283h18M432 283h18M504 283h54M594 283h36M684 283h306M162 284h18M360 284h18M396 284h18M432 284h18M504 284h54M594 284h36M684 284h306M162 285h18M360 285h18M396 285h18M432 285h18M504 285h54M594 285h36M684 285h306M162 286h18M360 286h18M396 286h18M432 286h18M504 286h54M594 286h36M684 286h306M162 287h18M360 287h18M396 287h18M432 287h18M504 287h54M594 287h36M684 287h306M162 288h288M468 288h36M522 288h18M558 288h36M612 288h18M648 288h36M702 288h288M162 289h288M468 289h36M522 289h18M558 289h36M612 289h18M648 289h36M702 289h288M162 290h288M468 290h36M522 290h18M558 290h36M612 290h18M648 290h36M702 290h288M162 291h288M468 291h36M522 291h18M558 291h36M612 291h18M648 291h36M702 291h288M162 292h288M468 292h36M522 292h18M558 292h36M612 292h18M648 292h36M702 292h288M162 293h288M468 293h36M522 293h18M558 293h36M612 293h18M648 293h36M702 293h288M162 294h288M468 294h36M522 294h18M558 294h36M612 294h18M648 294h36M702 294h288M162 295h288M468 295h36M522 295h18M558 295h36M612 295h18M648 295h36M702 295h288M162 296h288M468 296h36M522 296h18M558 296h36M612 296h18M648 296h36M702 296h288M162 297h288M468 297h36M522 297h18M558 297h36M612 297h18M648 297h36M702 297h288M162 298h288M468 298h36M522 298h18M558 298h36M612 298h18M648 298h36M702 298h288M162 299h288M468 299h36M522 299h18M558 299h36M612 299h18M648 299h36M702 299h288M162 300h288M468 300h36M522 300h18M558 300h36M612 300h18M648 300h36M702 300h288M162 301h288M468 301h36M522 301h18M558 301h36M612 301h18M648 301h36M702 301h288M162 302h288M468 302h36M522 302h18M558 302h36M612 302h18M648 302h36M702 302h288M162 303h288M468 303h36M522 303h18M558 303h36M612 303h18M648 303h36M702 303h288M162 304h288M468 304h36M522 304h18M558 304h36M612 304h18M648 304h36M702 304h288M162 305h288M468 305h36M522 305h18M558 305h36M612 305h18M648 305h36M702 305h288M162 306h288M504 306h36M612 306h18M684 306h306M162 307h288M504 307h36M612 307h18M684 307h306M162 308h288M504 308h36M612 308h18M684 308h306M162 309h288M504 309h36M612 309h18M684 309h306M162 310h288M504 310h36M612 310h18M684 310h306M162 311h288M504 311h36M612 311h18M684 311h306M162 312h288M504 312h36M612 312h18M684 312h306M162 313h288M504 313h36M612 313h18M684 313h306M162 314h288M504 314h36M612 314h18M684 314h306M162 315h288M504 315h36M612 315h18M684 315h306M162 316h288M504 316h36M612 316h18M684 316h306M162 317h288M504 317h36M612 317h18M684 317h306M162 318h288M504 318h36M612 318h18M684 318h306M162 319h288M504 319h36M612 319h18M684 319h306M162 320h288M504 320h36M612 320h18M684 320h306M162 321h288M504 321h36M612 321h18M684 321h306M162 322h288M504 322h36M612 322h18M684 322h306M162 323h288M504 323h36M612 323h18M684 323h306M162 324h288M468 324h36M522 324h18M558 324h36M612 324h18M648 324h18M684 324h306M162 325h288M468 325h36M522 325h18M558 325h36M612 325h18M648 325h18M684 325h306M162 326h288M468 326h36M522 326h18M558 326h36M612 326h18M648 326h18M684 326h306M162 327h288M468 327h36M522 327h18M558 327h36M612 327h18M648 327h18M684 327h306M162 328h288M468 328h36M522 328h18M558 328h36M612 328h18M648 328h18M684 328h306M162 329h288M468 329h36M522 329h18M558 329h36M612 329h18M648 329h18M684 329h306M162 330h288M468 330h36M522 330h18M558 330h36M612 330h18M648 330h18M684 330h306M162 331h288M468 331h36M522 331h18M558 331h36M612 331h18M648 331h18M684 331h306M162 332h288M468 332h36M522 332h18M558 332h36M612 332h18M648 332h18M684 332h306M162 333h288M468 333h36M522 333h18M558 333h36M612 333h18M648 333h18M684 333h306M162 334h288M468 334h36M522 334h18M558 334h36M612 334h18M648 334h18M684 334h306M162 335h288M468 335h36M522 335h18M558 335h36M612 335h18M648 335h18M684 335h306M162 336h288M468 336h36M522 336h18M558 336h36M612 336h18M648 336h18M684 336h306M162 337h288M468 337h36M522 337h18M558 337h36M612 337h18M648 337h18M684 337h306M162 338h288M468 338h36M522 338h18M558 338h36M612 338h18M648 338h18M684 338h306M162 339h288M468 339h36M522 339h18M558 339h36M612 339h18M648 339h18M684 339h306M162 340h288M468 340h36M522 340h18M558 340h36M612 340h18M648 340h18M684 340h306M162 341h288M468 341h36M522 341h18M558 341h36M612 341h18M648 341h18M684 341h306M162 342h288M504 342h36M558 342h36M612 342h18M648 342h36M702 342h288M162 343h288M504 343h36M558 343h36M612 343h18M648 343h36M702 343h288M162 344h288M504 344h36M558 344h36M612 344h18M648 344h36M702 344h288M162 345h288M504 345h36M558 345h36M612 345h18M648 345h36M702 345h288M162 346h288M504 346h36M558 346h36M612 346h18M648 346h36M702 346h288M162 347h288M504 347h36M558 347h36M612 347h18M648 347h36M702 347h288M162 348h288M504 348h36M558 348h36M612 348h18M648 348h36M702 348h288M162 349h288M504 349h36M558 349h36M612 349h18M648 349h36M702 349h288M162 350h288M504 350h36M558 350h36M612 350h18M648 350h36M702 350h288M162 351h288M504 351h36M558 351h36M612 351h18M648 351h36M702 351h288M162 352h288M504 352h36M558 352h36M612 352h18M648 352h36M702 352h288M162 353h288M504 353h36M558 353h36M612 353h18M648 353h36M702 353h288M162 354h288M504 354h36M558 354h36M612 354h18M648 354h36M702 354h288M162 355h288M504 355h36M558 355h36M612 355h18M648 355h36M702 355h288M162 356h288M504 356h36M558 356h36M612 356h18M648 356h36M702 356h288M162 357h288M504 357h36M558 357h36M612 357h18M648 357h36M702 357h288M162 358h288M504 358h36M558 358h36M612 358h18M648 358h36M702 358h288M162 359h288M504 359h36M558 359h36M612 359h18M648 359h36M702 359h288M162 360h828M162 361h828M162 362h828M162 363h828M162 364h828M162 365h828M162 366h828M162 367h828M162 368h828M162 369h828M162 370h828M162 371h828M162 372h828M162 373h828M162 374h828M162 375h828M162 376h828M162 377h828M162 504h828M162 505h828M162 506h828M162 507h828M162 508h828M162 509h828M162 510h828M162 511h828M162 512h828M162 513h828M162 514h828M162 515h828M162 516h828M162 517h828M162 518h828M162 519h828M162 520h828M162 521h828M162 522h18M360 522h18M396 522h18M432 522h18M504 522h54M594 522h36M684 522h306M162 523h18M360 523h18M396 523h18M432 523h18M504 523h54M594 523h36M684 523h306M162 524h18M360 524h18M396 524h18M432 524h18M504 524h54M594 524h36M684 524h306M162 525h18M360 525h18M396 525h18M432 525h18M504 525h54M594 525h36M684 525h306M162 526h18M360 526h18M396 526h18M432 526h18M504 526h54M594 526h36M684 526h306M162 527h18M360 527h18M396 527h18M432 527h18M504 527h54M594 527h36M684 527h306M162 528h18M360 528h18M396 528h18M432 528h18M504 528h54M594 528h36M684 528h306M162 529h18M360 529h18M396 529h18M432 529h18M504 529h54M594 529h36M684 529h306M162 530h18M360 530h18M396 530h18M432 530h18M504 530h54M594 530h36M684 530h306M162 531h18M360 531h18M396 531h18M432 531h18M504 531h54M594 531h36M684 531h306M162 532h18M360 532h18M396 532h18M432 532h18M504 532h54M594 532h36M684 532h306M162 533h18M360 533h18M396 533h18M432 533h18M504 533h54M594 533h36M684 533h306M162 534h18M360 534h18M396 534h18M432 534h18M504 534h54M594 534h36M684 534h306M162 535h18M360 535h18M396 535h18M432 535h18M504 535h54M594 535h36M684 535h306M162 536h18M360 536h18M396 536h18M432 536h18M504 536h54M594 536h36M684 536h306M162 537h18M360 537h18M396 537h18M432 537h18M504 537h54M594 537h36M684 537h306M162 538h18M360 538h18M396 538h18M432 538h18M504 538h54M594 538h36M684 538h306M162 539h18M360 539h18M396 539h18M432 539h18M504 539h54M594 539h36M684 539h306M162 540h288M468 540h36M522 540h18M558 540h36M612 540h18M648 540h36M702 540h288M162 541h288M468 541h36M522 541h18M558 541h36M612 541h18M648 541h36M702 541h288M162 542h288M468 542h36M522 542h18M558 542h36M612 542h18M648 542h36M702 542h288M162 543h288M468 543h36M522 543h18M558 543h36M612 543h18M648 543h36M702 543h288M162 544h288M468 544h36M522 544h18M558 544h36M612 544h18M648 544h36M702 544h288M162 545h288M468 545h36M522 545h18M558 545h36M612 545h18M648 545h36M702 545h288M162 546h288M468 546h36M522 546h18M558 546h36M612 546h18M648 546h36M702 546h288M162 547h288M468 547h36M522 547h18M558 547h36M612 547h18M648 547h36M702 547h288M162 548h288M468 548h36M522 548h18M558 548h36M612 548h18M648 548h36M702 548h288M162 549h288M468 549h36M522 549h18M558 549h36M612 549h18M648 549h36M702 549h288M162 550h288M468 550h36M522 550h18M558 550h36M612 550h18M648 550h36M702 550h288M162 551h288M468 551h36M522 551h18M558 551h36M612 551h18M648 551h36M702 551h288M162 552h288M468 552h36M522 552h18M558 552h36M612 552h18M648 552h36M702 552h288M162 553h288M468 553h36M522 553h18M558 553h36M612 553h18M648 553h36M702 553h288M162 554h288M468 554h36M522 554h18M558 554h36M612 554h18M648 554h36M702 554h288M162 555h288M468 555h36M522 555h18M558 555h36M612 555h18M648 555h36M702 555h288M162 556h288M468 556h36M522 556h18M558 556h36M612 556h18M648 556h36M702 556h288M162 557h288M468 557h36M522 557h18M558 557h36M612 557h18M648 557h36M702 557h288M162 558h288M504 558h36M612 558h18M684 558h306M162 559h288M504 559h36M612 559h18M684 559h306M162 560h288M504 560h36M612 560h18M684 560h306M162 561h288M504 561h36M612 561h18M684 561h306M162 562h288M504 562h36M612 562h18M684 562h306M162 563h288M504 563h36M612 563h18M684 563h306M162 564h288M504 564h36M612 564h18M684 564h306M162 565h288M504 565h36M612 565h18M684 565h306M162 566h288M504 566h36M612 566h18M684 566h306M162 567h288M504 567h36M612 567h18M684 567h306M162 568h288M504 568h36M612 568h18M684 568h306M162 569h288M504 569h36M612 569h18M684 569h306M162 570h288M504 570h36M612 570h18M684 570h306M162 571h288M504 571h36M612 571h18M684 571h306M162 572h288M504 572h36M612 572h18M684 572h306M162 573h288M504 573h36M612 573h18M684 573h306M162 574h288M504 574h36M612 574h18M684 574h306M162 575h288M504 575h36M612 575h18M684 575h306M162 576h288M468 576h36M522 576h18M558 576h36M612 576h18M648 576h18M684 576h306M162 577h288M468 577h36M522 577h18M558 577h36M612 577h18M648 577h18M684 577h306M162 578h288M468 578h36M522 578h18M558 578h36M612 578h18M648 578h18M684 578h306M162 579h288M468 579h36M522 579h18M558 579h36M612 579h18M648 579h18M684 579h306M162 580h288M468 580h36M522 580h18M558 580h36M612 580h18M648 580h18M684 580h306M162 581h288M468 581h36M522 581h18M558 581h36M612 581h18M648 581h18M684 581h306M162 582h288M468 582h36M522 582h18M558 582h36M612 582h18M648 582h18M684 582h306M162 583h288M468 583h36M522 583h18M558 583h36M612 583h18M648 583h18M684 583h306M162 584h288M468 584h36M522 584h18M558 584h36M612 584h18M648 584h18M684 584h306M162 585h288M468 585h36M522 585h18M558 585h36M612 585h18M648 585h18M684 585h306M162 586h288M468 586h36M522 586h18M558 586h36M612 586h18M648 586h18M684 586h306M162 587h288M468 587h36M522 587h18M558 587h36M612 587h18M648 587h18M684 587h306M162 588h288M468 588h36M522 588h18M558 588h36M612 588h18M648 588h18M684 588h306M162 589h288M468 589h36M522 589h18M558 589h36M612 589h18M648 589h18M684 589h306M162 590h288M468 590h36M522 590h18M558 590h36M612 590h18M648 590h18M684 590h306M162 591h288M468 591h36M522 591h18M558 591h36M612 591h18M648 591h18M684 591h306M162 592h288M468 592h36M522 592h18M558 592h36M612 592h18M648 592h18M684 592h306M162 593h288M468 593h36M522 593h18M558 593h36M612 593h18M648 593h18M684 593h306M162 594h288M504 594h36M558 594h36M612 594h18M648 594h36M702 594h288M162 595h288M504 595h36M558 595h36M612 595h18M648 595h36M702 595h288M162 596h288M504 596h36M558 596h36M612 596h18M648 596h36M702 596h288M162 597h288M504 597h36M558 597h36M612 597h18M648 597h36M702 597h288M162 598h288M504 598h36M558 598h36M612 598h18M648 598h36M702 598h288M162 599h288M504 599h36M558 599h36M612 599h18M648 599h36M702 599h288M162 600h288M504 600h36M558 600h36M612 600h18M648 600h36M702 600h288M162 601h288M504 601h36M558 601h36M612 601h18M648 601h36M702 601h288M162 602h288M504 602h36M558 602h36M612 602h18M648 602h36M702 602h288M162 603h288M504 603h36M558 603h36M612 603h18M648 603h36M702 603h288M162 604h288M504 604h36M558 604h36M612 604h18M648 604h36M702 604h288M162 605h288M504 605h36M558 605h36M612 605h18M648 605h36M702 605h288M162 606h288M504 606h36M558 606h36M612 606h18M648 606h36M702 606h288M162 607h288M504 607h36M558 607h36M612 607h18M648 607h36M702 607h288M162 608h288M504 608h36M558 608h36M612 608h18M648 608h36M702 608h288M162 609h288M504 609h36M558 609h36M612 609h18M648 609h36M702 609h288M162 610h288M504 610h36M558 610h36M612 610h18M648 610h36M702 610h288M162 611h288M504 611h36M558 611h36M612 611h18M648 611h36M702 611h288M162 612h828M162 613h828M162 614h828M162 615h828M162 616h828M162 617h828M162 618h828M162 619h828M162 620h828M162 621h828M162 622h828M162 623h828M162 624h828M162 625h828M162 626h828M162 627h828M162 628h828M162 629h828M162 756h828M162 757h828M162 758h828M162 759h828M162 760h828M162 761h828M162 762h828M162 763h828M162 764h828M162 765h828M162 766h828M162 767h828M162 768h828M162 769h828M162 770h828M162 771h828M162 772h828M162 773h828M162 774h18M360 774h18M396 774h18M432 774h18M504 774h54M594 774h36M684 774h306M162 775h18M360 775h18M396 775h18M432 775h18M504 775h54M594 775h36M684 775h306M162 776h18M360 776h18M396 776h18M432 776h18M504 776h54M594 776h36M684 776h306M162 777h18M360 777h18M396 777h18M432 777h18M504 777h54M594 777h36M684 777h306M162 778h18M360 778h18M396 778h18M432 778h18M504 778h54M594 778h36M684 778h306M162 779h18M360 779h18M396 779h18M432 779h18M504 779h54M594 779h36M684 779h306M162 780h18M360 780h18M396 780h18M432 780h18M504 780h54M594 780h36M684 780h306M162 781h18M360 781h18M396 781h18M432 781h18M504 781h54M594 781h36M684 781h306M162 782h18M360 782h18M396 782h18M432 782h18M504 782h54M594 782h36M684 782h306M162 783h18M360 783h18M396 783h18M432 783h18M504 783h54M594 783h36M684 783h306M162 784h18M360 784h18M396 784h18M432 784h18M504 784h54M594 784h36M684 784h306M162 785h18M360 785h18M396 785h18M432 785h18M504 785h54M594 785h36M684 785h306M162 786h18M360 786h18M396 786h18M432 786h18M504 786h54M594 786h36M684 786h306M162 787h18M360 787h18M396 787h18M432 787h18M504 787h54M594 787h36M684 787h306M162 788h18M360 788h18M396 788h18M432 788h18M504 788h54M594 788h36M684 788h306M162 789h18M360 789h18M396 789h18M432 789h18M504 789h54M594 789h36M684 789h306M162 790h18M360 790h18M396 790h18M432 790h18M504 790h54M594 790h36M684 790h306M162 791h18M360 791h18M396 791h18M432 791h18M504 791h54M594 791h36M684 791h306M162 792h288M468 792h36M522 792h18M558 792h36M612 792h18M648 792h36M702 792h288M162 793h288M468 793h36M522 793h18M558 793h36M612 793h18M648 793h36M702 793h288M162 794h288M468 794h36M522 794h18M558 794h36M612 794h18M648 794h36M702 794h288M162 795h288M468 795h36M522 795h18M558 795h36M612 795h18M648 795h36M702 795h288M162 796h288M468 796h36M522 796h18M558 796h36M612 796h18M648 796h36M702 796h288M162 797h288M468 797h36M522 797h18M558 797h36M612 797h18M648 797h36M702 797h288M162 798h288M468 798h36M522 798h18M558 798h36M612 798h18M648 798h36M702 798h288M162 799h288M468 799h36M522 799h18M558 799h36M612 799h18M648 799h36M702 799h288M162 800h288M468 800h36M522 800h18M558 800h36M612 800h18M648 800h36M702 800h288M162 801h288M468 801h36M522 801h18M558 801h36M612 801h18M648 801h36M702 801h288M162 802h288M468 802h36M522 802h18M558 802h36M612 802h18M648 802h36M702 802h288M162 803h288M468 803h36M522 803h18M558 803h36M612 803h18M648 803h36M702 803h288M162 804h288M468 804h36M522 804h18M558 804h36M612 804h18M648 804h36M702 804h288M162 805h288M468 805h36M522 805h18M558 805h36M612 805h18M648 805h36M702 805h288M162 806h288M468 806h36M522 806h18M558 806h36M612 806h18M648 806h36M702 806h288M162 807h288M468 807h36M522 807h18M558 807h36M612 807h18M648 807h36M702 807h288M162 808h288M468 808h36M522 808h18M558 808h36M612 808h18M648 808h36M702 808h288M162 809h288M468 809h36M522 809h18M558 809h36M612 809h18M648 809h36M702 809h288M162 810h288M504 810h36M612 810h18M684 810h306M162 811h288M504 811h36M612 811h18M684 811h306M162 812h288M504 812h36M612 812h18M684 812h306M162 813h288M504 813h36M612 813h18M684 813h306M162 814h288M504 814h36M612 814h18M684 814h306M162 815h288M504 815h36M612 815h18M684 815h306M162 816h288M504 816h36M612 816h18M684 816h306M162 817h288M504 817h36M612 817h18M684 817h306M162 818h288M504 818h36M612 818h18M684 818h306M162 819h288M504 819h36M612 819h18M684 819h306M162 820h288M504 820h36M612 820h18M684 820h306M162 821h288M504 821h36M612 821h18M684 821h306M162 822h288M504 822h36M612 822h18M684 822h306M162 823h288M504 823h36M612 823h18M684 823h306M162 824h288M504 824h36M612 824h18M684 824h306M162 825h288M504 825h36M612 825h18M684 825h306M162 826h288M504 826h36M612 826h18M684 826h306M162 827h288M504 827h36M612 827h18M684 827h306M162 828h288M468 828h36M522 828h18M558 828h36M612 828h18M648 828h18M684 828h306M162 829h288M468 829h36M522 829h18M558 829h36M612 829h18M648 829h18M684 829h306M162 830h288M468 830h36M522 830h18M558 830h36M612 830h18M648 830h18M684 830h306M162 831h288M468 831h36M522 831h18M558 831h36M612 831h18M648 831h18M684 831h306M162 832h288M468 832h36M522 832h18M558 832h36M612 832h18M648 832h18M684 832h306M162 833h288M468 833h36M522 833h18M558 833h36M612 833h18M648 833h18M684 833h306M162 834h288M468 834h36M522 834h18M558 834h36M612 834h18M648 834h18M684 834h306M162 835h288M468 835h36M522 835h18M558 835h36M612 835h18M648 835h18M684 835h306M162 836h288M468 836h36M522 836h18M558 836h36M612 836h18M648 836h18M684 836h306M162 837h288M468 837h36M522 837h18M558 837h36M612 837h18M648 837h18M684 837h306M162 838h288M468 838h36M522 838h18M558 838h36M612 838h18M648 838h18M684 838h306M162 839h288M468 839h36M522 839h18M558 839h36M612 839h18M648 839h18M684 839h306M162 840h288M468 840h36M522 840h18M558 840h36M612 840h18M648 840h18M684 840h306M162 841h288M468 841h36M522 841h18M558 841h36M612 841h18M648 841h18M684 841h306M162 842h288M468 842h36M522 842h18M558 842h36M612 842h18M648 842h18M684 842h306M162 843h288M468 843h36M522 843h18M558 843h36M612 843h18M648 843h18M684 843h306M162 844h288M468 844h36M522 844h18M558 844h36M612 844h18M648 844h18M684 844h306M162 845h288M468 845h36M522 845h18M558 845h36M612 845h18M648 845h18M684 845h306M162 846h288M504 846h36M558 846h36M612 846h18M648 846h36M702 846h288M162 847h288M504 847h36M558 847h36M612 847h18M648 847h36M702 847h288M162 848h288M504 848h36M558 848h36M612 848h18M648 848h36M702 848h288M162 849h288M504 849h36M558 849h36M612 849h18M648 849h36M702 849h288M162 850h288M504 850h36M558 850h36M612 850h18M648 850h36M702 850h288M162 851h288M504 851h36M558 851h36M612 851h18M648 851h36M702 851h288M162 852h288M504 852h36M558 852h36M612 852h18M648 852h36M702 852h288M162 853h288M504 853h36M558 853h36M612 853h18M648 853h36M702 853h288M162 854h288M504 854h36M558 854h36M612 854h18M648 854h36M702 854h288M162 855h288M504 855h36M558 855h36M612 855h18M648 855h36M702 855h288M162 856h288M504 856h36M558 856h36M612 856h18M648 856h36M702 856h288M162 857h288M504 857h36M558 857h36M612 857h18M648 857h36M702 857h288M162 858h288M504 858h36M558 858h36M612 858h18M648 858h36M702 858h288M162 859h288M504 859h36M558 859h36M612 859h18M648 859h36M702 859h288M162 860h288M504 860h36M558 860h36M612 860h18M648 860h36M702 860h288M162 861h288M504 861h36M558 861h36M612 861h18M648 861h36M702 861h288M162 862h288M504 862h36M558 862h36M612 862h18M648 862h36M702 862h288M162 863h288M504 863h36M558 863h36M612 863h18M648 863h36M702 863h288M162 864h828M162 865h828M162 866h828M162 867h828M162 868h828M162 869h828M162 870h828M162 871h828M162 872h828M162 873h828M162 874h828M162 875h828M162 876h828M162 877h828M162 878h828M162 879h828M162 880h828M162 881h828" />
<path stroke="#ffffff" d="M180 270h180M378 270h18M414 270h18M180 271h180M378 271h18M414 271h18M180 272h180M378 272h18M414 272h18M180 273h180M378 273h18M414 273h18M180 274h180M378 274h18M414 274h18M180 275h180M378 275h18M414 275h18M180 276h180M378 276h18M414 276h18M180 277h180M378 277h18M414 277h18M180 278h180M378 278h18M414 278h18M180 279h180M378 279h18M414 279h18M180 280h180M378 280h18M414 280h18M180 281h180M378 281h18M414 281h18M180 282h180M378 282h18M414 282h18M180 283h180M378 283h18M414 283h18M180 284h180M378 284h18M414 284h18M180 285h180M378 285h18M414 285h18M180 286h180M378 286h18M414 286h18M180 287h180M378 287h18M414 287h18M180 522h180M378 522h18M414 522h18M180 523h180M378 523h18M414 523h18M180 524h180M378 524h18M414 524h18M180 525h180M378 525h18M414 525h18M180 526h180M378 526h18M414 526h18M180 527h180M378 527h18M414 527h18M180 528h180M378 528h18M414 528h18M180 529h180M378 529h18M414 529h18M180 530h180M378 530h18M414 530h18M180 531h180M378 531h18M414 531h18M180 532h180M378 532h18M414 532h18M180 533h180M378 533h18M414 533h18M180 534h180M378 534h18M414 534h18M180 535h180M378 535h18M414 535h18M180 536h180M378 536h18M414 536h18M180 537h180M378 537h18M414 537h18M180 538h180M378 538h18M414 538h18M180 539h180M378 539h18M414 539h18M180 774h180M378 774h18M414 774h18M180 775h180M378 775h18M414 775h18M180 776h180M378 776h18M414 776h18M180 777h180M378 777h18M414 777h18M180 778h180M378 778h18M414 778h18M180 779h180M378 779h18M414 779h18M180 780h180M378 780h18M414 780h18M180 781h180M378 781h18M414 781h18M180 782h180M378 782h18M414 782h18M180 783h180M378 783h18M414 783h18M180 784h180M378 784h18M414 784h18M180 785h180M378 785h18M414 785h18M180 786h180M378 786h18M414 786h18M180 787h180M378 787h18M414 787h18M180 788h180M378 788h18M414 788h18M180 789h180M378 789h18M414 789h18M180 790h180M378 790h18M414 790h18M180 791h180M378 791h18M414 791h18" />
<path stroke="#ffc107" d="M162 378h828M162 379h828M162 380h828M162 381h828M162 382h828M162 383h828M162 384h828M162 385h828M162 386h828M162 387h828M162 388h828M162 389h828M162 390h828M162 391h828M162 392h828M162 393h828M162 394h828M162 395h828M162 630h828M162 631h828M162 632h828M162 633h828M162 634h828M162 635h828M162 636h828M162 637h828M162 638h828M162 639h828M162 640h828M162 641h828M162 642h828M162 643h828M162 644h828M162 645h828M162 646h828M162 647h828M162 882h828M162 883h828M162 884h828M162 885h828M162 886h828M162 887h828M162 888h828M162 889h828M162 890h828M162 891h828M162 892h828M162 893h828M162 894h828M162 895h828M162 896h828M162 897h828M162 898h828M162 899h828" />
</svg>