<svg xmlns="http://www.w3.org/2000/svg" viewBox="0 -0.5 1170 1170" shape-rendering="crispEdges">
<metadata>Made with Pixels to Svg https://codepen.io/shshaw/pen/XbxvNj</metadata>
<path stroke="#000000" d="M414 180h108M594 180h90M414 181h108M594 181h90M414 182h108M594 182h90M414 183h108M594 183h90M414 184h108M594 184h90M414 185h108M594 185h90M414 186h108M594 186h90M414 187h108M594 187h90M414 188h108M594 188h90M414 189h108M594 189h90M414 190h108M594 190h90M414 191h108M594 191h90M414 192h108M594 192h90M414 193h108M594 193h90M414 194h108M594 194h90M414 195h108M594 195h90M414 196h108M594 196h90M414 197h108M594 197h90M414 198h18M504 198h18M558 198h36M684 198h36M414 199h18M504 199h18M558 199h36M684 199h36M414 200h18M504 200h18M558 200h36M684 200h36M414 201h18M504 201h18M558 201h36M684 201h36M414 202h18M504 202h18M558 202h36M684 202h36M414 203h18M504 203h18M558 203h36M684 203h36M414 204h18M504 204h18M558 204h36M684 204h36M414 205h18M504 205h18M558 205h36M684 205h36M414 206h18M504 206h18M558 206h36M684 206h36M414 207h18M504 207h18M558 207h36M684 207h36M414 208h18M504 208h18M558 208h36M684 208h36M414 209h18M504 209h18M558 209h36M684 209h36M414 210h18M504 210h18M558 210h36M684 210h36M414 211h18M504 211h18M558 211h36M684 211h36M414 212h18M504 212h18M558 212h36M684 212h36M414 213h18M504 213h18M558 213h36M684 213h36M414 214h18M504 214h18M558 214h36M684 214h36M414 215h18M504 215h18M558 215h36M684 215h36M432 216h18M522 216h54M720 216h36M432 217h18M522 217h54M720 217h36M432 218h18M522 218h54M720 218h36M432 219h18M522 219h54M720 219h36M432 220h18M522 220h54M720 220h36M432 221h18M522 221h54M720 221h36M432 222h18M522 222h54M720 222h36M432 223h18M522 223h54M720 223h36M432 224h18M522 224h54M720 224h36M432 225h18M522 225h54M720 225h36M432 226h18M522 226h54M720 226h36M432 227h18M522 227h54M720 227h36M432 228h18M522 228h54M720 228h36M432 229h18M522 229h54M720 229h36M432 230h18M522 230h54M720 230h36M432 231h18M522 231h54M720 231h36M432 232h18M522 232h54M720 232h36M432 233h18M522 233h54M720 233h36M432 234h36M522 234h126M738 234h54M432 235h36M522 235h126M738 235h54M432 236h36M522 236h126M738 236h54M432 237h36M522 237h126M738 237h54M432 238h36M522 238h126M738 238h54M432 239h36M522 239h126M738 239h54M432 240h36M522 240h126M738 240h54M432 241h36M522 241h126M738 241h54M432 242h36M522 242h126M738 242h54M432 243h36M522 243h126M738 243h54M432 244h36M522 244h126M738 244h54M432 245h36M522 245h126M738 245h54M432 246h36M522 246h126M738 246h54M432 247h36M522 247h126M738 247h54M432 248h36M522 248h126M738 248h54M432 249h36M522 249h126M738 249h54M432 250h36M522 250h126M738 250h54M432 251h36M522 251h126M738 251h54M450 252h18M540 252h18M630 252h36M774 252h36M450 253h18M540 253h18M630 253h36M774 253h36M450 254h18M540 254h18M630 254h36M774 254h36M450 255h18M540 255h18M630 255h36M774 255h36M450 256h18M540 256h18M630 256h36M774 256h36M450 257h18M540 257h18M630 257h36M774 257h36M450 258h18M540 258h18M630 258h36M774 258h36M450 259h18M540 259h18M630 259h36M774 259h36M450 260h18M540 260h18M630 260h36M774 260h36M450 261h18M540 261h18M630 261h36M774 261h36M450 262h18M540 262h18M630 262h36M774 262h36M450 263h18M540 263h18M630 263h36M774 263h36M450 264h18M540 264h18M630 264h36M774 264h36M450 265h18M540 265h18M630 265h36M774 265h36M450 266h18M540 266h18M630 266h36M774 266h36M450 267h18M540 267h18M630 267h36M774 267h36M450 268h18M540 268h18M630 268h36M774 268h36M450 269h18M540 269h18M630 269h36M774 269h36M468 270h18M540 270h36M666 270h36M792 270h36M468 271h18M540 271h36M666 271h36M792 271h36M468 272h18M540 272h36M666 272h36M792 272h36M468 273h18M540 273h36M666 273h36M792 273h36M468 274h18M540 274h36M666 274h36M792 274h36M468 275h18M540 275h36M666 275h36M792 275h36M468 276h18M540 276h36M666 276h36M792 276h36M468 277h18M540 277h36M666 277h36M792 277h36M468 278h18M540 278h36M666 278h36M792 278h36M468 279h18M540 279h36M666 279h36M792 279h36M468 280h18M540 280h36M666 280h36M792 280h36M468 281h18M540 281h36M666 281h36M792 281h36M468 282h18M540 282h36M666 282h36M792 282h36M468 283h18M540 283h36M666 283h36M792 283h36M468 284h18M540 284h36M666 284h36M792 284h36M468 285h18M540 285h36M666 285h36M792 285h36M468 286h18M540 286h36M666 286h36M792 286h36M468 287h18M540 287h36M666 287h36M792 287h36M486 288h18M558 288h36M684 288h36M810 288h36M486 289h18M558 289h36M684 289h36M810 289h36M486 290h18M558 290h36M684 290h36M810 290h36M486 291h18M558 291h36M684 291h36M810 291h36M486 292h18M558 292h36M684 292h36M810 292h36M486 293h18M558 293h36M684 293h36M810 293h36M486 294h18M558 294h36M684 294h36M810 294h36M486 295h18M558 295h36M684 295h36M810 295h36M486 296h18M558 296h36M684 296h36M810 296h36M486 297h18M558 297h36M684 297h36M810 297h36M486 298h18M558 298h36M684 298h36M810 298h36M486 299h18M558 299h36M684 299h36M810 299h36M486 300h18M558 300h36M684 300h36M810 300h36M486 301h18M558 301h36M684 301h36M810 301h36M486 302h18M558 302h36M684 302h36M810 302h36M486 303h18M558 303h36M684 303h36M810 303h36M486 304h18M558 304h36M684 304h36M810 304h36M486 305h18M558 305h36M684 305h36M810 305h36M468 306h18M504 306h18M576 306h18M702 306h36M828 306h126M468 307h18M504 307h18M576 307h18M702 307h36M828 307h126M468 308h18M504 308h18M576 308h18M702 308h36M828 308h126M468 309h18M504 309h18M576 309h18M702 309h36M828 309h126M468 310h18M504 310h18M576 310h18M702 310h36M828 310h126M468 311h18M504 311h18M576 311h18M702 311h36M828 311h126M468 312h18M504 312h18M576 312h18M702 312h36M828 312h126M468 313h18M504 313h18M576 313h18M702 313h36M828 313h126M468 314h18M504 314h18M576 314h18M702 314h36M828 314h126M468 315h18M504 315h18M576 315h18M702 315h36M828 315h126M468 316h18M504 316h18M576 316h18M702 316h36M828 316h126M468 317h18M504 317h18M576 317h18M702 317h36M828 317h126M468 318h18M504 318h18M576 318h18M702 318h36M828 318h126M468 319h18M504 319h18M576 319h18M702 319h36M828 319h126M468 320h18M504 320h18M576 320h18M702 320h36M828 320h126M468 321h18M504 321h18M576 321h18M702 321h36M828 321h126M468 322h18M504 322h18M576 322h18M702 322h36M828 322h126M468 323h18M504 323h18M576 323h18M702 323h36M828 323h126M468 324h18M522 324h18M594 324h18M936 324h18M468 325h18M522 325h18M594 325h18M936 325h18M468 326h18M522 326h18M594 326h18M936 326h18M468 327h18M522 327h18M594 327h18M936 327h18M468 328h18M522 328h18M594 328h18M936 328h18M468 329h18M522 329h18M594 329h18M936 329h18M468 330h18M522 330h18M594 330h18M936 330h18M468 331h18M522 331h18M594 331h18M936 331h18M468 332h18M522 332h18M594 332h18M936 332h18M468 333h18M522 333h18M594 333h18M936 333h18M468 334h18M522 334h18M594 334h18M936 334h18M468 335h18M522 335h18M594 335h18M936 335h18M468 336h18M522 336h18M594 336h18M936 336h18M468 337h18M522 337h18M594 337h18M936 337h18M468 338h18M522 338h18M594 338h18M936 338h18M468 339h18M522 339h18M594 339h18M936 339h18M468 340h18M522 340h18M594 340h18M936 340h18M468 341h18M522 341h18M594 341h18M936 341h18M468 342h18M522 342h36M594 342h36M918 342h18M468 343h18M522 343h36M594 343h36M918 343h18M468 344h18M522 344h36M594 344h36M918 344h18M468 345h18M522 345h36M594 345h36M918 345h18M468 346h18M522 346h36M594 346h36M918 346h18M468 347h18M522 347h36M594 347h36M918 347h18M468 348h18M522 348h36M594 348h36M918 348h18M468 349h18M522 349h36M594 349h36M918 349h18M468 350h18M522 350h36M594 350h36M918 350h18M468 351h18M522 351h36M594 351h36M918 351h18M468 352h18M522 352h36M594 352h36M918 352h18M468 353h18M522 353h36M594 353h36M918 353h18M468 354h18M522 354h36M594 354h36M918 354h18M468 355h18M522 355h36M594 355h36M918 355h18M468 356h18M522 356h36M594 356h36M918 356h18M468 357h18M522 357h36M594 357h36M918 357h18M468 358h18M522 358h36M594 358h36M918 358h18M468 359h18M522 359h36M594 359h36M918 359h18M450 360h18M504 360h18M558 360h18M612 360h18M918 360h18M450 361h18M504 361h18M558 361h18M612 361h18M918 361h18M450 362h18M504 362h18M558 362h18M612 362h18M918 362h18M450 363h18M504 363h18M558 363h18M612 363h18M918 363h18M450 364h18M504 364h18M558 364h18M612 364h18M918 364h18M450 365h18M504 365h18M558 365h18M612 365h18M918 365h18M450 366h18M504 366h18M558 366h18M612 366h18M918 366h18M450 367h18M504 367h18M558 367h18M612 367h18M918 367h18M450 368h18M504 368h18M558 368h18M612 368h18M918 368h18M450 369h18M504 369h18M558 369h18M612 369h18M918 369h18M450 370h18M504 370h18M558 370h18M612 370h18M918 370h18M450 371h18M504 371h18M558 371h18M612 371h18M918 371h18M450 372h18M504 372h18M558 372h18M612 372h18M918 372h18M450 373h18M504 373h18M558 373h18M612 373h18M918 373h18M450 374h18M504 374h18M558 374h18M612 374h18M918 374h18M450 375h18M504 375h18M558 375h18M612 375h18M918 375h18M450 376h18M504 376h18M558 376h18M612 376h18M918 376h18M450 377h18M504 377h18M558 377h18M612 377h18M918 377h18M450 378h18M504 378h18M558 378h18M630 378h18M900 378h18M450 379h18M504 379h18M558 379h18M630 379h18M900 379h18M450 380h18M504 380h18M558 380h18M630 380h18M900 380h18M450 381h18M504 381h18M558 381h18M630 381h18M900 381h18M450 382h18M504 382h18M558 382h18M630 382h18M900 382h18M450 383h18M504 383h18M558 383h18M630 383h18M900 383h18M450 384h18M504 384h18M558 384h18M630 384h18M900 384h18M450 385h18M504 385h18M558 385h18M630 385h18M900 385h18M450 386h18M504 386h18M558 386h18M630 386h18M900 386h18M450 387h18M504 387h18M558 387h18M630 387h18M900 387h18M450 388h18M504 388h18M558 388h18M630 388h18M900 388h18M450 389h18M504 389h18M558 389h18M630 389h18M900 389h18M450 390h18M504 390h18M558 390h18M630 390h18M900 390h18M450 391h18M504 391h18M558 391h18M630 391h18M900 391h18M450 392h18M504 392h18M558 392h18M630 392h18M900 392h18M450 393h18M504 393h18M558 393h18M630 393h18M900 393h18M450 394h18M504 394h18M558 394h18M630 394h18M900 394h18M450 395h18M504 395h18M558 395h18M630 395h18M900 395h18M432 396h18M504 396h18M576 396h18M630 396h54M864 396h54M432 397h18M504 397h18M576 397h18M630 397h54M864 397h54M432 398h18M504 398h18M576 398h18M630 398h54M864 398h54M432 399h18M504 399h18M576 399h18M630 399h54M864 399h54M432 400h18M504 400h18M576 400h18M630 400h54M864 400h54M432 401h18M504 401h18M576 401h18M630 401h54M864 401h54M432 402h18M504 402h18M576 402h18M630 402h54M864 402h54M432 403h18M504 403h18M576 403h18M630 403h54M864 403h54M432 404h18M504 404h18M576 404h18M630 404h54M864 404h54M432 405h18M504 405h18M576 405h18M630 405h54M864 405h54M432 406h18M504 406h18M576 406h18M630 406h54M864 406h54M432 407h18M504 407h18M576 407h18M630 407h54M864 407h54M432 408h18M504 408h18M576 408h18M630 408h54M864 408h54M432 409h18M504 409h18M576 409h18M630 409h54M864 409h54M432 410h18M504 410h18M576 410h18M630 410h54M864 410h54M432 411h18M504 411h18M576 411h18M630 411h54M864 411h54M432 412h18M504 412h18M576 412h18M630 412h54M864 412h54M432 413h18M504 413h18M576 413h18M630 413h54M864 413h54M432 414h18M486 414h18M576 414h18M630 414h18M684 414h180M432 415h18M486 415h18M576 415h18M630 415h18M684 415h180M432 416h18M486 416h18M576 416h18M630 416h18M684 416h180M432 417h18M486 417h18M576 417h18M630 417h18M684 417h180M432 418h18M486 418h18M576 418h18M630 418h18M684 418h180M432 419h18M486 419h18M576 419h18M630 419h18M684 419h180M432 420h18M486 420h18M576 420h18M630 420h18M684 420h180M432 421h18M486 421h18M576 421h18M630 421h18M684 421h180M432 422h18M486 422h18M576 422h18M630 422h18M684 422h180M432 423h18M486 423h18M576 423h18M630 423h18M684 423h180M432 424h18M486 424h18M576 424h18M630 424h18M684 424h180M432 425h18M486 425h18M576 425h18M630 425h18M684 425h180M432 426h18M486 426h18M576 426h18M630 426h18M684 426h180M432 427h18M486 427h18M576 427h18M630 427h18M684 427h180M432 428h18M486 428h18M576 428h18M630 428h18M684 428h180M432 429h18M486 429h18M576 429h18M630 429h18M684 429h180M432 430h18M486 430h18M576 430h18M630 430h18M684 430h180M432 431h18M486 431h18M576 431h18M630 431h18M684 431h180M432 432h18M486 432h18M576 432h36M648 432h18M432 433h18M486 433h18M576 433h36M648 433h18M432 434h18M486 434h18M576 434h36M648 434h18M432 435h18M486 435h18M576 435h36M648 435h18M432 436h18M486 436h18M576 436h36M648 436h18M432 437h18M486 437h18M576 437h36M648 437h18M432 438h18M486 438h18M576 438h36M648 438h18M432 439h18M486 439h18M576 439h36M648 439h18M432 440h18M486 440h18M576 440h36M648 440h18M432 441h18M486 441h18M576 441h36M648 441h18M432 442h18M486 442h18M576 442h36M648 442h18M432 443h18M486 443h18M576 443h36M648 443h18M432 444h18M486 444h18M576 444h36M648 444h18M432 445h18M486 445h18M576 445h36M648 445h18M432 446h18M486 446h18M576 446h36M648 446h18M432 447h18M486 447h18M576 447h36M648 447h18M432 448h18M486 448h18M576 448h36M648 448h18M432 449h18M486 449h18M576 449h36M648 449h18M432 450h18M468 450h18M594 450h18M648 450h18M432 451h18M468 451h18M594 451h18M648 451h18M432 452h18M468 452h18M594 452h18M648 452h18M432 453h18M468 453h18M594 453h18M648 453h18M432 454h18M468 454h18M594 454h18M648 454h18M432 455h18M468 455h18M594 455h18M648 455h18M432 456h18M468 456h18M594 456h18M648 456h18M432 457h18M468 457h18M594 457h18M648 457h18M432 458h18M468 458h18M594 458h18M648 458h18M432 459h18M468 459h18M594 459h18M648 459h18M432 460h18M468 460h18M594 460h18M648 460h18M432 461h18M468 461h18M594 461h18M648 461h18M432 462h18M468 462h18M594 462h18M648 462h18M432 463h18M468 463h18M594 463h18M648 463h18M432 464h18M468 464h18M594 464h18M648 464h18M432 465h18M468 465h18M594 465h18M648 465h18M432 466h18M468 466h18M594 466h18M648 466h18M432 467h18M468 467h18M594 467h18M648 467h18M414 468h18M468 468h18M594 468h18M648 468h36M414 469h18M468 469h18M594 469h18M648 469h36M414 470h18M468 470h18M594 470h18M648 470h36M414 471h18M468 471h18M594 471h18M648 471h36M414 472h18M468 472h18M594 472h18M648 472h36M414 473h18M468 473h18M594 473h18M648 473h36M414 474h18M468 474h18M594 474h18M648 474h36M414 475h18M468 475h18M594 475h18M648 475h36M414 476h18M468 476h18M594 476h18M648 476h36M414 477h18M468 477h18M594 477h18M648 477h36M414 478h18M468 478h18M594 478h18M648 478h36M414 479h18M468 479h18M594 479h18M648 479h36M414 480h18M468 480h18M594 480h18M648 480h36M414 481h18M468 481h18M594 481h18M648 481h36M414 482h18M468 482h18M594 482h18M648 482h36M414 483h18M468 483h18M594 483h18M648 483h36M414 484h18M468 484h18M594 484h18M648 484h36M414 485h18M468 485h18M594 485h18M648 485h36M396 486h18M450 486h18M594 486h36M666 486h18M396 487h18M450 487h18M594 487h36M666 487h18M396 488h18M450 488h18M594 488h36M666 488h18M396 489h18M450 489h18M594 489h36M666 489h18M396 490h18M450 490h18M594 490h36M666 490h18M396 491h18M450 491h18M594 491h36M666 491h18M396 492h18M450 492h18M594 492h36M666 492h18M396 493h18M450 493h18M594 493h36M666 493h18M396 494h18M450 494h18M594 494h36M666 494h18M396 495h18M450 495h18M594 495h36M666 495h18M396 496h18M450 496h18M594 496h36M666 496h18M396 497h18M450 497h18M594 497h36M666 497h18M396 498h18M450 498h18M594 498h36M666 498h18M396 499h18M450 499h18M594 499h36M666 499h18M396 500h18M450 500h18M594 500h36M666 500h18M396 501h18M450 501h18M594 501h36M666 501h18M396 502h18M450 502h18M594 502h36M666 502h18M396 503h18M450 503h18M594 503h36M666 503h18M396 504h18M450 504h18M612 504h18M666 504h18M396 505h18M450 505h18M612 505h18M666 505h18M396 506h18M450 506h18M612 506h18M666 506h18M396 507h18M450 507h18M612 507h18M666 507h18M396 508h18M450 508h18M612 508h18M666 508h18M396 509h18M450 509h18M612 509h18M666 509h18M396 510h18M450 510h18M612 510h18M666 510h18M396 511h18M450 511h18M612 511h18M666 511h18M396 512h18M450 512h18M612 512h18M666 512h18M396 513h18M450 513h18M612 513h18M666 513h18M396 514h18M450 514h18M612 514h18M666 514h18M396 515h18M450 515h18M612 515h18M666 515h18M396 516h18M450 516h18M612 516h18M666 516h18M396 517h18M450 517h18M612 517h18M666 517h18M396 518h18M450 518h18M612 518h18M666 518h18M396 519h18M450 519h18M612 519h18M666 519h18M396 520h18M450 520h18M612 520h18M666 520h18M396 521h18M450 521h18M612 521h18M666 521h18M378 522h18M432 522h18M612 522h18M666 522h18M378 523h18M432 523h18M612 523h18M666 523h18M378 524h18M432 524h18M612 524h18M666 524h18M378 525h18M432 525h18M612 525h18M666 525h18M378 526h18M432 526h18M612 526h18M666 526h18M378 527h18M432 527h18M612 527h18M666 527h18M378 528h18M432 528h18M612 528h18M666 528h18M378 529h18M432 529h18M612 529h18M666 529h18M378 530h18M432 530h18M612 530h18M666 530h18M378 531h18M432 531h18M612 531h18M666 531h18M378 532h18M432 532h18M612 532h18M666 532h18M378 533h18M432 533h18M612 533h18M666 533h18M378 534h18M432 534h18M612 534h18M666 534h18M378 535h18M432 535h18M612 535h18M666 535h18M378 536h18M432 536h18M612 536h18M666 536h18M378 537h18M432 537h18M612 537h18M666 537h18M378 538h18M432 538h18M612 538h18M666 538h18M378 539h18M432 539h18M612 539h18M666 539h18M360 540h18M432 540h18M594 540h36M666 540h54M360 541h18M432 541h18M594 541h36M666 541h54M360 542h18M432 542h18M594 542h36M666 542h54M360 543h18M432 543h18M594 543h36M666 543h54M360 544h18M432 544h18M594 544h36M666 544h54M360 545h18M432 545h18M594 545h36M666 545h54M360 546h18M432 546h18M594 546h36M666 546h54M360 547h18M432 547h18M594 547h36M666 547h54M360 548h18M432 548h18M594 548h36M666 548h54M360 549h18M432 549h18M594 549h36M666 549h54M360 550h18M432 550h18M594 550h36M666 550h54M360 551h18M432 551h18M594 551h36M666 551h54M360 552h18M432 552h18M594 552h36M666 552h54M360 553h18M432 553h18M594 553h36M666 553h54M360 554h18M432 554h18M594 554h36M666 554h54M360 555h18M432 555h18M594 555h36M666 555h54M360 556h18M432 556h18M594 556h36M666 556h54M360 557h18M432 557h18M594 557h36M666 557h54M360 558h18M414 558h18M558 558h54M666 558h18M702 558h54M360 559h18M414 559h18M558 559h54M666 559h18M702 559h54M360 560h18M414 560h18M558 560h54M666 560h18M702 560h54M360 561h18M414 561h18M558 561h54M666 561h18M702 561h54M360 562h18M414 562h18M558 562h54M666 562h18M702 562h54M360 563h18M414 563h18M558 563h54M666 563h18M702 563h54M360 564h18M414 564h18M558 564h54M666 564h18M702 564h54M360 565h18M414 565h18M558 565h54M666 565h18M702 565h54M360 566h18M414 566h18M558 566h54M666 566h18M702 566h54M360 567h18M414 567h18M558 567h54M666 567h18M702 567h54M360 568h18M414 568h18M558 568h54M666 568h18M702 568h54M360 569h18M414 569h18M558 569h54M666 569h18M702 569h54M360 570h18M414 570h18M558 570h54M666 570h18M702 570h54M360 571h18M414 571h18M558 571h54M666 571h18M702 571h54M360 572h18M414 572h18M558 572h54M666 572h18M702 572h54M360 573h18M414 573h18M558 573h54M666 573h18M702 573h54M360 574h18M414 574h18M558 574h54M666 574h18M702 574h54M360 575h18M414 575h18M558 575h54M666 575h18M702 575h54M342 576h18M414 576h18M540 576h36M594 576h18M666 576h18M738 576h36M342 577h18M414 577h18M540 577h36M594 577h18M666 577h18M738 577h36M342 578h18M414 578h18M540 578h36M594 578h18M666 578h18M738 578h36M342 579h18M414 579h18M540 579h36M594 579h18M666 579h18M738 579h36M342 580h18M414 580h18M540 580h36M594 580h18M666 580h18M738 580h36M342 581h18M414 581h18M540 581h36M594 581h18M666 581h18M738 581h36M342 582h18M414 582h18M540 582h36M594 582h18M666 582h18M738 582h36M342 583h18M414 583h18M540 583h36M594 583h18M666 583h18M738 583h36M342 584h18M414 584h18M540 584h36M594 584h18M666 584h18M738 584h36M342 585h18M414 585h18M540 585h36M594 585h18M666 585h18M738 585h36M342 586h18M414 586h18M540 586h36M594 586h18M666 586h18M738 586h36M342 587h18M414 587h18M540 587h36M594 587h18M666 587h18M738 587h36M342 588h18M414 588h18M540 588h36M594 588h18M666 588h18M738 588h36M342 589h18M414 589h18M540 589h36M594 589h18M666 589h18M738 589h36M342 590h18M414 590h18M540 590h36M594 590h18M666 590h18M738 590h36M342 591h18M414 591h18M540 591h36M594 591h18M666 591h18M738 591h36M342 592h18M414 592h18M540 592h36M594 592h18M666 592h18M738 592h36M342 593h18M414 593h18M540 593h36M594 593h18M666 593h18M738 593h36M324 594h18M396 594h18M522 594h36M612 594h54M756 594h36M324 595h18M396 595h18M522 595h36M612 595h54M756 595h36M324 596h18M396 596h18M522 596h36M612 596h54M756 596h36M324 597h18M396 597h18M522 597h36M612 597h54M756 597h36M324 598h18M396 598h18M522 598h36M612 598h54M756 598h36M324 599h18M396 599h18M522 599h36M612 599h54M756 599h36M324 600h18M396 600h18M522 600h36M612 600h54M756 600h36M324 601h18M396 601h18M522 601h36M612 601h54M756 601h36M324 602h18M396 602h18M522 602h36M612 602h54M756 602h36M324 603h18M396 603h18M522 603h36M612 603h54M756 603h36M324 604h18M396 604h18M522 604h36M612 604h54M756 604h36M324 605h18M396 605h18M522 605h36M612 605h54M756 605h36M324 606h18M396 606h18M522 606h36M612 606h54M756 606h36M324 607h18M396 607h18M522 607h36M612 607h54M756 607h36M324 608h18M396 608h18M522 608h36M612 608h54M756 608h36M324 609h18M396 609h18M522 609h36M612 609h54M756 609h36M324 610h18M396 610h18M522 610h36M612 610h54M756 610h36M324 611h18M396 611h18M522 611h36M612 611h54M756 611h36M306 612h36M396 612h54M504 612h36M774 612h36M306 613h36M396 613h54M504 613h36M774 613h36M306 614h36M396 614h54M504 614h36M774 614h36M306 615h36M396 615h54M504 615h36M774 615h36M306 616h36M396 616h54M504 616h36M774 616h36M306 617h36M396 617h54M504 617h36M774 617h36M306 618h36M396 618h54M504 618h36M774 618h36M306 619h36M396 619h54M504 619h36M774 619h36M306 620h36M396 620h54M504 620h36M774 620h36M306 621h36M396 621h54M504 621h36M774 621h36M306 622h36M396 622h54M504 622h36M774 622h36M306 623h36M396 623h54M504 623h36M774 623h36M306 624h36M396 624h54M504 624h36M774 624h36M306 625h36M396 625h54M504 625h36M774 625h36M306 626h36M396 626h54M504 626h36M774 626h36M306 627h36M396 627h54M504 627h36M774 627h36M306 628h36M396 628h54M504 628h36M774 628h36M306 629h36M396 629h54M504 629h36M774 629h36M288 630h36M342 630h54M432 630h90M792 630h36M288 631h36M342 631h54M432 631h90M792 631h36M288 632h36M342 632h54M432 632h90M792 632h36M288 633h36M342 633h54M432 633h90M792 633h36M288 634h36M342 634h54M432 634h90M792 634h36M288 635h36M342 635h54M432 635h90M792 635h36M288 636h36M342 636h54M432 636h90M792 636h36M288 637h36M342 637h54M432 637h90M792 637h36M288 638h36M342 638h54M432 638h90M792 638h36M288 639h36M342 639h54M432 639h90M792 639h36M288 640h36M342 640h54M432 640h90M792 640h36M288 641h36M342 641h54M432 641h90M792 641h36M288 642h36M342 642h54M432 642h90M792 642h36M288 643h36M342 643h54M432 643h90M792 643h36M288 644h36M342 644h54M432 644h90M792 644h36M288 645h36M342 645h54M432 645h90M792 645h36M288 646h36M342 646h54M432 646h90M792 646h36M288 647h36M342 647h54M432 647h90M792 647h36M270 648h36M468 648h36M810 648h18M270 649h36M468 649h36M810 649h18M270 650h36M468 650h36M810 650h18M270 651h36M468 651h36M810 651h18M270 652h36M468 652h36M810 652h18M270 653h36M468 653h36M810 653h18M270 654h36M468 654h36M810 654h18M270 655h36M468 655h36M810 655h18M270 656h36M468 656h36M810 656h18M270 657h36M468 657h36M810 657h18M270 658h36M468 658h36M810 658h18M270 659h36M468 659h36M810 659h18M270 660h36M468 660h36M810 660h18M270 661h36M468 661h36M810 661h18M270 662h36M468 662h36M810 662h18M270 663h36M468 663h36M810 663h18M270 664h36M468 664h36M810 664h18M270 665h36M468 665h36M810 665h18M252 666h36M468 666h18M810 666h36M252 667h36M468 667h18M810 667h36M252 668h36M468 668h18M810 668h36M252 669h36M468 669h18M810 669h36M252 670h36M468 670h18M810 670h36M252 671h36M468 671h18M810 671h36M252 672h36M468 672h18M810 672h36M252 673h36M468 673h18M810 673h36M252 674h36M468 674h18M810 674h36M252 675h36M468 675h18M810 675h36M252 676h36M468 676h18M810 676h36M252 677h36M468 677h18M810 677h36M252 678h36M468 678h18M810 678h36M252 679h36M468 679h18M810 679h36M252 680h36M468 680h18M810 680h36M252 681h36M468 681h18M810 681h36M252 682h36M468 682h18M810 682h36M252 683h36M468 683h18M810 683h36M234 684h36M468 684h18M828 684h18M234 685h36M468 685h18M828 685h18M234 686h36M468 686h18M828 686h18M234 687h36M468 687h18M828 687h18M234 688h36M468 688h18M828 688h18M234 689h36M468 689h18M828 689h18M234 690h36M468 690h18M828 690h18M234 691h36M468 691h18M828 691h18M234 692h36M468 692h18M828 692h18M234 693h36M468 693h18M828 693h18M234 694h36M468 694h18M828 694h18M234 695h36M468 695h18M828 695h18M234 696h36M468 696h18M828 696h18M234 697h36M468 697h18M828 697h18M234 698h36M468 698h18M828 698h18M234 699h36M468 699h18M828 699h18M234 700h36M468 700h18M828 700h18M234 701h36M468 701h18M828 701h18M216 702h36M468 702h18M828 702h18M216 703h36M468 703h18M828 703h18M216 704h36M468 704h18M828 704h18M216 705h36M468 705h18M828 705h18M216 706h36M468 706h18M828 706h18M216 707h36M468 707h18M828 707h18M216 708h36M468 708h18M828 708h18M216 709h36M468 709h18M828 709h18M216 710h36M468 710h18M828 710h18M216 711h36M468 711h18M828 711h18M216 712h36M468 712h18M828 712h18M216 713h36M468 713h18M828 713h18M216 714h36M468 714h18M828 714h18M216 715h36M468 715h18M828 715h18M216 716h36M468 716h18M828 716h18M216 717h36M468 717h18M828 717h18M216 718h36M468 718h18M828 718h18M216 719h36M468 719h18M828 719h18M216 720h18M468 720h18M828 720h18M216 721h18M468 721h18M828 721h18M216 722h18M468 722h18M828 722h18M216 723h18M468 723h18M828 723h18M216 724h18M468 724h18M828 724h18M216 725h18M468 725h18M828 725h18M216 726h18M468 726h18M828 726h18M216 727h18M468 727h18M828 727h18M216 728h18M468 728h18M828 728h18M216 729h18M468 729h18M828 729h18M216 730h18M468 730h18M828 730h18M216 731h18M468 731h18M828 731h18M216 732h18M468 732h18M828 732h18M216 733h18M468 733h18M828 733h18M216 734h18M468 734h18M828 734h18M216 735h18M468 735h18M828 735h18M216 736h18M468 736h18M828 736h18M216 737h18M468 737h18M828 737h18M198 738h36M468 738h18M828 738h18M198 739h36M468 739h18M828 739h18M198 740h36M468 740h18M828 740h18M198 741h36M468 741h18M828 741h18M198 742h36M468 742h18M828 742h18M198 743h36M468 743h18M828 743h18M198 744h36M468 744h18M828 744h18M198 745h36M468 745h18M828 745h18M198 746h36M468 746h18M828 746h18M198 747h36M468 747h18M828 747h18M198 748h36M468 748h18M828 748h18M198 749h36M468 749h18M828 749h18M198 750h36M468 750h18M828 750h18M198 751h36M468 751h18M828 751h18M198 752h36M468 752h18M828 752h18M198 753h36M468 753h18M828 753h18M198 754h36M468 754h18M828 754h18M198 755h36M468 755h18M828 755h18M198 756h18M468 756h18M828 756h18M198 757h18M468 757h18M828 757h18M198 758h18M468 758h18M828 758h18M198 759h18M468 759h18M828 759h18M198 760h18M468 760h18M828 760h18M198 761h18M468 761h18M828 761h18M198 762h18M468 762h18M828 762h18M198 763h18M468 763h18M828 763h18M198 764h18M468 764h18M828 764h18M198 765h18M468 765h18M828 765h18M198 766h18M468 766h18M828 766h18M198 767h18M468 767h18M828 767h18M198 768h18M468 768h18M828 768h18M198 769h18M468 769h18M828 769h18M198 770h18M468 770h18M828 770h18M198 771h18M468 771h18M828 771h18M198 772h18M468 772h18M828 772h18M198 773h18M468 773h18M828 773h18M198 774h18M468 774h36M810 774h36M198 775h18M468 775h36M810 775h36M198 776h18M468 776h36M810 776h36M198 777h18M468 777h36M810 777h36M198 778h18M468 778h36M810 778h36M198 779h18M468 779h36M810 779h36M198 780h18M468 780h36M810 780h36M198 781h18M468 781h36M810 781h36M198 782h18M468 782h36M810 782h36M198 783h18M468 783h36M810 783h36M198 784h18M468 784h36M810 784h36M198 785h18M468 785h36M810 785h36M198 786h18M468 786h36M810 786h36M198 787h18M468 787h36M810 787h36M198 788h18M468 788h36M810 788h36M198 789h18M468 789h36M810 789h36M198 790h18M468 790h36M810 790h36M198 791h18M468 791h36M810 791h36M198 792h18M486 792h18M810 792h18M198 793h18M486 793h18M810 793h18M198 794h18M486 794h18M810 794h18M198 795h18M486 795h18M810 795h18M198 796h18M486 796h18M810 796h18M198 797h18M486 797h18M810 797h18M198 798h18M486 798h18M810 798h18M198 799h18M486 799h18M810 799h18M198 800h18M486 800h18M810 800h18M198 801h18M486 801h18M810 801h18M198 802h18M486 802h18M810 802h18M198 803h18M486 803h18M810 803h18M198 804h18M486 804h18M810 804h18M198 805h18M486 805h18M810 805h18M198 806h18M486 806h18M810 806h18M198 807h18M486 807h18M810 807h18M198 808h18M486 808h18M810 808h18M198 809h18M486 809h18M810 809h18M198 810h18M486 810h36M792 810h36M198 811h18M486 811h36M792 811h36M198 812h18M486 812h36M792 812h36M198 813h18M486 813h36M792 813h36M198 814h18M486 814h36M792 814h36M198 815h18M486 815h36M792 815h36M198 816h18M486 816h36M792 816h36M198 817h18M486 817h36M792 817h36M198 818h18M486 818h36M792 818h36M198 819h18M486 819h36M792 819h36M198 820h18M486 820h36M792 820h36M198 821h18M486 821h36M792 821h36M198 822h18M486 822h36M792 822h36M198 823h18M486 823h36M792 823h36M198 824h18M486 824h36M792 824h36M198 825h18M486 825h36M792 825h36M198 826h18M486 826h36M792 826h36M198 827h18M486 827h36M792 827h36M198 828h18M504 828h36M774 828h36M198 829h18M504 829h36M774 829h36M198 830h18M504 830h36M774 830h36M198 831h18M504 831h36M774 831h36M198 832h18M504 832h36M774 832h36M198 833h18M504 833h36M774 833h36M198 834h18M504 834h36M774 834h36M198 835h18M504 835h36M774 835h36M198 836h18M504 836h36M774 836h36M198 837h18M504 837h36M774 837h36M198 838h18M504 838h36M774 838h36M198 839h18M504 839h36M774 839h36M198 840h18M504 840h36M774 840h36M198 841h18M504 841h36M774 841h36M198 842h18M504 842h36M774 842h36M198 843h18M504 843h36M774 843h36M198 844h18M504 844h36M774 844h36M198 845h18M504 845h36M774 845h36M198 846h36M522 846h36M756 846h36M198 847h36M522 847h36M756 847h36M198 848h36M522 848h36M756 848h36M198 849h36M522 849h36M756 849h36M198 850h36M522 850h36M756 850h36M198 851h36M522 851h36M756 851h36M198 852h36M522 852h36M756 852h36M198 853h36M522 853h36M756 853h36M198 854h36M522 854h36M756 854h36M198 855h36M522 855h36M756 855h36M198 856h36M522 856h36M756 856h36M198 857h36M522 857h36M756 857h36M198 858h36M522 858h36M756 858h36M198 859h36M522 859h36M756 859h36M198 860h36M522 860h36M756 860h36M198 861h36M522 861h36M756 861h36M198 862h36M522 862h36M756 862h36M198 863h36M522 863h36M756 863h36M216 864h18M540 864h36M738 864h36M216 865h18M540 865h36M738 865h36M216 866h18M540 866h36M738 866h36M216 867h18M540 867h36M738 867h36M216 868h18M540 868h36M738 868h36M216 869h18M540 869h36M738 869h36M216 870h18M540 870h36M738 870h36M216 871h18M540 871h36M738 871h36M216 872h18M540 872h36M738 872h36M216 873h18M540 873h36M738 873h36M216 874h18M540 874h36M738 874h36M216 875h18M540 875h36M738 875h36M216 876h18M540 876h36M738 876h36M216 877h18M540 877h36M738 877h36M216 878h18M540 878h36M738 878h36M216 879h18M540 879h36M738 879h36M216 880h18M540 880h36M738 880h36M216 881h18M540 881h36M738 881h36M216 882h36M522 882h90M702 882h54M216 883h36M522 883h90M702 883h54M216 884h36M522 884h90M702 884h54M216 885h36M522 885h90M702 885h54M216 886h36M522 886h90M702 886h54M216 887h36M522 887h90M702 887h54M216 888h36M522 888h90M702 888h54M216 889h36M522 889h90M702 889h54M216 890h36M522 890h90M702 890h54M216 891h36M522 891h90M702 891h54M216 892h36M522 892h90M702 892h54M216 893h36M522 893h90M702 893h54M216 894h36M522 894h90M702 894h54M216 895h36M522 895h90M702 895h54M216 896h36M522 896h90M702 896h54M216 897h36M522 897h90M702 897h54M216 898h36M522 898h90M702 898h54M216 899h36M522 899h90M702 899h54M234 900h36M504 900h36M594 900h126M234 901h36M504 901h36M594 901h126M234 902h36M504 902h36M594 902h126M234 903h36M504 903h36M594 903h126M234 904h36M504 904h36M594 904h126M234 905h36M504 905h36M594 905h126M234 906h36M504 906h36M594 906h126M234 907h36M504 907h36M594 907h126M234 908h36M504 908h36M594 908h126M234 909h36M504 909h36M594 909h126M234 910h36M504 910h36M594 910h126M234 911h36M504 911h36M594 911h126M234 912h36M504 912h36M594 912h126M234 913h36M504 913h36M594 913h126M234 914h36M504 914h36M594 914h126M234 915h36M504 915h36M594 915h126M234 916h36M504 916h36M594 916h126M234 917h36M504 917h36M594 917h126M252 918h36M486 918h36M252 919h36M486 919h36M252 920h36M486 920h36M252 921h36M486 921h36M252 922h36M486 922h36M252 923h36M486 923h36M252 924h36M486 924h36M252 925h36M486 925h36M252 926h36M486 926h36M252 927h36M486 927h36M252 928h36M486 928h36M252 929h36M486 929h36M252 930h36M486 930h36M252 931h36M486 931h36M252 932h36M486 932h36M252 933h36M486 933h36M252 934h36M486 934h36M252 935h36M486 935h36M270 936h36M468 936h36M270 937h36M468 937h36M270 938h36M468 938h36M270 939h36M468 939h36M270 940h36M468 940h36M270 941h36M468 941h36M270 942h36M468 942h36M270 943h36M468 943h36M270 944h36M468 944h36M270 945h36M468 945h36M270 946h36M468 946h36M270 947h36M468 947h36M270 948h36M468 948h36M270 949h36M468 949h36M270 950h36M468 950h36M270 951h36M468 951h36M270 952h36M468 952h36M270 953h36M468 953h36M288 954h54M432 954h54M288 955h54M432 955h54M288 956h54M432 956h54M288 957h54M432 957h54M288 958h54M432 958h54M288 959h54M432 959h54M288 960h54M432 960h54M288 961h54M432 961h54M288 962h54M432 962h54M288 963h54M432 963h54M288 964h54M432 964h54M288 965h54M432 965h54M288 966h54M432 966h54M288 967h54M432 967h54M288 968h54M432 968h54M288 969h54M432 969h54M288 970h54M432 970h54M288 971h54M432 971h54M324 972h126M324 973h126M324 974h126M324 975h126M324 976h126M324 977h126M324 978h126M324 979h126M324 980h126M324 981h126M324 982h126M324 983h126M324 984h126M324 985h126M324 986h126M324 987h126M324 988h126M324 989h126" />
<path stroke="#5d4037" d="M432 198h72M432 199h72M432 200h72M432 201h72M432 202h72M432 203h72M432 204h72M432 205h72M432 206h72M432 207h72M432 208h72M432 209h72M432 210h72M432 211h72M432 212h72M432 213h72M432 214h72M432 215h72M450 216h72M450 217h72M450 218h72M450 219h72M450 220h72M450 221h72M450 222h72M450 223h72M450 224h72M450 225h72M450 226h72M450 227h72M450 228h72M450 229h72M450 230h72M450 231h72M450 232h72M450 233h72M468 234h54M468 235h54M468 236h54M468 237h54M468 238h54M468 239h54M468 240h54M468 241h54M468 242h54M468 243h54M468 244h54M468 245h54M468 246h54M468 247h54M468 248h54M468 249h54M468 250h54M468 251h54M468 252h72M468 253h72M468 254h72M468 255h72M468 256h72M468 257h72M468 258h72M468 259h72M468 260h72M468 261h72M468 262h72M468 263h72M468 264h72M468 265h72M468 266h72M468 267h72M468 268h72M468 269h72M486 270h54M486 271h54M486 272h54M486 273h54M486 274h54M486 275h54M486 276h54M486 277h54M486 278h54M486 279h54M486 280h54M486 281h54M486 282h54M486 283h54M486 284h54M486 285h54M486 286h54M486 287h54M504 288h54M504 289h54M504 290h54M504 291h54M504 292h54M504 293h54M504 294h54M504 295h54M504 296h54M504 297h54M504 298h54M504 299h54M504 300h54M504 301h54M504 302h54M504 303h54M504 304h54M504 305h54M522 306h54M522 307h54M522 308h54M522 309h54M522 310h54M522 311h54M522 312h54M522 313h54M522 314h54M522 315h54M522 316h54M522 317h54M522 318h54M522 319h54M522 320h54M522 321h54M522 322h54M522 323h54M540 324h54M540 325h54M540 326h54M540 327h54M540 328h54M540 329h54M540 330h54M540 331h54M540 332h54M540 333h54M540 334h54M540 335h54M540 336h54M540 337h54M540 338h54M540 339h54M540 340h54M540 341h54M558 342h36M558 343h36M558 344h36M558 345h36M558 346h36M558 347h36M558 348h36M558 349h36M558 350h36M558 351h36M558 352h36M558 353h36M558 354h36M558 355h36M558 356h36M558 357h36M558 358h36M558 359h36M576 360h36M576 361h36M576 362h36M576 363h36M576 364h36M576 365h36M576 366h36M576 367h36M576 368h36M576 369h36M576 370h36M576 371h36M576 372h36M576 373h36M576 374h36M576 375h36M576 376h36M576 377h36M576 378h54M576 379h54M576 380h54M576 381h54M576 382h54M576 383h54M576 384h54M576 385h54M576 386h54M576 387h54M576 388h54M576 389h54M576 390h54M576 391h54M576 392h54M576 393h54M576 394h54M576 395h54M594 396h36M594 397h36M594 398h36M594 399h36M594 400h36M594 401h36M594 402h36M594 403h36M594 404h36M594 405h36M594 406h36M594 407h36M594 408h36M594 409h36M594 410h36M594 411h36M594 412h36M594 413h36M594 414h36M594 415h36M594 416h36M594 417h36M594 418h36M594 419h36M594 420h36M594 421h36M594 422h36M594 423h36M594 424h36M594 425h36M594 426h36M594 427h36M594 428h36M594 429h36M594 430h36M594 431h36M612 432h36M612 433h36M612 434h36M612 435h36M612 436h36M612 437h36M612 438h36M612 439h36M612 440h36M612 441h36M612 442h36M612 443h36M612 444h36M612 445h36M612 446h36M612 447h36M612 448h36M612 449h36M612 450h36M612 451h36M612 452h36M612 453h36M612 454h36M612 455h36M612 456h36M612 457h36M612 458h36M612 459h36M612 460h36M612 461h36M612 462h36M612 463h36M612 464h36M612 465h36M612 466h36M612 467h36M612 468h36M612 469h36M612 470h36M612 471h36M612 472h36M612 473h36M612 474h36M612 475h36M612 476h36M612 477h36M612 478h36M612 479h36M612 480h36M612 481h36M612 482h36M612 483h36M612 484h36M612 485h36M630 486h36M630 487h36M630 488h36M630 489h36M630 490h36M630 491h36M630 492h36M630 493h36M630 494h36M630 495h36M630 496h36M630 497h36M630 498h36M630 499h36M630 500h36M630 501h36M630 502h36M630 503h36M630 504h36M630 505h36M630 506h36M630 507h36M630 508h36M630 509h36M630 510h36M630 511h36M630 512h36M630 513h36M630 514h36M630 515h36M630 516h36M630 517h36M630 518h36M630 519h36M630 520h36M630 521h36M630 522h36M630 523h36M630 524h36M630 525h36M630 526h36M630 527h36M630 528h36M630 529h36M630 530h36M630 531h36M630 532h36M630 533h36M630 534h36M630 535h36M630 536h36M630 537h36M630 538h36M630 539h36M630 540h36M630 541h36M630 542h36M630 543h36M630 544h36M630 545h36M630 546h36M630 547h36M630 548h36M630 549h36M630 550h36M630 551h36M630 552h36M630 553h36M630 554h36M630 555h36M630 556h36M630 557h36M612 558h54M612 559h54M612 560h54M612 561h54M612 562h54M612 563h54M612 564h54M612 565h54M612 566h54M612 567h54M612 568h54M612 569h54M612 570h54M612 571h54M612 572h54M612 573h54M612 574h54M612 575h54M612 576h54M612 577h54M612 578h54M612 579h54M612 580h54M612 581h54M612 582h54M612 583h54M612 584h54M612 585h54M612 586h54M612 587h54M612 588h54M612 589h54M612 590h54M612 591h54M612 592h54M612 593h54" />
<path stroke="#43a047" d="M594 198h90M594 199h90M594 200h90M594 201h90M594 202h90M594 203h90M594 204h90M594 205h90M594 206h90M594 207h90M594 208h90M594 209h90M594 210h90M594 211h90M594 212h90M594 213h90M594 214h90M594 215h90M684 216h36M684 217h36M684 218h36M684 219h36M684 220h36M684 221h36M684 222h36M684 223h36M684 224h36M684 225h36M684 226h36M684 227h36M684 228h36M684 229h36M684 230h36M684 231h36M684 232h36M684 233h36M702 234h36M702 235h36M702 236h36M702 237h36M702 238h36M702 239h36M702 240h36M702 241h36M702 242h36M702 243h36M702 244h36M702 245h36M702 246h36M702 247h36M702 248h36M702 249h36M702 250h36M702 251h36M738 252h36M738 253h36M738 254h36M738 255h36M738 256h36M738 257h36M738 258h36M738 259h36M738 260h36M738 261h36M738 262h36M738 263h36M738 264h36M738 265h36M738 266h36M738 267h36M738 268h36M738 269h36M774 270h18M774 271h18M774 272h18M774 273h18M774 274h18M774 275h18M774 276h18M774 277h18M774 278h18M774 279h18M774 280h18M774 281h18M774 282h18M774 283h18M774 284h18M774 285h18M774 286h18M774 287h18" />
<path stroke="#2e7d32" d="M576 216h108M576 217h108M576 218h108M576 219h108M576 220h108M576 221h108M576 222h108M576 223h108M576 224h108M576 225h108M576 226h108M576 227h108M576 228h108M576 229h108M576 230h108M576 231h108M576 232h108M576 233h108M648 234h54M648 235h54M648 236h54M648 237h54M648 238h54M648 239h54M648 240h54M648 241h54M648 242h54M648 243h54M648 244h54M648 245h54M648 246h54M648 247h54M648 248h54M648 249h54M648 250h54M648 251h54M666 252h72M666 253h72M666 254h72M666 255h72M666 256h72M666 257h72M666 258h72M666 259h72M666 260h72M666 261h72M666 262h72M666 263h72M666 264h72M666 265h72M666 266h72M666 267h72M666 268h72M666 269h72M594 270h36M702 270h72M594 271h36M702 271h72M594 272h36M702 272h72M594 273h36M702 273h72M594 274h36M702 274h72M594 275h36M702 275h72M594 276h36M702 276h72M594 277h36M702 277h72M594 278h36M702 278h72M594 279h36M702 279h72M594 280h36M702 280h72M594 281h36M702 281h72M594 282h36M702 282h72M594 283h36M702 283h72M594 284h36M702 284h72M594 285h36M702 285h72M594 286h36M702 286h72M594 287h36M702 287h72M612 288h54M720 288h90M612 289h54M720 289h90M612 290h54M720 290h90M612 291h54M720 291h90M612 292h54M720 292h90M612 293h54M720 293h90M612 294h54M720 294h90M612 295h54M720 295h90M612 296h54M720 296h90M612 297h54M720 297h90M612 298h54M720 298h90M612 299h54M720 299h90M612 300h54M720 300h90M612 301h54M720 301h90M612 302h54M720 302h90M612 303h54M720 303h90M612 304h54M720 304h90M612 305h54M720 305h90M630 306h54M738 306h90M630 307h54M738 307h90M630 308h54M738 308h90M630 309h54M738 309h90M630 310h54M738 310h90M630 311h54M738 311h90M630 312h54M738 312h90M630 313h54M738 313h90M630 314h54M738 314h90M630 315h54M738 315h90M630 316h54M738 316h90M630 317h54M738 317h90M630 318h54M738 318h90M630 319h54M738 319h90M630 320h54M738 320h90M630 321h54M738 321h90M630 322h54M738 322h90M630 323h54M738 323h90M648 324h54M738 324h198M648 325h54M738 325h198M648 326h54M738 326h198M648 327h54M738 327h198M648 328h54M738 328h198M648 329h54M738 329h198M648 330h54M738 330h198M648 331h54M738 331h198M648 332h54M738 332h198M648 333h54M738 333h198M648 334h54M738 334h198M648 335h54M738 335h198M648 336h54M738 336h198M648 337h54M738 337h198M648 338h54M738 338h198M648 339h54M738 339h198M648 340h54M738 340h198M648 341h54M738 341h198M648 342h270M648 343h270M648 344h270M648 345h270M648 346h270M648 347h270M648 348h270M648 349h270M648 350h270M648 351h270M648 352h270M648 353h270M648 354h270M648 355h270M648 356h270M648 357h270M648 358h270M648 359h270M666 360h252M666 361h252M666 362h252M666 363h252M666 364h252M666 365h252M666 366h252M666 367h252M666 368h252M666 369h252M666 370h252M666 371h252M666 372h252M666 373h252M666 374h252M666 375h252M666 376h252M666 377h252M702 378h162M702 379h162M702 380h162M702 381h162M702 382h162M702 383h162M702 384h162M702 385h162M702 386h162M702 387h162M702 388h162M702 389h162M702 390h162M702 391h162M702 392h162M702 393h162M702 394h162M702 395h162" />
<path stroke="#1b5e20" d="M558 252h72M558 253h72M558 254h72M558 255h72M558 256h72M558 257h72M558 258h72M558 259h72M558 260h72M558 261h72M558 262h72M558 263h72M558 264h72M558 265h72M558 266h72M558 267h72M558 268h72M558 269h72M576 270h18M630 270h36M576 271h18M630 271h36M576 272h18M630 272h36M576 273h18M630 273h36M576 274h18M630 274h36M576 275h18M630 275h36M576 276h18M630 276h36M576 277h18M630 277h36M576 278h18M630 278h36M576 279h18M630 279h36M576 280h18M630 280h36M576 281h18M630 281h36M576 282h18M630 282h36M576 283h18M630 283h36M576 284h18M630 284h36M576 285h18M630 285h36M576 286h18M630 286h36M576 287h18M630 287h36M594 288h18M666 288h18M594 289h18M666 289h18M594 290h18M666 290h18M594 291h18M666 291h18M594 292h18M666 292h18M594 293h18M666 293h18M594 294h18M666 294h18M594 295h18M666 295h18M594 296h18M666 296h18M594 297h18M666 297h18M594 298h18M666 298h18M594 299h18M666 299h18M594 300h18M666 300h18M594 301h18M666 301h18M594 302h18M666 302h18M594 303h18M666 303h18M594 304h18M666 304h18M594 305h18M666 305h18M594 306h36M684 306h18M594 307h36M684 307h18M594 308h36M684 308h18M594 309h36M684 309h18M594 310h36M684 310h18M594 311h36M684 311h18M594 312h36M684 312h18M594 313h36M684 313h18M594 314h36M684 314h18M594 315h36M684 315h18M594 316h36M684 316h18M594 317h36M684 317h18M594 318h36M684 318h18M594 319h36M684 319h18M594 320h36M684 320h18M594 321h36M684 321h18M594 322h36M684 322h18M594 323h36M684 323h18M612 324h36M702 324h36M612 325h36M702 325h36M612 326h36M702 326h36M612 327h36M702 327h36M612 328h36M702 328h36M612 329h36M702 329h36M612 330h36M702 330h36M612 331h36M702 331h36M612 332h36M702 332h36M612 333h36M702 333h36M612 334h36M702 334h36M612 335h36M702 335h36M612 336h36M702 336h36M612 337h36M702 337h36M612 338h36M702 338h36M612 339h36M702 339h36M612 340h36M702 340h36M612 341h36M702 341h36M630 342h18M630 343h18M630 344h18M630 345h18M630 346h18M630 347h18M630 348h18M630 349h18M630 350h18M630 351h18M630 352h18M630 353h18M630 354h18M630 355h18M630 356h18M630 357h18M630 358h18M630 359h18M630 360h36M630 361h36M630 362h36M630 363h36M630 364h36M630 365h36M630 366h36M630 367h36M630 368h36M630 369h36M630 370h36M630 371h36M630 372h36M630 373h36M630 374h36M630 375h36M630 376h36M630 377h36M648 378h54M864 378h36M648 379h54M864 379h36M648 380h54M864 380h36M648 381h54M864 381h36M648 382h54M864 382h36M648 383h54M864 383h36M648 384h54M864 384h36M648 385h54M864 385h36M648 386h54M864 386h36M648 387h54M864 387h36M648 388h54M864 388h36M648 389h54M864 389h36M648 390h54M864 390h36M648 391h54M864 391h36M648 392h54M864 392h36M648 393h54M864 393h36M648 394h54M864 394h36M648 395h54M864 395h36M684 396h180M684 397h180M684 398h180M684 399h180M684 400h180M684 401h180M684 402h180M684 403h180M684 404h180M684 405h180M684 406h180M684 407h180M684 408h180M684 409h180M684 410h180M684 411h180M684 412h180M684 413h180" />
<path stroke="#3e2723" d="M486 306h18M486 307h18M486 308h18M486 309h18M486 310h18M486 311h18M486 312h18M486 313h18M486 314h18M486 315h18M486 316h18M486 317h18M486 318h18M486 319h18M486 320h18M486 321h18M486 322h18M486 323h18M486 324h36M486 325h36M486 326h36M486 327h36M486 328h36M486 329h36M486 330h36M486 331h36M486 332h36M486 333h36M486 334h36M486 335h36M486 336h36M486 337h36M486 338h36M486 339h36M486 340h36M486 341h36M486 342h36M486 343h36M486 344h36M486 345h36M486 346h36M486 347h36M486 348h36M486 349h36M486 350h36M486 351h36M486 352h36M486 353h36M486 354h36M486 355h36M486 356h36M486 357h36M486 358h36M486 359h36M468 360h36M468 361h36M468 362h36M468 363h36M468 364h36M468 365h36M468 366h36M468 367h36M468 368h36M468 369h36M468 370h36M468 371h36M468 372h36M468 373h36M468 374h36M468 375h36M468 376h36M468 377h36M468 378h36M468 379h36M468 380h36M468 381h36M468 382h36M468 383h36M468 384h36M468 385h36M468 386h36M468 387h36M468 388h36M468 389h36M468 390h36M468 391h36M468 392h36M468 393h36M468 394h36M468 395h36M450 396h54M450 397h54M450 398h54M450 399h54M450 400h54M450 401h54M450 402h54M450 403h54M450 404h54M450 405h54M450 406h54M450 407h54M450 408h54M450 409h54M450 410h54M450 411h54M450 412h54M450 413h54M450 414h36M450 415h36M450 416h36M450 417h36M450 418h36M450 419h36M450 420h36M450 421h36M450 422h36M450 423h36M450 424h36M450 425h36M450 426h36M450 427h36M450 428h36M450 429h36M450 430h36M450 431h36M450 432h36M450 433h36M450 434h36M450 435h36M450 436h36M450 437h36M450 438h36M450 439h36M450 440h36M450 441h36M450 442h36M450 443h36M450 444h36M450 445h36M450 446h36M450 447h36M450 448h36M450 449h36M450 450h18M450 451h18M450 452h18M450 453h18M450 454h18M450 455h18M450 456h18M450 457h18M450 458h18M450 459h18M450 460h18M450 461h18M450 462h18M450 463h18M450 464h18M450 465h18M450 466h18M450 467h18M432 468h36M432 469h36M432 470h36M432 471h36M432 472h36M432 473h36M432 474h36M432 475h36M432 476h36M432 477h36M432 478h36M432 479h36M432 480h36M432 481h36M432 482h36M432 483h36M432 484h36M432 485h36M414 486h36M414 487h36M414 488h36M414 489h36M414 490h36M414 491h36M414 492h36M414 493h36M414 494h36M414 495h36M414 496h36M414 497h36M414 498h36M414 499h36M414 500h36M414 501h36M414 502h36M414 503h36M414 504h36M414 505h36M414 506h36M414 507h36M414 508h36M414 509h36M414 510h36M414 511h36M414 512h36M414 513h36M414 514h36M414 515h36M414 516h36M414 517h36M414 518h36M414 519h36M414 520h36M414 521h36M396 522h36M396 523h36M396 524h36M396 525h36M396 526h36M396 527h36M396 528h36M396 529h36M396 530h36M396 531h36M396 532h36M396 533h36M396 534h36M396 535h36M396 536h36M396 537h36M396 538h36M396 539h36M378 540h54M378 541h54M378 542h54M378 543h54M378 544h54M378 545h54M378 546h54M378 547h54M378 548h54M378 549h54M378 550h54M378 551h54M378 552h54M378 553h54M378 554h54M378 555h54M378 556h54M378 557h54M378 558h36M378 559h36M378 560h36M378 561h36M378 562h36M378 563h36M378 564h36M378 565h36M378 566h36M378 567h36M378 568h36M378 569h36M378 570h36M378 571h36M378 572h36M378 573h36M378 574h36M378 575h36M360 576h54M360 577h54M360 578h54M360 579h54M360 580h54M360 581h54M360 582h54M360 583h54M360 584h54M360 585h54M360 586h54M360 587h54M360 588h54M360 589h54M360 590h54M360 591h54M360 592h54M360 593h54M342 594h54M342 595h54M342 596h54M342 597h54M342 598h54M342 599h54M342 600h54M342 601h54M342 602h54M342 603h54M342 604h54M342 605h54M342 606h54M342 607h54M342 608h54M342 609h54M342 610h54M342 611h54M342 612h54M342 613h54M342 614h54M342 615h54M342 616h54M342 617h54M342 618h54M342 619h54M342 620h54M342 621h54M342 622h54M342 623h54M342 624h54M342 625h54M342 626h54M342 627h54M342 628h54M342 629h54" />
<path stroke="#b71c1c" d="M684 558h18M684 559h18M684 560h18M684 561h18M684 562h18M684 563h18M684 564h18M684 565h18M684 566h18M684 567h18M684 568h18M684 569h18M684 570h18M684 571h18M684 572h18M684 573h18M684 574h18M684 575h18M576 576h18M684 576h54M576 577h18M684 577h54M576 578h18M684 578h54M576 579h18M684 579h54M576 580h18M684 580h54M576 581h18M684 581h54M576 582h18M684 582h54M576 583h18M684 583h54M576 584h18M684 584h54M576 585h18M684 585h54M576 586h18M684 586h54M576 587h18M684 587h54M576 588h18M684 588h54M576 589h18M684 589h54M576 590h18M684 590h54M576 591h18M684 591h54M576 592h18M684 592h54M576 593h18M684 593h54M558 594h54M666 594h90M558 595h54M666 595h90M558 596h54M666 596h90M558 597h54M666 597h90M558 598h54M666 598h90M558 599h54M666 599h90M558 600h54M666 600h90M558 601h54M666 601h90M558 602h54M666 602h90M558 603h54M666 603h90M558 604h54M666 604h90M558 605h54M666 605h90M558 606h54M666 606h90M558 607h54M666 607h90M558 608h54M666 608h90M558 609h54M666 609h90M558 610h54M666 610h90M558 611h54M666 611h90M540 612h234M540 613h234M540 614h234M540 615h234M540 616h234M540 617h234M540 618h234M540 619h234M540 620h234M540 621h234M540 622h234M540 623h234M540 624h234M540 625h234M540 626h234M540 627h234M540 628h234M540 629h234M324 630h18M396 630h36M522 630h36M576 630h216M324 631h18M396 631h36M522 631h36M576 631h216M324 632h18M396 632h36M522 632h36M576 632h216M324 633h18M396 633h36M522 633h36M576 633h216M324 634h18M396 634h36M522 634h36M576 634h216M324 635h18M396 635h36M522 635h36M576 635h216M324 636h18M396 636h36M522 636h36M576 636h216M324 637h18M396 637h36M522 637h36M576 637h216M324 638h18M396 638h36M522 638h36M576 638h216M324 639h18M396 639h36M522 639h36M576 639h216M324 640h18M396 640h36M522 640h36M576 640h216M324 641h18M396 641h36M522 641h36M576 641h216M324 642h18M396 642h36M522 642h36M576 642h216M324 643h18M396 643h36M522 643h36M576 643h216M324 644h18M396 644h36M522 644h36M576 644h216M324 645h18M396 645h36M522 645h36M576 645h216M324 646h18M396 646h36M522 646h36M576 646h216M324 647h18M396 647h36M522 647h36M576 647h216M306 648h162M504 648h36M558 648h252M306 649h162M504 649h36M558 649h252M306 650h162M504 650h36M558 650h252M306 651h162M504 651h36M558 651h252M306 652h162M504 652h36M558 652h252M306 653h162M504 653h36M558 653h252M306 654h162M504 654h36M558 654h252M306 655h162M504 655h36M558 655h252M306 656h162M504 656h36M558 656h252M306 657h162M504 657h36M558 657h252M306 658h162M504 658h36M558 658h252M306 659h162M504 659h36M558 659h252M306 660h162M504 660h36M558 660h252M306 661h162M504 661h36M558 661h252M306 662h162M504 662h36M558 662h252M306 663h162M504 663h36M558 663h252M306 664h162M504 664h36M558 664h252M306 665h162M504 665h36M558 665h252M288 666h180M486 666h36M540 666h18M576 666h234M288 667h180M486 667h36M540 667h18M576 667h234M288 668h180M486 668h36M540 668h18M576 668h234M288 669h180M486 669h36M540 669h18M576 669h234M288 670h180M486 670h36M540 670h18M576 670h234M288 671h180M486 671h36M540 671h18M576 671h234M288 672h180M486 672h36M540 672h18M576 672h234M288 673h180M486 673h36M540 673h18M576 673h234M288 674h180M486 674h36M540 674h18M576 674h234M288 675h180M486 675h36M540 675h18M576 675h234M288 676h180M486 676h36M540 676h18M576 676h234M288 677h180M486 677h36M540 677h18M576 677h234M288 678h180M486 678h36M540 678h18M576 678h234M288 679h180M486 679h36M540 679h18M576 679h234M288 680h180M486 680h36M540 680h18M576 680h234M288 681h180M486 681h36M540 681h18M576 681h234M288 682h180M486 682h36M540 682h18M576 682h234M288 683h180M486 683h36M540 683h18M576 683h234M270 684h198M486 684h324M270 685h198M486 685h324M270 686h198M486 686h324M270 687h198M486 687h324M270 688h198M486 688h324M270 689h198M486 689h324M270 690h198M486 690h324M270 691h198M486 691h324M270 692h198M486 692h324M270 693h198M486 693h324M270 694h198M486 694h324M270 695h198M486 695h324M270 696h198M486 696h324M270 697h198M486 697h324M270 698h198M486 698h324M270 699h198M486 699h324M270 700h198M486 700h324M270 701h198M486 701h324M252 702h36M306 702h162M486 702h324M252 703h36M306 703h162M486 703h324M252 704h36M306 704h162M486 704h324M252 705h36M306 705h162M486 705h324M252 706h36M306 706h162M486 706h324M252 707h36M306 707h162M486 707h324M252 708h36M306 708h162M486 708h324M252 709h36M306 709h162M486 709h324M252 710h36M306 710h162M486 710h324M252 711h36M306 711h162M486 711h324M252 712h36M306 712h162M486 712h324M252 713h36M306 713h162M486 713h324M252 714h36M306 714h162M486 714h324M252 715h36M306 715h162M486 715h324M252 716h36M306 716h162M486 716h324M252 717h36M306 717h162M486 717h324M252 718h36M306 718h162M486 718h324M252 719h36M306 719h162M486 719h324M234 720h36M288 720h180M486 720h324M234 721h36M288 721h180M486 721h324M234 722h36M288 722h180M486 722h324M234 723h36M288 723h180M486 723h324M234 724h36M288 724h180M486 724h324M234 725h36M288 725h180M486 725h324M234 726h36M288 726h180M486 726h324M234 727h36M288 727h180M486 727h324M234 728h36M288 728h180M486 728h324M234 729h36M288 729h180M486 729h324M234 730h36M288 730h180M486 730h324M234 731h36M288 731h180M486 731h324M234 732h36M288 732h180M486 732h324M234 733h36M288 733h180M486 733h324M234 734h36M288 734h180M486 734h324M234 735h36M288 735h180M486 735h324M234 736h36M288 736h180M486 736h324M234 737h36M288 737h180M486 737h324M234 738h18M270 738h18M306 738h162M486 738h306M234 739h18M270 739h18M306 739h162M486 739h306M234 740h18M270 740h18M306 740h162M486 740h306M234 741h18M270 741h18M306 741h162M486 741h306M234 742h18M270 742h18M306 742h162M486 742h306M234 743h18M270 743h18M306 743h162M486 743h306M234 744h18M270 744h18M306 744h162M486 744h306M234 745h18M270 745h18M306 745h162M486 745h306M234 746h18M270 746h18M306 746h162M486 746h306M234 747h18M270 747h18M306 747h162M486 747h306M234 748h18M270 748h18M306 748h162M486 748h306M234 749h18M270 749h18M306 749h162M486 749h306M234 750h18M270 750h18M306 750h162M486 750h306M234 751h18M270 751h18M306 751h162M486 751h306M234 752h18M270 752h18M306 752h162M486 752h306M234 753h18M270 753h18M306 753h162M486 753h306M234 754h18M270 754h18M306 754h162M486 754h306M234 755h18M270 755h18M306 755h162M486 755h306M216 756h252M486 756h306M216 757h252M486 757h306M216 758h252M486 758h306M216 759h252M486 759h306M216 760h252M486 760h306M216 761h252M486 761h306M216 762h252M486 762h306M216 763h252M486 763h306M216 764h252M486 764h306M216 765h252M486 765h306M216 766h252M486 766h306M216 767h252M486 767h306M216 768h252M486 768h306M216 769h252M486 769h306M216 770h252M486 770h306M216 771h252M486 771h306M216 772h252M486 772h306M216 773h252M486 773h306M216 774h252M504 774h270M216 775h252M504 775h270M216 776h252M504 776h270M216 777h252M504 777h270M216 778h252M504 778h270M216 779h252M504 779h270M216 780h252M504 780h270M216 781h252M504 781h270M216 782h252M504 782h270M216 783h252M504 783h270M216 784h252M504 784h270M216 785h252M504 785h270M216 786h252M504 786h270M216 787h252M504 787h270M216 788h252M504 788h270M216 789h252M504 789h270M216 790h252M504 790h270M216 791h252M504 791h270M216 792h270M522 792h234M216 793h270M522 793h234M216 794h270M522 794h234M216 795h270M522 795h234M216 796h270M522 796h234M216 797h270M522 797h234M216 798h270M522 798h234M216 799h270M522 799h234M216 800h270M522 800h234M216 801h270M522 801h234M216 802h270M522 802h234M216 803h270M522 803h234M216 804h270M522 804h234M216 805h270M522 805h234M216 806h270M522 806h234M216 807h270M522 807h234M216 808h270M522 808h234M216 809h270M522 809h234M216 810h270M540 810h198M216 811h270M540 811h198M216 812h270M540 812h198M216 813h270M540 813h198M216 814h270M540 814h198M216 815h270M540 815h198M216 816h270M540 816h198M216 817h270M540 817h198M216 818h270M540 818h198M216 819h270M540 819h198M216 820h270M540 820h198M216 821h270M540 821h198M216 822h270M540 822h198M216 823h270M540 823h198M216 824h270M540 824h198M216 825h270M540 825h198M216 826h270M540 826h198M216 827h270M540 827h198M216 828h270M558 828h162M216 829h270M558 829h162M216 830h270M558 830h162M216 831h270M558 831h162M216 832h270M558 832h162M216 833h270M558 833h162M216 834h270M558 834h162M216 835h270M558 835h162M216 836h270M558 836h162M216 837h270M558 837h162M216 838h270M558 838h162M216 839h270M558 839h162M216 840h270M558 840h162M216 841h270M558 841h162M216 842h270M558 842h162M216 843h270M558 843h162M216 844h270M558 844h162M216 845h270M558 845h162M234 846h234M234 847h234M234 848h234M234 849h234M234 850h234M234 851h234M234 852h234M234 853h234M234 854h234M234 855h234M234 856h234M234 857h234M234 858h234M234 859h234M234 860h234M234 861h234M234 862h234M234 863h234M252 864h198M252 865h198M252 866h198M252 867h198M252 868h198M252 869h198M252 870h198M252 871h198M252 872h198M252 873h198M252 874h198M252 875h198M252 876h198M252 877h198M252 878h198M252 879h198M252 880h198M252 881h198M270 882h162M270 883h162M270 884h162M270 885h162M270 886h162M270 887h162M270 888h162M270 889h162M270 890h162M270 891h162M270 892h162M270 893h162M270 894h162M270 895h162M270 896h162M270 897h162M270 898h162M270 899h162" />
<path stroke="#ffa3b1" d="M558 630h18M558 631h18M558 632h18M558 633h18M558 634h18M558 635h18M558 636h18M558 637h18M558 638h18M558 639h18M558 640h18M558 641h18M558 642h18M558 643h18M558 644h18M558 645h18M558 646h18M558 647h18M540 648h18M540 649h18M540 650h18M540 651h18M540 652h18M540 653h18M540 654h18M540 655h18M540 656h18M540 657h18M540 658h18M540 659h18M540 660h18M540 661h18M540 662h18M540 663h18M540 664h18M540 665h18M522 666h18M558 666h18M522 667h18M558 667h18M522 668h18M558 668h18M522 669h18M558 669h18M522 670h18M558 670h18M522 671h18M558 671h18M522 672h18M558 672h18M522 673h18M558 673h18M522 674h18M558 674h18M522 675h18M558 675h18M522 676h18M558 676h18M522 677h18M558 677h18M522 678h18M558 678h18M522 679h18M558 679h18M522 680h18M558 680h18M522 681h18M558 681h18M522 682h18M558 682h18M522 683h18M558 683h18M288 702h18M288 703h18M288 704h18M288 705h18M288 706h18M288 707h18M288 708h18M288 709h18M288 710h18M288 711h18M288 712h18M288 713h18M288 714h18M288 715h18M288 716h18M288 717h18M288 718h18M288 719h18M270 720h18M270 721h18M270 722h18M270 723h18M270 724h18M270 725h18M270 726h18M270 727h18M270 728h18M270 729h18M270 730h18M270 731h18M270 732h18M270 733h18M270 734h18M270 735h18M270 736h18M270 737h18M252 738h18M288 738h18M252 739h18M288 739h18M252 740h18M288 740h18M252 741h18M288 741h18M252 742h18M288 742h18M252 743h18M288 743h18M252 744h18M288 744h18M252 745h18M288 745h18M252 746h18M288 746h18M252 747h18M288 747h18M252 748h18M288 748h18M252 749h18M288 749h18M252 750h18M288 750h18M252 751h18M288 751h18M252 752h18M288 752h18M252 753h18M288 753h18M252 754h18M288 754h18M252 755h18M288 755h18" />
<path stroke="#990030" d="M810 684h18M810 685h18M810 686h18M810 687h18M810 688h18M810 689h18M810 690h18M810 691h18M810 692h18M810 693h18M810 694h18M810 695h18M810 696h18M810 697h18M810 698h18M810 699h18M810 700h18M810 701h18M810 702h18M810 703h18M810 704h18M810 705h18M810 706h18M810 707h18M810 708h18M810 709h18M810 710h18M810 711h18M810 712h18M810 713h18M810 714h18M810 715h18M810 716h18M810 717h18M810 718h18M810 719h18M810 720h18M810 721h18M810 722h18M810 723h18M810 724h18M810 725h18M810 726h18M810 727h18M810 728h18M810 729h18M810 730h18M810 731h18M810 732h18M810 733h18M810 734h18M810 735h18M810 736h18M810 737h18M792 738h36M792 739h36M792 740h36M792 741h36M792 742h36M792 743h36M792 744h36M792 745h36M792 746h36M792 747h36M792 748h36M792 749h36M792 750h36M792 751h36M792 752h36M792 753h36M792 754h36M792 755h36M792 756h36M792 757h36M792 758h36M792 759h36M792 760h36M792 761h36M792 762h36M792 763h36M792 764h36M792 765h36M792 766h36M792 767h36M792 768h36M792 769h36M792 770h36M792 771h36M792 772h36M792 773h36M774 774h36M774 775h36M774 776h36M774 777h36M774 778h36M774 779h36M774 780h36M774 781h36M774 782h36M774 783h36M774 784h36M774 785h36M774 786h36M774 787h36M774 788h36M774 789h36M774 790h36M774 791h36M504 792h18M756 792h54M504 793h18M756 793h54M504 794h18M756 794h54M504 795h18M756 795h54M504 796h18M756 796h54M504 797h18M756 797h54M504 798h18M756 798h54M504 799h18M756 799h54M504 800h18M756 800h54M504 801h18M756 801h54M504 802h18M756 802h54M504 803h18M756 803h54M504 804h18M756 804h54M504 805h18M756 805h54M504 806h18M756 806h54M504 807h18M756 807h54M504 808h18M756 808h54M504 809h18M756 809h54M522 810h18M738 810h54M522 811h18M738 811h54M522 812h18M738 812h54M522 813h18M738 813h54M522 814h18M738 814h54M522 815h18M738 815h54M522 816h18M738 816h54M522 817h18M738 817h54M522 818h18M738 818h54M522 819h18M738 819h54M522 820h18M738 820h54M522 821h18M738 821h54M522 822h18M738 822h54M522 823h18M738 823h54M522 824h18M738 824h54M522 825h18M738 825h54M522 826h18M738 826h54M522 827h18M738 827h54M486 828h18M540 828h18M720 828h54M486 829h18M540 829h18M720 829h54M486 830h18M540 830h18M720 830h54M486 831h18M540 831h18M720 831h54M486 832h18M540 832h18M720 832h54M486 833h18M540 833h18M720 833h54M486 834h18M540 834h18M720 834h54M486 835h18M540 835h18M720 835h54M486 836h18M540 836h18M720 836h54M486 837h18M540 837h18M720 837h54M486 838h18M540 838h18M720 838h54M486 839h18M540 839h18M720 839h54M486 840h18M540 840h18M720 840h54M486 841h18M540 841h18M720 841h54M486 842h18M540 842h18M720 842h54M486 843h18M540 843h18M720 843h54M486 844h18M540 844h18M720 844h54M486 845h18M540 845h18M720 845h54M468 846h54M558 846h198M468 847h54M558 847h198M468 848h54M558 848h198M468 849h54M558 849h198M468 850h54M558 850h198M468 851h54M558 851h198M468 852h54M558 852h198M468 853h54M558 853h198M468 854h54M558 854h198M468 855h54M558 855h198M468 856h54M558 856h198M468 857h54M558 857h198M468 858h54M558 858h198M468 859h54M558 859h198M468 860h54M558 860h198M468 861h54M558 861h198M468 862h54M558 862h198M468 863h54M558 863h198M234 864h18M450 864h90M576 864h162M234 865h18M450 865h90M576 865h162M234 866h18M450 866h90M576 866h162M234 867h18M450 867h90M576 867h162M234 868h18M450 868h90M576 868h162M234 869h18M450 869h90M576 869h162M234 870h18M450 870h90M576 870h162M234 871h18M450 871h90M576 871h162M234 872h18M450 872h90M576 872h162M234 873h18M450 873h90M576 873h162M234 874h18M450 874h90M576 874h162M234 875h18M450 875h90M576 875h162M234 876h18M450 876h90M576 876h162M234 877h18M450 877h90M576 877h162M234 878h18M450 878h90M576 878h162M234 879h18M450 879h90M576 879h162M234 880h18M450 880h90M576 880h162M234 881h18M450 881h90M576 881h162M252 882h18M432 882h90M612 882h90M252 883h18M432 883h90M612 883h90M252 884h18M432 884h90M612 884h90M252 885h18M432 885h90M612 885h90M252 886h18M432 886h90M612 886h90M252 887h18M432 887h90M612 887h90M252 888h18M432 888h90M612 888h90M252 889h18M432 889h90M612 889h90M252 890h18M432 890h90M612 890h90M252 891h18M432 891h90M612 891h90M252 892h18M432 892h90M612 892h90M252 893h18M432 893h90M612 893h90M252 894h18M432 894h90M612 894h90M252 895h18M432 895h90M612 895h90M252 896h18M432 896h90M612 896h90M252 897h18M432 897h90M612 897h90M252 898h18M432 898h90M612 898h90M252 899h18M432 899h90M612 899h90M270 900h234M270 901h234M270 902h234M270 903h234M270 904h234M270 905h234M270 906h234M270 907h234M270 908h234M270 909h234M270 910h234M270 911h234M270 912h234M270 913h234M270 914h234M270 915h234M270 916h234M270 917h234M288 918h198M288 919h198M288 920h198M288 921h198M288 922h198M288 923h198M288 924h198M288 925h198M288 926h198M288 927h198M288 928h198M288 929h198M288 930h198M288 931h198M288 932h198M288 933h198M288 934h198M288 935h198M306 936h162M306 937h162M306 938h162M306 939h162M306 940h162M306 941h162M306 942h162M306 943h162M306 944h162M306 945h162M306 946h162M306 947h162M306 948h162M306 949h162M306 950h162M306 951h162M306 952h162M306 953h162M342 954h90M342 955h90M342 956h90M342 957h90M342 958h90M342 959h90M342 960h90M342 961h90M342 962h90M342 963h90M342 964h90M342 965h90M342 966h90M342 967h90M342 968h90M342 969h90M342 970h90M342 971h90" />
</svg>