<svg xmlns="http://www.w3.org/2000/svg" viewBox="0 -0.5 1170 1170" shape-rendering="crispEdges">
<metadata>Made with Pixels to Svg https://codepen.io/shshaw/pen/XbxvNj</metadata>
<path stroke="#000000" d="M522 162h72M522 163h72M522 164h72M522 165h72M522 166h72M522 167h72M522 168h72M522 169h72M522 170h72M522 171h72M522 172h72M522 173h72M522 174h72M522 175h72M522 176h72M522 177h72M522 178h72M522 179h72M486 180h54M576 180h36M486 181h54M576 181h36M486 182h54M576 182h36M486 183h54M576 183h36M486 184h54M576 184h36M486 185h54M576 185h36M486 186h54M576 186h36M486 187h54M576 187h36M486 188h54M576 188h36M486 189h54M576 189h36M486 190h54M576 190h36M486 191h54M576 191h36M486 192h54M576 192h36M486 193h54M576 193h36M486 194h54M576 194h36M486 195h54M576 195h36M486 196h54M576 196h36M486 197h54M576 197h36M468 198h18M612 198h18M468 199h18M612 199h18M468 200h18M612 200h18M468 201h18M612 201h18M468 202h18M612 202h18M468 203h18M612 203h18M468 204h18M612 204h18M468 205h18M612 205h18M468 206h18M612 206h18M468 207h18M612 207h18M468 208h18M612 208h18M468 209h18M612 209h18M468 210h18M612 210h18M468 211h18M612 211h18M468 212h18M612 212h18M468 213h18M612 213h18M468 214h18M612 214h18M468 215h18M612 215h18M450 216h36M612 216h36M702 216h90M450 217h36M612 217h36M702 217h90M450 218h36M612 218h36M702 218h90M450 219h36M612 219h36M702 219h90M450 220h36M612 220h36M702 220h90M450 221h36M612 221h36M702 221h90M450 222h36M612 222h36M702 222h90M450 223h36M612 223h36M702 223h90M450 224h36M612 224h36M702 224h90M450 225h36M612 225h36M702 225h90M450 226h36M612 226h36M702 226h90M450 227h36M612 227h36M702 227h90M450 228h36M612 228h36M702 228h90M450 229h36M612 229h36M702 229h90M450 230h36M612 230h36M702 230h90M450 231h36M612 231h36M702 231h90M450 232h36M612 232h36M702 232h90M450 233h36M612 233h36M702 233h90M432 234h18M630 234h90M792 234h36M432 235h18M630 235h90M792 235h36M432 236h18M630 236h90M792 236h36M432 237h18M630 237h90M792 237h36M432 238h18M630 238h90M792 238h36M432 239h18M630 239h90M792 239h36M432 240h18M630 240h90M792 240h36M432 241h18M630 241h90M792 241h36M432 242h18M630 242h90M792 242h36M432 243h18M630 243h90M792 243h36M432 244h18M630 244h90M792 244h36M432 245h18M630 245h90M792 245h36M432 246h18M630 246h90M792 246h36M432 247h18M630 247h90M792 247h36M432 248h18M630 248h90M792 248h36M432 249h18M630 249h90M792 249h36M432 250h18M630 250h90M792 250h36M432 251h18M630 251h90M792 251h36M414 252h18M612 252h36M828 252h18M414 253h18M612 253h36M828 253h18M414 254h18M612 254h36M828 254h18M414 255h18M612 255h36M828 255h18M414 256h18M612 256h36M828 256h18M414 257h18M612 257h36M828 257h18M414 258h18M612 258h36M828 258h18M414 259h18M612 259h36M828 259h18M414 260h18M612 260h36M828 260h18M414 261h18M612 261h36M828 261h18M414 262h18M612 262h36M828 262h18M414 263h18M612 263h36M828 263h18M414 264h18M612 264h36M828 264h18M414 265h18M612 265h36M828 265h18M414 266h18M612 266h36M828 266h18M414 267h18M612 267h36M828 267h18M414 268h18M612 268h36M828 268h18M414 269h18M612 269h36M828 269h18M414 270h18M594 270h36M846 270h18M414 271h18M594 271h36M846 271h18M414 272h18M594 272h36M846 272h18M414 273h18M594 273h36M846 273h18M414 274h18M594 274h36M846 274h18M414 275h18M594 275h36M846 275h18M414 276h18M594 276h36M846 276h18M414 277h18M594 277h36M846 277h18M414 278h18M594 278h36M846 278h18M414 279h18M594 279h36M846 279h18M414 280h18M594 280h36M846 280h18M414 281h18M594 281h36M846 281h18M414 282h18M594 282h36M846 282h18M414 283h18M594 283h36M846 283h18M414 284h18M594 284h36M846 284h18M414 285h18M594 285h36M846 285h18M414 286h18M594 286h36M846 286h18M414 287h18M594 287h36M846 287h18M396 288h18M594 288h18M846 288h36M396 289h18M594 289h18M846 289h36M396 290h18M594 290h18M846 290h36M396 291h18M594 291h18M846 291h36M396 292h18M594 292h18M846 292h36M396 293h18M594 293h18M846 293h36M396 294h18M594 294h18M846 294h36M396 295h18M594 295h18M846 295h36M396 296h18M594 296h18M846 296h36M396 297h18M594 297h18M846 297h36M396 298h18M594 298h18M846 298h36M396 299h18M594 299h18M846 299h36M396 300h18M594 300h18M846 300h36M396 301h18M594 301h18M846 301h36M396 302h18M594 302h18M846 302h36M396 303h18M594 303h18M846 303h36M396 304h18M594 304h18M846 304h36M396 305h18M594 305h18M846 305h36M396 306h18M864 306h18M396 307h18M864 307h18M396 308h18M864 308h18M396 309h18M864 309h18M396 310h18M864 310h18M396 311h18M864 311h18M396 312h18M864 312h18M396 313h18M864 313h18M396 314h18M864 314h18M396 315h18M864 315h18M396 316h18M864 316h18M396 317h18M864 317h18M396 318h18M864 318h18M396 319h18M864 319h18M396 320h18M864 320h18M396 321h18M864 321h18M396 322h18M864 322h18M396 323h18M864 323h18M396 324h18M864 324h18M396 325h18M864 325h18M396 326h18M864 326h18M396 327h18M864 327h18M396 328h18M864 328h18M396 329h18M864 329h18M396 330h18M864 330h18M396 331h18M864 331h18M396 332h18M864 332h18M396 333h18M864 333h18M396 334h18M864 334h18M396 335h18M864 335h18M396 336h18M864 336h18M396 337h18M864 337h18M396 338h18M864 338h18M396 339h18M864 339h18M396 340h18M864 340h18M396 341h18M864 341h18M252 342h126M396 342h18M864 342h18M252 343h126M396 343h18M864 343h18M252 344h126M396 344h18M864 344h18M252 345h126M396 345h18M864 345h18M252 346h126M396 346h18M864 346h18M252 347h126M396 347h18M864 347h18M252 348h126M396 348h18M864 348h18M252 349h126M396 349h18M864 349h18M252 350h126M396 350h18M864 350h18M252 351h126M396 351h18M864 351h18M252 352h126M396 352h18M864 352h18M252 353h126M396 353h18M864 353h18M252 354h126M396 354h18M864 354h18M252 355h126M396 355h18M864 355h18M252 356h126M396 356h18M864 356h18M252 357h126M396 357h18M864 357h18M252 358h126M396 358h18M864 358h18M252 359h126M396 359h18M864 359h18M234 360h36M360 360h72M864 360h18M234 361h36M360 361h72M864 361h18M234 362h36M360 362h72M864 362h18M234 363h36M360 363h72M864 363h18M234 364h36M360 364h72M864 364h18M234 365h36M360 365h72M864 365h18M234 366h36M360 366h72M864 366h18M234 367h36M360 367h72M864 367h18M234 368h36M360 368h72M864 368h18M234 369h36M360 369h72M864 369h18M234 370h36M360 370h72M864 370h18M234 371h36M360 371h72M864 371h18M234 372h36M360 372h72M864 372h18M234 373h36M360 373h72M864 373h18M234 374h36M360 374h72M864 374h18M234 375h36M360 375h72M864 375h18M234 376h36M360 376h72M864 376h18M234 377h36M360 377h72M864 377h18M216 378h18M414 378h54M756 378h144M216 379h18M414 379h54M756 379h144M216 380h18M414 380h54M756 380h144M216 381h18M414 381h54M756 381h144M216 382h18M414 382h54M756 382h144M216 383h18M414 383h54M756 383h144M216 384h18M414 384h54M756 384h144M216 385h18M414 385h54M756 385h144M216 386h18M414 386h54M756 386h144M216 387h18M414 387h54M756 387h144M216 388h18M414 388h54M756 388h144M216 389h18M414 389h54M756 389h144M216 390h18M414 390h54M756 390h144M216 391h18M414 391h54M756 391h144M216 392h18M414 392h54M756 392h144M216 393h18M414 393h54M756 393h144M216 394h18M414 394h54M756 394h144M216 395h18M414 395h54M756 395h144M198 396h18M450 396h36M720 396h54M882 396h54M198 397h18M450 397h36M720 397h54M882 397h54M198 398h18M450 398h36M720 398h54M882 398h54M198 399h18M450 399h36M720 399h54M882 399h54M198 400h18M450 400h36M720 400h54M882 400h54M198 401h18M450 401h36M720 401h54M882 401h54M198 402h18M450 402h36M720 402h54M882 402h54M198 403h18M450 403h36M720 403h54M882 403h54M198 404h18M450 404h36M720 404h54M882 404h54M198 405h18M450 405h36M720 405h54M882 405h54M198 406h18M450 406h36M720 406h54M882 406h54M198 407h18M450 407h36M720 407h54M882 407h54M198 408h18M450 408h36M720 408h54M882 408h54M198 409h18M450 409h36M720 409h54M882 409h54M198 410h18M450 410h36M720 410h54M882 410h54M198 411h18M450 411h36M720 411h54M882 411h54M198 412h18M450 412h36M720 412h54M882 412h54M198 413h18M450 413h36M720 413h54M882 413h54M180 414h36M468 414h36M684 414h54M918 414h36M180 415h36M468 415h36M684 415h54M918 415h36M180 416h36M468 416h36M684 416h54M918 416h36M180 417h36M468 417h36M684 417h54M918 417h36M180 418h36M468 418h36M684 418h54M918 418h36M180 419h36M468 419h36M684 419h54M918 419h36M180 420h36M468 420h36M684 420h54M918 420h36M180 421h36M468 421h36M684 421h54M918 421h36M180 422h36M468 422h36M684 422h54M918 422h36M180 423h36M468 423h36M684 423h54M918 423h36M180 424h36M468 424h36M684 424h54M918 424h36M180 425h36M468 425h36M684 425h54M918 425h36M180 426h36M468 426h36M684 426h54M918 426h36M180 427h36M468 427h36M684 427h54M918 427h36M180 428h36M468 428h36M684 428h54M918 428h36M180 429h36M468 429h36M684 429h54M918 429h36M180 430h36M468 430h36M684 430h54M918 430h36M180 431h36M468 431h36M684 431h54M918 431h36M180 432h18M504 432h18M648 432h54M936 432h18M180 433h18M504 433h18M648 433h54M936 433h18M180 434h18M504 434h18M648 434h54M936 434h18M180 435h18M504 435h18M648 435h54M936 435h18M180 436h18M504 436h18M648 436h54M936 436h18M180 437h18M504 437h18M648 437h54M936 437h18M180 438h18M504 438h18M648 438h54M936 438h18M180 439h18M504 439h18M648 439h54M936 439h18M180 440h18M504 440h18M648 440h54M936 440h18M180 441h18M504 441h18M648 441h54M936 441h18M180 442h18M504 442h18M648 442h54M936 442h18M180 443h18M504 443h18M648 443h54M936 443h18M180 444h18M504 444h18M648 444h54M936 444h18M180 445h18M504 445h18M648 445h54M936 445h18M180 446h18M504 446h18M648 446h54M936 446h18M180 447h18M504 447h18M648 447h54M936 447h18M180 448h18M504 448h18M648 448h54M936 448h18M180 449h18M504 449h18M648 449h54M936 449h18M180 450h18M504 450h36M630 450h36M954 450h18M180 451h18M504 451h36M630 451h36M954 451h18M180 452h18M504 452h36M630 452h36M954 452h18M180 453h18M504 453h36M630 453h36M954 453h18M180 454h18M504 454h36M630 454h36M954 454h18M180 455h18M504 455h36M630 455h36M954 455h18M180 456h18M504 456h36M630 456h36M954 456h18M180 457h18M504 457h36M630 457h36M954 457h18M180 458h18M504 458h36M630 458h36M954 458h18M180 459h18M504 459h36M630 459h36M954 459h18M180 460h18M504 460h36M630 460h36M954 460h18M180 461h18M504 461h36M630 461h36M954 461h18M180 462h18M504 462h36M630 462h36M954 462h18M180 463h18M504 463h36M630 463h36M954 463h18M180 464h18M504 464h36M630 464h36M954 464h18M180 465h18M504 465h36M630 465h36M954 465h18M180 466h18M504 466h36M630 466h36M954 466h18M180 467h18M504 467h36M630 467h36M954 467h18M180 468h18M522 468h18M612 468h18M954 468h18M180 469h18M522 469h18M612 469h18M954 469h18M180 470h18M522 470h18M612 470h18M954 470h18M180 471h18M522 471h18M612 471h18M954 471h18M180 472h18M522 472h18M612 472h18M954 472h18M180 473h18M522 473h18M612 473h18M954 473h18M180 474h18M522 474h18M612 474h18M954 474h18M180 475h18M522 475h18M612 475h18M954 475h18M180 476h18M522 476h18M612 476h18M954 476h18M180 477h18M522 477h18M612 477h18M954 477h18M180 478h18M522 478h18M612 478h18M954 478h18M180 479h18M522 479h18M612 479h18M954 479h18M180 480h18M522 480h18M612 480h18M954 480h18M180 481h18M522 481h18M612 481h18M954 481h18M180 482h18M522 482h18M612 482h18M954 482h18M180 483h18M522 483h18M612 483h18M954 483h18M180 484h18M522 484h18M612 484h18M954 484h18M180 485h18M522 485h18M612 485h18M954 485h18M180 486h18M522 486h18M594 486h36M936 486h36M180 487h18M522 487h18M594 487h36M936 487h36M180 488h18M522 488h18M594 488h36M936 488h36M180 489h18M522 489h18M594 489h36M936 489h36M180 490h18M522 490h18M594 490h36M936 490h36M180 491h18M522 491h18M594 491h36M936 491h36M180 492h18M522 492h18M594 492h36M936 492h36M180 493h18M522 493h18M594 493h36M936 493h36M180 494h18M522 494h18M594 494h36M936 494h36M180 495h18M522 495h18M594 495h36M936 495h36M180 496h18M522 496h18M594 496h36M936 496h36M180 497h18M522 497h18M594 497h36M936 497h36M180 498h18M522 498h18M594 498h36M936 498h36M180 499h18M522 499h18M594 499h36M936 499h36M180 500h18M522 500h18M594 500h36M936 500h36M180 501h18M522 501h18M594 501h36M936 501h36M180 502h18M522 502h18M594 502h36M936 502h36M180 503h18M522 503h18M594 503h36M936 503h36M180 504h90M522 504h18M576 504h36M936 504h18M180 505h90M522 505h18M576 505h36M936 505h18M180 506h90M522 506h18M576 506h36M936 506h18M180 507h90M522 507h18M576 507h36M936 507h18M180 508h90M522 508h18M576 508h36M936 508h18M180 509h90M522 509h18M576 509h36M936 509h18M180 510h90M522 510h18M576 510h36M936 510h18M180 511h90M522 511h18M576 511h36M936 511h18M180 512h90M522 512h18M576 512h36M936 512h18M180 513h90M522 513h18M576 513h36M936 513h18M180 514h90M522 514h18M576 514h36M936 514h18M180 515h90M522 515h18M576 515h36M936 515h18M180 516h90M522 516h18M576 516h36M936 516h18M180 517h90M522 517h18M576 517h36M936 517h18M180 518h90M522 518h18M576 518h36M936 518h18M180 519h90M522 519h18M576 519h36M936 519h18M180 520h90M522 520h18M576 520h36M936 520h18M180 521h90M522 521h18M576 521h36M936 521h18M198 522h36M540 522h18M576 522h18M918 522h36M198 523h36M540 523h18M576 523h18M918 523h36M198 524h36M540 524h18M576 524h18M918 524h36M198 525h36M540 525h18M576 525h18M918 525h36M198 526h36M540 526h18M576 526h18M918 526h36M198 527h36M540 527h18M576 527h18M918 527h36M198 528h36M540 528h18M576 528h18M918 528h36M198 529h36M540 529h18M576 529h18M918 529h36M198 530h36M540 530h18M576 530h18M918 530h36M198 531h36M540 531h18M576 531h18M918 531h36M198 532h36M540 532h18M576 532h18M918 532h36M198 533h36M540 533h18M576 533h18M918 533h36M198 534h36M540 534h18M576 534h18M918 534h36M198 535h36M540 535h18M576 535h18M918 535h36M198 536h36M540 536h18M576 536h18M918 536h36M198 537h36M540 537h18M576 537h18M918 537h36M198 538h36M540 538h18M576 538h18M918 538h36M198 539h36M540 539h18M576 539h18M918 539h36M180 540h36M540 540h54M882 540h54M180 541h36M540 541h54M882 541h54M180 542h36M540 542h54M882 542h54M180 543h36M540 543h54M882 543h54M180 544h36M540 544h54M882 544h54M180 545h36M540 545h54M882 545h54M180 546h36M540 546h54M882 546h54M180 547h36M540 547h54M882 547h54M180 548h36M540 548h54M882 548h54M180 549h36M540 549h54M882 549h54M180 550h36M540 550h54M882 550h54M180 551h36M540 551h54M882 551h54M180 552h36M540 552h54M882 552h54M180 553h36M540 553h54M882 553h54M180 554h36M540 554h54M882 554h54M180 555h36M540 555h54M882 555h54M180 556h36M540 556h54M882 556h54M180 557h36M540 557h54M882 557h54M162 558h36M540 558h72M900 558h18M162 559h36M540 559h72M900 559h18M162 560h36M540 560h72M900 560h18M162 561h36M540 561h72M900 561h18M162 562h36M540 562h72M900 562h18M162 563h36M540 563h72M900 563h18M162 564h36M540 564h72M900 564h18M162 565h36M540 565h72M900 565h18M162 566h36M540 566h72M900 566h18M162 567h36M540 567h72M900 567h18M162 568h36M540 568h72M900 568h18M162 569h36M540 569h72M900 569h18M162 570h36M540 570h72M900 570h18M162 571h36M540 571h72M900 571h18M162 572h36M540 572h72M900 572h18M162 573h36M540 573h72M900 573h18M162 574h36M540 574h72M900 574h18M162 575h36M540 575h72M900 575h18M144 576h36M468 576h72M594 576h54M900 576h54M144 577h36M468 577h72M594 577h54M900 577h54M144 578h36M468 578h72M594 578h54M900 578h54M144 579h36M468 579h72M594 579h54M900 579h54M144 580h36M468 580h72M594 580h54M900 580h54M144 581h36M468 581h72M594 581h54M900 581h54M144 582h36M468 582h72M594 582h54M900 582h54M144 583h36M468 583h72M594 583h54M900 583h54M144 584h36M468 584h72M594 584h54M900 584h54M144 585h36M468 585h72M594 585h54M900 585h54M144 586h36M468 586h72M594 586h54M900 586h54M144 587h36M468 587h72M594 587h54M900 587h54M144 588h36M468 588h72M594 588h54M900 588h54M144 589h36M468 589h72M594 589h54M900 589h54M144 590h36M468 590h72M594 590h54M900 590h54M144 591h36M468 591h72M594 591h54M900 591h54M144 592h36M468 592h72M594 592h54M900 592h54M144 593h36M468 593h72M594 593h54M900 593h54M144 594h18M450 594h36M630 594h36M954 594h18M144 595h18M450 595h36M630 595h36M954 595h18M144 596h18M450 596h36M630 596h36M954 596h18M144 597h18M450 597h36M630 597h36M954 597h18M144 598h18M450 598h36M630 598h36M954 598h18M144 599h18M450 599h36M630 599h36M954 599h18M144 600h18M450 600h36M630 600h36M954 600h18M144 601h18M450 601h36M630 601h36M954 601h18M144 602h18M450 602h36M630 602h36M954 602h18M144 603h18M450 603h36M630 603h36M954 603h18M144 604h18M450 604h36M630 604h36M954 604h18M144 605h18M450 605h36M630 605h36M954 605h18M144 606h18M450 606h36M630 606h36M954 606h18M144 607h18M450 607h36M630 607h36M954 607h18M144 608h18M450 608h36M630 608h36M954 608h18M144 609h18M450 609h36M630 609h36M954 609h18M144 610h18M450 610h36M630 610h36M954 610h18M144 611h18M450 611h36M630 611h36M954 611h18M144 612h18M360 612h90M648 612h36M954 612h18M144 613h18M360 613h90M648 613h36M954 613h18M144 614h18M360 614h90M648 614h36M954 614h18M144 615h18M360 615h90M648 615h36M954 615h18M144 616h18M360 616h90M648 616h36M954 616h18M144 617h18M360 617h90M648 617h36M954 617h18M144 618h18M360 618h90M648 618h36M954 618h18M144 619h18M360 619h90M648 619h36M954 619h18M144 620h18M360 620h90M648 620h36M954 620h18M144 621h18M360 621h90M648 621h36M954 621h18M144 622h18M360 622h90M648 622h36M954 622h18M144 623h18M360 623h90M648 623h36M954 623h18M144 624h18M360 624h90M648 624h36M954 624h18M144 625h18M360 625h90M648 625h36M954 625h18M144 626h18M360 626h90M648 626h36M954 626h18M144 627h18M360 627h90M648 627h36M954 627h18M144 628h18M360 628h90M648 628h36M954 628h18M144 629h18M360 629h90M648 629h36M954 629h18M144 630h18M342 630h36M666 630h36M954 630h18M144 631h18M342 631h36M666 631h36M954 631h18M144 632h18M342 632h36M666 632h36M954 632h18M144 633h18M342 633h36M666 633h36M954 633h18M144 634h18M342 634h36M666 634h36M954 634h18M144 635h18M342 635h36M666 635h36M954 635h18M144 636h18M342 636h36M666 636h36M954 636h18M144 637h18M342 637h36M666 637h36M954 637h18M144 638h18M342 638h36M666 638h36M954 638h18M144 639h18M342 639h36M666 639h36M954 639h18M144 640h18M342 640h36M666 640h36M954 640h18M144 641h18M342 641h36M666 641h36M954 641h18M144 642h18M342 642h36M666 642h36M954 642h18M144 643h18M342 643h36M666 643h36M954 643h18M144 644h18M342 644h36M666 644h36M954 644h18M144 645h18M342 645h36M666 645h36M954 645h18M144 646h18M342 646h36M666 646h36M954 646h18M144 647h18M342 647h36M666 647h36M954 647h18M144 648h18M342 648h18M684 648h18M972 648h18M144 649h18M342 649h18M684 649h18M972 649h18M144 650h18M342 650h18M684 650h18M972 650h18M144 651h18M342 651h18M684 651h18M972 651h18M144 652h18M342 652h18M684 652h18M972 652h18M144 653h18M342 653h18M684 653h18M972 653h18M144 654h18M342 654h18M684 654h18M972 654h18M144 655h18M342 655h18M684 655h18M972 655h18M144 656h18M342 656h18M684 656h18M972 656h18M144 657h18M342 657h18M684 657h18M972 657h18M144 658h18M342 658h18M684 658h18M972 658h18M144 659h18M342 659h18M684 659h18M972 659h18M144 660h18M342 660h18M684 660h18M972 660h18M144 661h18M342 661h18M684 661h18M972 661h18M144 662h18M342 662h18M684 662h18M972 662h18M144 663h18M342 663h18M684 663h18M972 663h18M144 664h18M342 664h18M684 664h18M972 664h18M144 665h18M342 665h18M684 665h18M972 665h18M144 666h36M324 666h18M702 666h18M972 666h36M144 667h36M324 667h18M702 667h18M972 667h36M144 668h36M324 668h18M702 668h18M972 668h36M144 669h36M324 669h18M702 669h18M972 669h36M144 670h36M324 670h18M702 670h18M972 670h36M144 671h36M324 671h18M702 671h18M972 671h36M144 672h36M324 672h18M702 672h18M972 672h36M144 673h36M324 673h18M702 673h18M972 673h36M144 674h36M324 674h18M702 674h18M972 674h36M144 675h36M324 675h18M702 675h18M972 675h36M144 676h36M324 676h18M702 676h18M972 676h36M144 677h36M324 677h18M702 677h18M972 677h36M144 678h36M324 678h18M702 678h18M972 678h36M144 679h36M324 679h18M702 679h18M972 679h36M144 680h36M324 680h18M702 680h18M972 680h36M144 681h36M324 681h18M702 681h18M972 681h36M144 682h36M324 682h18M702 682h18M972 682h36M144 683h36M324 683h18M702 683h18M972 683h36M162 684h36M324 684h18M702 684h18M990 684h18M162 685h36M324 685h18M702 685h18M990 685h18M162 686h36M324 686h18M702 686h18M990 686h18M162 687h36M324 687h18M702 687h18M990 687h18M162 688h36M324 688h18M702 688h18M990 688h18M162 689h36M324 689h18M702 689h18M990 689h18M162 690h36M324 690h18M702 690h18M990 690h18M162 691h36M324 691h18M702 691h18M990 691h18M162 692h36M324 692h18M702 692h18M990 692h18M162 693h36M324 693h18M702 693h18M990 693h18M162 694h36M324 694h18M702 694h18M990 694h18M162 695h36M324 695h18M702 695h18M990 695h18M162 696h36M324 696h18M702 696h18M990 696h18M162 697h36M324 697h18M702 697h18M990 697h18M162 698h36M324 698h18M702 698h18M990 698h18M162 699h36M324 699h18M702 699h18M990 699h18M162 700h36M324 700h18M702 700h18M990 700h18M162 701h36M324 701h18M702 701h18M990 701h18M198 702h54M288 702h36M702 702h36M990 702h18M198 703h54M288 703h36M702 703h36M990 703h18M198 704h54M288 704h36M702 704h36M990 704h18M198 705h54M288 705h36M702 705h36M990 705h18M198 706h54M288 706h36M702 706h36M990 706h18M198 707h54M288 707h36M702 707h36M990 707h18M198 708h54M288 708h36M702 708h36M990 708h18M198 709h54M288 709h36M702 709h36M990 709h18M198 710h54M288 710h36M702 710h36M990 710h18M198 711h54M288 711h36M702 711h36M990 711h18M198 712h54M288 712h36M702 712h36M990 712h18M198 713h54M288 713h36M702 713h36M990 713h18M198 714h54M288 714h36M702 714h36M990 714h18M198 715h54M288 715h36M702 715h36M990 715h18M198 716h54M288 716h36M702 716h36M990 716h18M198 717h54M288 717h36M702 717h36M990 717h18M198 718h54M288 718h36M702 718h36M990 718h18M198 719h54M288 719h36M702 719h36M990 719h18M234 720h72M720 720h18M972 720h36M234 721h72M720 721h18M972 721h36M234 722h72M720 722h18M972 722h36M234 723h72M720 723h18M972 723h36M234 724h72M720 724h18M972 724h36M234 725h72M720 725h18M972 725h36M234 726h72M720 726h18M972 726h36M234 727h72M720 727h18M972 727h36M234 728h72M720 728h18M972 728h36M234 729h72M720 729h18M972 729h36M234 730h72M720 730h18M972 730h36M234 731h72M720 731h18M972 731h36M234 732h72M720 732h18M972 732h36M234 733h72M720 733h18M972 733h36M234 734h72M720 734h18M972 734h36M234 735h72M720 735h18M972 735h36M234 736h72M720 736h18M972 736h36M234 737h72M720 737h18M972 737h36M252 738h18M720 738h18M954 738h36M252 739h18M720 739h18M954 739h36M252 740h18M720 740h18M954 740h36M252 741h18M720 741h18M954 741h36M252 742h18M720 742h18M954 742h36M252 743h18M720 743h18M954 743h36M252 744h18M720 744h18M954 744h36M252 745h18M720 745h18M954 745h36M252 746h18M720 746h18M954 746h36M252 747h18M720 747h18M954 747h36M252 748h18M720 748h18M954 748h36M252 749h18M720 749h18M954 749h36M252 750h18M720 750h18M954 750h36M252 751h18M720 751h18M954 751h36M252 752h18M720 752h18M954 752h36M252 753h18M720 753h18M954 753h36M252 754h18M720 754h18M954 754h36M252 755h18M720 755h18M954 755h36M252 756h18M738 756h18M936 756h36M252 757h18M738 757h18M936 757h36M252 758h18M738 758h18M936 758h36M252 759h18M738 759h18M936 759h36M252 760h18M738 760h18M936 760h36M252 761h18M738 761h18M936 761h36M252 762h18M738 762h18M936 762h36M252 763h18M738 763h18M936 763h36M252 764h18M738 764h18M936 764h36M252 765h18M738 765h18M936 765h36M252 766h18M738 766h18M936 766h36M252 767h18M738 767h18M936 767h36M252 768h18M738 768h18M936 768h36M252 769h18M738 769h18M936 769h36M252 770h18M738 770h18M936 770h36M252 771h18M738 771h18M936 771h36M252 772h18M738 772h18M936 772h36M252 773h18M738 773h18M936 773h36M252 774h18M738 774h18M936 774h18M252 775h18M738 775h18M936 775h18M252 776h18M738 776h18M936 776h18M252 777h18M738 777h18M936 777h18M252 778h18M738 778h18M936 778h18M252 779h18M738 779h18M936 779h18M252 780h18M738 780h18M936 780h18M252 781h18M738 781h18M936 781h18M252 782h18M738 782h18M936 782h18M252 783h18M738 783h18M936 783h18M252 784h18M738 784h18M936 784h18M252 785h18M738 785h18M936 785h18M252 786h18M738 786h18M936 786h18M252 787h18M738 787h18M936 787h18M252 788h18M738 788h18M936 788h18M252 789h18M738 789h18M936 789h18M252 790h18M738 790h18M936 790h18M252 791h18M738 791h18M936 791h18M252 792h18M738 792h18M882 792h54M252 793h18M738 793h18M882 793h54M252 794h18M738 794h18M882 794h54M252 795h18M738 795h18M882 795h54M252 796h18M738 796h18M882 796h54M252 797h18M738 797h18M882 797h54M252 798h18M738 798h18M882 798h54M252 799h18M738 799h18M882 799h54M252 800h18M738 800h18M882 800h54M252 801h18M738 801h18M882 801h54M252 802h18M738 802h18M882 802h54M252 803h18M738 803h18M882 803h54M252 804h18M738 804h18M882 804h54M252 805h18M738 805h18M882 805h54M252 806h18M738 806h18M882 806h54M252 807h18M738 807h18M882 807h54M252 808h18M738 808h18M882 808h54M252 809h18M738 809h18M882 809h54M252 810h18M486 810h18M738 810h144M252 811h18M486 811h18M738 811h144M252 812h18M486 812h18M738 812h144M252 813h18M486 813h18M738 813h144M252 814h18M486 814h18M738 814h144M252 815h18M486 815h18M738 815h144M252 816h18M486 816h18M738 816h144M252 817h18M486 817h18M738 817h144M252 818h18M486 818h18M738 818h144M252 819h18M486 819h18M738 819h144M252 820h18M486 820h18M738 820h144M252 821h18M486 821h18M738 821h144M252 822h18M486 822h18M738 822h144M252 823h18M486 823h18M738 823h144M252 824h18M486 824h18M738 824h144M252 825h18M486 825h18M738 825h144M252 826h18M486 826h18M738 826h144M252 827h18M486 827h18M738 827h144M252 828h36M468 828h36M738 828h18M828 828h36M252 829h36M468 829h36M738 829h18M828 829h36M252 830h36M468 830h36M738 830h18M828 830h36M252 831h36M468 831h36M738 831h18M828 831h36M252 832h36M468 832h36M738 832h18M828 832h36M252 833h36M468 833h36M738 833h18M828 833h36M252 834h36M468 834h36M738 834h18M828 834h36M252 835h36M468 835h36M738 835h18M828 835h36M252 836h36M468 836h36M738 836h18M828 836h36M252 837h36M468 837h36M738 837h18M828 837h36M252 838h36M468 838h36M738 838h18M828 838h36M252 839h36M468 839h36M738 839h18M828 839h36M252 840h36M468 840h36M738 840h18M828 840h36M252 841h36M468 841h36M738 841h18M828 841h36M252 842h36M468 842h36M738 842h18M828 842h36M252 843h36M468 843h36M738 843h18M828 843h36M252 844h36M468 844h36M738 844h18M828 844h36M252 845h36M468 845h36M738 845h18M828 845h36M270 846h18M468 846h18M738 846h18M846 846h36M270 847h18M468 847h18M738 847h18M846 847h36M270 848h18M468 848h18M738 848h18M846 848h36M270 849h18M468 849h18M738 849h18M846 849h36M270 850h18M468 850h18M738 850h18M846 850h36M270 851h18M468 851h18M738 851h18M846 851h36M270 852h18M468 852h18M738 852h18M846 852h36M270 853h18M468 853h18M738 853h18M846 853h36M270 854h18M468 854h18M738 854h18M846 854h36M270 855h18M468 855h18M738 855h18M846 855h36M270 856h18M468 856h18M738 856h18M846 856h36M270 857h18M468 857h18M738 857h18M846 857h36M270 858h18M468 858h18M738 858h18M846 858h36M270 859h18M468 859h18M738 859h18M846 859h36M270 860h18M468 860h18M738 860h18M846 860h36M270 861h18M468 861h18M738 861h18M846 861h36M270 862h18M468 862h18M738 862h18M846 862h36M270 863h18M468 863h18M738 863h18M846 863h36M270 864h36M468 864h36M738 864h36M864 864h36M270 865h36M468 865h36M738 865h36M864 865h36M270 866h36M468 866h36M738 866h36M864 866h36M270 867h36M468 867h36M738 867h36M864 867h36M270 868h36M468 868h36M738 868h36M864 868h36M270 869h36M468 869h36M738 869h36M864 869h36M270 870h36M468 870h36M738 870h36M864 870h36M270 871h36M468 871h36M738 871h36M864 871h36M270 872h36M468 872h36M738 872h36M864 872h36M270 873h36M468 873h36M738 873h36M864 873h36M270 874h36M468 874h36M738 874h36M864 874h36M270 875h36M468 875h36M738 875h36M864 875h36M270 876h36M468 876h36M738 876h36M864 876h36M270 877h36M468 877h36M738 877h36M864 877h36M270 878h36M468 878h36M738 878h36M864 878h36M270 879h36M468 879h36M738 879h36M864 879h36M270 880h36M468 880h36M738 880h36M864 880h36M270 881h36M468 881h36M738 881h36M864 881h36M288 882h72M432 882h72M738 882h54M882 882h36M288 883h72M432 883h72M738 883h54M882 883h36M288 884h72M432 884h72M738 884h54M882 884h36M288 885h72M432 885h72M738 885h54M882 885h36M288 886h72M432 886h72M738 886h54M882 886h36M288 887h72M432 887h72M738 887h54M882 887h36M288 888h72M432 888h72M738 888h54M882 888h36M288 889h72M432 889h72M738 889h54M882 889h36M288 890h72M432 890h72M738 890h54M882 890h36M288 891h72M432 891h72M738 891h54M882 891h36M288 892h72M432 892h72M738 892h54M882 892h36M288 893h72M432 893h72M738 893h54M882 893h36M288 894h72M432 894h72M738 894h54M882 894h36M288 895h72M432 895h72M738 895h54M882 895h36M288 896h72M432 896h72M738 896h54M882 896h36M288 897h72M432 897h72M738 897h54M882 897h36M288 898h72M432 898h72M738 898h54M882 898h36M288 899h72M432 899h72M738 899h54M882 899h36M342 900h108M486 900h36M720 900h36M774 900h36M900 900h18M342 901h108M486 901h36M720 901h36M774 901h36M900 901h18M342 902h108M486 902h36M720 902h36M774 902h36M900 902h18M342 903h108M486 903h36M720 903h36M774 903h36M900 903h18M342 904h108M486 904h36M720 904h36M774 904h36M900 904h18M342 905h108M486 905h36M720 905h36M774 905h36M900 905h18M342 906h108M486 906h36M720 906h36M774 906h36M900 906h18M342 907h108M486 907h36M720 907h36M774 907h36M900 907h18M342 908h108M486 908h36M720 908h36M774 908h36M900 908h18M342 909h108M486 909h36M720 909h36M774 909h36M900 909h18M342 910h108M486 910h36M720 910h36M774 910h36M900 910h18M342 911h108M486 911h36M720 911h36M774 911h36M900 911h18M342 912h108M486 912h36M720 912h36M774 912h36M900 912h18M342 913h108M486 913h36M720 913h36M774 913h36M900 913h18M342 914h108M486 914h36M720 914h36M774 914h36M900 914h18M342 915h108M486 915h36M720 915h36M774 915h36M900 915h18M342 916h108M486 916h36M720 916h36M774 916h36M900 916h18M342 917h108M486 917h36M720 917h36M774 917h36M900 917h18M504 918h36M702 918h36M792 918h18M900 918h18M504 919h36M702 919h36M792 919h18M900 919h18M504 920h36M702 920h36M792 920h18M900 920h18M504 921h36M702 921h36M792 921h18M900 921h18M504 922h36M702 922h36M792 922h18M900 922h18M504 923h36M702 923h36M792 923h18M900 923h18M504 924h36M702 924h36M792 924h18M900 924h18M504 925h36M702 925h36M792 925h18M900 925h18M504 926h36M702 926h36M792 926h18M900 926h18M504 927h36M702 927h36M792 927h18M900 927h18M504 928h36M702 928h36M792 928h18M900 928h18M504 929h36M702 929h36M792 929h18M900 929h18M504 930h36M702 930h36M792 930h18M900 930h18M504 931h36M702 931h36M792 931h18M900 931h18M504 932h36M702 932h36M792 932h18M900 932h18M504 933h36M702 933h36M792 933h18M900 933h18M504 934h36M702 934h36M792 934h18M900 934h18M504 935h36M702 935h36M792 935h18M900 935h18M522 936h18M684 936h36M792 936h36M900 936h18M522 937h18M684 937h36M792 937h36M900 937h18M522 938h18M684 938h36M792 938h36M900 938h18M522 939h18M684 939h36M792 939h36M900 939h18M522 940h18M684 940h36M792 940h36M900 940h18M522 941h18M684 941h36M792 941h36M900 941h18M522 942h18M684 942h36M792 942h36M900 942h18M522 943h18M684 943h36M792 943h36M900 943h18M522 944h18M684 944h36M792 944h36M900 944h18M522 945h18M684 945h36M792 945h36M900 945h18M522 946h18M684 946h36M792 946h36M900 946h18M522 947h18M684 947h36M792 947h36M900 947h18M522 948h18M684 948h36M792 948h36M900 948h18M522 949h18M684 949h36M792 949h36M900 949h18M522 950h18M684 950h36M792 950h36M900 950h18M522 951h18M684 951h36M792 951h36M900 951h18M522 952h18M684 952h36M792 952h36M900 952h18M522 953h18M684 953h36M792 953h36M900 953h18M522 954h36M666 954h36M810 954h18M900 954h18M522 955h36M666 955h36M810 955h18M900 955h18M522 956h36M666 956h36M810 956h18M900 956h18M522 957h36M666 957h36M810 957h18M900 957h18M522 958h36M666 958h36M810 958h18M900 958h18M522 959h36M666 959h36M810 959h18M900 959h18M522 960h36M666 960h36M810 960h18M900 960h18M522 961h36M666 961h36M810 961h18M900 961h18M522 962h36M666 962h36M810 962h18M900 962h18M522 963h36M666 963h36M810 963h18M900 963h18M522 964h36M666 964h36M810 964h18M900 964h18M522 965h36M666 965h36M810 965h18M900 965h18M522 966h36M666 966h36M810 966h18M900 966h18M522 967h36M666 967h36M810 967h18M900 967h18M522 968h36M666 968h36M810 968h18M900 968h18M522 969h36M666 969h36M810 969h18M900 969h18M522 970h36M666 970h36M810 970h18M900 970h18M522 971h36M666 971h36M810 971h18M900 971h18M540 972h54M630 972h54M810 972h18M882 972h36M540 973h54M630 973h54M810 973h18M882 973h36M540 974h54M630 974h54M810 974h18M882 974h36M540 975h54M630 975h54M810 975h18M882 975h36M540 976h54M630 976h54M810 976h18M882 976h36M540 977h54M630 977h54M810 977h18M882 977h36M540 978h54M630 978h54M810 978h18M882 978h36M540 979h54M630 979h54M810 979h18M882 979h36M540 980h54M630 980h54M810 980h18M882 980h36M540 981h54M630 981h54M810 981h18M882 981h36M540 982h54M630 982h54M810 982h18M882 982h36M540 983h54M630 983h54M810 983h18M882 983h36M540 984h54M630 984h54M810 984h18M882 984h36M540 985h54M630 985h54M810 985h18M882 985h36M540 986h54M630 986h54M810 986h18M882 986h36M540 987h54M630 987h54M810 987h18M882 987h36M540 988h54M630 988h54M810 988h18M882 988h36M540 989h54M630 989h54M810 989h18M882 989h36M576 990h54M810 990h90M576 991h54M810 991h90M576 992h54M810 992h90M576 993h54M810 993h90M576 994h54M810 994h90M576 995h54M810 995h90M576 996h54M810 996h90M576 997h54M810 997h90M576 998h54M810 998h90M576 999h54M810 999h90M576 1000h54M810 1000h90M576 1001h54M810 1001h90M576 1002h54M810 1002h90M576 1003h54M810 1003h90M576 1004h54M810 1004h90M576 1005h54M810 1005h90M576 1006h54M810 1006h90M576 1007h54M810 1007h90" />
<path stroke="#43a047" d="M540 180h36M540 181h36M540 182h36M540 183h36M540 184h36M540 185h36M540 186h36M540 187h36M540 188h36M540 189h36M540 190h36M540 191h36M540 192h36M540 193h36M540 194h36M540 195h36M540 196h36M540 197h36M486 198h126M486 199h126M486 200h126M486 201h126M486 202h126M486 203h126M486 204h126M486 205h126M486 206h126M486 207h126M486 208h126M486 209h126M486 210h126M486 211h126M486 212h126M486 213h126M486 214h126M486 215h126M486 216h126M486 217h126M486 218h126M486 219h126M486 220h126M486 221h126M486 222h126M486 223h126M486 224h126M486 225h126M486 226h126M486 227h126M486 228h126M486 229h126M486 230h126M486 231h126M486 232h126M486 233h126M450 234h180M450 235h180M450 236h180M450 237h180M450 238h180M450 239h180M450 240h180M450 241h180M450 242h180M450 243h180M450 244h180M450 245h180M450 246h180M450 247h180M450 248h180M450 249h180M450 250h180M450 251h180M432 252h180M432 253h180M432 254h180M432 255h180M432 256h180M432 257h180M432 258h180M432 259h180M432 260h180M432 261h180M432 262h180M432 263h180M432 264h180M432 265h180M432 266h180M432 267h180M432 268h180M432 269h180M432 270h162M432 271h162M432 272h162M432 273h162M432 274h162M432 275h162M432 276h162M432 277h162M432 278h162M432 279h162M432 280h162M432 281h162M432 282h162M432 283h162M432 284h162M432 285h162M432 286h162M432 287h162M414 288h162M414 289h162M414 290h162M414 291h162M414 292h162M414 293h162M414 294h162M414 295h162M414 296h162M414 297h162M414 298h162M414 299h162M414 300h162M414 301h162M414 302h162M414 303h162M414 304h162M414 305h162M414 306h162M414 307h162M414 308h162M414 309h162M414 310h162M414 311h162M414 312h162M414 313h162M414 314h162M414 315h162M414 316h162M414 317h162M414 318h162M414 319h162M414 320h162M414 321h162M414 322h162M414 323h162M414 324h162M414 325h162M414 326h162M414 327h162M414 328h162M414 329h162M414 330h162M414 331h162M414 332h162M414 333h162M414 334h162M414 335h162M414 336h162M414 337h162M414 338h162M414 339h162M414 340h162M414 341h162M414 342h162M414 343h162M414 344h162M414 345h162M414 346h162M414 347h162M414 348h162M414 349h162M414 350h162M414 351h162M414 352h162M414 353h162M414 354h162M414 355h162M414 356h162M414 357h162M414 358h162M414 359h162M432 360h144M432 361h144M432 362h144M432 363h144M432 364h144M432 365h144M432 366h144M432 367h144M432 368h144M432 369h144M432 370h144M432 371h144M432 372h144M432 373h144M432 374h144M432 375h144M432 376h144M432 377h144M468 378h108M468 379h108M468 380h108M468 381h108M468 382h108M468 383h108M468 384h108M468 385h108M468 386h108M468 387h108M468 388h108M468 389h108M468 390h108M468 391h108M468 392h108M468 393h108M468 394h108M468 395h108M486 396h90M774 396h108M486 397h90M774 397h108M486 398h90M774 398h108M486 399h90M774 399h108M486 400h90M774 400h108M486 401h90M774 401h108M486 402h90M774 402h108M486 403h90M774 403h108M486 404h90M774 404h108M486 405h90M774 405h108M486 406h90M774 406h108M486 407h90M774 407h108M486 408h90M774 408h108M486 409h90M774 409h108M486 410h90M774 410h108M486 411h90M774 411h108M486 412h90M774 412h108M486 413h90M774 413h108M504 414h72M738 414h180M504 415h72M738 415h180M504 416h72M738 416h180M504 417h72M738 417h180M504 418h72M738 418h180M504 419h72M738 419h180M504 420h72M738 420h180M504 421h72M738 421h180M504 422h72M738 422h180M504 423h72M738 423h180M504 424h72M738 424h180M504 425h72M738 425h180M504 426h72M738 426h180M504 427h72M738 427h180M504 428h72M738 428h180M504 429h72M738 429h180M504 430h72M738 430h180M504 431h72M738 431h180M522 432h54M702 432h234M522 433h54M702 433h234M522 434h54M702 434h234M522 435h54M702 435h234M522 436h54M702 436h234M522 437h54M702 437h234M522 438h54M702 438h234M522 439h54M702 439h234M522 440h54M702 440h234M522 441h54M702 441h234M522 442h54M702 442h234M522 443h54M702 443h234M522 444h54M702 444h234M522 445h54M702 445h234M522 446h54M702 446h234M522 447h54M702 447h234M522 448h54M702 448h234M522 449h54M702 449h234M540 450h36M666 450h288M540 451h36M666 451h288M540 452h36M666 452h288M540 453h36M666 453h288M540 454h36M666 454h288M540 455h36M666 455h288M540 456h36M666 456h288M540 457h36M666 457h288M540 458h36M666 458h288M540 459h36M666 459h288M540 460h36M666 460h288M540 461h36M666 461h288M540 462h36M666 462h288M540 463h36M666 463h288M540 464h36M666 464h288M540 465h36M666 465h288M540 466h36M666 466h288M540 467h36M666 467h288M630 468h324M630 469h324M630 470h324M630 471h324M630 472h324M630 473h324M630 474h324M630 475h324M630 476h324M630 477h324M630 478h324M630 479h324M630 480h324M630 481h324M630 482h324M630 483h324M630 484h324M630 485h324M630 486h306M630 487h306M630 488h306M630 489h306M630 490h306M630 491h306M630 492h306M630 493h306M630 494h306M630 495h306M630 496h306M630 497h306M630 498h306M630 499h306M630 500h306M630 501h306M630 502h306M630 503h306M306 504h126M630 504h306M306 505h126M630 505h306M306 506h126M630 506h306M306 507h126M630 507h306M306 508h126M630 508h306M306 509h126M630 509h306M306 510h126M630 510h306M306 511h126M630 511h306M306 512h126M630 512h306M306 513h126M630 513h306M306 514h126M630 514h306M306 515h126M630 515h306M306 516h126M630 516h306M306 517h126M630 517h306M306 518h126M630 518h306M306 519h126M630 519h306M306 520h126M630 520h306M306 521h126M630 521h306M288 522h234M630 522h54M828 522h90M288 523h234M630 523h54M828 523h90M288 524h234M630 524h54M828 524h90M288 525h234M630 525h54M828 525h90M288 526h234M630 526h54M828 526h90M288 527h234M630 527h54M828 527h90M288 528h234M630 528h54M828 528h90M288 529h234M630 529h54M828 529h90M288 530h234M630 530h54M828 530h90M288 531h234M630 531h54M828 531h90M288 532h234M630 532h54M828 532h90M288 533h234M630 533h54M828 533h90M288 534h234M630 534h54M828 534h90M288 535h234M630 535h54M828 535h90M288 536h234M630 536h54M828 536h90M288 537h234M630 537h54M828 537h90M288 538h234M630 538h54M828 538h90M288 539h234M630 539h54M828 539h90M252 540h234M648 540h18M252 541h234M648 541h18M252 542h234M648 542h18M252 543h234M648 543h18M252 544h234M648 544h18M252 545h234M648 545h18M252 546h234M648 546h18M252 547h234M648 547h18M252 548h234M648 548h18M252 549h234M648 549h18M252 550h234M648 550h18M252 551h234M648 551h18M252 552h234M648 552h18M252 553h234M648 553h18M252 554h234M648 554h18M252 555h234M648 555h18M252 556h234M648 556h18M252 557h234M648 557h18M216 558h234M216 559h234M216 560h234M216 561h234M216 562h234M216 563h234M216 564h234M216 565h234M216 566h234M216 567h234M216 568h234M216 569h234M216 570h234M216 571h234M216 572h234M216 573h234M216 574h234M216 575h234M180 576h252M180 577h252M180 578h252M180 579h252M180 580h252M180 581h252M180 582h252M180 583h252M180 584h252M180 585h252M180 586h252M180 587h252M180 588h252M180 589h252M180 590h252M180 591h252M180 592h252M180 593h252M162 594h180M558 594h36M162 595h180M558 595h36M162 596h180M558 596h36M162 597h180M558 597h36M162 598h180M558 598h36M162 599h180M558 599h36M162 600h180M558 600h36M162 601h180M558 601h36M162 602h180M558 602h36M162 603h180M558 603h36M162 604h180M558 604h36M162 605h180M558 605h36M162 606h180M558 606h36M162 607h180M558 607h36M162 608h180M558 608h36M162 609h180M558 609h36M162 610h180M558 610h36M162 611h180M558 611h36M162 612h162M540 612h108M162 613h162M540 613h108M162 614h162M540 614h108M162 615h162M540 615h108M162 616h162M540 616h108M162 617h162M540 617h108M162 618h162M540 618h108M162 619h162M540 619h108M162 620h162M540 620h108M162 621h162M540 621h108M162 622h162M540 622h108M162 623h162M540 623h108M162 624h162M540 624h108M162 625h162M540 625h108M162 626h162M540 626h108M162 627h162M540 627h108M162 628h162M540 628h108M162 629h162M540 629h108M162 630h162M522 630h144M162 631h162M522 631h144M162 632h162M522 632h144M162 633h162M522 633h144M162 634h162M522 634h144M162 635h162M522 635h144M162 636h162M522 636h144M162 637h162M522 637h144M162 638h162M522 638h144M162 639h162M522 639h144M162 640h162M522 640h144M162 641h162M522 641h144M162 642h162M522 642h144M162 643h162M522 643h144M162 644h162M522 644h144M162 645h162M522 645h144M162 646h162M522 646h144M162 647h162M522 647h144M162 648h144M522 648h162M162 649h144M522 649h162M162 650h144M522 650h162M162 651h144M522 651h162M162 652h144M522 652h162M162 653h144M522 653h162M162 654h144M522 654h162M162 655h144M522 655h162M162 656h144M522 656h162M162 657h144M522 657h162M162 658h144M522 658h162M162 659h144M522 659h162M162 660h144M522 660h162M162 661h144M522 661h162M162 662h144M522 662h162M162 663h144M522 663h162M162 664h144M522 664h162M162 665h144M522 665h162M180 666h108M504 666h198M180 667h108M504 667h198M180 668h108M504 668h198M180 669h108M504 669h198M180 670h108M504 670h198M180 671h108M504 671h198M180 672h108M504 672h198M180 673h108M504 673h198M180 674h108M504 674h198M180 675h108M504 675h198M180 676h108M504 676h198M180 677h108M504 677h198M180 678h108M504 678h198M180 679h108M504 679h198M180 680h108M504 680h198M180 681h108M504 681h198M180 682h108M504 682h198M180 683h108M504 683h198M198 684h72M504 684h198M198 685h72M504 685h198M198 686h72M504 686h198M198 687h72M504 687h198M198 688h72M504 688h198M198 689h72M504 689h198M198 690h72M504 690h198M198 691h72M504 691h198M198 692h72M504 692h198M198 693h72M504 693h198M198 694h72M504 694h198M198 695h72M504 695h198M198 696h72M504 696h198M198 697h72M504 697h198M198 698h72M504 698h198M198 699h72M504 699h198M198 700h72M504 700h198M198 701h72M504 701h198M486 702h216M486 703h216M486 704h216M486 705h216M486 706h216M486 707h216M486 708h216M486 709h216M486 710h216M486 711h216M486 712h216M486 713h216M486 714h216M486 715h216M486 716h216M486 717h216M486 718h216M486 719h216M486 720h234M486 721h234M486 722h234M486 723h234M486 724h234M486 725h234M486 726h234M486 727h234M486 728h234M486 729h234M486 730h234M486 731h234M486 732h234M486 733h234M486 734h234M486 735h234M486 736h234M486 737h234M468 738h252M468 739h252M468 740h252M468 741h252M468 742h252M468 743h252M468 744h252M468 745h252M468 746h252M468 747h252M468 748h252M468 749h252M468 750h252M468 751h252M468 752h252M468 753h252M468 754h252M468 755h252M468 756h270M468 757h270M468 758h270M468 759h270M468 760h270M468 761h270M468 762h270M468 763h270M468 764h270M468 765h270M468 766h270M468 767h270M468 768h270M468 769h270M468 770h270M468 771h270M468 772h270M468 773h270M468 774h270M468 775h270M468 776h270M468 777h270M468 778h270M468 779h270M468 780h270M468 781h270M468 782h270M468 783h270M468 784h270M468 785h270M468 786h270M468 787h270M468 788h270M468 789h270M468 790h270M468 791h270M468 792h18M522 792h216M468 793h18M522 793h216M468 794h18M522 794h216M468 795h18M522 795h216M468 796h18M522 796h216M468 797h18M522 797h216M468 798h18M522 798h216M468 799h18M522 799h216M468 800h18M522 800h216M468 801h18M522 801h216M468 802h18M522 802h216M468 803h18M522 803h216M468 804h18M522 804h216M468 805h18M522 805h216M468 806h18M522 806h216M468 807h18M522 807h216M468 808h18M522 808h216M468 809h18M522 809h216M468 810h18M522 810h216M468 811h18M522 811h216M468 812h18M522 812h216M468 813h18M522 813h216M468 814h18M522 814h216M468 815h18M522 815h216M468 816h18M522 816h216M468 817h18M522 817h216M468 818h18M522 818h216M468 819h18M522 819h216M468 820h18M522 820h216M468 821h18M522 821h216M468 822h18M522 822h216M468 823h18M522 823h216M468 824h18M522 824h216M468 825h18M522 825h216M468 826h18M522 826h216M468 827h18M522 827h216M522 828h216M522 829h216M522 830h216M522 831h216M522 832h216M522 833h216M522 834h216M522 835h216M522 836h216M522 837h216M522 838h216M522 839h216M522 840h216M522 841h216M522 842h216M522 843h216M522 844h216M522 845h216M522 846h198M522 847h198M522 848h198M522 849h198M522 850h198M522 851h198M522 852h198M522 853h198M522 854h198M522 855h198M522 856h198M522 857h198M522 858h198M522 859h198M522 860h198M522 861h198M522 862h198M522 863h198M522 864h198M522 865h198M522 866h198M522 867h198M522 868h198M522 869h198M522 870h198M522 871h198M522 872h198M522 873h198M522 874h198M522 875h198M522 876h198M522 877h198M522 878h198M522 879h198M522 880h198M522 881h198M522 882h198M522 883h198M522 884h198M522 885h198M522 886h198M522 887h198M522 888h198M522 889h198M522 890h198M522 891h198M522 892h198M522 893h198M522 894h198M522 895h198M522 896h198M522 897h198M522 898h198M522 899h198M540 900h162M540 901h162M540 902h162M540 903h162M540 904h162M540 905h162M540 906h162M540 907h162M540 908h162M540 909h162M540 910h162M540 911h162M540 912h162M540 913h162M540 914h162M540 915h162M540 916h162M540 917h162M558 918h126M558 919h126M558 920h126M558 921h126M558 922h126M558 923h126M558 924h126M558 925h126M558 926h126M558 927h126M558 928h126M558 929h126M558 930h126M558 931h126M558 932h126M558 933h126M558 934h126M558 935h126M558 936h108M558 937h108M558 938h108M558 939h108M558 940h108M558 941h108M558 942h108M558 943h108M558 944h108M558 945h108M558 946h108M558 947h108M558 948h108M558 949h108M558 950h108M558 951h108M558 952h108M558 953h108" />
<path stroke="#4caf50" d="M720 234h72M720 235h72M720 236h72M720 237h72M720 238h72M720 239h72M720 240h72M720 241h72M720 242h72M720 243h72M720 244h72M720 245h72M720 246h72M720 247h72M720 248h72M720 249h72M720 250h72M720 251h72M684 252h144M684 253h144M684 254h144M684 255h144M684 256h144M684 257h144M684 258h144M684 259h144M684 260h144M684 261h144M684 262h144M684 263h144M684 264h144M684 265h144M684 266h144M684 267h144M684 268h144M684 269h144M666 270h180M666 271h180M666 272h180M666 273h180M666 274h180M666 275h180M666 276h180M666 277h180M666 278h180M666 279h180M666 280h180M666 281h180M666 282h180M666 283h180M666 284h180M666 285h180M666 286h180M666 287h180M630 288h216M630 289h216M630 290h216M630 291h216M630 292h216M630 293h216M630 294h216M630 295h216M630 296h216M630 297h216M630 298h216M630 299h216M630 300h216M630 301h216M630 302h216M630 303h216M630 304h216M630 305h216M612 306h252M612 307h252M612 308h252M612 309h252M612 310h252M612 311h252M612 312h252M612 313h252M612 314h252M612 315h252M612 316h252M612 317h252M612 318h252M612 319h252M612 320h252M612 321h252M612 322h252M612 323h252M594 324h270M594 325h270M594 326h270M594 327h270M594 328h270M594 329h270M594 330h270M594 331h270M594 332h270M594 333h270M594 334h270M594 335h270M594 336h270M594 337h270M594 338h270M594 339h270M594 340h270M594 341h270M576 342h288M576 343h288M576 344h288M576 345h288M576 346h288M576 347h288M576 348h288M576 349h288M576 350h288M576 351h288M576 352h288M576 353h288M576 354h288M576 355h288M576 356h288M576 357h288M576 358h288M576 359h288M270 360h90M576 360h288M270 361h90M576 361h288M270 362h90M576 362h288M270 363h90M576 363h288M270 364h90M576 364h288M270 365h90M576 365h288M270 366h90M576 366h288M270 367h90M576 367h288M270 368h90M576 368h288M270 369h90M576 369h288M270 370h90M576 370h288M270 371h90M576 371h288M270 372h90M576 372h288M270 373h90M576 373h288M270 374h90M576 374h288M270 375h90M576 375h288M270 376h90M576 376h288M270 377h90M576 377h288M234 378h180M576 378h180M234 379h180M576 379h180M234 380h180M576 380h180M234 381h180M576 381h180M234 382h180M576 382h180M234 383h180M576 383h180M234 384h180M576 384h180M234 385h180M576 385h180M234 386h180M576 386h180M234 387h180M576 387h180M234 388h180M576 388h180M234 389h180M576 389h180M234 390h180M576 390h180M234 391h180M576 391h180M234 392h180M576 392h180M234 393h180M576 393h180M234 394h180M576 394h180M234 395h180M576 395h180M216 396h234M576 396h108M216 397h234M576 397h108M216 398h234M576 398h108M216 399h234M576 399h108M216 400h234M576 400h108M216 401h234M576 401h108M216 402h234M576 402h108M216 403h234M576 403h108M216 404h234M576 404h108M216 405h234M576 405h108M216 406h234M576 406h108M216 407h234M576 407h108M216 408h234M576 408h108M216 409h234M576 409h108M216 410h234M576 410h108M216 411h234M576 411h108M216 412h234M576 412h108M216 413h234M576 413h108M216 414h252M576 414h72M216 415h252M576 415h72M216 416h252M576 416h72M216 417h252M576 417h72M216 418h252M576 418h72M216 419h252M576 419h72M216 420h252M576 420h72M216 421h252M576 421h72M216 422h252M576 422h72M216 423h252M576 423h72M216 424h252M576 424h72M216 425h252M576 425h72M216 426h252M576 426h72M216 427h252M576 427h72M216 428h252M576 428h72M216 429h252M576 429h72M216 430h252M576 430h72M216 431h252M576 431h72M198 432h306M576 432h36M198 433h306M576 433h36M198 434h306M576 434h36M198 435h306M576 435h36M198 436h306M576 436h36M198 437h306M576 437h36M198 438h306M576 438h36M198 439h306M576 439h36M198 440h306M576 440h36M198 441h306M576 441h36M198 442h306M576 442h36M198 443h306M576 443h36M198 444h306M576 444h36M198 445h306M576 445h36M198 446h306M576 446h36M198 447h306M576 447h36M198 448h306M576 448h36M198 449h306M576 449h36M198 450h306M576 450h18M198 451h306M576 451h18M198 452h306M576 452h18M198 453h306M576 453h18M198 454h306M576 454h18M198 455h306M576 455h18M198 456h306M576 456h18M198 457h306M576 457h18M198 458h306M576 458h18M198 459h306M576 459h18M198 460h306M576 460h18M198 461h306M576 461h18M198 462h306M576 462h18M198 463h306M576 463h18M198 464h306M576 464h18M198 465h306M576 465h18M198 466h306M576 466h18M198 467h306M576 467h18M198 468h324M198 469h324M198 470h324M198 471h324M198 472h324M198 473h324M198 474h324M198 475h324M198 476h324M198 477h324M198 478h324M198 479h324M198 480h324M198 481h324M198 482h324M198 483h324M198 484h324M198 485h324M198 486h90M342 486h180M198 487h90M342 487h180M198 488h90M342 488h180M198 489h90M342 489h180M198 490h90M342 490h180M198 491h90M342 491h180M198 492h90M342 492h180M198 493h90M342 493h180M198 494h90M342 494h180M198 495h90M342 495h180M198 496h90M342 496h180M198 497h90M342 497h180M198 498h90M342 498h180M198 499h90M342 499h180M198 500h90M342 500h180M198 501h90M342 501h180M198 502h90M342 502h180M198 503h90M342 503h180M432 504h90M432 505h90M432 506h90M432 507h90M432 508h90M432 509h90M432 510h90M432 511h90M432 512h90M432 513h90M432 514h90M432 515h90M432 516h90M432 517h90M432 518h90M432 519h90M432 520h90M432 521h90M684 522h144M684 523h144M684 524h144M684 525h144M684 526h144M684 527h144M684 528h144M684 529h144M684 530h144M684 531h144M684 532h144M684 533h144M684 534h144M684 535h144M684 536h144M684 537h144M684 538h144M684 539h144M666 540h180M666 541h180M666 542h180M666 543h180M666 544h180M666 545h180M666 546h180M666 547h180M666 548h180M666 549h180M666 550h180M666 551h180M666 552h180M666 553h180M666 554h180M666 555h180M666 556h180M666 557h180M666 558h198M666 559h198M666 560h198M666 561h198M666 562h198M666 563h198M666 564h198M666 565h198M666 566h198M666 567h198M666 568h198M666 569h198M666 570h198M666 571h198M666 572h198M666 573h198M666 574h198M666 575h198M702 576h180M702 577h180M702 578h180M702 579h180M702 580h180M702 581h180M702 582h180M702 583h180M702 584h180M702 585h180M702 586h180M702 587h180M702 588h180M702 589h180M702 590h180M702 591h180M702 592h180M702 593h180M486 594h72M702 594h198M486 595h72M702 595h198M486 596h72M702 596h198M486 597h72M702 597h198M486 598h72M702 598h198M486 599h72M702 599h198M486 600h72M702 600h198M486 601h72M702 601h198M486 602h72M702 602h198M486 603h72M702 603h198M486 604h72M702 604h198M486 605h72M702 605h198M486 606h72M702 606h198M486 607h72M702 607h198M486 608h72M702 608h198M486 609h72M702 609h198M486 610h72M702 610h198M486 611h72M702 611h198M450 612h90M720 612h234M450 613h90M720 613h234M450 614h90M720 614h234M450 615h90M720 615h234M450 616h90M720 616h234M450 617h90M720 617h234M450 618h90M720 618h234M450 619h90M720 619h234M450 620h90M720 620h234M450 621h90M720 621h234M450 622h90M720 622h234M450 623h90M720 623h234M450 624h90M720 624h234M450 625h90M720 625h234M450 626h90M720 626h234M450 627h90M720 627h234M450 628h90M720 628h234M450 629h90M720 629h234M396 630h126M738 630h216M396 631h126M738 631h216M396 632h126M738 632h216M396 633h126M738 633h216M396 634h126M738 634h216M396 635h126M738 635h216M396 636h126M738 636h216M396 637h126M738 637h216M396 638h126M738 638h216M396 639h126M738 639h216M396 640h126M738 640h216M396 641h126M738 641h216M396 642h126M738 642h216M396 643h126M738 643h216M396 644h126M738 644h216M396 645h126M738 645h216M396 646h126M738 646h216M396 647h126M738 647h216M378 648h144M738 648h234M378 649h144M738 649h234M378 650h144M738 650h234M378 651h144M738 651h234M378 652h144M738 652h234M378 653h144M738 653h234M378 654h144M738 654h234M378 655h144M738 655h234M378 656h144M738 656h234M378 657h144M738 657h234M378 658h144M738 658h234M378 659h144M738 659h234M378 660h144M738 660h234M378 661h144M738 661h234M378 662h144M738 662h234M378 663h144M738 663h234M378 664h144M738 664h234M378 665h144M738 665h234M360 666h144M756 666h216M360 667h144M756 667h216M360 668h144M756 668h216M360 669h144M756 669h216M360 670h144M756 670h216M360 671h144M756 671h216M360 672h144M756 672h216M360 673h144M756 673h216M360 674h144M756 674h216M360 675h144M756 675h216M360 676h144M756 676h216M360 677h144M756 677h216M360 678h144M756 678h216M360 679h144M756 679h216M360 680h144M756 680h216M360 681h144M756 681h216M360 682h144M756 682h216M360 683h144M756 683h216M360 684h144M756 684h234M360 685h144M756 685h234M360 686h144M756 686h234M360 687h144M756 687h234M360 688h144M756 688h234M360 689h144M756 689h234M360 690h144M756 690h234M360 691h144M756 691h234M360 692h144M756 692h234M360 693h144M756 693h234M360 694h144M756 694h234M360 695h144M756 695h234M360 696h144M756 696h234M360 697h144M756 697h234M360 698h144M756 698h234M360 699h144M756 699h234M360 700h144M756 700h234M360 701h144M756 701h234M342 702h144M756 702h234M342 703h144M756 703h234M342 704h144M756 704h234M342 705h144M756 705h234M342 706h144M756 706h234M342 707h144M756 707h234M342 708h144M756 708h234M342 709h144M756 709h234M342 710h144M756 710h234M342 711h144M756 711h234M342 712h144M756 712h234M342 713h144M756 713h234M342 714h144M756 714h234M342 715h144M756 715h234M342 716h144M756 716h234M342 717h144M756 717h234M342 718h144M756 718h234M342 719h144M756 719h234M324 720h162M774 720h198M324 721h162M774 721h198M324 722h162M774 722h198M324 723h162M774 723h198M324 724h162M774 724h198M324 725h162M774 725h198M324 726h162M774 726h198M324 727h162M774 727h198M324 728h162M774 728h198M324 729h162M774 729h198M324 730h162M774 730h198M324 731h162M774 731h198M324 732h162M774 732h198M324 733h162M774 733h198M324 734h162M774 734h198M324 735h162M774 735h198M324 736h162M774 736h198M324 737h162M774 737h198M306 738h162M792 738h162M306 739h162M792 739h162M306 740h162M792 740h162M306 741h162M792 741h162M306 742h162M792 742h162M306 743h162M792 743h162M306 744h162M792 744h162M306 745h162M792 745h162M306 746h162M792 746h162M306 747h162M792 747h162M306 748h162M792 748h162M306 749h162M792 749h162M306 750h162M792 750h162M306 751h162M792 751h162M306 752h162M792 752h162M306 753h162M792 753h162M306 754h162M792 754h162M306 755h162M792 755h162M288 756h180M810 756h126M288 757h180M810 757h126M288 758h180M810 758h126M288 759h180M810 759h126M288 760h180M810 760h126M288 761h180M810 761h126M288 762h180M810 762h126M288 763h180M810 763h126M288 764h180M810 764h126M288 765h180M810 765h126M288 766h180M810 766h126M288 767h180M810 767h126M288 768h180M810 768h126M288 769h180M810 769h126M288 770h180M810 770h126M288 771h180M810 771h126M288 772h180M810 772h126M288 773h180M810 773h126M270 774h198M828 774h108M270 775h198M828 775h108M270 776h198M828 776h108M270 777h198M828 777h108M270 778h198M828 778h108M270 779h198M828 779h108M270 780h198M828 780h108M270 781h198M828 781h108M270 782h198M828 782h108M270 783h198M828 783h108M270 784h198M828 784h108M270 785h198M828 785h108M270 786h198M828 786h108M270 787h198M828 787h108M270 788h198M828 788h108M270 789h198M828 789h108M270 790h198M828 790h108M270 791h198M828 791h108M270 792h198M270 793h198M270 794h198M270 795h198M270 796h198M270 797h198M270 798h198M270 799h198M270 800h198M270 801h198M270 802h198M270 803h198M270 804h198M270 805h198M270 806h198M270 807h198M270 808h198M270 809h198M306 810h162M306 811h162M306 812h162M306 813h162M306 814h162M306 815h162M306 816h162M306 817h162M306 818h162M306 819h162M306 820h162M306 821h162M306 822h162M306 823h162M306 824h162M306 825h162M306 826h162M306 827h162M306 828h162M306 829h162M306 830h162M306 831h162M306 832h162M306 833h162M306 834h162M306 835h162M306 836h162M306 837h162M306 838h162M306 839h162M306 840h162M306 841h162M306 842h162M306 843h162M306 844h162M306 845h162M306 846h144M306 847h144M306 848h144M306 849h144M306 850h144M306 851h144M306 852h144M306 853h144M306 854h144M306 855h144M306 856h144M306 857h144M306 858h144M306 859h144M306 860h144M306 861h144M306 862h144M306 863h144" />
<path stroke="#2e7d32" d="M648 252h36M648 253h36M648 254h36M648 255h36M648 256h36M648 257h36M648 258h36M648 259h36M648 260h36M648 261h36M648 262h36M648 263h36M648 264h36M648 265h36M648 266h36M648 267h36M648 268h36M648 269h36M630 270h36M630 271h36M630 272h36M630 273h36M630 274h36M630 275h36M630 276h36M630 277h36M630 278h36M630 279h36M630 280h36M630 281h36M630 282h36M630 283h36M630 284h36M630 285h36M630 286h36M630 287h36M576 288h18M612 288h18M576 289h18M612 289h18M576 290h18M612 290h18M576 291h18M612 291h18M576 292h18M612 292h18M576 293h18M612 293h18M576 294h18M612 294h18M576 295h18M612 295h18M576 296h18M612 296h18M576 297h18M612 297h18M576 298h18M612 298h18M576 299h18M612 299h18M576 300h18M612 300h18M576 301h18M612 301h18M576 302h18M612 302h18M576 303h18M612 303h18M576 304h18M612 304h18M576 305h18M612 305h18M576 306h36M576 307h36M576 308h36M576 309h36M576 310h36M576 311h36M576 312h36M576 313h36M576 314h36M576 315h36M576 316h36M576 317h36M576 318h36M576 319h36M576 320h36M576 321h36M576 322h36M576 323h36M576 324h18M576 325h18M576 326h18M576 327h18M576 328h18M576 329h18M576 330h18M576 331h18M576 332h18M576 333h18M576 334h18M576 335h18M576 336h18M576 337h18M576 338h18M576 339h18M576 340h18M576 341h18M684 396h36M684 397h36M684 398h36M684 399h36M684 400h36M684 401h36M684 402h36M684 403h36M684 404h36M684 405h36M684 406h36M684 407h36M684 408h36M684 409h36M684 410h36M684 411h36M684 412h36M684 413h36M648 414h36M648 415h36M648 416h36M648 417h36M648 418h36M648 419h36M648 420h36M648 421h36M648 422h36M648 423h36M648 424h36M648 425h36M648 426h36M648 427h36M648 428h36M648 429h36M648 430h36M648 431h36M612 432h36M612 433h36M612 434h36M612 435h36M612 436h36M612 437h36M612 438h36M612 439h36M612 440h36M612 441h36M612 442h36M612 443h36M612 444h36M612 445h36M612 446h36M612 447h36M612 448h36M612 449h36M594 450h36M594 451h36M594 452h36M594 453h36M594 454h36M594 455h36M594 456h36M594 457h36M594 458h36M594 459h36M594 460h36M594 461h36M594 462h36M594 463h36M594 464h36M594 465h36M594 466h36M594 467h36M540 468h72M540 469h72M540 470h72M540 471h72M540 472h72M540 473h72M540 474h72M540 475h72M540 476h72M540 477h72M540 478h72M540 479h72M540 480h72M540 481h72M540 482h72M540 483h72M540 484h72M540 485h72M288 486h54M540 486h54M288 487h54M540 487h54M288 488h54M540 488h54M288 489h54M540 489h54M288 490h54M540 490h54M288 491h54M540 491h54M288 492h54M540 492h54M288 493h54M540 493h54M288 494h54M540 494h54M288 495h54M540 495h54M288 496h54M540 496h54M288 497h54M540 497h54M288 498h54M540 498h54M288 499h54M540 499h54M288 500h54M540 500h54M288 501h54M540 501h54M288 502h54M540 502h54M288 503h54M540 503h54M270 504h36M540 504h36M612 504h18M270 505h36M540 505h36M612 505h18M270 506h36M540 506h36M612 506h18M270 507h36M540 507h36M612 507h18M270 508h36M540 508h36M612 508h18M270 509h36M540 509h36M612 509h18M270 510h36M540 510h36M612 510h18M270 511h36M540 511h36M612 511h18M270 512h36M540 512h36M612 512h18M270 513h36M540 513h36M612 513h18M270 514h36M540 514h36M612 514h18M270 515h36M540 515h36M612 515h18M270 516h36M540 516h36M612 516h18M270 517h36M540 517h36M612 517h18M270 518h36M540 518h36M612 518h18M270 519h36M540 519h36M612 519h18M270 520h36M540 520h36M612 520h18M270 521h36M540 521h36M612 521h18M234 522h54M522 522h18M558 522h18M594 522h36M234 523h54M522 523h18M558 523h18M594 523h36M234 524h54M522 524h18M558 524h18M594 524h36M234 525h54M522 525h18M558 525h18M594 525h36M234 526h54M522 526h18M558 526h18M594 526h36M234 527h54M522 527h18M558 527h18M594 527h36M234 528h54M522 528h18M558 528h18M594 528h36M234 529h54M522 529h18M558 529h18M594 529h36M234 530h54M522 530h18M558 530h18M594 530h36M234 531h54M522 531h18M558 531h18M594 531h36M234 532h54M522 532h18M558 532h18M594 532h36M234 533h54M522 533h18M558 533h18M594 533h36M234 534h54M522 534h18M558 534h18M594 534h36M234 535h54M522 535h18M558 535h18M594 535h36M234 536h54M522 536h18M558 536h18M594 536h36M234 537h54M522 537h18M558 537h18M594 537h36M234 538h54M522 538h18M558 538h18M594 538h36M234 539h54M522 539h18M558 539h18M594 539h36M216 540h36M486 540h54M594 540h54M846 540h36M216 541h36M486 541h54M594 541h54M846 541h36M216 542h36M486 542h54M594 542h54M846 542h36M216 543h36M486 543h54M594 543h54M846 543h36M216 544h36M486 544h54M594 544h54M846 544h36M216 545h36M486 545h54M594 545h54M846 545h36M216 546h36M486 546h54M594 546h54M846 546h36M216 547h36M486 547h54M594 547h54M846 547h36M216 548h36M486 548h54M594 548h54M846 548h36M216 549h36M486 549h54M594 549h54M846 549h36M216 550h36M486 550h54M594 550h54M846 550h36M216 551h36M486 551h54M594 551h54M846 551h36M216 552h36M486 552h54M594 552h54M846 552h36M216 553h36M486 553h54M594 553h54M846 553h36M216 554h36M486 554h54M594 554h54M846 554h36M216 555h36M486 555h54M594 555h54M846 555h36M216 556h36M486 556h54M594 556h54M846 556h36M216 557h36M486 557h54M594 557h54M846 557h36M198 558h18M450 558h90M612 558h54M864 558h36M198 559h18M450 559h90M612 559h54M864 559h36M198 560h18M450 560h90M612 560h54M864 560h36M198 561h18M450 561h90M612 561h54M864 561h36M198 562h18M450 562h90M612 562h54M864 562h36M198 563h18M450 563h90M612 563h54M864 563h36M198 564h18M450 564h90M612 564h54M864 564h36M198 565h18M450 565h90M612 565h54M864 565h36M198 566h18M450 566h90M612 566h54M864 566h36M198 567h18M450 567h90M612 567h54M864 567h36M198 568h18M450 568h90M612 568h54M864 568h36M198 569h18M450 569h90M612 569h54M864 569h36M198 570h18M450 570h90M612 570h54M864 570h36M198 571h18M450 571h90M612 571h54M864 571h36M198 572h18M450 572h90M612 572h54M864 572h36M198 573h18M450 573h90M612 573h54M864 573h36M198 574h18M450 574h90M612 574h54M864 574h36M198 575h18M450 575h90M612 575h54M864 575h36M432 576h36M540 576h54M648 576h54M882 576h18M432 577h36M540 577h54M648 577h54M882 577h18M432 578h36M540 578h54M648 578h54M882 578h18M432 579h36M540 579h54M648 579h54M882 579h18M432 580h36M540 580h54M648 580h54M882 580h18M432 581h36M540 581h54M648 581h54M882 581h18M432 582h36M540 582h54M648 582h54M882 582h18M432 583h36M540 583h54M648 583h54M882 583h18M432 584h36M540 584h54M648 584h54M882 584h18M432 585h36M540 585h54M648 585h54M882 585h18M432 586h36M540 586h54M648 586h54M882 586h18M432 587h36M540 587h54M648 587h54M882 587h18M432 588h36M540 588h54M648 588h54M882 588h18M432 589h36M540 589h54M648 589h54M882 589h18M432 590h36M540 590h54M648 590h54M882 590h18M432 591h36M540 591h54M648 591h54M882 591h18M432 592h36M540 592h54M648 592h54M882 592h18M432 593h36M540 593h54M648 593h54M882 593h18M342 594h108M594 594h36M666 594h36M900 594h54M342 595h108M594 595h36M666 595h36M900 595h54M342 596h108M594 596h36M666 596h36M900 596h54M342 597h108M594 597h36M666 597h36M900 597h54M342 598h108M594 598h36M666 598h36M900 598h54M342 599h108M594 599h36M666 599h36M900 599h54M342 600h108M594 600h36M666 600h36M900 600h54M342 601h108M594 601h36M666 601h36M900 601h54M342 602h108M594 602h36M666 602h36M900 602h54M342 603h108M594 603h36M666 603h36M900 603h54M342 604h108M594 604h36M666 604h36M900 604h54M342 605h108M594 605h36M666 605h36M900 605h54M342 606h108M594 606h36M666 606h36M900 606h54M342 607h108M594 607h36M666 607h36M900 607h54M342 608h108M594 608h36M666 608h36M900 608h54M342 609h108M594 609h36M666 609h36M900 609h54M342 610h108M594 610h36M666 610h36M900 610h54M342 611h108M594 611h36M666 611h36M900 611h54M324 612h36M684 612h36M324 613h36M684 613h36M324 614h36M684 614h36M324 615h36M684 615h36M324 616h36M684 616h36M324 617h36M684 617h36M324 618h36M684 618h36M324 619h36M684 619h36M324 620h36M684 620h36M324 621h36M684 621h36M324 622h36M684 622h36M324 623h36M684 623h36M324 624h36M684 624h36M324 625h36M684 625h36M324 626h36M684 626h36M324 627h36M684 627h36M324 628h36M684 628h36M324 629h36M684 629h36M324 630h18M378 630h18M702 630h36M324 631h18M378 631h18M702 631h36M324 632h18M378 632h18M702 632h36M324 633h18M378 633h18M702 633h36M324 634h18M378 634h18M702 634h36M324 635h18M378 635h18M702 635h36M324 636h18M378 636h18M702 636h36M324 637h18M378 637h18M702 637h36M324 638h18M378 638h18M702 638h36M324 639h18M378 639h18M702 639h36M324 640h18M378 640h18M702 640h36M324 641h18M378 641h18M702 641h36M324 642h18M378 642h18M702 642h36M324 643h18M378 643h18M702 643h36M324 644h18M378 644h18M702 644h36M324 645h18M378 645h18M702 645h36M324 646h18M378 646h18M702 646h36M324 647h18M378 647h18M702 647h36M306 648h36M360 648h18M702 648h36M306 649h36M360 649h18M702 649h36M306 650h36M360 650h18M702 650h36M306 651h36M360 651h18M702 651h36M306 652h36M360 652h18M702 652h36M306 653h36M360 653h18M702 653h36M306 654h36M360 654h18M702 654h36M306 655h36M360 655h18M702 655h36M306 656h36M360 656h18M702 656h36M306 657h36M360 657h18M702 657h36M306 658h36M360 658h18M702 658h36M306 659h36M360 659h18M702 659h36M306 660h36M360 660h18M702 660h36M306 661h36M360 661h18M702 661h36M306 662h36M360 662h18M702 662h36M306 663h36M360 663h18M702 663h36M306 664h36M360 664h18M702 664h36M306 665h36M360 665h18M702 665h36M288 666h36M342 666h18M720 666h36M288 667h36M342 667h18M720 667h36M288 668h36M342 668h18M720 668h36M288 669h36M342 669h18M720 669h36M288 670h36M342 670h18M720 670h36M288 671h36M342 671h18M720 671h36M288 672h36M342 672h18M720 672h36M288 673h36M342 673h18M720 673h36M288 674h36M342 674h18M720 674h36M288 675h36M342 675h18M720 675h36M288 676h36M342 676h18M720 676h36M288 677h36M342 677h18M720 677h36M288 678h36M342 678h18M720 678h36M288 679h36M342 679h18M720 679h36M288 680h36M342 680h18M720 680h36M288 681h36M342 681h18M720 681h36M288 682h36M342 682h18M720 682h36M288 683h36M342 683h18M720 683h36M270 684h54M342 684h18M720 684h36M270 685h54M342 685h18M720 685h36M270 686h54M342 686h18M720 686h36M270 687h54M342 687h18M720 687h36M270 688h54M342 688h18M720 688h36M270 689h54M342 689h18M720 689h36M270 690h54M342 690h18M720 690h36M270 691h54M342 691h18M720 691h36M270 692h54M342 692h18M720 692h36M270 693h54M342 693h18M720 693h36M270 694h54M342 694h18M720 694h36M270 695h54M342 695h18M720 695h36M270 696h54M342 696h18M720 696h36M270 697h54M342 697h18M720 697h36M270 698h54M342 698h18M720 698h36M270 699h54M342 699h18M720 699h36M270 700h54M342 700h18M720 700h36M270 701h54M342 701h18M720 701h36M252 702h36M324 702h18M738 702h18M252 703h36M324 703h18M738 703h18M252 704h36M324 704h18M738 704h18M252 705h36M324 705h18M738 705h18M252 706h36M324 706h18M738 706h18M252 707h36M324 707h18M738 707h18M252 708h36M324 708h18M738 708h18M252 709h36M324 709h18M738 709h18M252 710h36M324 710h18M738 710h18M252 711h36M324 711h18M738 711h18M252 712h36M324 712h18M738 712h18M252 713h36M324 713h18M738 713h18M252 714h36M324 714h18M738 714h18M252 715h36M324 715h18M738 715h18M252 716h36M324 716h18M738 716h18M252 717h36M324 717h18M738 717h18M252 718h36M324 718h18M738 718h18M252 719h36M324 719h18M738 719h18M306 720h18M738 720h36M306 721h18M738 721h36M306 722h18M738 722h36M306 723h18M738 723h36M306 724h18M738 724h36M306 725h18M738 725h36M306 726h18M738 726h36M306 727h18M738 727h36M306 728h18M738 728h36M306 729h18M738 729h36M306 730h18M738 730h36M306 731h18M738 731h36M306 732h18M738 732h36M306 733h18M738 733h36M306 734h18M738 734h36M306 735h18M738 735h36M306 736h18M738 736h36M306 737h18M738 737h36M270 738h36M738 738h54M270 739h36M738 739h54M270 740h36M738 740h54M270 741h36M738 741h54M270 742h36M738 742h54M270 743h36M738 743h54M270 744h36M738 744h54M270 745h36M738 745h54M270 746h36M738 746h54M270 747h36M738 747h54M270 748h36M738 748h54M270 749h36M738 749h54M270 750h36M738 750h54M270 751h36M738 751h54M270 752h36M738 752h54M270 753h36M738 753h54M270 754h36M738 754h54M270 755h36M738 755h54M270 756h18M756 756h54M270 757h18M756 757h54M270 758h18M756 758h54M270 759h18M756 759h54M270 760h18M756 760h54M270 761h18M756 761h54M270 762h18M756 762h54M270 763h18M756 763h54M270 764h18M756 764h54M270 765h18M756 765h54M270 766h18M756 766h54M270 767h18M756 767h54M270 768h18M756 768h54M270 769h18M756 769h54M270 770h18M756 770h54M270 771h18M756 771h54M270 772h18M756 772h54M270 773h18M756 773h54M756 774h72M756 775h72M756 776h72M756 777h72M756 778h72M756 779h72M756 780h72M756 781h72M756 782h72M756 783h72M756 784h72M756 785h72M756 786h72M756 787h72M756 788h72M756 789h72M756 790h72M756 791h72M486 792h36M756 792h126M486 793h36M756 793h126M486 794h36M756 794h126M486 795h36M756 795h126M486 796h36M756 796h126M486 797h36M756 797h126M486 798h36M756 798h126M486 799h36M756 799h126M486 800h36M756 800h126M486 801h36M756 801h126M486 802h36M756 802h126M486 803h36M756 803h126M486 804h36M756 804h126M486 805h36M756 805h126M486 806h36M756 806h126M486 807h36M756 807h126M486 808h36M756 808h126M486 809h36M756 809h126M270 810h36M504 810h18M270 811h36M504 811h18M270 812h36M504 812h18M270 813h36M504 813h18M270 814h36M504 814h18M270 815h36M504 815h18M270 816h36M504 816h18M270 817h36M504 817h18M270 818h36M504 818h18M270 819h36M504 819h18M270 820h36M504 820h18M270 821h36M504 821h18M270 822h36M504 822h18M270 823h36M504 823h18M270 824h36M504 824h18M270 825h36M504 825h18M270 826h36M504 826h18M270 827h36M504 827h18M288 828h18M504 828h18M288 829h18M504 829h18M288 830h18M504 830h18M288 831h18M504 831h18M288 832h18M504 832h18M288 833h18M504 833h18M288 834h18M504 834h18M288 835h18M504 835h18M288 836h18M504 836h18M288 837h18M504 837h18M288 838h18M504 838h18M288 839h18M504 839h18M288 840h18M504 840h18M288 841h18M504 841h18M288 842h18M504 842h18M288 843h18M504 843h18M288 844h18M504 844h18M288 845h18M504 845h18M288 846h18M450 846h18M486 846h36M720 846h18M810 846h36M288 847h18M450 847h18M486 847h36M720 847h18M810 847h36M288 848h18M450 848h18M486 848h36M720 848h18M810 848h36M288 849h18M450 849h18M486 849h36M720 849h18M810 849h36M288 850h18M450 850h18M486 850h36M720 850h18M810 850h36M288 851h18M450 851h18M486 851h36M720 851h18M810 851h36M288 852h18M450 852h18M486 852h36M720 852h18M810 852h36M288 853h18M450 853h18M486 853h36M720 853h18M810 853h36M288 854h18M450 854h18M486 854h36M720 854h18M810 854h36M288 855h18M450 855h18M486 855h36M720 855h18M810 855h36M288 856h18M450 856h18M486 856h36M720 856h18M810 856h36M288 857h18M450 857h18M486 857h36M720 857h18M810 857h36M288 858h18M450 858h18M486 858h36M720 858h18M810 858h36M288 859h18M450 859h18M486 859h36M720 859h18M810 859h36M288 860h18M450 860h18M486 860h36M720 860h18M810 860h36M288 861h18M450 861h18M486 861h36M720 861h18M810 861h36M288 862h18M450 862h18M486 862h36M720 862h18M810 862h36M288 863h18M450 863h18M486 863h36M720 863h18M810 863h36M306 864h162M504 864h18M720 864h18M792 864h72M306 865h162M504 865h18M720 865h18M792 865h72M306 866h162M504 866h18M720 866h18M792 866h72M306 867h162M504 867h18M720 867h18M792 867h72M306 868h162M504 868h18M720 868h18M792 868h72M306 869h162M504 869h18M720 869h18M792 869h72M306 870h162M504 870h18M720 870h18M792 870h72M306 871h162M504 871h18M720 871h18M792 871h72M306 872h162M504 872h18M720 872h18M792 872h72M306 873h162M504 873h18M720 873h18M792 873h72M306 874h162M504 874h18M720 874h18M792 874h72M306 875h162M504 875h18M720 875h18M792 875h72M306 876h162M504 876h18M720 876h18M792 876h72M306 877h162M504 877h18M720 877h18M792 877h72M306 878h162M504 878h18M720 878h18M792 878h72M306 879h162M504 879h18M720 879h18M792 879h72M306 880h162M504 880h18M720 880h18M792 880h72M306 881h162M504 881h18M720 881h18M792 881h72M360 882h72M504 882h18M720 882h18M810 882h72M360 883h72M504 883h18M720 883h18M810 883h72M360 884h72M504 884h18M720 884h18M810 884h72M360 885h72M504 885h18M720 885h18M810 885h72M360 886h72M504 886h18M720 886h18M810 886h72M360 887h72M504 887h18M720 887h18M810 887h72M360 888h72M504 888h18M720 888h18M810 888h72M360 889h72M504 889h18M720 889h18M810 889h72M360 890h72M504 890h18M720 890h18M810 890h72M360 891h72M504 891h18M720 891h18M810 891h72M360 892h72M504 892h18M720 892h18M810 892h72M360 893h72M504 893h18M720 893h18M810 893h72M360 894h72M504 894h18M720 894h18M810 894h72M360 895h72M504 895h18M720 895h18M810 895h72M360 896h72M504 896h18M720 896h18M810 896h72M360 897h72M504 897h18M720 897h18M810 897h72M360 898h72M504 898h18M720 898h18M810 898h72M360 899h72M504 899h18M720 899h18M810 899h72M522 900h18M702 900h18M828 900h72M522 901h18M702 901h18M828 901h72M522 902h18M702 902h18M828 902h72M522 903h18M702 903h18M828 903h72M522 904h18M702 904h18M828 904h72M522 905h18M702 905h18M828 905h72M522 906h18M702 906h18M828 906h72M522 907h18M702 907h18M828 907h72M522 908h18M702 908h18M828 908h72M522 909h18M702 909h18M828 909h72M522 910h18M702 910h18M828 910h72M522 911h18M702 911h18M828 911h72M522 912h18M702 912h18M828 912h72M522 913h18M702 913h18M828 913h72M522 914h18M702 914h18M828 914h72M522 915h18M702 915h18M828 915h72M522 916h18M702 916h18M828 916h72M522 917h18M702 917h18M828 917h72M540 918h18M684 918h18M846 918h36M540 919h18M684 919h18M846 919h36M540 920h18M684 920h18M846 920h36M540 921h18M684 921h18M846 921h36M540 922h18M684 922h18M846 922h36M540 923h18M684 923h18M846 923h36M540 924h18M684 924h18M846 924h36M540 925h18M684 925h18M846 925h36M540 926h18M684 926h18M846 926h36M540 927h18M684 927h18M846 927h36M540 928h18M684 928h18M846 928h36M540 929h18M684 929h18M846 929h36M540 930h18M684 930h18M846 930h36M540 931h18M684 931h18M846 931h36M540 932h18M684 932h18M846 932h36M540 933h18M684 933h18M846 933h36M540 934h18M684 934h18M846 934h36M540 935h18M684 935h18M846 935h36M540 936h18M666 936h18M846 936h18M540 937h18M666 937h18M846 937h18M540 938h18M666 938h18M846 938h18M540 939h18M666 939h18M846 939h18M540 940h18M666 940h18M846 940h18M540 941h18M666 941h18M846 941h18M540 942h18M666 942h18M846 942h18M540 943h18M666 943h18M846 943h18M540 944h18M666 944h18M846 944h18M540 945h18M666 945h18M846 945h18M540 946h18M666 946h18M846 946h18M540 947h18M666 947h18M846 947h18M540 948h18M666 948h18M846 948h18M540 949h18M666 949h18M846 949h18M540 950h18M666 950h18M846 950h18M540 951h18M666 951h18M846 951h18M540 952h18M666 952h18M846 952h18M540 953h18M666 953h18M846 953h18M558 954h108M558 955h108M558 956h108M558 957h108M558 958h108M558 959h108M558 960h108M558 961h108M558 962h108M558 963h108M558 964h108M558 965h108M558 966h108M558 967h108M558 968h108M558 969h108M558 970h108M558 971h108M594 972h36M594 973h36M594 974h36M594 975h36M594 976h36M594 977h36M594 978h36M594 979h36M594 980h36M594 981h36M594 982h36M594 983h36M594 984h36M594 985h36M594 986h36M594 987h36M594 988h36M594 989h36" />
<path stroke="#1b5e20" d="M756 828h72M756 829h72M756 830h72M756 831h72M756 832h72M756 833h72M756 834h72M756 835h72M756 836h72M756 837h72M756 838h72M756 839h72M756 840h72M756 841h72M756 842h72M756 843h72M756 844h72M756 845h72M756 846h54M756 847h54M756 848h54M756 849h54M756 850h54M756 851h54M756 852h54M756 853h54M756 854h54M756 855h54M756 856h54M756 857h54M756 858h54M756 859h54M756 860h54M756 861h54M756 862h54M756 863h54M774 864h18M774 865h18M774 866h18M774 867h18M774 868h18M774 869h18M774 870h18M774 871h18M774 872h18M774 873h18M774 874h18M774 875h18M774 876h18M774 877h18M774 878h18M774 879h18M774 880h18M774 881h18M792 882h18M792 883h18M792 884h18M792 885h18M792 886h18M792 887h18M792 888h18M792 889h18M792 890h18M792 891h18M792 892h18M792 893h18M792 894h18M792 895h18M792 896h18M792 897h18M792 898h18M792 899h18M810 900h18M810 901h18M810 902h18M810 903h18M810 904h18M810 905h18M810 906h18M810 907h18M810 908h18M810 909h18M810 910h18M810 911h18M810 912h18M810 913h18M810 914h18M810 915h18M810 916h18M810 917h18M810 918h36M882 918h18M810 919h36M882 919h18M810 920h36M882 920h18M810 921h36M882 921h18M810 922h36M882 922h18M810 923h36M882 923h18M810 924h36M882 924h18M810 925h36M882 925h18M810 926h36M882 926h18M810 927h36M882 927h18M810 928h36M882 928h18M810 929h36M882 929h18M810 930h36M882 930h18M810 931h36M882 931h18M810 932h36M882 932h18M810 933h36M882 933h18M810 934h36M882 934h18M810 935h36M882 935h18M828 936h18M864 936h36M828 937h18M864 937h36M828 938h18M864 938h36M828 939h18M864 939h36M828 940h18M864 940h36M828 941h18M864 941h36M828 942h18M864 942h36M828 943h18M864 943h36M828 944h18M864 944h36M828 945h18M864 945h36M828 946h18M864 946h36M828 947h18M864 947h36M828 948h18M864 948h36M828 949h18M864 949h36M828 950h18M864 950h36M828 951h18M864 951h36M828 952h18M864 952h36M828 953h18M864 953h36M828 954h72M828 955h72M828 956h72M828 957h72M828 958h72M828 959h72M828 960h72M828 961h72M828 962h72M828 963h72M828 964h72M828 965h72M828 966h72M828 967h72M828 968h72M828 969h72M828 970h72M828 971h72M828 972h54M828 973h54M828 974h54M828 975h54M828 976h54M828 977h54M828 978h54M828 979h54M828 980h54M828 981h54M828 982h54M828 983h54M828 984h54M828 985h54M828 986h54M828 987h54M828 988h54M828 989h54" />
</svg>