<svg xmlns="http://www.w3.org/2000/svg" viewBox="0 -0.5 1170 1170" shape-rendering="crispEdges">
<metadata>Made with Pixels to Svg https://codepen.io/shshaw/pen/XbxvNj</metadata>
<path stroke="#000000" d="M378 144h162M378 145h162M378 146h162M378 147h162M378 148h162M378 149h162M378 150h162M378 151h162M378 152h162M378 153h162M378 154h162M378 155h162M378 156h162M378 157h162M378 158h162M378 159h162M378 160h162M378 161h162M342 162h252M342 163h252M342 164h252M342 165h252M342 166h252M342 167h252M342 168h252M342 169h252M342 170h252M342 171h252M342 172h252M342 173h252M342 174h252M342 175h252M342 176h252M342 177h252M342 178h252M342 179h252M306 180h126M504 180h162M900 180h36M306 181h126M504 181h162M900 181h36M306 182h126M504 182h162M900 182h36M306 183h126M504 183h162M900 183h36M306 184h126M504 184h162M900 184h36M306 185h126M504 185h162M900 185h36M306 186h126M504 186h162M900 186h36M306 187h126M504 187h162M900 187h36M306 188h126M504 188h162M900 188h36M306 189h126M504 189h162M900 189h36M306 190h126M504 190h162M900 190h36M306 191h126M504 191h162M900 191h36M306 192h126M504 192h162M900 192h36M306 193h126M504 193h162M900 193h36M306 194h126M504 194h162M900 194h36M306 195h126M504 195h162M900 195h36M306 196h126M504 196h162M900 196h36M306 197h126M504 197h162M900 197h36M126 198h234M576 198h108M882 198h90M126 199h234M576 199h108M882 199h90M126 200h234M576 200h108M882 200h90M126 201h234M576 201h108M882 201h90M126 202h234M576 202h108M882 202h90M126 203h234M576 203h108M882 203h90M126 204h234M576 204h108M882 204h90M126 205h234M576 205h108M882 205h90M126 206h234M576 206h108M882 206h90M126 207h234M576 207h108M882 207h90M126 208h234M576 208h108M882 208h90M126 209h234M576 209h108M882 209h90M126 210h234M576 210h108M882 210h90M126 211h234M576 211h108M882 211h90M126 212h234M576 212h108M882 212h90M126 213h234M576 213h108M882 213h90M126 214h234M576 214h108M882 214h90M126 215h234M576 215h108M882 215h90M126 216h198M648 216h90M828 216h72M918 216h72M126 217h198M648 217h90M828 217h72M918 217h72M126 218h198M648 218h90M828 218h72M918 218h72M126 219h198M648 219h90M828 219h72M918 219h72M126 220h198M648 220h90M828 220h72M918 220h72M126 221h198M648 221h90M828 221h72M918 221h72M126 222h198M648 222h90M828 222h72M918 222h72M126 223h198M648 223h90M828 223h72M918 223h72M126 224h198M648 224h90M828 224h72M918 224h72M126 225h198M648 225h90M828 225h72M918 225h72M126 226h198M648 226h90M828 226h72M918 226h72M126 227h198M648 227h90M828 227h72M918 227h72M126 228h198M648 228h90M828 228h72M918 228h72M126 229h198M648 229h90M828 229h72M918 229h72M126 230h198M648 230h90M828 230h72M918 230h72M126 231h198M648 231h90M828 231h72M918 231h72M126 232h198M648 232h90M828 232h72M918 232h72M126 233h198M648 233h90M828 233h72M918 233h72M126 234h36M234 234h72M684 234h216M954 234h36M126 235h36M234 235h72M684 235h216M954 235h36M126 236h36M234 236h72M684 236h216M954 236h36M126 237h36M234 237h72M684 237h216M954 237h36M126 238h36M234 238h72M684 238h216M954 238h36M126 239h36M234 239h72M684 239h216M954 239h36M126 240h36M234 240h72M684 240h216M954 240h36M126 241h36M234 241h72M684 241h216M954 241h36M126 242h36M234 242h72M684 242h216M954 242h36M126 243h36M234 243h72M684 243h216M954 243h36M126 244h36M234 244h72M684 244h216M954 244h36M126 245h36M234 245h72M684 245h216M954 245h36M126 246h36M234 246h72M684 246h216M954 246h36M126 247h36M234 247h72M684 247h216M954 247h36M126 248h36M234 248h72M684 248h216M954 248h36M126 249h36M234 249h72M684 249h216M954 249h36M126 250h36M234 250h72M684 250h216M954 250h36M126 251h36M234 251h72M684 251h216M954 251h36M126 252h36M234 252h18M756 252h72M954 252h54M126 253h36M234 253h18M756 253h72M954 253h54M126 254h36M234 254h18M756 254h72M954 254h54M126 255h36M234 255h18M756 255h72M954 255h54M126 256h36M234 256h18M756 256h72M954 256h54M126 257h36M234 257h18M756 257h72M954 257h54M126 258h36M234 258h18M756 258h72M954 258h54M126 259h36M234 259h18M756 259h72M954 259h54M126 260h36M234 260h18M756 260h72M954 260h54M126 261h36M234 261h18M756 261h72M954 261h54M126 262h36M234 262h18M756 262h72M954 262h54M126 263h36M234 263h18M756 263h72M954 263h54M126 264h36M234 264h18M756 264h72M954 264h54M126 265h36M234 265h18M756 265h72M954 265h54M126 266h36M234 266h18M756 266h72M954 266h54M126 267h36M234 267h18M756 267h72M954 267h54M126 268h36M234 268h18M756 268h72M954 268h54M126 269h36M234 269h18M756 269h72M954 269h54M126 270h36M972 270h54M126 271h36M972 271h54M126 272h36M972 272h54M126 273h36M972 273h54M126 274h36M972 274h54M126 275h36M972 275h54M126 276h36M972 276h54M126 277h36M972 277h54M126 278h36M972 278h54M126 279h36M972 279h54M126 280h36M972 280h54M126 281h36M972 281h54M126 282h36M972 282h54M126 283h36M972 283h54M126 284h36M972 284h54M126 285h36M972 285h54M126 286h36M972 286h54M126 287h36M972 287h54M126 288h36M990 288h36M126 289h36M990 289h36M126 290h36M990 290h36M126 291h36M990 291h36M126 292h36M990 292h36M126 293h36M990 293h36M126 294h36M990 294h36M126 295h36M990 295h36M126 296h36M990 296h36M126 297h36M990 297h36M126 298h36M990 298h36M126 299h36M990 299h36M126 300h36M990 300h36M126 301h36M990 301h36M126 302h36M990 302h36M126 303h36M990 303h36M126 304h36M990 304h36M126 305h36M990 305h36M126 306h36M990 306h54M126 307h36M990 307h54M126 308h36M990 308h54M126 309h36M990 309h54M126 310h36M990 310h54M126 311h36M990 311h54M126 312h36M990 312h54M126 313h36M990 313h54M126 314h36M990 314h54M126 315h36M990 315h54M126 316h36M990 316h54M126 317h36M990 317h54M126 318h36M990 318h54M126 319h36M990 319h54M126 320h36M990 320h54M126 321h36M990 321h54M126 322h36M990 322h54M126 323h36M990 323h54M126 324h36M1008 324h36M126 325h36M1008 325h36M126 326h36M1008 326h36M126 327h36M1008 327h36M126 328h36M1008 328h36M126 329h36M1008 329h36M126 330h36M1008 330h36M126 331h36M1008 331h36M126 332h36M1008 332h36M126 333h36M1008 333h36M126 334h36M1008 334h36M126 335h36M1008 335h36M126 336h36M1008 336h36M126 337h36M1008 337h36M126 338h36M1008 338h36M126 339h36M1008 339h36M126 340h36M1008 340h36M126 341h36M1008 341h36M126 342h36M990 342h36M126 343h36M990 343h36M126 344h36M990 344h36M126 345h36M990 345h36M126 346h36M990 346h36M126 347h36M990 347h36M126 348h36M990 348h36M126 349h36M990 349h36M126 350h36M990 350h36M126 351h36M990 351h36M126 352h36M990 352h36M126 353h36M990 353h36M126 354h36M990 354h36M126 355h36M990 355h36M126 356h36M990 356h36M126 357h36M990 357h36M126 358h36M990 358h36M126 359h36M990 359h36M126 360h36M342 360h90M972 360h36M126 361h36M342 361h90M972 361h36M126 362h36M342 362h90M972 362h36M126 363h36M342 363h90M972 363h36M126 364h36M342 364h90M972 364h36M126 365h36M342 365h90M972 365h36M126 366h36M342 366h90M972 366h36M126 367h36M342 367h90M972 367h36M126 368h36M342 368h90M972 368h36M126 369h36M342 369h90M972 369h36M126 370h36M342 370h90M972 370h36M126 371h36M342 371h90M972 371h36M126 372h36M342 372h90M972 372h36M126 373h36M342 373h90M972 373h36M126 374h36M342 374h90M972 374h36M126 375h36M342 375h90M972 375h36M126 376h36M342 376h90M972 376h36M126 377h36M342 377h90M972 377h36M126 378h36M306 378h162M954 378h36M126 379h36M306 379h162M954 379h36M126 380h36M306 380h162M954 380h36M126 381h36M306 381h162M954 381h36M126 382h36M306 382h162M954 382h36M126 383h36M306 383h162M954 383h36M126 384h36M306 384h162M954 384h36M126 385h36M306 385h162M954 385h36M126 386h36M306 386h162M954 386h36M126 387h36M306 387h162M954 387h36M126 388h36M306 388h162M954 388h36M126 389h36M306 389h162M954 389h36M126 390h36M306 390h162M954 390h36M126 391h36M306 391h162M954 391h36M126 392h36M306 392h162M954 392h36M126 393h36M306 393h162M954 393h36M126 394h36M306 394h162M954 394h36M126 395h36M306 395h162M954 395h36M126 396h36M270 396h54M414 396h108M666 396h36M918 396h54M126 397h36M270 397h54M414 397h108M666 397h36M918 397h54M126 398h36M270 398h54M414 398h108M666 398h36M918 398h54M126 399h36M270 399h54M414 399h108M666 399h36M918 399h54M126 400h36M270 400h54M414 400h108M666 400h36M918 400h54M126 401h36M270 401h54M414 401h108M666 401h36M918 401h54M126 402h36M270 402h54M414 402h108M666 402h36M918 402h54M126 403h36M270 403h54M414 403h108M666 403h36M918 403h54M126 404h36M270 404h54M414 404h108M666 404h36M918 404h54M126 405h36M270 405h54M414 405h108M666 405h36M918 405h54M126 406h36M270 406h54M414 406h108M666 406h36M918 406h54M126 407h36M270 407h54M414 407h108M666 407h36M918 407h54M126 408h36M270 408h54M414 408h108M666 408h36M918 408h54M126 409h36M270 409h54M414 409h108M666 409h36M918 409h54M126 410h36M270 410h54M414 410h108M666 410h36M918 410h54M126 411h36M270 411h54M414 411h108M666 411h36M918 411h54M126 412h36M270 412h54M414 412h108M666 412h36M918 412h54M126 413h36M270 413h54M414 413h108M666 413h36M918 413h54M126 414h36M270 414h18M432 414h252M900 414h36M126 415h36M270 415h18M432 415h252M900 415h36M126 416h36M270 416h18M432 416h252M900 416h36M126 417h36M270 417h18M432 417h252M900 417h36M126 418h36M270 418h18M432 418h252M900 418h36M126 419h36M270 419h18M432 419h252M900 419h36M126 420h36M270 420h18M432 420h252M900 420h36M126 421h36M270 421h18M432 421h252M900 421h36M126 422h36M270 422h18M432 422h252M900 422h36M126 423h36M270 423h18M432 423h252M900 423h36M126 424h36M270 424h18M432 424h252M900 424h36M126 425h36M270 425h18M432 425h252M900 425h36M126 426h36M270 426h18M432 426h252M900 426h36M126 427h36M270 427h18M432 427h252M900 427h36M126 428h36M270 428h18M432 428h252M900 428h36M126 429h36M270 429h18M432 429h252M900 429h36M126 430h36M270 430h18M432 430h252M900 430h36M126 431h36M270 431h18M432 431h252M900 431h36M126 432h36M270 432h18M504 432h162M882 432h36M126 433h36M270 433h18M504 433h162M882 433h36M126 434h36M270 434h18M504 434h162M882 434h36M126 435h36M270 435h18M504 435h162M882 435h36M126 436h36M270 436h18M504 436h162M882 436h36M126 437h36M270 437h18M504 437h162M882 437h36M126 438h36M270 438h18M504 438h162M882 438h36M126 439h36M270 439h18M504 439h162M882 439h36M126 440h36M270 440h18M504 440h162M882 440h36M126 441h36M270 441h18M504 441h162M882 441h36M126 442h36M270 442h18M504 442h162M882 442h36M126 443h36M270 443h18M504 443h162M882 443h36M126 444h36M270 444h18M504 444h162M882 444h36M126 445h36M270 445h18M504 445h162M882 445h36M126 446h36M270 446h18M504 446h162M882 446h36M126 447h36M270 447h18M504 447h162M882 447h36M126 448h36M270 448h18M504 448h162M882 448h36M126 449h36M270 449h18M504 449h162M882 449h36M126 450h36M270 450h18M594 450h54M864 450h54M126 451h36M270 451h18M594 451h54M864 451h54M126 452h36M270 452h18M594 452h54M864 452h54M126 453h36M270 453h18M594 453h54M864 453h54M126 454h36M270 454h18M594 454h54M864 454h54M126 455h36M270 455h18M594 455h54M864 455h54M126 456h36M270 456h18M594 456h54M864 456h54M126 457h36M270 457h18M594 457h54M864 457h54M126 458h36M270 458h18M594 458h54M864 458h54M126 459h36M270 459h18M594 459h54M864 459h54M126 460h36M270 460h18M594 460h54M864 460h54M126 461h36M270 461h18M594 461h54M864 461h54M126 462h36M270 462h18M594 462h54M864 462h54M126 463h36M270 463h18M594 463h54M864 463h54M126 464h36M270 464h18M594 464h54M864 464h54M126 465h36M270 465h18M594 465h54M864 465h54M126 466h36M270 466h18M594 466h54M864 466h54M126 467h36M270 467h18M594 467h54M864 467h54M126 468h36M270 468h18M540 468h90M846 468h54M126 469h36M270 469h18M540 469h90M846 469h54M126 470h36M270 470h18M540 470h90M846 470h54M126 471h36M270 471h18M540 471h90M846 471h54M126 472h36M270 472h18M540 472h90M846 472h54M126 473h36M270 473h18M540 473h90M846 473h54M126 474h36M270 474h18M540 474h90M846 474h54M126 475h36M270 475h18M540 475h90M846 475h54M126 476h36M270 476h18M540 476h90M846 476h54M126 477h36M270 477h18M540 477h90M846 477h54M126 478h36M270 478h18M540 478h90M846 478h54M126 479h36M270 479h18M540 479h90M846 479h54M126 480h36M270 480h18M540 480h90M846 480h54M126 481h36M270 481h18M540 481h90M846 481h54M126 482h36M270 482h18M540 482h90M846 482h54M126 483h36M270 483h18M540 483h90M846 483h54M126 484h36M270 484h18M540 484h90M846 484h54M126 485h36M270 485h18M540 485h90M846 485h54M126 486h162M540 486h72M828 486h36M126 487h162M540 487h72M828 487h36M126 488h162M540 488h72M828 488h36M126 489h162M540 489h72M828 489h36M126 490h162M540 490h72M828 490h36M126 491h162M540 491h72M828 491h36M126 492h162M540 492h72M828 492h36M126 493h162M540 493h72M828 493h36M126 494h162M540 494h72M828 494h36M126 495h162M540 495h72M828 495h36M126 496h162M540 496h72M828 496h36M126 497h162M540 497h72M828 497h36M126 498h162M540 498h72M828 498h36M126 499h162M540 499h72M828 499h36M126 500h162M540 500h72M828 500h36M126 501h162M540 501h72M828 501h36M126 502h162M540 502h72M828 502h36M126 503h162M540 503h72M828 503h36M522 504h54M828 504h36M522 505h54M828 505h36M522 506h54M828 506h36M522 507h54M828 507h36M522 508h54M828 508h36M522 509h54M828 509h36M522 510h54M828 510h36M522 511h54M828 511h36M522 512h54M828 512h36M522 513h54M828 513h36M522 514h54M828 514h36M522 515h54M828 515h36M522 516h54M828 516h36M522 517h54M828 517h36M522 518h54M828 518h36M522 519h54M828 519h36M522 520h54M828 520h36M522 521h54M828 521h36M504 522h54M810 522h36M504 523h54M810 523h36M504 524h54M810 524h36M504 525h54M810 525h36M504 526h54M810 526h36M504 527h54M810 527h36M504 528h54M810 528h36M504 529h54M810 529h36M504 530h54M810 530h36M504 531h54M810 531h36M504 532h54M810 532h36M504 533h54M810 533h36M504 534h54M810 534h36M504 535h54M810 535h36M504 536h54M810 536h36M504 537h54M810 537h36M504 538h54M810 538h36M504 539h54M810 539h36M486 540h54M810 540h18M486 541h54M810 541h18M486 542h54M810 542h18M486 543h54M810 543h18M486 544h54M810 544h18M486 545h54M810 545h18M486 546h54M810 546h18M486 547h54M810 547h18M486 548h54M810 548h18M486 549h54M810 549h18M486 550h54M810 550h18M486 551h54M810 551h18M486 552h54M810 552h18M486 553h54M810 553h18M486 554h54M810 554h18M486 555h54M810 555h18M486 556h54M810 556h18M486 557h54M810 557h18M468 558h54M792 558h36M468 559h54M792 559h36M468 560h54M792 560h36M468 561h54M792 561h36M468 562h54M792 562h36M468 563h54M792 563h36M468 564h54M792 564h36M468 565h54M792 565h36M468 566h54M792 566h36M468 567h54M792 567h36M468 568h54M792 568h36M468 569h54M792 569h36M468 570h54M792 570h36M468 571h54M792 571h36M468 572h54M792 572h36M468 573h54M792 573h36M468 574h54M792 574h36M468 575h54M792 575h36M450 576h54M774 576h36M450 577h54M774 577h36M450 578h54M774 578h36M450 579h54M774 579h36M450 580h54M774 580h36M450 581h54M774 581h36M450 582h54M774 582h36M450 583h54M774 583h36M450 584h54M774 584h36M450 585h54M774 585h36M450 586h54M774 586h36M450 587h54M774 587h36M450 588h54M774 588h36M450 589h54M774 589h36M450 590h54M774 590h36M450 591h54M774 591h36M450 592h54M774 592h36M450 593h54M774 593h36M432 594h72M756 594h36M432 595h72M756 595h36M432 596h72M756 596h36M432 597h72M756 597h36M432 598h72M756 598h36M432 599h72M756 599h36M432 600h72M756 600h36M432 601h72M756 601h36M432 602h72M756 602h36M432 603h72M756 603h36M432 604h72M756 604h36M432 605h72M756 605h36M432 606h72M756 606h36M432 607h72M756 607h36M432 608h72M756 608h36M432 609h72M756 609h36M432 610h72M756 610h36M432 611h72M756 611h36M432 612h54M756 612h36M432 613h54M756 613h36M432 614h54M756 614h36M432 615h54M756 615h36M432 616h54M756 616h36M432 617h54M756 617h36M432 618h54M756 618h36M432 619h54M756 619h36M432 620h54M756 620h36M432 621h54M756 621h36M432 622h54M756 622h36M432 623h54M756 623h36M432 624h54M756 624h36M432 625h54M756 625h36M432 626h54M756 626h36M432 627h54M756 627h36M432 628h54M756 628h36M432 629h54M756 629h36M414 630h54M738 630h36M414 631h54M738 631h36M414 632h54M738 632h36M414 633h54M738 633h36M414 634h54M738 634h36M414 635h54M738 635h36M414 636h54M738 636h36M414 637h54M738 637h36M414 638h54M738 638h36M414 639h54M738 639h36M414 640h54M738 640h36M414 641h54M738 641h36M414 642h54M738 642h36M414 643h54M738 643h36M414 644h54M738 644h36M414 645h54M738 645h36M414 646h54M738 646h36M414 647h54M738 647h36M396 648h54M720 648h36M396 649h54M720 649h36M396 650h54M720 650h36M396 651h54M720 651h36M396 652h54M720 652h36M396 653h54M720 653h36M396 654h54M720 654h36M396 655h54M720 655h36M396 656h54M720 656h36M396 657h54M720 657h36M396 658h54M720 658h36M396 659h54M720 659h36M396 660h54M720 660h36M396 661h54M720 661h36M396 662h54M720 662h36M396 663h54M720 663h36M396 664h54M720 664h36M396 665h54M720 665h36M378 666h72M720 666h36M378 667h72M720 667h36M378 668h72M720 668h36M378 669h72M720 669h36M378 670h72M720 670h36M378 671h72M720 671h36M378 672h72M720 672h36M378 673h72M720 673h36M378 674h72M720 674h36M378 675h72M720 675h36M378 676h72M720 676h36M378 677h72M720 677h36M378 678h72M720 678h36M378 679h72M720 679h36M378 680h72M720 680h36M378 681h72M720 681h36M378 682h72M720 682h36M378 683h72M720 683h36M378 684h54M702 684h36M378 685h54M702 685h36M378 686h54M702 686h36M378 687h54M702 687h36M378 688h54M702 688h36M378 689h54M702 689h36M378 690h54M702 690h36M378 691h54M702 691h36M378 692h54M702 692h36M378 693h54M702 693h36M378 694h54M702 694h36M378 695h54M702 695h36M378 696h54M702 696h36M378 697h54M702 697h36M378 698h54M702 698h36M378 699h54M702 699h36M378 700h54M702 700h36M378 701h54M702 701h36M378 702h36M702 702h18M378 703h36M702 703h18M378 704h36M702 704h18M378 705h36M702 705h18M378 706h36M702 706h18M378 707h36M702 707h18M378 708h36M702 708h18M378 709h36M702 709h18M378 710h36M702 710h18M378 711h36M702 711h18M378 712h36M702 712h18M378 713h36M702 713h18M378 714h36M702 714h18M378 715h36M702 715h18M378 716h36M702 716h18M378 717h36M702 717h18M378 718h36M702 718h18M378 719h36M702 719h18M360 720h54M684 720h36M360 721h54M684 721h36M360 722h54M684 722h36M360 723h54M684 723h36M360 724h54M684 724h36M360 725h54M684 725h36M360 726h54M684 726h36M360 727h54M684 727h36M360 728h54M684 728h36M360 729h54M684 729h36M360 730h54M684 730h36M360 731h54M684 731h36M360 732h54M684 732h36M360 733h54M684 733h36M360 734h54M684 734h36M360 735h54M684 735h36M360 736h54M684 736h36M360 737h54M684 737h36M360 738h54M684 738h36M360 739h54M684 739h36M360 740h54M684 740h36M360 741h54M684 741h36M360 742h54M684 742h36M360 743h54M684 743h36M360 744h54M684 744h36M360 745h54M684 745h36M360 746h54M684 746h36M360 747h54M684 747h36M360 748h54M684 748h36M360 749h54M684 749h36M360 750h54M684 750h36M360 751h54M684 751h36M360 752h54M684 752h36M360 753h54M684 753h36M360 754h54M684 754h36M360 755h54M684 755h36M360 756h36M666 756h36M360 757h36M666 757h36M360 758h36M666 758h36M360 759h36M666 759h36M360 760h36M666 760h36M360 761h36M666 761h36M360 762h36M666 762h36M360 763h36M666 763h36M360 764h36M666 764h36M360 765h36M666 765h36M360 766h36M666 766h36M360 767h36M666 767h36M360 768h36M666 768h36M360 769h36M666 769h36M360 770h36M666 770h36M360 771h36M666 771h36M360 772h36M666 772h36M360 773h36M666 773h36M342 774h54M666 774h36M342 775h54M666 775h36M342 776h54M666 776h36M342 777h54M666 777h36M342 778h54M666 778h36M342 779h54M666 779h36M342 780h54M666 780h36M342 781h54M666 781h36M342 782h54M666 782h36M342 783h54M666 783h36M342 784h54M666 784h36M342 785h54M666 785h36M342 786h54M666 786h36M342 787h54M666 787h36M342 788h54M666 788h36M342 789h54M666 789h36M342 790h54M666 790h36M342 791h54M666 791h36M342 792h36M648 792h36M342 793h36M648 793h36M342 794h36M648 794h36M342 795h36M648 795h36M342 796h36M648 796h36M342 797h36M648 797h36M342 798h36M648 798h36M342 799h36M648 799h36M342 800h36M648 800h36M342 801h36M648 801h36M342 802h36M648 802h36M342 803h36M648 803h36M342 804h36M648 804h36M342 805h36M648 805h36M342 806h36M648 806h36M342 807h36M648 807h36M342 808h36M648 808h36M342 809h36M648 809h36M342 810h36M648 810h36M342 811h36M648 811h36M342 812h36M648 812h36M342 813h36M648 813h36M342 814h36M648 814h36M342 815h36M648 815h36M342 816h36M648 816h36M342 817h36M648 817h36M342 818h36M648 818h36M342 819h36M648 819h36M342 820h36M648 820h36M342 821h36M648 821h36M342 822h36M648 822h36M342 823h36M648 823h36M342 824h36M648 824h36M342 825h36M648 825h36M342 826h36M648 826h36M342 827h36M648 827h36M342 828h36M648 828h36M342 829h36M648 829h36M342 830h36M648 830h36M342 831h36M648 831h36M342 832h36M648 832h36M342 833h36M648 833h36M342 834h36M648 834h36M342 835h36M648 835h36M342 836h36M648 836h36M342 837h36M648 837h36M342 838h36M648 838h36M342 839h36M648 839h36M342 840h36M648 840h36M342 841h36M648 841h36M342 842h36M648 842h36M342 843h36M648 843h36M342 844h36M648 844h36M342 845h36M648 845h36M324 846h54M648 846h36M324 847h54M648 847h36M324 848h54M648 848h36M324 849h54M648 849h36M324 850h54M648 850h36M324 851h54M648 851h36M324 852h54M648 852h36M324 853h54M648 853h36M324 854h54M648 854h36M324 855h54M648 855h36M324 856h54M648 856h36M324 857h54M648 857h36M324 858h54M648 858h36M324 859h54M648 859h36M324 860h54M648 860h36M324 861h54M648 861h36M324 862h54M648 862h36M324 863h54M648 863h36M324 864h54M630 864h36M324 865h54M630 865h36M324 866h54M630 866h36M324 867h54M630 867h36M324 868h54M630 868h36M324 869h54M630 869h36M324 870h54M630 870h36M324 871h54M630 871h36M324 872h54M630 872h36M324 873h54M630 873h36M324 874h54M630 874h36M324 875h54M630 875h36M324 876h54M630 876h36M324 877h54M630 877h36M324 878h54M630 878h36M324 879h54M630 879h36M324 880h54M630 880h36M324 881h54M630 881h36M324 882h36M630 882h36M324 883h36M630 883h36M324 884h36M630 884h36M324 885h36M630 885h36M324 886h36M630 886h36M324 887h36M630 887h36M324 888h36M630 888h36M324 889h36M630 889h36M324 890h36M630 890h36M324 891h36M630 891h36M324 892h36M630 892h36M324 893h36M630 893h36M324 894h36M630 894h36M324 895h36M630 895h36M324 896h36M630 896h36M324 897h36M630 897h36M324 898h36M630 898h36M324 899h36M630 899h36M324 900h36M630 900h36M324 901h36M630 901h36M324 902h36M630 902h36M324 903h36M630 903h36M324 904h36M630 904h36M324 905h36M630 905h36M324 906h36M630 906h36M324 907h36M630 907h36M324 908h36M630 908h36M324 909h36M630 909h36M324 910h36M630 910h36M324 911h36M630 911h36M324 912h36M630 912h36M324 913h36M630 913h36M324 914h36M630 914h36M324 915h36M630 915h36M324 916h36M630 916h36M324 917h36M630 917h36M306 918h54M630 918h36M306 919h54M630 919h36M306 920h54M630 920h36M306 921h54M630 921h36M306 922h54M630 922h36M306 923h54M630 923h36M306 924h54M630 924h36M306 925h54M630 925h36M306 926h54M630 926h36M306 927h54M630 927h36M306 928h54M630 928h36M306 929h54M630 929h36M306 930h54M630 930h36M306 931h54M630 931h36M306 932h54M630 932h36M306 933h54M630 933h36M306 934h54M630 934h36M306 935h54M630 935h36M306 936h36M630 936h36M306 937h36M630 937h36M306 938h36M630 938h36M306 939h36M630 939h36M306 940h36M630 940h36M306 941h36M630 941h36M306 942h36M630 942h36M306 943h36M630 943h36M306 944h36M630 944h36M306 945h36M630 945h36M306 946h36M630 946h36M306 947h36M630 947h36M306 948h36M630 948h36M306 949h36M630 949h36M306 950h36M630 950h36M306 951h36M630 951h36M306 952h36M630 952h36M306 953h36M630 953h36M306 954h36M630 954h36M306 955h36M630 955h36M306 956h36M630 956h36M306 957h36M630 957h36M306 958h36M630 958h36M306 959h36M630 959h36M306 960h36M630 960h36M306 961h36M630 961h36M306 962h36M630 962h36M306 963h36M630 963h36M306 964h36M630 964h36M306 965h36M630 965h36M306 966h36M630 966h36M306 967h36M630 967h36M306 968h36M630 968h36M306 969h36M630 969h36M306 970h36M630 970h36M306 971h36M630 971h36M306 972h36M630 972h36M306 973h36M630 973h36M306 974h36M630 974h36M306 975h36M630 975h36M306 976h36M630 976h36M306 977h36M630 977h36M306 978h36M630 978h36M306 979h36M630 979h36M306 980h36M630 980h36M306 981h36M630 981h36M306 982h36M630 982h36M306 983h36M630 983h36M306 984h36M630 984h36M306 985h36M630 985h36M306 986h36M630 986h36M306 987h36M630 987h36M306 988h36M630 988h36M306 989h36M630 989h36M306 990h360M306 991h360M306 992h360M306 993h360M306 994h360M306 995h360M306 996h360M306 997h360M306 998h360M306 999h360M306 1000h360M306 1001h360M306 1002h360M306 1003h360M306 1004h360M306 1005h360M306 1006h360M306 1007h360M306 1008h360M306 1009h360M306 1010h360M306 1011h360M306 1012h360M306 1013h360M306 1014h360M306 1015h360M306 1016h360M306 1017h360M306 1018h360M306 1019h360M306 1020h360M306 1021h360M306 1022h360M306 1023h360M306 1024h360M306 1025h360" />
<path stroke="#ff8066" d="M432 180h72M432 181h72M432 182h72M432 183h72M432 184h72M432 185h72M432 186h72M432 187h72M432 188h72M432 189h72M432 190h72M432 191h72M432 192h72M432 193h72M432 194h72M432 195h72M432 196h72M432 197h72M360 198h90M360 199h90M360 200h90M360 201h90M360 202h90M360 203h90M360 204h90M360 205h90M360 206h90M360 207h90M360 208h90M360 209h90M360 210h90M360 211h90M360 212h90M360 213h90M360 214h90M360 215h90M324 216h36M900 216h18M324 217h36M900 217h18M324 218h36M900 218h18M324 219h36M900 219h18M324 220h36M900 220h18M324 221h36M900 221h18M324 222h36M900 222h18M324 223h36M900 223h18M324 224h36M900 224h18M324 225h36M900 225h18M324 226h36M900 226h18M324 227h36M900 227h18M324 228h36M900 228h18M324 229h36M900 229h18M324 230h36M900 230h18M324 231h36M900 231h18M324 232h36M900 232h18M324 233h36M900 233h18M306 234h36M900 234h18M306 235h36M900 235h18M306 236h36M900 236h18M306 237h36M900 237h18M306 238h36M900 238h18M306 239h36M900 239h18M306 240h36M900 240h18M306 241h36M900 241h18M306 242h36M900 242h18M306 243h36M900 243h18M306 244h36M900 244h18M306 245h36M900 245h18M306 246h36M900 246h18M306 247h36M900 247h18M306 248h36M900 248h18M306 249h36M900 249h18M306 250h36M900 250h18M306 251h36M900 251h18M162 252h18M828 252h90M162 253h18M828 253h90M162 254h18M828 254h90M162 255h18M828 255h90M162 256h18M828 256h90M162 257h18M828 257h90M162 258h18M828 258h90M162 259h18M828 259h90M162 260h18M828 260h90M162 261h18M828 261h90M162 262h18M828 262h90M162 263h18M828 263h90M162 264h18M828 264h90M162 265h18M828 265h90M162 266h18M828 266h90M162 267h18M828 267h90M162 268h18M828 268h90M162 269h18M828 269h90M162 270h18M738 270h108M162 271h18M738 271h108M162 272h18M738 272h108M162 273h18M738 273h108M162 274h18M738 274h108M162 275h18M738 275h108M162 276h18M738 276h108M162 277h18M738 277h108M162 278h18M738 278h108M162 279h18M738 279h108M162 280h18M738 280h108M162 281h18M738 281h108M162 282h18M738 282h108M162 283h18M738 283h108M162 284h18M738 284h108M162 285h18M738 285h108M162 286h18M738 286h108M162 287h18M738 287h108M162 288h18M162 289h18M162 290h18M162 291h18M162 292h18M162 293h18M162 294h18M162 295h18M162 296h18M162 297h18M162 298h18M162 299h18M162 300h18M162 301h18M162 302h18M162 303h18M162 304h18M162 305h18M162 306h18M162 307h18M162 308h18M162 309h18M162 310h18M162 311h18M162 312h18M162 313h18M162 314h18M162 315h18M162 316h18M162 317h18M162 318h18M162 319h18M162 320h18M162 321h18M162 322h18M162 323h18M162 324h18M162 325h18M162 326h18M162 327h18M162 328h18M162 329h18M162 330h18M162 331h18M162 332h18M162 333h18M162 334h18M162 335h18M162 336h18M162 337h18M162 338h18M162 339h18M162 340h18M162 341h18M162 342h18M162 343h18M162 344h18M162 345h18M162 346h18M162 347h18M162 348h18M162 349h18M162 350h18M162 351h18M162 352h18M162 353h18M162 354h18M162 355h18M162 356h18M162 357h18M162 358h18M162 359h18M162 360h18M162 361h18M162 362h18M162 363h18M162 364h18M162 365h18M162 366h18M162 367h18M162 368h18M162 369h18M162 370h18M162 371h18M162 372h18M162 373h18M162 374h18M162 375h18M162 376h18M162 377h18M162 378h18M162 379h18M162 380h18M162 381h18M162 382h18M162 383h18M162 384h18M162 385h18M162 386h18M162 387h18M162 388h18M162 389h18M162 390h18M162 391h18M162 392h18M162 393h18M162 394h18M162 395h18M162 396h18M162 397h18M162 398h18M162 399h18M162 400h18M162 401h18M162 402h18M162 403h18M162 404h18M162 405h18M162 406h18M162 407h18M162 408h18M162 409h18M162 410h18M162 411h18M162 412h18M162 413h18M162 414h18M684 414h36M162 415h18M684 415h36M162 416h18M684 416h36M162 417h18M684 417h36M162 418h18M684 418h36M162 419h18M684 419h36M162 420h18M684 420h36M162 421h18M684 421h36M162 422h18M684 422h36M162 423h18M684 423h36M162 424h18M684 424h36M162 425h18M684 425h36M162 426h18M684 426h36M162 427h18M684 427h36M162 428h18M684 428h36M162 429h18M684 429h36M162 430h18M684 430h36M162 431h18M684 431h36M162 432h18M666 432h36M162 433h18M666 433h36M162 434h18M666 434h36M162 435h18M666 435h36M162 436h18M666 436h36M162 437h18M666 437h36M162 438h18M666 438h36M162 439h18M666 439h36M162 440h18M666 440h36M162 441h18M666 441h36M162 442h18M666 442h36M162 443h18M666 443h36M162 444h18M666 444h36M162 445h18M666 445h36M162 446h18M666 446h36M162 447h18M666 447h36M162 448h18M666 448h36M162 449h18M666 449h36M648 450h36M648 451h36M648 452h36M648 453h36M648 454h36M648 455h36M648 456h36M648 457h36M648 458h36M648 459h36M648 460h36M648 461h36M648 462h36M648 463h36M648 464h36M648 465h36M648 466h36M648 467h36M630 468h36M630 469h36M630 470h36M630 471h36M630 472h36M630 473h36M630 474h36M630 475h36M630 476h36M630 477h36M630 478h36M630 479h36M630 480h36M630 481h36M630 482h36M630 483h36M630 484h36M630 485h36M612 486h36M612 487h36M612 488h36M612 489h36M612 490h36M612 491h36M612 492h36M612 493h36M612 494h36M612 495h36M612 496h36M612 497h36M612 498h36M612 499h36M612 500h36M612 501h36M612 502h36M612 503h36M576 504h54M576 505h54M576 506h54M576 507h54M576 508h54M576 509h54M576 510h54M576 511h54M576 512h54M576 513h54M576 514h54M576 515h54M576 516h54M576 517h54M576 518h54M576 519h54M576 520h54M576 521h54M558 522h36M558 523h36M558 524h36M558 525h36M558 526h36M558 527h36M558 528h36M558 529h36M558 530h36M558 531h36M558 532h36M558 533h36M558 534h36M558 535h36M558 536h36M558 537h36M558 538h36M558 539h36M540 540h36M540 541h36M540 542h36M540 543h36M540 544h36M540 545h36M540 546h36M540 547h36M540 548h36M540 549h36M540 550h36M540 551h36M540 552h36M540 553h36M540 554h36M540 555h36M540 556h36M540 557h36M522 558h36M522 559h36M522 560h36M522 561h36M522 562h36M522 563h36M522 564h36M522 565h36M522 566h36M522 567h36M522 568h36M522 569h36M522 570h36M522 571h36M522 572h36M522 573h36M522 574h36M522 575h36M504 576h36M504 577h36M504 578h36M504 579h36M504 580h36M504 581h36M504 582h36M504 583h36M504 584h36M504 585h36M504 586h36M504 587h36M504 588h36M504 589h36M504 590h36M504 591h36M504 592h36M504 593h36M504 594h18M504 595h18M504 596h18M504 597h18M504 598h18M504 599h18M504 600h18M504 601h18M504 602h18M504 603h18M504 604h18M504 605h18M504 606h18M504 607h18M504 608h18M504 609h18M504 610h18M504 611h18M486 612h36M486 613h36M486 614h36M486 615h36M486 616h36M486 617h36M486 618h36M486 619h36M486 620h36M486 621h36M486 622h36M486 623h36M486 624h36M486 625h36M486 626h36M486 627h36M486 628h36M486 629h36M468 630h36M468 631h36M468 632h36M468 633h36M468 634h36M468 635h36M468 636h36M468 637h36M468 638h36M468 639h36M468 640h36M468 641h36M468 642h36M468 643h36M468 644h36M468 645h36M468 646h36M468 647h36M450 648h36M450 649h36M450 650h36M450 651h36M450 652h36M450 653h36M450 654h36M450 655h36M450 656h36M450 657h36M450 658h36M450 659h36M450 660h36M450 661h36M450 662h36M450 663h36M450 664h36M450 665h36M450 666h18M450 667h18M450 668h18M450 669h18M450 670h18M450 671h18M450 672h18M450 673h18M450 674h18M450 675h18M450 676h18M450 677h18M450 678h18M450 679h18M450 680h18M450 681h18M450 682h18M450 683h18M432 684h36M432 685h36M432 686h36M432 687h36M432 688h36M432 689h36M432 690h36M432 691h36M432 692h36M432 693h36M432 694h36M432 695h36M432 696h36M432 697h36M432 698h36M432 699h36M432 700h36M432 701h36M414 702h36M414 703h36M414 704h36M414 705h36M414 706h36M414 707h36M414 708h36M414 709h36M414 710h36M414 711h36M414 712h36M414 713h36M414 714h36M414 715h36M414 716h36M414 717h36M414 718h36M414 719h36M414 720h18M414 721h18M414 722h18M414 723h18M414 724h18M414 725h18M414 726h18M414 727h18M414 728h18M414 729h18M414 730h18M414 731h18M414 732h18M414 733h18M414 734h18M414 735h18M414 736h18M414 737h18M414 738h18M414 739h18M414 740h18M414 741h18M414 742h18M414 743h18M414 744h18M414 745h18M414 746h18M414 747h18M414 748h18M414 749h18M414 750h18M414 751h18M414 752h18M414 753h18M414 754h18M414 755h18M396 756h36M396 757h36M396 758h36M396 759h36M396 760h36M396 761h36M396 762h36M396 763h36M396 764h36M396 765h36M396 766h36M396 767h36M396 768h36M396 769h36M396 770h36M396 771h36M396 772h36M396 773h36M396 774h18M396 775h18M396 776h18M396 777h18M396 778h18M396 779h18M396 780h18M396 781h18M396 782h18M396 783h18M396 784h18M396 785h18M396 786h18M396 787h18M396 788h18M396 789h18M396 790h18M396 791h18M378 792h36M378 793h36M378 794h36M378 795h36M378 796h36M378 797h36M378 798h36M378 799h36M378 800h36M378 801h36M378 802h36M378 803h36M378 804h36M378 805h36M378 806h36M378 807h36M378 808h36M378 809h36M378 810h18M378 811h18M378 812h18M378 813h18M378 814h18M378 815h18M378 816h18M378 817h18M378 818h18M378 819h18M378 820h18M378 821h18M378 822h18M378 823h18M378 824h18M378 825h18M378 826h18M378 827h18M378 828h18M378 829h18M378 830h18M378 831h18M378 832h18M378 833h18M378 834h18M378 835h18M378 836h18M378 837h18M378 838h18M378 839h18M378 840h18M378 841h18M378 842h18M378 843h18M378 844h18M378 845h18M378 846h18M378 847h18M378 848h18M378 849h18M378 850h18M378 851h18M378 852h18M378 853h18M378 854h18M378 855h18M378 856h18M378 857h18M378 858h18M378 859h18M378 860h18M378 861h18M378 862h18M378 863h18M378 864h18M378 865h18M378 866h18M378 867h18M378 868h18M378 869h18M378 870h18M378 871h18M378 872h18M378 873h18M378 874h18M378 875h18M378 876h18M378 877h18M378 878h18M378 879h18M378 880h18M378 881h18M360 882h36M360 883h36M360 884h36M360 885h36M360 886h36M360 887h36M360 888h36M360 889h36M360 890h36M360 891h36M360 892h36M360 893h36M360 894h36M360 895h36M360 896h36M360 897h36M360 898h36M360 899h36M360 900h18M360 901h18M360 902h18M360 903h18M360 904h18M360 905h18M360 906h18M360 907h18M360 908h18M360 909h18M360 910h18M360 911h18M360 912h18M360 913h18M360 914h18M360 915h18M360 916h18M360 917h18M360 918h18M360 919h18M360 920h18M360 921h18M360 922h18M360 923h18M360 924h18M360 925h18M360 926h18M360 927h18M360 928h18M360 929h18M360 930h18M360 931h18M360 932h18M360 933h18M360 934h18M360 935h18M342 936h36M342 937h36M342 938h36M342 939h36M342 940h36M342 941h36M342 942h36M342 943h36M342 944h36M342 945h36M342 946h36M342 947h36M342 948h36M342 949h36M342 950h36M342 951h36M342 952h36M342 953h36" />
<path stroke="#b71c1c" d="M450 198h54M450 199h54M450 200h54M450 201h54M450 202h54M450 203h54M450 204h54M450 205h54M450 206h54M450 207h54M450 208h54M450 209h54M450 210h54M450 211h54M450 212h54M450 213h54M450 214h54M450 215h54M360 216h198M360 217h198M360 218h198M360 219h198M360 220h198M360 221h198M360 222h198M360 223h198M360 224h198M360 225h198M360 226h198M360 227h198M360 228h198M360 229h198M360 230h198M360 231h198M360 232h198M360 233h198M342 234h306M342 235h306M342 236h306M342 237h306M342 238h306M342 239h306M342 240h306M342 241h306M342 242h306M342 243h306M342 244h306M342 245h306M342 246h306M342 247h306M342 248h306M342 249h306M342 250h306M342 251h306M180 252h36M306 252h360M180 253h36M306 253h360M180 254h36M306 254h360M180 255h36M306 255h360M180 256h36M306 256h360M180 257h36M306 257h360M180 258h36M306 258h360M180 259h36M306 259h360M180 260h36M306 260h360M180 261h36M306 261h360M180 262h36M306 262h360M180 263h36M306 263h360M180 264h36M306 264h360M180 265h36M306 265h360M180 266h36M306 266h360M180 267h36M306 267h360M180 268h36M306 268h360M180 269h36M306 269h360M180 270h36M252 270h486M846 270h90M180 271h36M252 271h486M846 271h90M180 272h36M252 272h486M846 272h90M180 273h36M252 273h486M846 273h90M180 274h36M252 274h486M846 274h90M180 275h36M252 275h486M846 275h90M180 276h36M252 276h486M846 276h90M180 277h36M252 277h486M846 277h90M180 278h36M252 278h486M846 278h90M180 279h36M252 279h486M846 279h90M180 280h36M252 280h486M846 280h90M180 281h36M252 281h486M846 281h90M180 282h36M252 282h486M846 282h90M180 283h36M252 283h486M846 283h90M180 284h36M252 284h486M846 284h90M180 285h36M252 285h486M846 285h90M180 286h36M252 286h486M846 286h90M180 287h36M252 287h486M846 287h90M180 288h774M180 289h774M180 290h774M180 291h774M180 292h774M180 293h774M180 294h774M180 295h774M180 296h774M180 297h774M180 298h774M180 299h774M180 300h774M180 301h774M180 302h774M180 303h774M180 304h774M180 305h774M180 306h792M180 307h792M180 308h792M180 309h792M180 310h792M180 311h792M180 312h792M180 313h792M180 314h792M180 315h792M180 316h792M180 317h792M180 318h792M180 319h792M180 320h792M180 321h792M180 322h792M180 323h792M180 324h792M180 325h792M180 326h792M180 327h792M180 328h792M180 329h792M180 330h792M180 331h792M180 332h792M180 333h792M180 334h792M180 335h792M180 336h792M180 337h792M180 338h792M180 339h792M180 340h792M180 341h792M180 342h144M450 342h504M180 343h144M450 343h504M180 344h144M450 344h504M180 345h144M450 345h504M180 346h144M450 346h504M180 347h144M450 347h504M180 348h144M450 348h504M180 349h144M450 349h504M180 350h144M450 350h504M180 351h144M450 351h504M180 352h144M450 352h504M180 353h144M450 353h504M180 354h144M450 354h504M180 355h144M450 355h504M180 356h144M450 356h504M180 357h144M450 357h504M180 358h144M450 358h504M180 359h144M450 359h504M180 360h108M486 360h432M180 361h108M486 361h432M180 362h108M486 362h432M180 363h108M486 363h432M180 364h108M486 364h432M180 365h108M486 365h432M180 366h108M486 366h432M180 367h108M486 367h432M180 368h108M486 368h432M180 369h108M486 369h432M180 370h108M486 370h432M180 371h108M486 371h432M180 372h108M486 372h432M180 373h108M486 373h432M180 374h108M486 374h432M180 375h108M486 375h432M180 376h108M486 376h432M180 377h108M486 377h432M180 378h72M540 378h108M738 378h144M180 379h72M540 379h108M738 379h144M180 380h72M540 380h108M738 380h144M180 381h72M540 381h108M738 381h144M180 382h72M540 382h108M738 382h144M180 383h72M540 383h108M738 383h144M180 384h72M540 384h108M738 384h144M180 385h72M540 385h108M738 385h144M180 386h72M540 386h108M738 386h144M180 387h72M540 387h108M738 387h144M180 388h72M540 388h108M738 388h144M180 389h72M540 389h108M738 389h144M180 390h72M540 390h108M738 390h144M180 391h72M540 391h108M738 391h144M180 392h72M540 392h108M738 392h144M180 393h72M540 393h108M738 393h144M180 394h72M540 394h108M738 394h144M180 395h72M540 395h108M738 395h144M180 396h72M720 396h162M180 397h72M720 397h162M180 398h72M720 398h162M180 399h72M720 399h162M180 400h72M720 400h162M180 401h72M720 401h162M180 402h72M720 402h162M180 403h72M720 403h162M180 404h72M720 404h162M180 405h72M720 405h162M180 406h72M720 406h162M180 407h72M720 407h162M180 408h72M720 408h162M180 409h72M720 409h162M180 410h72M720 410h162M180 411h72M720 411h162M180 412h72M720 412h162M180 413h72M720 413h162M180 414h72M720 414h144M180 415h72M720 415h144M180 416h72M720 416h144M180 417h72M720 417h144M180 418h72M720 418h144M180 419h72M720 419h144M180 420h72M720 420h144M180 421h72M720 421h144M180 422h72M720 422h144M180 423h72M720 423h144M180 424h72M720 424h144M180 425h72M720 425h144M180 426h72M720 426h144M180 427h72M720 427h144M180 428h72M720 428h144M180 429h72M720 429h144M180 430h72M720 430h144M180 431h72M720 431h144M180 432h72M702 432h144M180 433h72M702 433h144M180 434h72M702 434h144M180 435h72M702 435h144M180 436h72M702 436h144M180 437h72M702 437h144M180 438h72M702 438h144M180 439h72M702 439h144M180 440h72M702 440h144M180 441h72M702 441h144M180 442h72M702 442h144M180 443h72M702 443h144M180 444h72M702 444h144M180 445h72M702 445h144M180 446h72M702 446h144M180 447h72M702 447h144M180 448h72M702 448h144M180 449h72M702 449h144M684 450h144M684 451h144M684 452h144M684 453h144M684 454h144M684 455h144M684 456h144M684 457h144M684 458h144M684 459h144M684 460h144M684 461h144M684 462h144M684 463h144M684 464h144M684 465h144M684 466h144M684 467h144M666 468h144M666 469h144M666 470h144M666 471h144M666 472h144M666 473h144M666 474h144M666 475h144M666 476h144M666 477h144M666 478h144M666 479h144M666 480h144M666 481h144M666 482h144M666 483h144M666 484h144M666 485h144M648 486h162M648 487h162M648 488h162M648 489h162M648 490h162M648 491h162M648 492h162M648 493h162M648 494h162M648 495h162M648 496h162M648 497h162M648 498h162M648 499h162M648 500h162M648 501h162M648 502h162M648 503h162M630 504h162M630 505h162M630 506h162M630 507h162M630 508h162M630 509h162M630 510h162M630 511h162M630 512h162M630 513h162M630 514h162M630 515h162M630 516h162M630 517h162M630 518h162M630 519h162M630 520h162M630 521h162M594 522h198M594 523h198M594 524h198M594 525h198M594 526h198M594 527h198M594 528h198M594 529h198M594 530h198M594 531h198M594 532h198M594 533h198M594 534h198M594 535h198M594 536h198M594 537h198M594 538h198M594 539h198M576 540h198M576 541h198M576 542h198M576 543h198M576 544h198M576 545h198M576 546h198M576 547h198M576 548h198M576 549h198M576 550h198M576 551h198M576 552h198M576 553h198M576 554h198M576 555h198M576 556h198M576 557h198M558 558h198M558 559h198M558 560h198M558 561h198M558 562h198M558 563h198M558 564h198M558 565h198M558 566h198M558 567h198M558 568h198M558 569h198M558 570h198M558 571h198M558 572h198M558 573h198M558 574h198M558 575h198M540 576h198M540 577h198M540 578h198M540 579h198M540 580h198M540 581h198M540 582h198M540 583h198M540 584h198M540 585h198M540 586h198M540 587h198M540 588h198M540 589h198M540 590h198M540 591h198M540 592h198M540 593h198M522 594h198M522 595h198M522 596h198M522 597h198M522 598h198M522 599h198M522 600h198M522 601h198M522 602h198M522 603h198M522 604h198M522 605h198M522 606h198M522 607h198M522 608h198M522 609h198M522 610h198M522 611h198M522 612h198M522 613h198M522 614h198M522 615h198M522 616h198M522 617h198M522 618h198M522 619h198M522 620h198M522 621h198M522 622h198M522 623h198M522 624h198M522 625h198M522 626h198M522 627h198M522 628h198M522 629h198M504 630h198M504 631h198M504 632h198M504 633h198M504 634h198M504 635h198M504 636h198M504 637h198M504 638h198M504 639h198M504 640h198M504 641h198M504 642h198M504 643h198M504 644h198M504 645h198M504 646h198M504 647h198M486 648h216M486 649h216M486 650h216M486 651h216M486 652h216M486 653h216M486 654h216M486 655h216M486 656h216M486 657h216M486 658h216M486 659h216M486 660h216M486 661h216M486 662h216M486 663h216M486 664h216M486 665h216M468 666h216M468 667h216M468 668h216M468 669h216M468 670h216M468 671h216M468 672h216M468 673h216M468 674h216M468 675h216M468 676h216M468 677h216M468 678h216M468 679h216M468 680h216M468 681h216M468 682h216M468 683h216M468 684h216M468 685h216M468 686h216M468 687h216M468 688h216M468 689h216M468 690h216M468 691h216M468 692h216M468 693h216M468 694h216M468 695h216M468 696h216M468 697h216M468 698h216M468 699h216M468 700h216M468 701h216M450 702h216M450 703h216M450 704h216M450 705h216M450 706h216M450 707h216M450 708h216M450 709h216M450 710h216M450 711h216M450 712h216M450 713h216M450 714h216M450 715h216M450 716h216M450 717h216M450 718h216M450 719h216M432 720h234M432 721h234M432 722h234M432 723h234M432 724h234M432 725h234M432 726h234M432 727h234M432 728h234M432 729h234M432 730h234M432 731h234M432 732h234M432 733h234M432 734h234M432 735h234M432 736h234M432 737h234M432 738h216M432 739h216M432 740h216M432 741h216M432 742h216M432 743h216M432 744h216M432 745h216M432 746h216M432 747h216M432 748h216M432 749h216M432 750h216M432 751h216M432 752h216M432 753h216M432 754h216M432 755h216M432 756h216M432 757h216M432 758h216M432 759h216M432 760h216M432 761h216M432 762h216M432 763h216M432 764h216M432 765h216M432 766h216M432 767h216M432 768h216M432 769h216M432 770h216M432 771h216M432 772h216M432 773h216M414 774h216M414 775h216M414 776h216M414 777h216M414 778h216M414 779h216M414 780h216M414 781h216M414 782h216M414 783h216M414 784h216M414 785h216M414 786h216M414 787h216M414 788h216M414 789h216M414 790h216M414 791h216M414 792h216M414 793h216M414 794h216M414 795h216M414 796h216M414 797h216M414 798h216M414 799h216M414 800h216M414 801h216M414 802h216M414 803h216M414 804h216M414 805h216M414 806h216M414 807h216M414 808h216M414 809h216M396 810h234M396 811h234M396 812h234M396 813h234M396 814h234M396 815h234M396 816h234M396 817h234M396 818h234M396 819h234M396 820h234M396 821h234M396 822h234M396 823h234M396 824h234M396 825h234M396 826h234M396 827h234M396 828h234M396 829h234M396 830h234M396 831h234M396 832h234M396 833h234M396 834h234M396 835h234M396 836h234M396 837h234M396 838h234M396 839h234M396 840h234M396 841h234M396 842h234M396 843h234M396 844h234M396 845h234M396 846h216M396 847h216M396 848h216M396 849h216M396 850h216M396 851h216M396 852h216M396 853h216M396 854h216M396 855h216M396 856h216M396 857h216M396 858h216M396 859h216M396 860h216M396 861h216M396 862h216M396 863h216M396 864h216M396 865h216M396 866h216M396 867h216M396 868h216M396 869h216M396 870h216M396 871h216M396 872h216M396 873h216M396 874h216M396 875h216M396 876h216M396 877h216M396 878h216M396 879h216M396 880h216M396 881h216M396 882h216M396 883h216M396 884h216M396 885h216M396 886h216M396 887h216M396 888h216M396 889h216M396 890h216M396 891h216M396 892h216M396 893h216M396 894h216M396 895h216M396 896h216M396 897h216M396 898h216M396 899h216M378 900h234M378 901h234M378 902h234M378 903h234M378 904h234M378 905h234M378 906h234M378 907h234M378 908h234M378 909h234M378 910h234M378 911h234M378 912h234M378 913h234M378 914h234M378 915h234M378 916h234M378 917h234M378 918h234M378 919h234M378 920h234M378 921h234M378 922h234M378 923h234M378 924h234M378 925h234M378 926h234M378 927h234M378 928h234M378 929h234M378 930h234M378 931h234M378 932h234M378 933h234M378 934h234M378 935h234M378 936h234M378 937h234M378 938h234M378 939h234M378 940h234M378 941h234M378 942h234M378 943h234M378 944h234M378 945h234M378 946h234M378 947h234M378 948h234M378 949h234M378 950h234M378 951h234M378 952h234M378 953h234" />
<path stroke="#990030" d="M504 198h72M504 199h72M504 200h72M504 201h72M504 202h72M504 203h72M504 204h72M504 205h72M504 206h72M504 207h72M504 208h72M504 209h72M504 210h72M504 211h72M504 212h72M504 213h72M504 214h72M504 215h72M558 216h90M558 217h90M558 218h90M558 219h90M558 220h90M558 221h90M558 222h90M558 223h90M558 224h90M558 225h90M558 226h90M558 227h90M558 228h90M558 229h90M558 230h90M558 231h90M558 232h90M558 233h90M162 234h72M648 234h36M918 234h36M162 235h72M648 235h36M918 235h36M162 236h72M648 236h36M918 236h36M162 237h72M648 237h36M918 237h36M162 238h72M648 238h36M918 238h36M162 239h72M648 239h36M918 239h36M162 240h72M648 240h36M918 240h36M162 241h72M648 241h36M918 241h36M162 242h72M648 242h36M918 242h36M162 243h72M648 243h36M918 243h36M162 244h72M648 244h36M918 244h36M162 245h72M648 245h36M918 245h36M162 246h72M648 246h36M918 246h36M162 247h72M648 247h36M918 247h36M162 248h72M648 248h36M918 248h36M162 249h72M648 249h36M918 249h36M162 250h72M648 250h36M918 250h36M162 251h72M648 251h36M918 251h36M216 252h18M252 252h54M666 252h90M918 252h36M216 253h18M252 253h54M666 253h90M918 253h36M216 254h18M252 254h54M666 254h90M918 254h36M216 255h18M252 255h54M666 255h90M918 255h36M216 256h18M252 256h54M666 256h90M918 256h36M216 257h18M252 257h54M666 257h90M918 257h36M216 258h18M252 258h54M666 258h90M918 258h36M216 259h18M252 259h54M666 259h90M918 259h36M216 260h18M252 260h54M666 260h90M918 260h36M216 261h18M252 261h54M666 261h90M918 261h36M216 262h18M252 262h54M666 262h90M918 262h36M216 263h18M252 263h54M666 263h90M918 263h36M216 264h18M252 264h54M666 264h90M918 264h36M216 265h18M252 265h54M666 265h90M918 265h36M216 266h18M252 266h54M666 266h90M918 266h36M216 267h18M252 267h54M666 267h90M918 267h36M216 268h18M252 268h54M666 268h90M918 268h36M216 269h18M252 269h54M666 269h90M918 269h36M216 270h36M936 270h36M216 271h36M936 271h36M216 272h36M936 272h36M216 273h36M936 273h36M216 274h36M936 274h36M216 275h36M936 275h36M216 276h36M936 276h36M216 277h36M936 277h36M216 278h36M936 278h36M216 279h36M936 279h36M216 280h36M936 280h36M216 281h36M936 281h36M216 282h36M936 282h36M216 283h36M936 283h36M216 284h36M936 284h36M216 285h36M936 285h36M216 286h36M936 286h36M216 287h36M936 287h36M954 288h36M954 289h36M954 290h36M954 291h36M954 292h36M954 293h36M954 294h36M954 295h36M954 296h36M954 297h36M954 298h36M954 299h36M954 300h36M954 301h36M954 302h36M954 303h36M954 304h36M954 305h36M972 306h18M972 307h18M972 308h18M972 309h18M972 310h18M972 311h18M972 312h18M972 313h18M972 314h18M972 315h18M972 316h18M972 317h18M972 318h18M972 319h18M972 320h18M972 321h18M972 322h18M972 323h18M972 324h36M972 325h36M972 326h36M972 327h36M972 328h36M972 329h36M972 330h36M972 331h36M972 332h36M972 333h36M972 334h36M972 335h36M972 336h36M972 337h36M972 338h36M972 339h36M972 340h36M972 341h36M324 342h126M954 342h36M324 343h126M954 343h36M324 344h126M954 344h36M324 345h126M954 345h36M324 346h126M954 346h36M324 347h126M954 347h36M324 348h126M954 348h36M324 349h126M954 349h36M324 350h126M954 350h36M324 351h126M954 351h36M324 352h126M954 352h36M324 353h126M954 353h36M324 354h126M954 354h36M324 355h126M954 355h36M324 356h126M954 356h36M324 357h126M954 357h36M324 358h126M954 358h36M324 359h126M954 359h36M288 360h54M432 360h54M918 360h54M288 361h54M432 361h54M918 361h54M288 362h54M432 362h54M918 362h54M288 363h54M432 363h54M918 363h54M288 364h54M432 364h54M918 364h54M288 365h54M432 365h54M918 365h54M288 366h54M432 366h54M918 366h54M288 367h54M432 367h54M918 367h54M288 368h54M432 368h54M918 368h54M288 369h54M432 369h54M918 369h54M288 370h54M432 370h54M918 370h54M288 371h54M432 371h54M918 371h54M288 372h54M432 372h54M918 372h54M288 373h54M432 373h54M918 373h54M288 374h54M432 374h54M918 374h54M288 375h54M432 375h54M918 375h54M288 376h54M432 376h54M918 376h54M288 377h54M432 377h54M918 377h54M252 378h54M468 378h72M648 378h90M882 378h72M252 379h54M468 379h72M648 379h90M882 379h72M252 380h54M468 380h72M648 380h90M882 380h72M252 381h54M468 381h72M648 381h90M882 381h72M252 382h54M468 382h72M648 382h90M882 382h72M252 383h54M468 383h72M648 383h90M882 383h72M252 384h54M468 384h72M648 384h90M882 384h72M252 385h54M468 385h72M648 385h90M882 385h72M252 386h54M468 386h72M648 386h90M882 386h72M252 387h54M468 387h72M648 387h90M882 387h72M252 388h54M468 388h72M648 388h90M882 388h72M252 389h54M468 389h72M648 389h90M882 389h72M252 390h54M468 390h72M648 390h90M882 390h72M252 391h54M468 391h72M648 391h90M882 391h72M252 392h54M468 392h72M648 392h90M882 392h72M252 393h54M468 393h72M648 393h90M882 393h72M252 394h54M468 394h72M648 394h90M882 394h72M252 395h54M468 395h72M648 395h90M882 395h72M252 396h18M522 396h144M702 396h18M882 396h36M252 397h18M522 397h144M702 397h18M882 397h36M252 398h18M522 398h144M702 398h18M882 398h36M252 399h18M522 399h144M702 399h18M882 399h36M252 400h18M522 400h144M702 400h18M882 400h36M252 401h18M522 401h144M702 401h18M882 401h36M252 402h18M522 402h144M702 402h18M882 402h36M252 403h18M522 403h144M702 403h18M882 403h36M252 404h18M522 404h144M702 404h18M882 404h36M252 405h18M522 405h144M702 405h18M882 405h36M252 406h18M522 406h144M702 406h18M882 406h36M252 407h18M522 407h144M702 407h18M882 407h36M252 408h18M522 408h144M702 408h18M882 408h36M252 409h18M522 409h144M702 409h18M882 409h36M252 410h18M522 410h144M702 410h18M882 410h36M252 411h18M522 411h144M702 411h18M882 411h36M252 412h18M522 412h144M702 412h18M882 412h36M252 413h18M522 413h144M702 413h18M882 413h36M252 414h18M864 414h36M252 415h18M864 415h36M252 416h18M864 416h36M252 417h18M864 417h36M252 418h18M864 418h36M252 419h18M864 419h36M252 420h18M864 420h36M252 421h18M864 421h36M252 422h18M864 422h36M252 423h18M864 423h36M252 424h18M864 424h36M252 425h18M864 425h36M252 426h18M864 426h36M252 427h18M864 427h36M252 428h18M864 428h36M252 429h18M864 429h36M252 430h18M864 430h36M252 431h18M864 431h36M252 432h18M846 432h36M252 433h18M846 433h36M252 434h18M846 434h36M252 435h18M846 435h36M252 436h18M846 436h36M252 437h18M846 437h36M252 438h18M846 438h36M252 439h18M846 439h36M252 440h18M846 440h36M252 441h18M846 441h36M252 442h18M846 442h36M252 443h18M846 443h36M252 444h18M846 444h36M252 445h18M846 445h36M252 446h18M846 446h36M252 447h18M846 447h36M252 448h18M846 448h36M252 449h18M846 449h36M162 450h108M828 450h36M162 451h108M828 451h36M162 452h108M828 452h36M162 453h108M828 453h36M162 454h108M828 454h36M162 455h108M828 455h36M162 456h108M828 456h36M162 457h108M828 457h36M162 458h108M828 458h36M162 459h108M828 459h36M162 460h108M828 460h36M162 461h108M828 461h36M162 462h108M828 462h36M162 463h108M828 463h36M162 464h108M828 464h36M162 465h108M828 465h36M162 466h108M828 466h36M162 467h108M828 467h36M162 468h108M810 468h36M162 469h108M810 469h36M162 470h108M810 470h36M162 471h108M810 471h36M162 472h108M810 472h36M162 473h108M810 473h36M162 474h108M810 474h36M162 475h108M810 475h36M162 476h108M810 476h36M162 477h108M810 477h36M162 478h108M810 478h36M162 479h108M810 479h36M162 480h108M810 480h36M162 481h108M810 481h36M162 482h108M810 482h36M162 483h108M810 483h36M162 484h108M810 484h36M162 485h108M810 485h36M810 486h18M810 487h18M810 488h18M810 489h18M810 490h18M810 491h18M810 492h18M810 493h18M810 494h18M810 495h18M810 496h18M810 497h18M810 498h18M810 499h18M810 500h18M810 501h18M810 502h18M810 503h18M792 504h36M792 505h36M792 506h36M792 507h36M792 508h36M792 509h36M792 510h36M792 511h36M792 512h36M792 513h36M792 514h36M792 515h36M792 516h36M792 517h36M792 518h36M792 519h36M792 520h36M792 521h36M792 522h18M792 523h18M792 524h18M792 525h18M792 526h18M792 527h18M792 528h18M792 529h18M792 530h18M792 531h18M792 532h18M792 533h18M792 534h18M792 535h18M792 536h18M792 537h18M792 538h18M792 539h18M774 540h36M774 541h36M774 542h36M774 543h36M774 544h36M774 545h36M774 546h36M774 547h36M774 548h36M774 549h36M774 550h36M774 551h36M774 552h36M774 553h36M774 554h36M774 555h36M774 556h36M774 557h36M756 558h36M756 559h36M756 560h36M756 561h36M756 562h36M756 563h36M756 564h36M756 565h36M756 566h36M756 567h36M756 568h36M756 569h36M756 570h36M756 571h36M756 572h36M756 573h36M756 574h36M756 575h36M738 576h36M738 577h36M738 578h36M738 579h36M738 580h36M738 581h36M738 582h36M738 583h36M738 584h36M738 585h36M738 586h36M738 587h36M738 588h36M738 589h36M738 590h36M738 591h36M738 592h36M738 593h36M720 594h36M720 595h36M720 596h36M720 597h36M720 598h36M720 599h36M720 600h36M720 601h36M720 602h36M720 603h36M720 604h36M720 605h36M720 606h36M720 607h36M720 608h36M720 609h36M720 610h36M720 611h36M720 612h36M720 613h36M720 614h36M720 615h36M720 616h36M720 617h36M720 618h36M720 619h36M720 620h36M720 621h36M720 622h36M720 623h36M720 624h36M720 625h36M720 626h36M720 627h36M720 628h36M720 629h36M702 630h36M702 631h36M702 632h36M702 633h36M702 634h36M702 635h36M702 636h36M702 637h36M702 638h36M702 639h36M702 640h36M702 641h36M702 642h36M702 643h36M702 644h36M702 645h36M702 646h36M702 647h36M702 648h18M702 649h18M702 650h18M702 651h18M702 652h18M702 653h18M702 654h18M702 655h18M702 656h18M702 657h18M702 658h18M702 659h18M702 660h18M702 661h18M702 662h18M702 663h18M702 664h18M702 665h18M684 666h36M684 667h36M684 668h36M684 669h36M684 670h36M684 671h36M684 672h36M684 673h36M684 674h36M684 675h36M684 676h36M684 677h36M684 678h36M684 679h36M684 680h36M684 681h36M684 682h36M684 683h36M684 684h18M684 685h18M684 686h18M684 687h18M684 688h18M684 689h18M684 690h18M684 691h18M684 692h18M684 693h18M684 694h18M684 695h18M684 696h18M684 697h18M684 698h18M684 699h18M684 700h18M684 701h18M666 702h36M666 703h36M666 704h36M666 705h36M666 706h36M666 707h36M666 708h36M666 709h36M666 710h36M666 711h36M666 712h36M666 713h36M666 714h36M666 715h36M666 716h36M666 717h36M666 718h36M666 719h36M666 720h18M666 721h18M666 722h18M666 723h18M666 724h18M666 725h18M666 726h18M666 727h18M666 728h18M666 729h18M666 730h18M666 731h18M666 732h18M666 733h18M666 734h18M666 735h18M666 736h18M666 737h18M648 738h36M648 739h36M648 740h36M648 741h36M648 742h36M648 743h36M648 744h36M648 745h36M648 746h36M648 747h36M648 748h36M648 749h36M648 750h36M648 751h36M648 752h36M648 753h36M648 754h36M648 755h36M648 756h18M648 757h18M648 758h18M648 759h18M648 760h18M648 761h18M648 762h18M648 763h18M648 764h18M648 765h18M648 766h18M648 767h18M648 768h18M648 769h18M648 770h18M648 771h18M648 772h18M648 773h18M630 774h36M630 775h36M630 776h36M630 777h36M630 778h36M630 779h36M630 780h36M630 781h36M630 782h36M630 783h36M630 784h36M630 785h36M630 786h36M630 787h36M630 788h36M630 789h36M630 790h36M630 791h36M630 792h18M630 793h18M630 794h18M630 795h18M630 796h18M630 797h18M630 798h18M630 799h18M630 800h18M630 801h18M630 802h18M630 803h18M630 804h18M630 805h18M630 806h18M630 807h18M630 808h18M630 809h18M630 810h18M630 811h18M630 812h18M630 813h18M630 814h18M630 815h18M630 816h18M630 817h18M630 818h18M630 819h18M630 820h18M630 821h18M630 822h18M630 823h18M630 824h18M630 825h18M630 826h18M630 827h18M630 828h18M630 829h18M630 830h18M630 831h18M630 832h18M630 833h18M630 834h18M630 835h18M630 836h18M630 837h18M630 838h18M630 839h18M630 840h18M630 841h18M630 842h18M630 843h18M630 844h18M630 845h18M612 846h36M612 847h36M612 848h36M612 849h36M612 850h36M612 851h36M612 852h36M612 853h36M612 854h36M612 855h36M612 856h36M612 857h36M612 858h36M612 859h36M612 860h36M612 861h36M612 862h36M612 863h36M612 864h18M612 865h18M612 866h18M612 867h18M612 868h18M612 869h18M612 870h18M612 871h18M612 872h18M612 873h18M612 874h18M612 875h18M612 876h18M612 877h18M612 878h18M612 879h18M612 880h18M612 881h18M612 882h18M612 883h18M612 884h18M612 885h18M612 886h18M612 887h18M612 888h18M612 889h18M612 890h18M612 891h18M612 892h18M612 893h18M612 894h18M612 895h18M612 896h18M612 897h18M612 898h18M612 899h18M612 900h18M612 901h18M612 902h18M612 903h18M612 904h18M612 905h18M612 906h18M612 907h18M612 908h18M612 909h18M612 910h18M612 911h18M612 912h18M612 913h18M612 914h18M612 915h18M612 916h18M612 917h18M612 918h18M612 919h18M612 920h18M612 921h18M612 922h18M612 923h18M612 924h18M612 925h18M612 926h18M612 927h18M612 928h18M612 929h18M612 930h18M612 931h18M612 932h18M612 933h18M612 934h18M612 935h18M612 936h18M612 937h18M612 938h18M612 939h18M612 940h18M612 941h18M612 942h18M612 943h18M612 944h18M612 945h18M612 946h18M612 947h18M612 948h18M612 949h18M612 950h18M612 951h18M612 952h18M612 953h18M342 954h288M342 955h288M342 956h288M342 957h288M342 958h288M342 959h288M342 960h288M342 961h288M342 962h288M342 963h288M342 964h288M342 965h288M342 966h288M342 967h288M342 968h288M342 969h288M342 970h288M342 971h288M342 972h288M342 973h288M342 974h288M342 975h288M342 976h288M342 977h288M342 978h288M342 979h288M342 980h288M342 981h288M342 982h288M342 983h288M342 984h288M342 985h288M342 986h288M342 987h288M342 988h288M342 989h288" />
</svg>